<?xml version="1.0" encoding="UTF-8"?>
<svg id="Capa_1" data-name="Capa 1" xmlns="http://www.w3.org/2000/svg" viewBox="0 0 115.52 124.14">
  <defs>
    <style>
      .cls-1 {
        fill: #262a2d;
      }

      .cls-2 {
        fill: #292a2f;
      }

      .cls-3 {
        fill: #27292e;
      }

      .cls-4 {
        fill: #292a30;
      }

      .cls-5 {
        fill: #292a2c;
      }

      .cls-6 {
        fill: #292b2f;
      }

      .cls-7 {
        fill: #282b2f;
      }
    </style>
  </defs>
  <path class="cls-5" d="M58.84,14.78q.06,0,.13,0c.12,0,.24,0,.36.01.07,0,.14,0,.21,0,.15.01.27.03.41.07.12,0,.24,0,.37,0,.06,0,.13,0,.19,0q.07,0,.15,0v.12s.08,0,.12,0c.17,0,.35.01.52.02.06,0,.12,0,.18,0,.32.01.62.04.93.12.2.05.39.06.59.09q.48.06.72.12c.23.06.45.08.68.1q.12.01.18.07c.1.01.19.02.29.03q.29.02.35.09c.1.02.2.03.3.05.4.06.78.16,1.16.27.12.03.23.06.35.09.35.09.7.19,1.04.31.16.05.33.09.49.13.25.06.46.14.69.26.09.03.19.05.28.08.28.08.55.17.82.26q.09.03.18.06.96.32,1.26.51c.15.08.28.13.44.17.22.06.39.14.58.26.27.13.54.24.81.35.3.12.59.26.88.41.11.05.22.11.33.16.09.04.17.09.26.13v.12s.07.02.1.02c.21.06.4.17.6.27.13.06.25.13.38.19.11.05.21.11.32.16v.12c.06.01.11.02.17.04.25.07.44.2.65.35q.11.08.23.14v.12s.08.03.12.04c.37.16.68.39,1,.64.1.07.21.14.32.19.17.09.3.2.44.33.17.15.33.27.53.37.37.21.69.46.99.77q.08.05.16.1c.23.15.42.33.63.5.24.21.48.42.73.6.06.04.12.09.18.14v.12q.05.02.1.05c.13.07.23.15.33.25q.06.05.11.11s.08.07.12.11c.08.07.15.15.23.22.04.03.07.07.11.1.09.08.18.16.28.23.04.03.08.06.12.1v.12s.07.03.1.04c.16.1.25.22.37.37l.12.06v.12h.12q.09.09.19.21s.07.08.11.13c.04.04.07.09.11.13.03.04.07.08.1.12q.05.05.1.11s.06.06.09.1q.06.08.06.2h.12v.12h.12v.12s.07.03.1.04c.15.08.24.17.35.3.04.04.07.08.11.12q.08.12.08.29h.12q.09.09.18.2s.06.07.1.11q.07.1.07.22c.06.02.12.04.18.06q.23.31.23.53l.23.12v.12h.12v.18h.12v.12h.12q.1.12.21.28c.04.05.07.1.11.16q.09.14.09.32h.12q.12.18.12.35h.12c.1.12.19.24.27.37.03.04.05.07.08.11.19.28.38.56.55.84.07.12.15.23.23.34q.09.15.09.32h.12q.05.09.11.19c.07.12.14.23.22.34q.08.11.13.27c.07.2.17.36.28.54.32.51.61,1.02.84,1.57.03.04.06.09.08.13.1.17.16.33.23.52.15.4.32.78.5,1.17.09.2.14.36.12.58h.12q.04.1.08.21c.06.16.12.31.19.46.09.21.15.42.21.64.05.17.11.33.18.49.09.23.13.41.11.66h.12s.02.1.04.15c.02.06.03.13.05.19q.02.1.05.19t.1.28c0,.12,0,.23,0,.35h.12s.02.09.04.14c.02.06.03.12.05.18q.02.09.05.18.03.14.1.2c.03.14.06.29.09.43q.05.29.15.56c.02.08.03.16.04.24,0,.05.01.1.02.14.01.1.03.2.04.3.03.23.07.46.13.68.04.17.07.33.08.51.02.19.04.35.09.53.06.25.06.44.05.69l.06.06c.13.43.14.88.16,1.32,0,.05,0,.09,0,.14q0,.06,0,.13,0,.11.07.22c.02.25.03.49.03.74,0,.04,0,.08,0,.12.03.89.03,1.77.03,2.66,0,.07,0,.14,0,.21,0,.68,0,1.35-.03,2.03,0,.05,0,.1,0,.15q-.02.33-.08.46c0,.1,0,.2,0,.3,0,.45-.03.84-.2,1.26-.04.16-.04.31-.03.48,0,.23-.05.45-.09.68q-.01.07-.02.14-.06.35-.13.41c-.02.14-.04.27-.06.41-.02.04-.04.08-.06.12-.02.15-.04.29-.05.44-.04.33-.09.64-.2.95-.04.13-.07.26-.1.39-.1.45-.22.88-.37,1.31-.06.18-.11.35-.16.53-.02.06-.04.12-.06.18h-.12q0,.1.01.2c0,.25-.08.42-.19.65-.07.16-.11.32-.15.49-.07.29-.17.54-.31.8-.1.2-.17.4-.25.6h-.12c0,.06,0,.13-.01.19-.04.34-.19.62-.34.92-.02.04-.04.08-.06.12-.04.07-.07.15-.11.22-.12.25-.24.51-.35.77h-.12s0,.07-.01.11c-.1.43-.33.81-.54,1.19-.11.21-.22.41-.32.62h-.12v.18h-.12s-.01.08-.02.13c-.04.18-.11.31-.21.48-.03.05-.06.1-.09.16-.03.04-.06.08-.09.12h-.12s-.01.07-.02.1c-.04.15-.11.27-.19.41-.03.05-.05.09-.08.14-.02.04-.04.07-.06.11h-.12s-.01.06-.02.1c-.05.17-.12.3-.21.44-.03.05-.06.1-.09.16-.03.04-.06.08-.09.12h-.12s-.03.09-.05.14q-.07.16-.18.33h-.12v.12h-.12s0,.05-.01.1c-.06.19-.16.32-.27.47-.04.06-.08.12-.13.17q-.06.07-.11.13h-.12v.18h-.12v.12h-.12s-.02.09-.03.14c-.11.28-.28.51-.49.73h-.12v.12h-.12v.12h-.12v.12h-.12s-.02.1-.03.15c-.11.26-.27.43-.49.61h-.12s-.03.08-.04.13c-.08.18-.17.31-.31.46h-.12v.12h-.12c-.04.1-.08.19-.12.29h-.12s-.04.07-.05.11l-.12.24h-.12v.12q-.11.12-.23.23h-.12v.12h-.12c-.04.1-.08.19-.12.29h-.12q-.02.05-.05.1c-.07.13-.15.25-.24.37h-.12c-.04.1-.08.19-.12.29h-.12v.12h-.12v.12h-.12l-.06.23h-.12c-.04.1-.08.19-.12.29h-.12v.12h-.12c-.04.08-.08.15-.12.23h-.12s-.01.07-.02.1c-.05.16-.12.27-.21.41-.03.05-.06.09-.09.14-.03.04-.06.07-.09.11h-.12s-.03.09-.05.14q-.07.16-.18.33h-.12s-.02.07-.03.11q-.03.12-.09.24h-.12s-.02.07-.02.1c-.06.21-.16.39-.26.58-.02.04-.04.08-.06.12-.04.08-.08.16-.12.24-.1.2-.2.39-.3.59h-.12s-.02.08-.02.13c-.04.17-.08.34-.14.5-.09.31-.19.61-.28.92q-.02.06-.03.11c-.04.13-.07.26-.11.39-.02.06-.03.12-.05.17-.13.54-.15,1.05-.15,1.6,0,.14,0,.29,0,.43,0,.09,0,.19,0,.28,0,.04,0,.08,0,.13,0,.29.06.55.13.83.01.12.03.25.03.37q0,.23.08.45c0,.15.01.3.01.46q0,.07,0,.13-.01,1.05-.19,1.22c-.02.1-.03.19-.05.29-.06.32-.16.58-.3.88-.03.07-.06.14-.09.22-.09.2-.2.36-.32.54-.06.12-.12.23-.18.35-.04.06-.08.12-.12.18h-.12v.12h-.12l-.05.1c-.06.12-.12.24-.18.37h-.12v.12h-.12v.12q-.09.09-.2.18-.05.05-.11.1-.1.07-.22.07v.12h-.12c-.02.06-.04.12-.06.18h-.18v.12q-.92.76-1.34.76v.12c-.22.08-.4.13-.64.12v.18q-.06,0-.11.02s-.1.02-.15.03q-.07.01-.15.03s-.08.03-.12.04c-.02.06-.04.12-.06.18.02.04.04.08.06.12,0,.1,0,.2,0,.3,0,.84.06,1.36.64,1.98.3.45.28,1.06.23,1.58-.05.2-.13.35-.23.53-.03.05-.06.09-.09.14q-.23.36-.39.47-.12.09-.13.24c.01.39.04.78.08,1.17,0,.05,0,.09.01.14.03.22.06.4.17.59v.18h.12s.05.08.07.12c.1.16.18.25.32.38.17.16.24.26.26.5.02.06.04.12.06.19.09.36.12.7-.06,1.04,0,.04,0,.09-.01.14-.07.23-.22.4-.39.57h-.12v.12h-.12v.12s-.08.04-.12.06c0,.32,0,.64,0,.96,0,.11,0,.22,0,.33q0,.77.05,1.53c.03.36.04.73.05,1.09,0,.04,0,.08,0,.13,0,.21.01.43.02.64,0,.14,0,.28.01.42.03.97-.07,1.8-.53,2.68h-.12c-.04.12-.08.23-.12.35h-.12l-.06.23h-.12s-.03.07-.04.1c-.28.48-1.13.78-1.63.97-.22.04-.43.07-.66.08q-.13,0-.24.07c-.11.02-.23.04-.34.06q-.26.04-.51.09c-.14.03-.27.03-.42.03-.08,0-.17,0-.25,0-.02.02-.04.04-.06.06-.42.06-.81.06-1.23,0v.12c-.21.04-.42.08-.64.12v-.18h-.18c-.01.06-.03.11-.04.17-.08.21-.11.21-.31.3q-.07.11-.12.23c-.04.06-.08.12-.12.18h-.12s-.03.06-.04.09c-.13.24-.27.49-.48.66h-.12v.12h-.12v.12h-.12s0,.07-.01.1c-.06.17-.14.24-.28.37-.04.04-.09.09-.13.13-.05.05-.11.11-.16.16-.04.04-.08.08-.12.12q-.06.06-.12.13s-.08.08-.12.12q-.11.09-.28.09v.12h-.12s-.03.07-.04.1c-.1.17-.21.26-.37.37h-.12s-.03.07-.05.11c-.13.24-.3.33-.54.46-.17.11-.32.25-.47.38q-.38.33-.64.33v.12h-.12v.12q-.06.02-.13.04-.17.07-.31.19-.15.12-.31.17c-.22.07-.41.17-.62.28q-.38.2-.51.2v.12c-.07,0-.14.01-.22.02-.16.01-.23.03-.36.12-.15.11-.28.14-.45.19q-.2.04-.37.14c-.07,0-.14.02-.2.03-.07.01-.14.02-.2.03-.02.04-.04.08-.06.12-.57.12-1.27.15-1.82-.07-.15-.06-.3-.08-.46-.1v-.12q-.06,0-.12.01c-.25-.02-.43-.13-.64-.25v-.12h-.23v-.12c-.12-.01-.23-.02-.35-.03q-.12-.02-.29-.14v-.12h-.23v-.12s-.07-.01-.1-.02c-.29-.08-.46-.17-.66-.39-.04-.02-.08-.04-.12-.06v-.12s-.09-.02-.14-.03c-.28-.11-.51-.28-.73-.49v-.12c-.08-.02-.15-.04-.23-.06v-.18h-.12v-.12c-.05-.01-.1-.03-.16-.04-.22-.09-.32-.19-.49-.37q-.09-.07-.18-.15c-.17-.14-.32-.28-.47-.44v-.12s-.07-.03-.11-.05c-.13-.07-.21-.14-.3-.24-.03-.03-.06-.07-.09-.1q-.05-.05-.1-.11-.05-.05-.1-.11-.24-.26-.24-.39c-.08-.04-.15-.08-.23-.12v-.12h-.12q-.29-.31-.29-.53h-.12v-.12h-.18v-.12h-.23c-.02-.08-.04-.15-.06-.23q-.07,0-.14,0-.16,0-.33-.12c-.15,0-.29,0-.43,0q-1.12.02-1.38-.11c-.15-.01-.31-.02-.46-.03q-.45-.02-.65-.09c-.21-.02-.43-.03-.64-.04q-.18-.02-.24-.07c-.06,0-.11,0-.17.01-.26,0-.46-.08-.7-.18-.27-.1-.54-.17-.82-.25-.15-.05-.28-.1-.41-.17v-.12h-.12v-.12s-.09-.01-.14-.02c-.17-.04-.23-.08-.33-.22v-.12h-.12v-.12h-.12v-.12h-.12v-.12c-.06-.02-.12-.04-.18-.06v-.18h-.12c-.02-.05-.04-.11-.07-.16-.09-.21-.19-.4-.29-.6-.13-.26-.21-.47-.23-.76-.02-.02-.04-.04-.06-.06-.07-.36-.06-.72-.05-1.09,0-.06,0-.13,0-.2,0-.28.01-.55.02-.83,0-.2,0-.4.01-.6,0-.06,0-.12,0-.19,0-.31.01-.6-.05-.9q-.11-.07-.23-.12c-.37-.45-.38-1.08-.35-1.64.04-.19.09-.35.18-.53.02-.06.05-.12.07-.18q.02-.06.05-.11h.12q.02-.07.05-.14.07-.16.16-.24c.11-.12.11-.18.11-.34q0-.08,0-.15c0-.05,0-.11,0-.16,0-.06,0-.11,0-.17,0-.18,0-.35,0-.53,0-.12,0-.24,0-.36,0-.29,0-.59.01-.88h-.12v-.12h-.12c-.04-.12-.08-.23-.12-.35h-.12c-.27-.44-.37-.83-.37-1.35,0-.05,0-.09,0-.14,0-.34.06-.56.25-.85h.12s0-.08,0-.12c.05-.19.1-.23.23-.36.28-.36.22-.8.22-1.23,0-.09,0-.18,0-.28,0-.24,0-.48,0-.72,0-.29,0-.59,0-.88,0-.23,0-.46,0-.69,0-.04,0-.08,0-.13,0-.11,0-.23,0-.34q0-.17.07-.29-.05-.01-.11-.02-.13-.04-.3-.15v-.12c-.05,0-.1-.01-.15-.02-.21-.04-.34-.11-.52-.22-.18-.11-.34-.19-.55-.23v-.12s-.09-.02-.14-.03c-.3-.12-.54-.3-.8-.49-.06-.04-.12-.08-.18-.12v-.12s-.08-.03-.13-.04c-.2-.09-.31-.21-.46-.37-.02-.06-.04-.12-.06-.18-.04-.02-.07-.03-.11-.05-.16-.09-.17-.19-.24-.36-.08-.04-.16-.08-.23-.12-.26-.26-.41-.56-.57-.9q-.07-.16-.19-.27v-.18h-.12c-.08-.23-.16-.47-.23-.7-.01-.04-.02-.07-.04-.11-.29-.86-.49-1.7-.28-2.6.04-.21.03-.41.02-.62q0-.11.06-.17c0-.16,0-.33,0-.49,0-.05,0-.09,0-.14q0-.25-.07-.48c-.01-.16-.02-.31-.03-.47q-.01-.66-.2-1.28c0-.06-.01-.12-.02-.18-.03-.27-.14-.5-.25-.74-.06-.15-.11-.29-.16-.44-.09-.29-.22-.56-.35-.84-.02-.05-.04-.09-.07-.14-.14-.3-.3-.55-.5-.81-.05-.08-.09-.16-.14-.25-.15-.28-.34-.53-.53-.79q-.09-.13-.09-.25h-.12c-.04-.1-.08-.19-.12-.29h-.12v-.12h-.12c-.08-.09-.15-.18-.22-.28-.13-.17-.24-.3-.4-.43-.13-.1-.19-.17-.26-.32-.08-.15-.12-.21-.26-.32-.17-.14-.26-.28-.37-.48-.1-.16-.23-.28-.36-.41-.09-.1-.18-.19-.27-.29q-.07-.07-.13-.15-.36-.41-.36-.56h-.12v-.12c-.08-.04-.15-.08-.23-.12v-.12c-.06-.02-.12-.04-.18-.06q-.04-.12-.06-.23h-.12l-.06-.23h-.12v-.12h-.12q-.23-.26-.23-.41h-.12q-.09-.1-.18-.23-.05-.06-.1-.13-.07-.11-.07-.23c-.06-.02-.12-.04-.18-.06q-.07-.15-.12-.29h-.12v-.18h-.12c-.02-.08-.04-.15-.06-.23h-.12q-.11-.12-.23-.27c-.04-.05-.08-.1-.12-.15q-.11-.16-.17-.32s-.04-.09-.06-.13c-.08-.02-.16-.04-.23-.06q-.07-.1-.13-.23s-.04-.08-.06-.13q-.04-.11-.04-.23h-.12q-.12-.18-.12-.35h-.12c-.18-.16-.33-.3-.41-.53v-.23h-.12c-.06-.08-.11-.16-.17-.25-.09-.14-.2-.28-.3-.41q-.06-.1-.06-.33h-.12q-.03-.06-.05-.11-.06-.13-.18-.18c-.09-.17-.17-.33-.25-.5-.11-.23-.23-.41-.39-.61-.05-.09-.1-.18-.15-.27-.07-.14-.14-.26-.23-.38-.1-.13-.14-.27-.2-.43-.1-.24-.23-.47-.36-.71-.1-.18-.19-.35-.26-.54-.07-.17-.15-.28-.26-.43-.04-.09-.08-.19-.12-.28-.08-.2-.16-.4-.24-.59-.07-.16-.13-.33-.19-.49-.09-.23-.18-.45-.31-.67-.12-.2-.18-.37-.22-.59-.04-.14-.09-.26-.16-.39-.1-.21-.13-.37-.11-.61h-.12c-.08-.27-.15-.54-.2-.82q-.03-.13-.15-.29c-.02-.1-.04-.19-.06-.29-.04-.16-.09-.31-.14-.47-.01-.04-.03-.08-.04-.13q-.07-.24-.18-.46c-.1-.22-.1-.47-.13-.71-.03-.17-.06-.31-.12-.47-.11-.32-.17-.64-.22-.97l-.03-.18q-.07-.44-.07-.64h-.12c0-.06-.01-.12-.02-.18-.05-.44-.12-.88-.18-1.32-.05-.36-.1-.72-.12-1.09q-.02-.17-.08-.38c-.07-.27-.07-.52-.06-.79,0-.09,0-.18,0-.27,0-.04,0-.08,0-.12q0-.11-.03-.21c-.04-.18-.04-.36-.04-.55,0-.04,0-.08,0-.12,0-.13,0-.27,0-.4,0-.09,0-.19,0-.28,0-.2,0-.39,0-.59,0-.25,0-.5,0-.75,0-.19,0-.39,0-.58,0-.09,0-.19,0-.28,0-.13,0-.26,0-.39,0-.07,0-.15,0-.22q0-.18.07-.35c0-.1,0-.19,0-.29-.02-.61.06-1.21.15-1.82,0-.05.01-.09.02-.14q.12-.77.19-.92c0-.09.01-.18.02-.27,0-.05,0-.1,0-.16,0-.05,0-.11,0-.17,0-.06,0-.11,0-.17,0-.14.01-.27.02-.41.08-.04.15-.08.23-.12,0-.05,0-.09,0-.14,0-.06,0-.12,0-.18q0-.09,0-.18,0-.15.06-.27c0-.1.01-.21.02-.31.02-.33.1-.61.22-.92.09-.27.15-.55.2-.83.04-.19.11-.36.17-.54.12-.32.21-.65.29-.98.04-.16.1-.3.16-.45.03-.09.05-.18.08-.27.13-.43.28-.85.45-1.26.09-.23.16-.45.23-.69h.12v-.12h.12c0-.07,0-.13.01-.2.04-.29.15-.53.28-.79.05-.1.09-.2.14-.3.48-1.03,1.01-2.03,1.56-3.03h.12s.03-.09.04-.14c.1-.26.23-.49.37-.73h.12s.02-.07.03-.11q.03-.12.09-.24h.12q.02-.08.05-.15c.07-.2.16-.36.28-.54.04-.06.07-.11.11-.17.03-.04.06-.08.1-.13h.12s.03-.08.04-.12c.08-.19.18-.35.31-.52h.12s.03-.08.04-.12c.09-.21.21-.39.34-.57.02-.03.05-.07.07-.11.06-.09.13-.17.19-.26h.12s.03-.07.05-.11q.07-.13.18-.3h.12s.02-.05.04-.09c.1-.19.22-.38.37-.55h.12v-.12h.12v-.12h.12q.02-.06.04-.13c.09-.19.2-.32.34-.48.05-.05.09-.1.14-.16q.12-.12.24-.12v-.12h.12v-.12h.12s.03-.08.04-.12c.1-.21.24-.35.41-.52t.1-.1c.07-.07.14-.13.2-.2.1-.1.21-.21.31-.31.07-.07.13-.13.2-.2.03-.03.06-.06.09-.09q.22-.22.35-.22v-.12q.26-.23.41-.23v-.12h.12v-.12h.12v-.12h.12s.03-.07.04-.1c.09-.16.19-.23.33-.34.05-.03.09-.07.14-.1q.13-.09.26-.16.11-.04.15-.16c.11-.2.29-.31.48-.42h.12v-.12h.12v-.12h.23v-.12h.12v-.12h.12v-.12q.14-.06.29-.12v-.12q.1-.08.23-.15s.08-.05.13-.08q.11-.06.23-.06v-.12h.18v-.12c.1-.04.19-.08.29-.12v-.12h.18v-.12h.12v-.12c.06-.03.12-.07.18-.1.21-.12.4-.24.6-.37q.1-.06.22-.06v-.12h.23v-.12h.12v-.12h.18v-.12c.09-.05.19-.1.28-.15q.08-.04.16-.08.14-.06.26-.06v-.12c.15-.09.23-.12.41-.12v-.12q.39-.23.58-.23v-.12c.07-.03.13-.06.2-.09q.6-.27,1.17-.61c.16-.1.33-.16.5-.23.09-.05.18-.09.27-.14q.88-.45,1.25-.45v-.12c.09-.04.18-.08.28-.12.05-.02.1-.04.16-.07q.15-.05.38-.05v-.12q.09-.03.18-.06c.08-.03.16-.05.24-.08.04-.01.08-.02.12-.04.19-.06.38-.13.56-.21.18-.07.32-.11.51-.12.05,0,.1,0,.15-.01q.06,0,.11,0v-.12c.17-.09.34-.15.52-.2.33-.09.65-.19.97-.3.24-.08.47-.12.72-.14v-.12c.27-.11.52-.14.81-.16.04,0,.08-.01.12-.02.02-.04.04-.08.06-.12.21-.05.32-.07.53,0,.05-.03.1-.05.15-.08.22-.1.39-.12.63-.14q.43-.02.8-.19c.09,0,.19-.01.28-.02.25-.02.45-.07.68-.16.3-.12.54-.13.85-.11.17,0,.32-.02.49-.06.57-.11,1.16-.07,1.74-.06v-.18c1.67-.23,3.41-.14,5.09-.09ZM55.31,19.08c-.05.01-.1.02-.16.03-.04,0-.08.02-.12.03v.12c-.06-.04-.12-.08-.18-.12q-.16-.01-.35,0c-.07,0-.13,0-.2,0q-.11,0-.21.01-.11,0-.21,0-.34,0-.66.09c-.21.02-.42.03-.63.04q-.18,0-.3.07c-.14.01-.28.02-.42.03q-.11,0-.23.01c-.06,0-.12,0-.17.01l.12.12c-.34.14-.62.12-.98.11-.27,0-.46.03-.72.12-.12.02-.23.04-.35.06q-.72.09-1.34.41-.15.02-.33.03-.21,0-.38.08c-.14.02-.27.04-.41.06v.12h-.41v.12q-.07,0-.15-.01c-.2.01-.34.06-.53.13-.29.11-.58.2-.87.3q-.1.03-.2.07c-.16.05-.32.11-.48.16v.12h-.29v.12s-.09,0-.13-.01c-.19.01-.25.07-.39.19q-.16.04-.29.06v.12s-.08.01-.13.02c-.16.03-.29.08-.44.14-.05.02-.1.04-.15.06-.23.1-.46.2-.68.3v.12h-.23v.12h-.23v.12q-.06,0-.13.02c-.19.04-.32.12-.49.21-.2.11-.4.21-.61.3v.12h-.18v.12h-.23v.12h-.23v.12c-.12.04-.23.08-.35.12v.12s-.06.01-.1.02c-.17.05-.32.13-.47.22-.06.03-.12.06-.17.1-.04.02-.09.05-.13.07v.12c-.17.09-.35.16-.53.23v.12h-.12s-.04.08-.06.12c-.13.06-.27.12-.41.18v.12q-.14.06-.29.12v.12s-.09.03-.14.05q-.17.06-.33.18v.12s-.07.03-.1.05c-.18.09-.33.22-.49.34q-.11.08-.29.14v.12h-.12v.12h-.12v.12s-.06,0-.1.01c-.2.07-.29.2-.44.35-.25.26-.5.47-.8.67-.16.11-.29.23-.42.38v.12l-.23.12v.12s-.07.03-.1.04c-.17.1-.29.22-.43.37-.15.15-.3.3-.46.45q-.14.12-.13.25s-.07.03-.11.05c-.13.07-.2.13-.29.24-.03.04-.06.07-.09.11-.11.14-.23.28-.34.42-.16.21-.33.39-.52.58-.08.08-.15.16-.22.24-.04.04-.07.08-.11.12q-.09.1-.08.22h-.12v.12h-.12v.18h-.12q-.11.13-.21.28c-.04.05-.07.11-.11.16q-.1.13-.09.26h-.12q-.09.11-.19.26c-.04.05-.07.11-.11.16-.04.05-.07.11-.11.16-.03.05-.07.1-.1.15q-.18.23-.25.49h-.12c-.12.17-.2.32-.23.53h-.12v.23h-.12c-.14.18-.23.35-.32.56-.09.2-.19.33-.32.49v.18h-.12c-.02.07-.03.13-.05.2-.02.07-.04.14-.07.21l-.12.06c-.09.15-.12.23-.12.41h-.12c-.08.18-.15.36-.23.54-.02.05-.04.1-.07.16-.02.05-.04.1-.06.15-.02.05-.04.09-.06.14-.04.1-.07.2-.11.3h-.12s-.02.07-.04.1c-.02.04-.03.09-.05.13-.02.04-.03.09-.05.13q-.04.11-.1.17c0,.12,0,.23,0,.35h-.12c-.06.13-.11.26-.17.39-.02.04-.03.07-.05.11-.1.22-.16.43-.19.67h-.12c-.02.07-.04.15-.06.22-.03.1-.05.19-.08.29q-.02.07-.04.15c-.07.25-.13.43-.29.63q-.04.13-.07.26s-.02.09-.03.14c-.02.1-.04.19-.05.29q-.03.13-.09.28-.07.15-.05.38h-.12c-.08.24-.12.43-.1.68,0,.33-.13.55-.28.84-.17.35-.15.73-.13,1.11q0,.17-.12.29c-.1.19-.12.33-.12.54v.22l-.12.12c0,.19,0,.39,0,.58q0,.18-.12.35,0,.18,0,.39c0,.33-.03.58-.12.9-.02.15-.03.31-.04.46q-.01.12-.07.24c0,.12,0,.24,0,.36,0,.08,0,.15,0,.23,0,.08,0,.17,0,.25,0,.09,0,.17,0,.26,0,.18,0,.37,0,.55,0,.19,0,.37,0,.56q0,1.41.1,2.81.03.23.02.43-.01.16.12.27,0,.14,0,.29-.01.21.05.41c.02.1.03.2.04.31,0,.06.01.12.02.19.01.13.03.26.04.39.04.31.08.58.19.87.01.1.03.21.03.31q0,.18.08.33c.03.12.06.25.08.38.02.07.03.15.05.22.05.23.09.47.14.7q.02.11.08.16c0,.06.01.12.02.18.03.21.09.39.16.59.08.22.14.45.21.68.01.04.03.09.04.13.05.18.1.34.13.52,0,.04.02.08.03.12.04.02.08.04.12.06q.05.11.09.24s.03.1.05.14c.07.23.13.45.19.68.09.33.22.64.37.95.07.16.13.33.18.5h.12s.01.08.02.12c.03.15.07.28.12.42q.02.06.04.12.05.12.23.16c0,.05,0,.11,0,.16.04.29.19.54.32.79q.08.16.14.33h.12s.02.07.03.11c.03.1.06.2.09.3h.12v.23h.12v.23h.12s0,.06.01.09c.06.19.17.33.28.49.06.12.12.23.17.35.09.18.19.35.29.53h.12s0,.05.01.09c.06.2.18.36.29.54.05.07.1.15.14.22.02.04.05.07.07.11.08.13.16.25.24.38.04.06.08.12.12.18h.12l.06.18h.12s.01.08.02.13c.04.18.11.31.22.46h.12l.23.47h.12v.12h.12s.03.08.04.12c.09.2.2.35.33.52.04.06.09.12.13.18.13.17.28.31.43.46l.06.12h.12s.03.09.04.13c.08.18.18.29.31.44.23.25.45.51.66.79q.05.05.1.11h.12v.12h.12s.03.07.04.1c.1.17.22.29.37.43h.12v.12h.12q.02.06.04.13c.08.18.17.3.3.45.04.05.08.1.13.15q.06.07.12.14s.06.08.09.12c.06.08.13.16.2.23h.12v.12c.07.07.13.14.2.2.13.13.24.27.36.42.03.03.05.05.08.08h.12s.03.08.04.12c.08.19.18.35.31.52h.12s.03.07.05.1c.08.15.15.29.24.43h.12l.12.35h.12v.12h.12v.12h.12v.18h.12s.01.07.02.11c.05.15.1.2.22.3.06.1.12.19.18.29.03.03.06.05.09.08.11.12.15.24.21.38.12.28.28.55.42.82.15.29.28.57.39.88h.12l.12.47h.12s.01.08.02.12c.05.34.14.63.27.94.1.27.17.55.24.84q.05.2.12.39c.05.15.07.29.09.45q0,.17.08.3c.01.12.02.24.03.35q0,.1.01.2s0,.1.01.15c.06.02.12.04.18.06,0,.05,0,.09,0,.14q-.06,1.16-.01,2.31c.03.36.04.73-.13,1.05-.12.26-.09.49-.02.76.05.13.11.24.18.36q.06.1.12.27.04.13.17.18c.06.1.12.19.18.29l.09.09q.08.08.14.26.15.14.35.18v.12c.63.31,1.27.47,1.96.61.13.03.26.06.4.1.19.05.37.07.56.09q.29.02.35.08c.11.01.21.02.32.03q.31.02.44.09c.19.02.38.03.57.04q.31.02.37.08c.08.01.17.02.25.03.14.01.26.03.39.06.16.04.3.03.47.02q.12,0,.22.07c.25.12.54.1.81.11.06,0,.12,0,.19.01.39.02.7-.02,1.06-.18,0-.04,0-.07,0-.11.01-.16.03-.33.04-.49,0-.06.01-.11.02-.17,0-.05.01-.11.02-.17q0-.08.01-.15.02-.14.05-.25c.03-.13.04-.26.05-.4,0-.05,0-.11,0-.16q0-.09,0-.17c0-.06,0-.12,0-.18,0-.19.01-.38.02-.57,0-.19.01-.38.02-.57,0-.12,0-.23.01-.35.01-.3.03-.59.07-.88.02-.15.02-.29.01-.44,0-.06,0-.12,0-.17,0-.12,0-.23,0-.35,0-.32.01-.63.06-.94.09-.64.1-1.28.12-1.93,0-.19.01-.38.02-.57,0-.12,0-.24.01-.35.01-.34.04-.69.07-1.03.03-.43.04-.86.04-1.29,0-.05,0-.1,0-.16,0-.8-.07-1.51-.33-2.27-.07-.2-.11-.39-.16-.59h-.12s0-.09.01-.14c-.02-.23-.08-.38-.19-.59-.07-.16-.11-.32-.15-.49-.05-.21-.11-.42-.18-.62-.1-.32-.18-.64-.26-.96h-.12v-.53h-.12v-.41s-.08-.04-.12-.06c-.04-.16-.08-.31-.11-.47-.07-.33-.16-.62-.3-.93-.05-.16-.1-.33-.15-.49-.01-.04-.03-.09-.04-.13-.06-.22-.12-.44-.17-.66-.04-.18-.1-.34-.17-.52-.12-.29-.19-.58-.25-.88q-.04-.19-.13-.38c-.1-.23-.15-.46-.21-.71-.07-.34-.17-.65-.29-.97-.17-.46-.33-.93-.47-1.4-.02-.06-.04-.13-.06-.19-.05-.19-.1-.37-.15-.56q-.1-.43-.24-.84c-.11-.28-.18-.57-.26-.86h-.12s-.01-.06-.02-.09c-.1-.57-.27-1.13-.49-1.67-.08-.19-.12-.39-.16-.6-.06-.29-.15-.56-.27-.84-.07-.18-.1-.35-.14-.54-.04-.15-.09-.3-.15-.45-.08-.2-.14-.41-.2-.62-.01-.04-.02-.08-.04-.12-.06-.18-.11-.36-.16-.55-.07-.25-.15-.49-.22-.74-.02-.05-.03-.1-.05-.15-.09-.28-.18-.56-.29-.83-.15-.4-.24-.82-.33-1.24-.07-.33-.16-.62-.3-.93q-.05-.12-.05-.3h-.12c-.01-.07-.03-.14-.04-.2-.09-.39-.21-.76-.33-1.14-.08-.24-.15-.49-.22-.73q-.04-.14-.11-.26c-.01-.09-.02-.18-.03-.27q0-.07-.01-.14s0-.07-.01-.11h-.12v-.41h-.12q0-.06.01-.12c-.01-.18-.06-.3-.14-.47-.1-.23-.16-.46-.22-.7-.05-.16-.09-.32-.14-.49q-.02-.06-.04-.13-.21-.71-.44-1.4c-.09-.26-.15-.53-.22-.8-.04-.14-.08-.26-.13-.38-.23-.59-.3-1.26-.26-1.88,0-.04,0-.09,0-.13.02-.26.1-.45.23-.68v-.18h.12q.02-.07.04-.14c.08-.17.13-.2.31-.27.04-.02.08-.04.12-.06v-.12h.12v-.12h.12v-.12s.08,0,.12-.01q.18-.04.35-.17.17-.11.31-.09s.05.02.1.04l.06-.06c.85-.05,1.6.13,2.28.66.1.09.19.18.28.27q.23.25.54.36v.12c.1.08.19.16.29.23.04.04.07.08.11.12.15.13.28.17.47.23v.12h.12c.02.06.04.12.06.18q.09.1.2.19s.08.07.13.11c.18.15.36.29.55.43q.12.09.21.19c.11.11.23.15.37.2v.12h.12q0,.05,0,.1c.09.22.26.26.46.37h.12v.12q.11.09.24.19c.22.16.39.33.55.55.1.1.18.11.31.14.04.08.08.16.12.23.2.19.4.28.66.37q.1.04.22.16c.16.02.31,0,.47,0v-.12h.12c.03-.06.07-.13.11-.19.09-.15.17-.27.3-.39v-.12h.12c.04-.1.08-.19.12-.29h.12c.08-.1.15-.2.22-.3.13-.19.27-.38.42-.55q.13-.13.12-.26h.12c.08-.1.16-.21.24-.31.04-.06.08-.12.13-.18q.11-.14.1-.27h.12l.06-.23h.12q.17-.21.23-.47h.12c.04-.1.08-.19.12-.29h.12c.02-.06.04-.12.06-.18.06-.06.12-.12.18-.18.06-.08.12-.15.18-.23.03-.04.06-.08.09-.12q.08-.12.14-.24.06-.11.2-.22c.16-.13.2-.22.26-.41h.12c.03-.06.07-.12.1-.18.09-.15.18-.29.3-.42q.14-.14.13-.27h.12q.08-.09.16-.22c.41-.56.83-.85,1.51-.98.51-.07,1.07-.02,1.5.3.05.04.11.09.16.14h.18v.12h.12s.03.07.05.1c.08.15.17.28.28.41.04.05.07.09.11.14.03.04.06.07.1.11h.12c.04.12.08.23.12.35h.12c.04.1.08.19.12.29h.12s0,.05.01.09c.07.2.2.33.34.49.17.2.3.4.41.64h.12c.04.12.08.23.12.35h.12v.12s.05.05.1.09c.16.17.25.34.35.54q.07.13.17.22.08.08.14.26h.12s.03.09.05.14c.02.05.05.1.07.15.06.02.12.04.18.06.04.12.08.23.12.35.07.11.15.21.23.31q.07.09.12.27s.07.01.11.02c.04.01.08.03.12.04.04.12.08.23.12.35.09.15.2.29.3.43.1.14.19.28.29.43.06.08.11.17.17.25.03.04.05.08.08.12.13.18.21.27.42.33.15.01.29.02.43.02v-.12s.07-.03.1-.05c.13-.07.22-.14.33-.23.13-.11.26-.23.39-.34.2-.17.38-.35.56-.54q.08-.07.26-.13v-.12h.12v-.12h.12v-.12h.12v-.12h.12v-.12h.12c.06-.06.12-.12.18-.18.04-.02.08-.04.12-.06v-.12c.08-.02.15-.04.23-.06v-.12h.12v-.12h.12v-.12h.12v-.12c.1-.04.19-.08.29-.12v-.12h.12v-.12l.35-.18v-.12h.12v-.12c.1-.04.19-.08.29-.12v-.12h.12v-.12h.12v-.12h.12v-.12c.08-.02.15-.04.23-.06v-.12h.12v-.12h.18q.13-.11.23-.23v-.12h.12v-.12s.08-.03.13-.05c.17-.07.3-.16.44-.28.05-.04.09-.07.14-.11q.05-.05.1-.1v-.12h.18v-.12s.07-.02.1-.02c.13-.03.25-.07.38-.12.04-.01.08-.03.12-.04q.11-.04.16-.16c.33-.12.55-.12.88,0,.1.01.2.02.31.03.32.02.61.1.92.21v.12c.06.03.12.06.18.09.54.31.77.77.95,1.36.16.73.02,1.47-.26,2.15-.09.22-.15.45-.2.69-.03.15-.07.3-.12.45-.04.14-.08.28-.12.42q-.03.11-.09.21-.07.13-.08.31c-.05.29-.16.54-.27.81-.08.2-.12.39-.15.6q-.03.22-.08.27c-.01.12-.03.24-.04.36q-.02.11-.14.23c-.02.12-.04.23-.06.35-.02.07-.04.14-.06.21-.05.18-.07.31-.05.49h-.18c0,.06-.01.12-.02.17-.04.25-.11.48-.19.71-.08.24-.14.44-.14.69h-.12s0,.07,0,.11c-.03.31-.07.59-.17.88q-.02.06-.04.12c-.06.17-.12.35-.18.52-.11.33-.2.66-.28.99-.02.1-.05.19-.08.29-.04.02-.08.04-.12.06q-.03.12-.05.27c-.09.54-.26,1.06-.43,1.58-.11.32-.2.65-.25.98-.03.21-.09.4-.16.6q-.05.13-.07.3s-.02.08-.03.12c-.04.02-.08.04-.12.06.01.03.02.07.03.1.03.18-.03.29-.1.46-.08.23-.13.46-.18.69q-.04.15-.16.27-.03.12-.05.27c-.05.26-.13.48-.25.72-.07.18-.09.34-.11.53-.02.02-.04.04-.06.06,0,.1-.02.2-.02.3-.02.24-.05.42-.16.63-.1.23-.16.48-.22.73-.05.19-.12.37-.19.55-.11.28-.14.53-.16.83h-.12c0,.08-.02.15-.03.23q-.03.23-.09.3c0,.12,0,.23,0,.35h-.12v.35h-.12q-.02.1-.04.21c-.13.69-.3,1.36-.51,2.03-.14.46-.26.91-.33,1.39h-.12c0,.08-.01.15-.02.23-.05.47-.17.9-.33,1.35-.17.5-.33.99-.45,1.5-.04.16-.08.32-.14.47-.07.18-.08.35-.09.54q-.02.12-.14.3-.03.11-.06.23s-.02.09-.03.13c-.02.09-.04.18-.06.28q-.08.34-.2.47c-.03.14-.06.28-.08.42-.06.33-.14.62-.27.93-.06.33-.1.66-.15.99q-.03.18-.09.29c-.01.32,0,.63.03.95.02.28.03.55.03.83,0,.3,0,.59.03.88q0,.06,0,.12c0,.15.02.29.06.43.05.2.05.39.06.59q.02.61.12,1.21c.03.16.03.3.02.46,0,.33.03.65.07.98.1.73.18,1.46.16,2.19,0,.37.08.74.15,1.1.03.21.04.41.05.62.02.4.05.8.08,1.2,0,.05,0,.1.01.16.03.31.07.56.23.83.27.14.54.13.84.13.04,0,.08,0,.13,0,.3,0,.56-.05.84-.13h.29c.05-.02.1-.04.16-.06.22-.07.4-.06.62-.05.2,0,.37-.07.56-.12.19-.04.38-.06.58-.09.1-.01.2-.03.3-.04q.07,0,.13-.02.1-.01.16-.08c.09-.01.18-.02.27-.03.05,0,.1,0,.15-.01.04,0,.07,0,.11-.01v-.12c.29-.04.58-.08.88-.12v-.12c.06,0,.12,0,.18.01.27-.02.36-.1.58-.25.13-.04.26-.06.4-.09.18-.04.32-.12.48-.2v-.12h.12v-.12h.12v-.12h.12c.18-.23.32-.47.35-.76h.12q0-.07.02-.15.04-.2.13-.4c.1-.26.11-.4.08-.68-.06-.1-.11-.2-.18-.29-.03-.14-.05-.27-.06-.41q0-.09-.02-.18c-.02-.28-.05-.57-.04-.85q.01-.21-.12-.37-.02-.16-.01-.35c0-.06,0-.12,0-.18q.02-.17.07-.28c.09-.19.07-.39.06-.6q-.01-.45.05-.58c0-.06,0-.13-.01-.19,0-.3.09-.56.18-.84.1-.3.18-.61.17-.93q0-.07,0-.13s.06-.05.08-.08c.12-.13.12-.26.13-.44.04-.27.14-.51.28-.73.1-.17.15-.32.21-.51.18-.53.47-1.01.74-1.5.11-.2.21-.4.31-.6q.16-.28.29-.35c.04-.14.08-.27.12-.41h.12s.04-.07.06-.11c.03-.05.05-.1.08-.15.03-.05.05-.1.08-.15q.08-.12.19-.18v-.18h.12c.02-.06.04-.12.06-.18.06-.04.12-.08.18-.12v-.18h.12v-.12h.12v-.12h.12c.11-.17.2-.34.29-.53h.12v-.12h.12q.09-.11.18-.25s.06-.09.09-.14c.07-.12.14-.24.2-.37h.12v-.12h.12s0-.07.01-.11q.04-.12.16-.2s.07-.03.11-.04v-.12h.12v-.12h.12c.04-.1.08-.19.12-.29h.12v-.12h.12q.21-.2.29-.47h.12v-.12h.12v-.12h.12c.04-.1.08-.19.12-.29h.12v-.12h.12c.02-.08.04-.15.06-.23h.12v-.12h.12v-.12h.12v-.12h.12c.06-.1.12-.19.18-.29.06-.04.12-.08.18-.12v-.23s.07-.03.11-.04q.13-.06.16-.2s0-.07.01-.11h.12c.04-.1.08-.19.12-.29h.12v-.12h.12q.17-.21.23-.47h.12q.19-.24.23-.53c.06-.02.12-.04.18-.06q.07-.15.12-.29h.12v-.12h.12c.04-.12.08-.23.12-.35h.12s.04-.08.07-.13q.27-.52.45-.72.14-.14.12-.32h.12c.04-.12.08-.23.12-.35h.12q.11-.15.21-.34c.04-.06.07-.13.11-.19q.1-.16.09-.35h.12c.03-.05.05-.1.08-.16.19-.38.38-.75.6-1.11q.24-.39.31-.83h.12q.03-.09.07-.19c.17-.46.36-.91.58-1.35.07-.15.12-.3.17-.45.03-.07.06-.15.08-.22.07-.18.13-.36.18-.55.07-.23.16-.42.26-.64.13-.33.22-.67.3-1.02q.02-.06.03-.13.06-.21.07-.43h.12c.1-.27.16-.53.21-.81q.08-.41.14-.48c.01-.08.02-.16.03-.23q.02-.23.09-.29c0-.13.02-.25.02-.38.02-.35.08-.64.21-.96.06-.17.07-.29.08-.46.02-.25.06-.47.12-.71.09-.37.12-.74.13-1.12q.01-.34.08-.4c0-.11,0-.23,0-.34,0-.07,0-.14,0-.22,0-.08,0-.15,0-.23,0-.55,0-1.09.05-1.64q.05-.54-.02-1.07c-.05-.21-.03-.42-.03-.63,0-.05,0-.1,0-.15,0-.16,0-.31,0-.47,0-.21,0-.41,0-.62q0-.07,0-.14c0-.11,0-.23,0-.34l-.06-.06c0-.15-.02-.3-.02-.46-.02-.37-.07-.7-.17-1.06-.07-.27-.1-.55-.13-.83-.04-.33-.09-.65-.14-.98h-.12s0-.08,0-.13q0-.08,0-.16c0-.05,0-.11,0-.16q0-.13-.06-.19c-.03-.16-.04-.31-.06-.47h-.12c0-.07-.02-.14-.03-.21,0-.04-.01-.09-.02-.13-.01-.11-.02-.22-.03-.33-.04-.22-.12-.37-.22-.57-.06-.14-.05-.25-.05-.4-.05-.13-.12-.26-.18-.4-.07-.16-.1-.31-.11-.48h-.12v-.47h-.12v-.29l-.12-.06c-.03-.12-.05-.25-.08-.37-.06-.23-.16-.43-.26-.64-.06-.14-.12-.28-.17-.42q-.06-.2-.19-.32c-.04-.12-.08-.24-.12-.36-.07-.2-.15-.4-.23-.6-.03-.07-.06-.14-.09-.21-.08-.16-.14-.24-.26-.35q-.07-.19-.12-.35h-.12q-.01-.07-.02-.14-.02-.16-.15-.27c-.02-.12-.04-.23-.06-.35h-.12q-.02-.07-.04-.15c-.09-.22-.19-.36-.34-.55-.17-.23-.35-.49-.41-.78q-.02-.13-.16-.24c-.16-.17-.24-.31-.33-.52-.06-.12-.14-.19-.23-.28q-.01-.05-.02-.11c-.06-.22-.26-.35-.42-.5q-.08-.09-.16-.26c-.12-.22-.26-.32-.45-.47-.04-.1-.08-.19-.12-.29-.06-.02-.12-.04-.18-.06-.04-.1-.08-.19-.12-.29-.12-.23-.27-.41-.44-.6-.12-.14-.22-.3-.32-.45-.04-.06-.08-.12-.12-.18h-.12v-.12h-.12v-.12h-.12v-.12q-.18-.18-.41-.23c-.01-.05-.03-.1-.04-.16-.08-.2-.16-.33-.31-.49h-.12v-.12h-.12v-.12h-.12v-.12q-.1-.1-.23-.2-.23-.19-.3-.32h-.12v-.12h-.12v-.12c-.13-.15-.21-.23-.41-.29-.02-.04-.04-.08-.06-.12h-.12v-.12q-.06-.03-.11-.05-.12-.07-.18-.18h-.12v-.12h-.12v-.12h-.12v-.12h-.12v-.12q-.11-.11-.26-.21-.07-.06-.14-.11-.12-.1-.24-.09v-.12h-.12v-.12h-.12v-.12h-.23v-.12c-.06-.03-.11-.05-.17-.08q-.18-.09-.24-.21h-.12v-.12l-.12-.06q-.06-.05-.11-.09s-.08-.05-.12-.08l-.18.06v-.12h-.12v-.18h-.12v-.12q-.22-.13-.47-.18s-.02-.07-.04-.1c-.11-.18-.25-.26-.43-.37h-.18v-.12c-.12-.04-.23-.08-.35-.12v-.12h-.12v-.12c-.19-.08-.38-.14-.58-.18v-.12q-.11-.09-.25-.18-.07-.05-.14-.1-.13-.09-.31-.07v-.12h-.23v-.12q-.14-.06-.29-.12l-.12.06s-.03-.07-.04-.11q-.06-.13-.19-.15s-.08-.02-.12-.03l-.07-.08c-.13-.13-.27-.18-.44-.25-.06-.03-.12-.05-.19-.08-.14-.05-.28-.1-.42-.13-.05-.02-.11-.03-.16-.05-.02-.06-.04-.12-.06-.18q-.14-.09-.31-.16c-.06-.03-.11-.05-.17-.08q-.17-.07-.4-.06v-.12s-.07-.01-.11-.02c-.05,0-.1-.02-.15-.03q-.07-.01-.15-.03s-.08-.02-.12-.04c-.02-.04-.04-.08-.06-.12h-.23v-.12h-.29v-.12h-.35v-.12q-.05-.01-.1-.02c-.25-.05-.48-.11-.71-.21v.12c-.06-.02-.12-.04-.18-.06.04-.04.08-.08.12-.12h-.29v-.12c-.21-.09-.36-.13-.58-.12v-.12h-.41v-.12h-.35v-.12c-.06,0-.12-.01-.18-.02q-.23-.04-.41-.12c-.25-.11-.51-.16-.77-.22q-.5-.1-.56-.17c-.09,0-.18,0-.27,0-.05,0-.1,0-.15,0-.04,0-.07,0-.11,0v-.12c-.08.02-.15.04-.23.06h.12v.12q-.11-.02-.23-.06s-.04-.08-.06-.12q-.26.03-.53.06v-.12h.35v-.06c-.07,0-.15,0-.22,0-.1,0-.19,0-.29,0q-.07,0-.14,0c-.24,0-.46,0-.69-.06v-.12c.08-.02.15-.04.23-.06-.4,0-.78,0-1.17.06v-.12h.29v-.06c-.06,0-.13,0-.19-.01-.08,0-.16,0-.24-.01-.04,0-.08,0-.13,0q-.31-.02-.38-.08c-.27-.02-.55,0-.82.03-.39.05-.78.05-1.17-.03-.04-.04-.08-.08-.12-.12-.48-.13-.98-.02-1.46.06v-.12c-.22,0-.44,0-.65,0-.06,0-.12,0-.19,0q-.09,0-.18,0c-.05,0-.11,0-.17,0-.17.01-.3.06-.45.13v-.12c-.21,0-.4.01-.6.06ZM57.49,47.72v.12q-.07,0-.13,0c-.28.01-.44.17-.63.36-.13.18-.25.36-.36.54-.09.13-.17.22-.28.33v.12h-.12q-.1.12-.2.27c-.11.17-.23.33-.35.49q-.1.11-.09.23h-.12c-.04.1-.08.19-.12.29h-.12q-.06.17-.12.35h-.12v.12h-.12c-.09.15-.12.23-.12.41-.08.04-.15.08-.23.12v.12s-.07.02-.1.03c-.23.15-.34.4-.42.65q-.07.13-.22.2c-.3.17-.44.45-.6.75v.12s-.07.01-.11.02c-.15.05-.21.1-.3.22v.12q-.06.02-.13.05c-.16.07-.31.15-.46.24q-.09.03-.18.06v.12h-.23s-.04.08-.06.12c-.76.23-1.57.26-2.34.06v-.06h-.29v-.12c-.14-.04-.27-.08-.41-.12v-.12h-.18s-.04-.08-.06-.12c-.04-.02-.07-.03-.11-.05-.14-.07-.21-.15-.31-.28q-.08-.11-.17-.2h-.12v-.12q-.17-.06-.35-.12v-.12h-.12v-.12h-.12v-.12h-.12v-.12c-.1-.04-.19-.08-.29-.12v-.12q-.09-.03-.18-.06l-.06-.12c-.1-.04-.2-.08-.31-.11-.25-.09-.44-.17-.63-.36.03.2.06.3.18.47.04.15.07.3.09.45,0,.04.02.08.02.12.02.1.04.2.06.3h.12v.47h.12s0,.08-.01.12c.01.19.07.34.14.51.08.21.14.43.2.64.01.04.03.09.04.13.06.19.11.39.16.58h.12s0,.1,0,.15c0,.23.06.4.12.61h.12c0,.05.01.1.02.15,0,.07.02.13.03.2,0,.07.02.13.03.2.04.19.08.37.15.55.04.02.08.04.12.06.02.14.04.27.06.41.04.14.07.27.11.41.09.29.17.58.24.88h.12c0,.06,0,.12,0,.19,0,.21.03.33.12.52h.12s0,.1-.01.15c.01.2.05.34.13.52.09.25.17.5.24.75.05.16.1.32.17.48.07.19.11.38.15.57.02.07.03.15.05.22.01.06.02.11.03.17h.12s0,.08-.01.12c.01.2.07.34.14.52q.04.12.06.31c.05.27.15.5.26.75.09.21.14.41.19.64.02.1.04.19.07.29.02.08.03.16.05.23h.12v.41h.12c.04.23.08.47.12.7h.12s0,.1-.01.15c.01.2.06.32.14.49.08.2.14.41.19.62.01.05.02.09.04.14.1.37.19.74.28,1.11h.12v.35h.12c0,.05.02.11.03.16.13.67.33,1.3.57,1.94.1.26.14.49.16.76.02.02.04.04.06.06,0,.06.01.12.02.18.03.2.08.34.16.52.08.2.13.41.18.62q.04.16.16.32s0,.09,0,.13c0,.18.06.29.13.45.15.36.23.73.28,1.11.04.12.07.23.12.35h.12c0,.06,0,.12-.01.18.01.21.05.33.14.53.08.19.13.39.19.59.09.3.18.6.28.9.08.24.14.47.16.72h.12c0,.06,0,.12-.01.18.01.26.08.41.19.64.25.87.2,1.79.1,2.68-.06.62-.07,1.23-.08,1.85,0,.04,0,.08,0,.13,0,.12,0,.23,0,.35,0,.17-.03.32-.07.49-.01.16-.02.32-.03.49-.01.26-.03.51-.06.76-.02.21,0,.36.03.56-.02.06-.04.12-.06.18,0,.08-.01.16-.02.24,0,.05,0,.09,0,.14,0,.05,0,.09,0,.14,0,.09,0,.19-.01.28,0,.04,0,.08,0,.13q-.01.13-.04.27c-.03.17-.04.33-.04.5,0,.07,0,.13,0,.2q0,.11,0,.22c-.02.55-.05,1.08-.11,1.63-.04.4-.04.79-.04,1.18,0,.31-.02.59-.09.89-.05.3-.03.61-.03.91.34.16.68.14,1.05.14.12,0,.24,0,.36,0q.12,0,.23,0c.07,0,.14,0,.21,0,.21-.02.32-.06.48-.2.06-.27.07-.54.07-.82q0-.07,0-.14c0-.16,0-.31,0-.47,0-.11,0-.23,0-.34,0-.31,0-.62,0-.93,0-.33,0-.67,0-1,0-.65,0-1.31,0-1.96,0-.53,0-1.06,0-1.6q0-.11,0-.23c0-.15,0-.31,0-.46,0-1.4,0-2.81,0-4.21,0-1.28,0-2.56,0-3.84,0-1.44,0-2.87,0-4.31,0-.15,0-.31,0-.46,0-.08,0-.15,0-.23,0-.53,0-1.06,0-1.59,0-.65,0-1.3,0-1.94,0-.33,0-.66,0-.99,0-.3,0-.61,0-.91,0-.11,0-.22,0-.33,0-.61-.01-1.22-.05-1.83-.02-.37-.02-.75-.02-1.12,0-.09,0-.17,0-.26,0-.3,0-.6,0-.9q0-.09,0-.18c0-.87.01-1.74.02-2.61,0-.36,0-.71,0-1.07,0-.28,0-.56,0-.83,0-.13,0-.26,0-.39q.01-1.82.31-2.4c.02-.06.04-.12.06-.18h.12v-.18h.12s.04-.08.06-.12c.06-.02.12-.04.18-.06q.07-.07.13-.14c.14-.13.21-.18.38-.25q.19-.05.25-.19,1.58.2,2.05.58c.17.23.29.47.35.76h.12c.1.46.13.93.15,1.39,0,.05,0,.11,0,.16.02.54.04,1.09.05,1.63,0,.05,0,.11,0,.17.03,1.28.03,2.56.03,3.83,0,.16,0,.33,0,.49,0,1.06,0,2.11-.05,3.16-.02.46-.02.92.01,1.38q.04.72,0,1.06c-.05.43-.02.86,0,1.3.03.73.04,1.46,0,2.19-.03.66-.04,1.31-.03,1.97,0,1.24-.01,2.48-.04,3.72,0,.41-.01.81-.02,1.22,0,.05,0,.09,0,.14,0,.39,0,.78.02,1.18.05.82.05,1.64.05,2.46,0,.21,0,.41,0,.62,0,.35,0,.69,0,1.04,0,.4,0,.79,0,1.19,0,.34,0,.69,0,1.03,0,.2,0,.41,0,.61,0,.79,0,1.57-.05,2.36-.02.35-.03.7-.03,1.05q0,.11,0,.21c0,.15,0,.29,0,.44,0,.15,0,.3,0,.45,0,.22,0,.44,0,.65,0,.07,0,.13,0,.2,0,.36,0,.59.26.86.17.06.28.07.45.07.05,0,.11,0,.17,0,.06,0,.11,0,.17,0,.06,0,.11,0,.17,0q.86.03,1.61-.3c-.01-.11-.03-.22-.04-.33-.04-.29-.04-.58-.05-.87,0-.05,0-.1,0-.14,0-.04,0-.09,0-.13q0-.11-.07-.22c0-.08-.01-.17-.02-.25,0-.05,0-.1,0-.15q0-.08,0-.16c0-.05,0-.1,0-.16,0-.13-.01-.26-.02-.39h-.12q0-.1,0-.21c0-.15,0-.28-.04-.43q-.03-.17,0-.38.04-.2-.03-.36c-.07-.22-.1-.44-.13-.67q0-.07-.01-.14c-.04-.38-.06-.75-.08-1.13,0-.18-.02-.35-.05-.52-.03-.18-.04-.35-.06-.52,0-.07,0-.13-.01-.2,0-.07,0-.14-.01-.22-.04-.68-.09-1.35-.15-2.03,0-.1-.02-.2-.02-.29-.01-.14-.02-.27-.03-.41,0-.04,0-.08,0-.13q0-.19-.09-.35c0-.13-.01-.27-.02-.4,0-.04,0-.08,0-.12,0-.17,0-.34-.01-.52,0-.13,0-.25,0-.38,0-.08,0-.15,0-.23q0-.17-.07-.23c0-.11,0-.21,0-.32,0-.06,0-.12,0-.18q0-.15.07-.27c0-.08,0-.16,0-.24q0-.11,0-.23h.12c.01-.07.02-.14.03-.21q.14-.87.27-1.24c.06-.17.09-.34.13-.51q.18-.83.32-.96c0-.09.02-.18.02-.27.02-.26.09-.43.21-.66.02-.14.04-.27.06-.41.04-.12.08-.23.12-.35.18-.59.33-1.18.45-1.79q.14-.7.28-.92c.2-.35.22-.78.24-1.18.03-.18.12-.33.2-.49.05-.15.1-.3.14-.45.01-.04.02-.08.04-.13.11-.39.21-.78.31-1.18q.09-.34.15-.41c.07-.26.12-.53.14-.8.02-.25.1-.44.21-.66.08-.18.13-.35.17-.54.04-.21.11-.4.19-.6.1-.31.16-.64.22-.96q.02-.08.03-.17s.02-.08.02-.12h.12c0-.06.02-.11.03-.17.12-.69.31-1.35.52-2.01q.02-.06.04-.13c.04-.11.07-.23.11-.34.04-.16.07-.29.09-.45.03-.23.1-.37.21-.58.04-.15.08-.29.12-.44,0-.04.02-.08.03-.12.03-.12.06-.25.09-.37q.03-.11.05-.22.13-.47.18-.95h.12c.02-.17.04-.35.06-.53h.12v-.53h.12c.09-.29.18-.58.23-.89.03-.18.07-.33.15-.5.09-.21.11-.38.14-.6.04-.12.08-.23.12-.35v-.12h.12c.03-.12.06-.24.08-.36q.02-.1.05-.2.08-.33.1-.66h.12q.01-.08.03-.17c.08-.41.17-.8.32-1.19.08-.23.13-.46.19-.7.04-.14.08-.26.14-.39q.09-.18.08-.41s-.07.03-.1.05c-.08.04-.16.08-.25.12-.26.12-.45.25-.64.47-.02.06-.04.12-.06.18q-.07.01-.14.03-.15.03-.27.09v.12h-.12v.12h-.12v.12h-.12v.12c-.1.04-.19.08-.29.12v.12h-.12c-.08.08-.16.15-.23.23-.04.02-.08.04-.12.06v.12h-.18v.12h-.12v.12h-.12v.12c-.12.04-.23.08-.35.12v.12s-.07.03-.11.04c-.15.06-.3.13-.46.19-.05.02-.09.04-.14.06q-.12.05-.17.18c-.44.09-.91.06-1.35.06-.22,0-.42,0-.64.06-.02-.04-.04-.08-.06-.12q.09-.03.18-.06-.2.03-.41.06v-.12q-.06,0-.13,0c-.27-.01-.47-.15-.69-.3q-.14-.15-.23-.29c-.12-.13-.25-.25-.38-.37q-.14-.15-.22-.32c-.11-.22-.25-.37-.42-.55q-.09-.1-.15-.22h-.12v-.12h-.12v-.18h-.12c-.01-.06-.03-.12-.04-.18-.07-.25-.2-.39-.37-.58-.04-.06-.08-.12-.12-.18h-.12q-.02-.08-.04-.16c-.12-.32-.32-.52-.6-.72h-.12v-.29h-.12q-.02-.06-.05-.12c-.07-.18-.15-.35-.24-.52-.08-.02-.16-.04-.23-.06q-.06-.14-.12-.29-.04-.06-.09-.11-.09-.12-.15-.3c-.06-.18-.1-.22-.23-.35-.08-.13-.16-.27-.23-.41h-.12c-.02-.06-.04-.12-.06-.18ZM68.71,97.52c-.1.01-.21.02-.31.03-.18.01-.33.03-.5.09-.12.02-.24.03-.36.04-.07,0-.14.01-.22.02-.15.01-.3.03-.45.04q-.11.01-.22.02c-.07,0-.13.01-.2.02q-.2.02-.4.09c-.21.06-.39.07-.61.08q-.11,0-.22,0c-.15,0-.31,0-.46,0q-.11,0-.22,0-.1,0-.2,0c-.17.02-.26.05-.41.13-.39.06-.78.08-1.17,0-.02.06-.04.12-.06.18q-2.52.14-3.67.08c-.38-.02-.76-.02-1.14,0-.62.04-1.24.04-1.87.04q-.07,0-.15,0-.91,0-1.24-.04c-.46-.06-.92-.01-1.38,0-.19,0-.38.01-.58.02-.04,0-.09,0-.13,0-.29,0-.55-.01-.84-.05-.39-.06-.76-.06-1.15-.05-.24,0-.4,0-.61-.12-.24-.05-.46-.07-.7-.03-.26.04-.51.03-.76-.03l-.06-.12c-.08,0-.17,0-.25,0-.05,0-.09,0-.14,0q-.14,0-.26.04-.11.03-.22-.03c-.12-.02-.25-.04-.37-.06q-.37-.05-.51-.09c-.12-.03-.23-.03-.36-.02-.18,0-.33-.01-.51-.07-.28-.08-.54-.04-.82,0-.21.5-.22.99-.23,1.52,0,.06,0,.11,0,.17,0,.17,0,.35-.01.52,0,.06,0,.11,0,.17q0,.3.12.57c.36.23.66.29,1.08.29.05,0,.1,0,.16,0,.17,0,.34,0,.51,0,.12,0,.24,0,.36,0,.32,0,.64,0,.96,0,.32,0,.63,0,.95,0,.66,0,1.32,0,1.98.01.15,0,.3,0,.46,0q1.17,0,2.34-.04c.38-.02.76-.03,1.14-.04.06,0,.13,0,.19,0,.26,0,.52,0,.78-.01.19,0,.39,0,.58,0,.06,0,.12,0,.18,0,.27,0,.49-.01.74-.14.12-.03.24-.05.36-.07.06,0,.12-.02.18-.03.17-.02.33-.02.5-.02.4,0,.8-.02,1.2-.05.13,0,.26-.02.39-.02.08,0,.16-.01.25-.02.07,0,.15,0,.22-.01q.17,0,.29-.08c.1-.01.2-.02.3-.03.21-.02.4-.04.6-.09.2-.05.36-.06.57-.05.04-.02.08-.04.12-.06.14-.02.28-.04.42-.05q.31-.04.62-.12c.28-.09.56-.1.85-.12.06,0,.12-.01.18-.02.15-.01.29-.02.44-.04.02-.06.04-.12.06-.18.07,0,.15,0,.22.01.32,0,.63-.04.94-.09.05,0,.1-.01.15-.02.05,0,.09-.02.14-.02.04,0,.08-.01.13-.02q.13-.03.29-.15c.32-.13.64-.15.98-.18.11,0,.22-.02.33-.03.05,0,.1,0,.15-.01q.11,0,.17-.07c.12-.02.23-.04.35-.06q.24-.03.47-.12c.1-.01.2-.02.3-.03.05,0,.11,0,.16-.01.04,0,.08,0,.12-.01v-.12s.09-.01.14-.02q.16-.02.27-.15s.1-.03.15-.05q.07-.03.14-.07c.07-.21.06-.38.01-.59q-.01-.07-.03-.15c-.05-.15-.09-.21-.22-.31-.31-.11-1.23-.18-1.46.06ZM69.48,103.1s-.08.02-.12.02q-.19.03-.36.13c-.14.02-.28.03-.42.04-.18.03-.34.08-.51.14-1.09.3-2.22.5-3.34.62q-.16,0-.22.08c-.11.01-.22.02-.33.03-.28.02-.52.07-.78.15-.12.01-.23.03-.35.04q-.13.02-.33.07c-.31.08-.63.09-.95.1q-.18,0-.3.07c-.21.02-.42.03-.63.04q-.18,0-.3.07c-.14.02-.27.03-.41.04-.08,0-.17.01-.25.02-.13.01-.26.02-.4.03-.13.01-.26.02-.38.03-.04,0-.08,0-.13.01-.25.02-.49.06-.73.1-.29.05-.56.06-.85.06-.31,0-.63.01-.94.03-.64.03-1.28.04-1.93.03-.02.06-.04.12-.06.18-.05,0-.1,0-.15-.01-.47-.04-.94-.05-1.42-.05-.07,0-.14,0-.21,0-.19,0-.38,0-.57,0-.12,0-.24,0-.36,0-.42,0-.84,0-1.26,0-.39,0-.78,0-1.16,0-.34,0-.67,0-1.01,0-.2,0-.4,0-.6,0-.95,0-1.89.03-2.84.13,0,.04,0,.07-.01.11,0,.05,0,.1-.01.14q0,.07-.01.14-.02.13-.08.24,0,.21,0,.41s.04.04.06.06c0,.1,0,.19,0,.29v.23q.07.08.26.09.2.03.26.09c.25.02.5.03.75.04.08,0,.15,0,.23,0,.56.02,1.12,0,1.68-.02.61-.03,1.22-.03,1.84-.02.07,0,.15,0,.22,0,.06,0,.13,0,.2,0q.17,0,.34-.06c.08,0,.17-.01.25-.01q.08,0,.15,0c.05,0,.11,0,.16,0q.08,0,.17,0c.18,0,.35,0,.53-.01.12,0,.24,0,.36,0,.29,0,.59-.01.88-.02.02-.04.04-.08.06-.12.06,0,.12,0,.18,0,.52-.03,1.04-.06,1.56-.11.64-.05,1.27-.08,1.91-.09.07,0,.14,0,.21,0,.06,0,.12,0,.18,0,.19-.02.34-.07.52-.13q.18,0,.37,0c.37,0,.71-.04,1.07-.11.36-.07.7-.09,1.07-.11.18-.02.31-.06.48-.13h.35s.08-.08.12-.12q.14-.02.3-.02c.06,0,.12,0,.18,0,.06,0,.13,0,.19,0,.12,0,.25,0,.37-.01.06,0,.11,0,.17,0q.13,0,.19-.07c.13-.01.26-.02.38-.03.07,0,.14,0,.21-.01.05,0,.11,0,.16-.01v-.12q.07,0,.14,0,.09,0,.18,0,.09,0,.18,0,.15,0,.27-.06c.13-.02.27-.03.4-.04q.13-.01.24-.07c.16-.02.33-.03.49-.04q.15,0,.26-.07c.1-.02.19-.03.29-.04.06,0,.11-.01.17-.02.12-.01.24-.03.36-.04.06,0,.11-.01.17-.02.05,0,.1-.01.16-.02q.15-.02.31-.15c.14-.03.28-.05.43-.06.04,0,.08,0,.12-.01.4-.05.8-.07,1.2-.1v-.12c.11,0,.22-.02.33-.03q.15-.03.3-.12c.22-.1.36-.09.6-.07q.33.02.61-.13c.19-.31.1-.77.03-1.11q-.09-.22-.23-.41c-.3-.01-.58.02-.87.08ZM69.13,109.06c-.19.05-.39.07-.59.09-.43.06-.87.12-1.29.24-.23.06-.46.08-.7.1q-.12,0-.18.07c-.15.02-.29.03-.44.04q-.15.01-.27.08c-.14.07-.22.06-.37.06-.22,0-.36.03-.56.12-.32.09-.6.13-.93.11q-.12,0-.23.07c-.15.07-.26.07-.42.06-.34,0-.67.03-1.01.08-.06,0-.11.01-.17.02-.28.04-.54.1-.81.19q-.13,0-.25,0c-.33,0-.65.06-.97.15-.2.05-.4.05-.61.06q-.07,0-.13,0c-.11,0-.21.01-.32.02v.12c-.07,0-.15,0-.22,0-.1,0-.19,0-.29,0q-.07,0-.15,0s-.09,0-.14,0c-.04,0-.09,0-.13,0q-.13,0-.29.07c-.09,0-.18.01-.27.02-.05,0-.1,0-.16,0-.11,0-.22,0-.33.01q-.08,0-.16,0s-.09,0-.14,0q-.12,0-.23.07c-.08,0-.16.01-.24.01-.05,0-.1,0-.15,0-.1,0-.21,0-.31.01-.27.01-.52.03-.78.09-.36.07-.71.07-1.07.06q-.49-.01-.97.03c-.22.03-.42.03-.64.03q-.25,0-.5.03c-.16.04-.32.04-.48.05-.07,0-.14,0-.21,0-.07,0-.14,0-.22,0-.14,0-.28,0-.43.01-.06,0-.13,0-.19,0q-.18,0-.35.04c-.21.03-.42.04-.64.04q-.06,0-.13,0c-.09,0-.18,0-.27,0-.14,0-.27,0-.41,0-.09,0-.18,0-.26,0-.04,0-.08,0-.12,0-.17,0-.33,0-.5-.04-.25-.04-.49-.04-.74-.03-.05,0-.11,0-.16,0-.17,0-.33,0-.5,0-.11,0-.23,0-.34,0-.28,0-.56,0-.83,0,.04.02.08.04.12.06q-.04.07-.09.13-.11.16-.09.39-.09.03-.18.06c0,.21,0,.42,0,.64,0,.06,0,.12,0,.18,0,.06,0,.12,0,.17,0,.05,0,.11,0,.16q0,.14.13.25.1.03.2.05.21.06.31.15c.22.13.44.1.7.09.31-.01.59-.01.9.05.5.1,1.02.09,1.53.09.16,0,.31,0,.47,0,.1,0,.19,0,.29,0,.23,0,.45.02.67.04.34.04.69.04,1.03.04q.1,0,.21,0c.23,0,.45,0,.68,0,.16,0,.31,0,.47,0,.33,0,.66,0,.99,0,.38,0,.76,0,1.14,0,.33,0,.65,0,.98,0,.19,0,.39,0,.58,0,.22,0,.43,0,.65,0,.06,0,.13,0,.2,0,.06,0,.12,0,.18,0,.05,0,.1,0,.16,0q.14,0,.31-.07c.16,0,.31-.01.47-.01.09,0,.19,0,.28,0,.15,0,.3,0,.45,0,.14,0,.29,0,.43,0q.07,0,.13,0c.23,0,.38-.03.58-.14q.18-.01.39,0c.08,0,.15,0,.23,0,.12,0,.24,0,.36,0q.57.02,1.12-.09c.3-.07.61-.08.91-.1.07,0,.14-.01.21-.02.17-.01.34-.02.52-.04v-.06c.47-.06.93-.06,1.4-.06.18,0,.36-.04.53-.12.12,0,.23-.01.35-.01q.11,0,.22,0c.15,0,.3,0,.45,0,.37,0,.7-.03,1.04-.17.15-.06.29-.05.46-.04.04.02.08.04.12.06q.18,0,.35,0s.04-.04.06-.06c.14-.01.27-.02.41-.03.51-.03,1.01-.09,1.52-.15-.04-.02-.08-.04-.12-.06v-.12l.35.03q.13-.02.22-.15c.09-.22.1-.43.09-.67,0-.04,0-.09,0-.13,0-.28-.05-.51-.14-.78-.05-.33-.07-.66-.06-.99,0-.05,0-.09,0-.14,0-.11,0-.22,0-.33q-.07-.02-.14-.04-.15-.07-.21-.19s-.04-.07-.06-.11c-.41-.09-.83-.08-1.23.03ZM59.77,117.83c-.29.03-.58.04-.87.05-.11,0-.22,0-.33,0-.17,0-.34,0-.51,0-.17,0-.33,0-.5,0q-.08,0-.16,0-.23-.02-.43.07c-.12,0-.24,0-.36.01-.07,0-.15,0-.22,0-.15,0-.31,0-.46,0q-.11,0-.22,0-.1,0-.2,0-.18.01-.28.15s-.04.08-.06.11c.15.32.27.46.6.61q.11.04.22.04v.12c.06.02.13.05.19.07.19.08.27.17.39.34q.15.05.29.06c.02.06.04.12.06.18q.13.06.28.11c.24.09.4.19.6.35h.23v-.12s.08-.01.12-.02c.21-.05.39-.14.58-.24.23-.12.46-.23.7-.33v-.12c.12-.02.23-.04.35-.06v-.12h.12v-.12h.18v-.12s.07-.02.11-.03q.13-.03.24-.09v-.12s.07-.02.11-.03q.13-.03.24-.09v-.12s.07-.03.11-.04q.13-.06.16-.19.02-.12.01-.23c-.4-.17-.86-.2-1.29-.15Z"/>
  <path class="cls-3" d="M82.63,2.47c.15.09.28.18.41.3v.12h.12v.12h.12v.12h.12v.18h.12c.21.36.26.66.26,1.07,0,.05,0,.09,0,.14,0,.23-.01.35-.14.54q-.02.09-.05.18c-.05.18-.12.34-.21.51-.11.2-.19.41-.27.62-.1.29-.23.55-.38.81-.2.35-.37.7-.51,1.08-.1.26-.22.52-.34.77h-.12v.23h-.12c0,.05-.01.1-.02.15-.04.21-.11.36-.22.55-.08.17-.16.35-.23.53h-.12c-.06.21-.12.42-.18.64h-.12q-.01.06-.02.13c-.04.17-.1.3-.18.46-.03.05-.05.1-.08.16q-.07.14-.17.28c-.08.14-.11.25-.15.41-.16.58-.47,1.21-.86,1.67h-.12v.12h-.12s-.03.07-.04.1c-.1.16-.2.24-.36.35-.05.04-.1.07-.15.11-.13.08-.23.12-.38.15-.03.01-.07.02-.11.03-.25.05-.47.05-.71-.03-.16-.05-.26-.06-.43-.06h-.22s-.08-.08-.12-.12v-.18q-.06,0-.11-.02s-.08-.03-.12-.04c-.02-.06-.04-.12-.06-.18-.04,0-.09-.01-.13-.02-.24-.07-.31-.2-.43-.41-.23-.5-.26-1.12-.09-1.64.04-.11.09-.22.13-.34.02-.08.04-.16.06-.23h.12v-.23h.12s0-.08-.01-.13c.01-.2.08-.29.19-.46.08-.17.16-.35.23-.53h.12s.01-.1.02-.15c.04-.22.12-.4.22-.61.03-.07.06-.14.08-.21q.09-.2.2-.36c.14-.21.23-.42.33-.65.12-.28.24-.55.38-.82.11-.23.22-.46.33-.69.14-.3.28-.6.43-.9h.12s.02-.08.03-.13c.03-.15.06-.3.09-.46h.12v-.23h.12s.02-.07.03-.1c.12-.46.34-.85.56-1.26.1-.18.2-.37.29-.56h.12v-.18h.12v-.18h.12s.02-.07.04-.1c.11-.18.24-.24.43-.35.06-.04.12-.07.19-.11.51-.27,1.23-.22,1.74.02Z"/>
  <path class="cls-6" d="M31.95,3.65v.12c.06,0,.11.01.17.02.06.01.12.02.18.04q.03.06.06.12l.18.06v.12h.12v.12h.12q.09.11.18.25s.06.09.09.14c.07.13.11.23.14.37h.12v.12h.12v.23h.12s.04.08.07.12c.03.05.06.11.09.17.03.06.06.12.1.18.11.2.22.4.34.6q.05.1.05.22h.12v.23h.12q.12.18.12.35h.12v.18h.12q.18.34.18.47h.12c.04.09.08.17.12.26q.03.07.07.14t.05.24h.12s.04.08.06.12c.03.05.05.1.08.16.03.05.05.1.08.16q.08.15.18.28.08.11.08.28h.12c.05.08.1.17.15.25q.04.07.08.14.06.13.06.31h.12s.02.04.05.09c.29.53.61,1.05.95,1.55.06.1.12.19.18.29.03.05.06.09.09.14.16.27.27.54.32.85h.12c.06.32.06.62.04.95,0,.04,0,.08,0,.12-.03.52-.28.88-.62,1.27-.15.1-.3.17-.47.23q-.22.11-.35.29c-.06,0-.11,0-.17-.01-.07,0-.15-.01-.23-.02-.07,0-.15-.01-.22-.02-.12,0-.25-.01-.37-.01-.25,0-.37-.06-.58-.18v-.12s-.07,0-.1-.01c-.17-.06-.24-.15-.36-.29-.04-.05-.08-.09-.12-.14-.09-.11-.18-.22-.28-.33q-.12-.15-.25-.23c-.15-.13-.18-.24-.24-.42q-.08-.26-.29-.43-.07-.15-.13-.32c-.02-.06-.04-.11-.06-.17q-.04-.15-.04-.26h-.12v-.12h-.12c-.05-.09-.1-.17-.15-.26-.03-.05-.05-.09-.08-.14q-.06-.13-.06-.24h-.12c-.03-.07-.06-.15-.09-.22-.02-.04-.03-.08-.05-.13q-.04-.12-.04-.29c-.06-.02-.12-.04-.18-.06v-.12h-.12c-.04-.09-.08-.19-.12-.28-.02-.05-.04-.11-.07-.16q-.05-.14-.05-.26h-.12v-.23c-.06-.02-.12-.04-.18-.06q-.06-.1-.12-.23c-.07-.15-.11-.24-.23-.35v-.18h-.12c-.09-.15-.12-.23-.12-.41h-.18c-.03-.07-.05-.13-.08-.2q-.08-.21-.21-.33c-.04-.1-.08-.19-.12-.29-.11-.22-.23-.43-.35-.64-.02-.04-.04-.08-.07-.12q-.2-.38-.52-.64c-.04-.14-.08-.27-.12-.41-.04-.06-.08-.12-.12-.18-.16-.55-.16-1.37.12-1.87.14-.24.27-.42.52-.56.04,0,.08-.02.12-.03v-.12h.12v-.12h.23v-.12c.54-.16,1.04-.16,1.58,0Z"/>
  <path class="cls-7" d="M110.57,48.81q.07,0,.13,0c.23,0,.46,0,.69,0,.19,0,.37,0,.56,0,.23,0,.46,0,.69,0,.09,0,.17,0,.26,0,.6,0,1.16.06,1.7.32.02.06.04.12.06.18h.12v.12h.12v.12q.12.06.23.12v.12h.12v.18h.12c.23.45.2,1.12.06,1.6-.17.35-.4.65-.76.8v.12c-.26.22-.44.26-.77.24-.03,0-.07,0-.1,0v.12q-.08,0-.16,0c-.19,0-.39.01-.58.02-.08,0-.17,0-.25,0-.12,0-.24,0-.36.01-.07,0-.14,0-.22,0q-.18,0-.3.04c-.15.04-.29.04-.45.04-.07,0-.13,0-.2,0-.07,0-.14,0-.21,0-.15,0-.3,0-.45,0-.23,0-.47,0-.7,0-.23,0-.45,0-.68,0-.07,0-.14,0-.21,0-.36,0-.68.03-1.02.14q-.15.02-.28.01s-.08,0-.13,0c-.14-.02-.23-.06-.36-.13-.04.04-.08.08-.12.12q-.13.01-.28.01c-.06,0-.11,0-.17,0-.06,0-.12,0-.17,0-.06,0-.12,0-.18,0-.14,0-.29,0-.43,0v-.12h-1.52s.04.08.06.12h-.53v-.12c-.08-.02-.15-.04-.23-.06v-.12h-.23v-.12h-.23v-.12s-.06.05-.09.07q-.14.04-.35-.05c-.16-.1-.26-.18-.31-.37v-.23h-.12c-.06-.23-.05-.41,0-.64h-.12c-.04-.7.08-1.17.5-1.73.03-.03.05-.05.08-.08h.12v-.12h.18c.02-.06.04-.12.06-.18.31-.16.67-.21,1.02-.24.05,0,.1,0,.15-.01.81-.07,1.63-.06,2.44-.07.36,0,.72,0,1.08-.01.12,0,.25,0,.37,0,.35,0,.7-.01,1.05-.04.44-.04.88-.04,1.32-.05Z"/>
  <path class="cls-7" d="M5.38,35.55q.09,0,.18.01c.06,0,.11.01.17.02q.08,0,.15.01t.24.14c.31.14.63.24.97.28.52.07,1.03.3,1.49.54.15.07.31.1.47.13.36.08.71.16,1.04.33v.12s.07,0,.11-.01c.21.01.37.07.57.14.12.04.24.07.37.1.33.08.65.16.94.35.08.03.16.06.24.08.17.06.34.11.51.18.04.01.08.03.11.04.1.04.19.07.29.11q.34.13.68.21c.17.03.25.09.38.2.05.02.1.03.15.05.2.09.27.23.38.42.04.02.08.04.12.06v.41h.12v.29h.12c.02.17.03.34.04.51,0,.05,0,.1.01.15q.03.36-.11.53s-.08.07-.13.1q-.08.12-.13.25s-.04.08-.06.13t-.04.09h-.12v.12h-.12s-.03.07-.04.11c-.17.28-.55.37-.84.49-.61.15-1.14.11-1.7-.19-.25-.1-.49-.14-.76-.18v-.12h-.29v-.12c-.05,0-.1,0-.16,0-.17,0-.32-.02-.49-.06-.04,0-.08-.02-.13-.03q-.11-.03-.22-.15c-.14-.02-.27-.04-.41-.06v-.12c-.05,0-.11,0-.16.01q-.19-.01-.3-.09c-.16-.12-.3-.15-.49-.19-.06-.01-.13-.03-.19-.04-.05-.01-.1-.02-.15-.03v-.12h-.29v-.12h-.35v-.12s-.08.02-.12.04c-.16.04-.3.07-.47.08q-.14-.12-.29-.29c-.25-.1-.5-.16-.76-.23-.12-.04-.23-.08-.35-.12v-.12h-.35v-.12s-.1,0-.15.01c-.24-.01-.4-.09-.61-.19q-.16-.04-.29-.06v-.12q-.07-.01-.14-.02-.16-.04-.33-.15v-.12q-.09.03-.18.06c-.13-.12-.18-.18-.23-.35-.05-.05-.09-.09-.14-.14-.15-.15-.2-.24-.27-.45-.02-.06-.04-.13-.07-.19-.06-.25-.07-.49-.05-.75.02-.02.04-.04.06-.06,0-.06.01-.12.02-.18.05-.27.14-.46.27-.7h.12l.04-.11c.09-.15.16-.17.31-.24.02-.04.03-.07.05-.11.08-.15.15-.18.31-.25.04-.02.08-.04.13-.06.43-.13.84-.1,1.29-.06ZM6.93,40.41l.23.06-.23-.06Z"/>
  <path class="cls-4" d="M109.75,34.86c.25.04.47.09.7.18v.12l.18-.06.18.06v.12h.29v.12l.18.06v.12h.12v.12l.18.06q.08.14.15.31c.02.06.05.11.08.17.2.51.16,1.05,0,1.56h-.12s0,.1,0,.15c-.07.26-.19.44-.4.61h-.23s-.03.07-.04.11c-.1.16-.17.17-.34.22q-.14.04-.26.08s-.04.08-.06.12h-.18v.12s-.08,0-.12,0q-.08,0-.16.01c-.05,0-.11,0-.16.01q-.15.01-.26.14c-.29.13-.56.2-.88.18v.12c-.08.02-.15.04-.23.06v.12c-.18.05-.23.06-.41,0q-.14.04-.28.1t-.16.07-.15.07q-.88.38-1.17.35v.12h-.35v.12h-.35v.12c-.09.04-.18.08-.27.12-.05.02-.1.04-.15.07-.16.05-.28.06-.45.05v.12q-.06.02-.12.03-.32.09-.63.21-.12.05-.36.05v.12h-.23v.12h-.29v.12h-.35v.12q-.61.03-1.23.06v-.12q-.09-.03-.18-.06v-.12c-.06,0-.12,0-.18,0-.34-.05-.6-.27-.81-.53-.1-.24-.14-.49-.18-.75h-.12c.02-.42.06-.82.18-1.23h.12s.02-.07.03-.11c.03-.1.06-.2.09-.3h.12s.03-.07.05-.1c.12-.23.23-.39.48-.48h.23v-.12h.23v-.12s.1-.04.15-.06c.31-.12.61-.23.9-.37.18-.08.32-.13.53-.1v-.12s.07-.02.11-.03q.6-.14,1.12-.44c.1,0,.19,0,.29,0v-.12s.06-.02.09-.03c.31-.1.62-.21.93-.33.11-.04.22-.08.32-.11.21-.07.41-.15.61-.23.17-.07.33-.13.5-.19.08-.03.15-.06.22-.09q.88-.34,1.35-.31v-.12s.08-.02.12-.03q.08-.02.16-.05c.05-.01.1-.03.16-.05q.15-.04.27-.11c.15-.07.29-.06.46-.05v-.12Z"/>
  <path class="cls-7" d="M2.1,48.7q.07,0,.14,0,.35,0,.48.07c.09,0,.17.02.26.02.28.03.54.09.81.17.23.06.45.08.68.1q.06.03.12.06c.08.01.17.02.25.03.27.03.52.07.78.15.2.05.38.07.58.09.24.02.44.07.66.15.13.02.26.03.39.04.19.02.37.06.55.1.14.03.27.05.41.08.04,0,.08.01.13.02.08.01.17.03.25.04.2.04.32.07.49.18q.14.02.3.03t.41.08c.08,0,.16.02.24.02.51.05,1.04.24,1.43.57q.09.11.09.23h.12q.07.09.15.22s.05.08.07.12c.26.47.26,1.01.19,1.53-.09.23-.2.4-.35.58-.04.06-.08.12-.12.18h-.12q-.06.12-.12.23h-.18v.18c-.05.02-.11.03-.16.05q-.1.03-.21.06c-.07.02-.14.04-.21.06q-.16.04-.23.12c-.13,0-.25,0-.38,0-.07,0-.14,0-.21,0q-.17,0-.23-.07c-.31-.09-.63-.13-.95-.16q-.1-.01-.16-.07c-.11-.01-.22-.02-.33-.03q-.09,0-.18-.01s-.09,0-.14-.01v-.12q-.35.03-.7.06.03-.09.06-.18-.2.03-.41.06.03-.09.06-.18c-.27.02-.54.04-.82.06v-.06c-.07,0-.13-.02-.2-.03q-.21-.03-.27-.09c-.11-.01-.22-.02-.33-.03q-.09,0-.18-.01s-.09,0-.14-.01v-.06c-.33-.09-.65-.15-.99-.18v-.12s-.08,0-.13,0c-.05,0-.11,0-.16,0-.05,0-.11,0-.16,0q-.13,0-.19-.06c-.11-.01-.22-.02-.33-.03q-.09,0-.18-.01s-.09,0-.14-.01v-.12q-.29.03-.58.06v-.12h-.58v-.12h-.18v-.12s-.07.03-.11.04q-.13.02-.22-.05s-.06-.07-.09-.1c-.12-.14-.16-.18-.35-.24v-.12s-.07-.03-.11-.04c-.23-.13-.29-.36-.36-.6-.03-.22-.04-.44-.04-.66,0-.06,0-.12,0-.18.01-.46.09-.78.39-1.14h.12v-.12h.12v-.12q.1-.08.24-.18.07-.05.13-.09c.36-.2.71-.22,1.11-.21Z"/>
  <path class="cls-7" d="M58.34,0c.06,0,.12,0,.18,0,.41,0,.7.04,1.03.3.03.03.07.07.1.11q.05.05.1.11t.08.21h.12v.18h.12v.23h.12c.17.46.2.87.2,1.36,0,.07,0,.15,0,.23,0,.2,0,.41,0,.61,0,.17,0,.34,0,.51,0,.4,0,.8,0,1.21,0,.41,0,.83,0,1.24,0,.36,0,.71,0,1.07,0,.21,0,.43,0,.64,0,.24,0,.47,0,.71,0,.07,0,.14,0,.21q0,.1,0,.2,0,.08,0,.17c-.04.19-.12.26-.26.38,0,.04-.02.08-.03.12-.04.17-.13.24-.26.35h-.12v.12h-.12v.12h-.18v.12h-.23v.12c-.28.11-.52.13-.82.13-.04,0-.08,0-.12,0-.25,0-.46-.04-.7-.13v-.12c-.1.02-.19.04-.29.06-.04-.05-.08-.11-.13-.16-.1-.13-.2-.22-.33-.32-.04-.03-.08-.07-.13-.1v-.12c-.06-.02-.12-.04-.18-.06-.05-.21-.07-.41-.07-.62,0-.07,0-.13,0-.2,0-.07,0-.14,0-.22,0-.08,0-.15,0-.23,0-.25,0-.51,0-.76,0-.09,0-.17,0-.26,0-.41,0-.82,0-1.23,0-.47,0-.95,0-1.42,0-.37,0-.73,0-1.1,0-.22,0-.44,0-.66,0-.21,0-.41,0-.62,0-.11,0-.22,0-.33,0-.64.14-1.21.56-1.7.42-.4.82-.44,1.37-.43Z"/>
  <path class="cls-1" d="M95.05,15.41s.06.03.09.05v.12s.08.02.12.03c.32.17.52.5.64.85.09.67.09,1.28-.3,1.86-.15.19-.32.33-.51.48-.14.14-.28.28-.42.43q-.11.1-.22.1s-.03.08-.04.13c-.13.27-.35.47-.6.63h-.12q-.06.12-.12.23h-.12v.12q-.26.23-.41.23t-.04.1c-.08.15-.18.24-.31.35-.04.04-.08.07-.12.11q-.11.08-.23.08s-.03.07-.04.1c-.1.17-.22.29-.36.43-.05.05-.1.1-.15.15-.05.05-.1.09-.15.14-.04.04-.08.09-.13.13-.12.12-.25.19-.4.28-.05.04-.1.08-.15.12-.12.1-.24.16-.38.23l-.06.12c-.49.17-1.1.22-1.59,0-.08-.04-.15-.08-.23-.12-.08-.04-.16-.08-.23-.12v-.12s-.08-.02-.12-.03c-.25-.12-.47-.27-.64-.49-.02-.18.01-.29.06-.47l-.06-.06c-.03-.55-.05-1.06.29-1.52q.09-.03.18-.06v-.12h.12c.02-.08.04-.15.06-.23h.12s.02-.06.04-.1c.11-.19.27-.32.43-.47q.23-.19.41-.43h.12v-.12h.12v-.12h.12v-.12q.12-.03.23-.06v-.12h.12v-.12h.12v-.12h.12v-.12h.12s.03-.07.05-.11c.07-.13.13-.21.24-.3h.12v-.12h.12v-.12h.12c.04-.08.08-.15.12-.23h.12v-.12q.09-.09.22-.2s.09-.07.13-.11c.04-.03.08-.07.12-.1.06-.05.11-.09.17-.14q.12-.09.24-.09v-.12h.12v-.12h.12v-.12h.12c.04-.08.08-.15.12-.23h.18v-.12c.11-.05.23-.1.34-.14.06-.03.13-.05.19-.08.59-.24,1.17-.09,1.72.18Z"/>
  <path class="cls-2" d="M21.02,15.92v.12q.07,0,.13-.02t.28.13s.07.1.1.14c.04.05.07.09.11.14q.08.13.08.24h.12v.12h.12q.03.12.06.23h.12v.12h.12v.12h.12v.12h.12v.12h.12q.1.1.21.22.05.06.11.13.09.12.15.29.09.03.18.06v.12s.07.03.11.05c.14.08.19.14.28.28.19.26.4.49.62.72q.1.12.1.24s.07.02.1.04c.15.09.25.2.36.34.13.16.28.3.43.44.17.18.23.34.23.59.06.02.12.04.18.06.01.12.02.24.03.36,0,.07.01.13.02.2,0,.19-.01.36-.05.55,0,.12,0,.23,0,.35h-.18v.23h-.12v.18h-.12v.12h-.12c-.04.08-.08.15-.12.23h-.12v.12h-.18v.12h-.23v.12c-.07,0-.14.01-.22.02-.16.01-.23.03-.36.13-.19.13-.34.08-.56.05-.16-.03-.29-.07-.43-.14v-.18c-.17-.05-.29-.06-.47-.06-.04-.02-.08-.04-.12-.06v-.12h-.12v-.12s-.07,0-.1-.01c-.28-.09-.4-.33-.54-.57-.04-.04-.08-.08-.12-.12-.11-.11-.16-.21-.23-.35q-.06-.03-.12-.06v-.29h-.12v-.12q-.05,0-.11-.01-.12-.05-.2-.2s-.03-.09-.04-.14h-.18q-.11-.13-.23-.3c-.16-.24-.33-.44-.53-.63q-.18-.21-.18-.35h-.12c-.21-.22-.33-.4-.41-.7h-.12c-.1-.09-.2-.19-.29-.29-.04-.03-.08-.07-.12-.1-.17-.2-.25-.42-.35-.66-.02-.04-.04-.08-.06-.12-.05-.66-.07-1.26.35-1.81.1-.08.19-.16.29-.23.05-.05.1-.1.15-.15.57-.55,1.58-.45,2.19-.02Z"/>
</svg>