<?xml version="1.0" encoding="utf-8"?>
<!-- Generator: Adobe Illustrator 26.0.1, SVG Export Plug-In . SVG Version: 6.00 Build 0)  -->
<svg version="1.1" id="Capa_1" xmlns="http://www.w3.org/2000/svg" xmlns:xlink="http://www.w3.org/1999/xlink" x="0px" y="0px"
	 viewBox="0 0 1109.1 228.8" style="enable-background:new 0 0 1109.1 228.8;" xml:space="preserve">
<style type="text/css">
	.st0{fill:#FFFFFF;}
</style>
<g>
	<path class="st0" d="M663.9,148.9c-16-0.3-31.9,1.1-47.9-0.8c-5-0.6-9.8-1.6-14.6-3.3c-13.5-4.8-21.6-14.7-23.2-28.6
		c-2.6-21.9-3-44.1,0.1-66c2.7-19.3,15.8-29.3,37.4-31.7c15.1-1.7,30.3-0.9,45.4-0.9c16.1,0,32.3-0.9,48.4,0.8
		c1.8,0.2,3.6,0.5,5.4,0.8c20.5,4.1,28.5,13.3,29.4,33.9c0.1,2.2,0,4.3,0.2,6.5c0.2,2.5-0.7,3.6-3.4,3.5c-10.8-0.1-21.6-0.1-32.4,0
		c-2.2,0-3-0.6-3.5-3c-1.4-7.8-3.9-10.1-11.8-11.1c-10.1-1.2-20.3-0.5-30.4-0.5c-10,0-20-0.8-29.9,0.7c-8.9,1.3-13.4,5.4-14.5,14.4
		c-1.5,13-1.5,26.2,0,39.2c1.1,8.9,5.5,13.3,14.6,14.3c16.3,1.7,32.6,0.4,48.9,0.7c4.3,0.1,8.7,0,12.9-1c6.7-1.5,10-5.8,10.5-12.7
		c0.2-3.2-0.9-4-3.9-3.9c-13.5,0.1-27-0.1-40.4,0.1c-3.6,0.1-5.1-0.8-4.9-4.6c0.3-6.3,0.2-12.6,0.1-18.9c0-2.6,0.9-3.5,3.5-3.4
		c27.3,0.1,54.6,0.1,81.9,0c2.5,0,3.6,0.7,3.6,3.4c-0.2,12.8,0.2,25.6-0.5,38.3c-1.2,21.9-10.6,31-32.7,32.9
		c-3.5,0.3-7,0.8-10.4,0.8C689.2,148.9,676.5,148.9,663.9,148.9z"/>
	<path class="st0" d="M840,147.6c-22.1,0-44.3-0.1-66.4,0.1c-3.9,0-5.1-1.1-5.1-5c0.1-39.5,0.1-79,0-118.5c0-3.8,0.8-5.2,4.9-5.2
		c43.9,0.1,87.9,0.1,131.8,0c3.4,0,4.7,0.9,4.6,4.5c-0.2,7-0.3,14,0,20.9c0.2,3.9-1.4,4.7-4.9,4.7C874.9,49,845,49,815,49
		c-7.9,0-6.6-0.4-6.7,6.7c-0.1,3.2,0.2,6.3-0.1,9.5c-0.4,3.6,1.2,4.4,4.5,4.3c28.8-0.1,57.6,0,86.4-0.2c4.1,0,5.6,0.9,5.3,5.2
		c-0.4,5.6-0.3,11.3,0,16.9c0.2,3.9-0.9,5-4.9,5c-28.5-0.2-56.9,0-85.4-0.2c-4.9,0-6.5,1.3-5.9,6c0.6,4.5-2,10.5,1.1,13.4
		c2.8,2.6,8.6,0.8,13,0.8c28.1,0.1,56.3,0.1,84.4-0.1c4,0,5.6,0.9,5.4,5.2c-0.3,7.1-0.3,14.3,0,21.4c0.2,3.8-1.1,4.8-4.8,4.8
		C885,147.5,862.5,147.6,840,147.6z"/>
	<path class="st0" d="M368.9,65.8c0,13.1,0.1,26.2,0,39.3c-0.3,24.9-14,40-38.7,43c-5.5,0.7-10.9,1-16.4,0.9
		c-22.6-0.5-45.3,1.4-67.8-0.9c-25.4-2.6-38.9-17.3-39.3-42.8c-0.4-27.4,0-54.8-0.2-82.1c0-3.3,1.2-4.2,4.4-4.2
		c10.3,0.2,20.6,0.2,30.9,0c3.5-0.1,4.5,1.1,4.5,4.6c-0.1,22.7-0.1,45.5-0.1,68.2c0,1.5-0.1,3,0,4.5c0.7,12.9,5.6,18.5,18.6,19.4
		c15.1,1,30.3,1,45.4,0c13.7-0.9,18.8-6.6,18.9-20.4c0.1-21.7,0-43.5,0-65.2c0-10.9,0-10.9,11-10.9c8.3,0,16.6,0.1,25,0
		c3.1-0.1,4,0.9,3.9,4C368.9,37.2,368.9,51.5,368.9,65.8z"/>
	<path class="st0" d="M547.2,179.8c12,0.1,18.5,6.6,18.5,18.5c0,12-6.6,18.7-18.3,18.7c-12.2,0-19.1-6.6-19.1-18.5
		C528.2,186.4,535.1,179.7,547.2,179.8z"/>
	<path class="st0" d="M89.3,200.5c4.4,3.4,6,8.4,8.5,12.8c0.5,0.9,1.4,2-0.4,2.8c-4,1.8-11.4-0.6-13.5-4.5c-1.5-2.8-3-5.5-4.7-8.2
		c-0.6-1-1.7-1.8-2.9-1.5c-1.6,0.4-1,1.8-1.1,2.9c-0.1,1.3,0,2.6,0,4c0,7.5-2,8.9-9.4,7.4c-2-0.4-2.2-1.6-2.2-3.2
		c0-9.9,0-19.9,0-29.8c0-2.3,0.8-3.3,3.2-3.2c6.6,0.2,13.3,0.2,19.9,0.5c4.7,0.2,8.4,2.3,9.4,7.3c1.1,4.9-0.5,8.8-4.9,11.5
		C90.6,199.6,90.1,200,89.3,200.5z"/>
	<path class="st0" d="M358.5,200.5c4.5,3.5,6.2,8.4,8.6,12.9c0.5,0.9,1.5,1.9-0.3,2.8c-4.1,1.8-11.4-0.5-13.6-4.4
		c-1.4-2.5-2.7-5-4.1-7.4c-0.8-1.3-1.8-2.7-3.5-2.2s-1,2.2-1.1,3.4c-0.1,1.6-0.2,3.3,0,5c0.6,4.4-0.9,6-5.6,6c-4.8,0-6.3-1.2-6-6.1
		c0.4-8.8,0.2-17.6,0.1-26.3c-0.1-2.9,0.7-4.2,3.9-4c6,0.3,12,0,17.9,0.4c6.9,0.5,9.6,2.6,10.7,7.6
		C366.6,193.1,364.7,196.8,358.5,200.5z"/>
	<path class="st0" d="M436.7,197.3c0-4.5,0.2-9-0.1-13.6c-0.2-4,2.3-3.8,4.8-3.6s6-1.5,5.9,3.5c-0.1,9.8-0.1,19.6,0,29.4
		c0,2.2-0.7,3.2-3.1,3.4c-5,0.5-8.9-0.5-11.5-5.4c-2.2-4.2-5.3-7.9-8.4-12.5c-1.7,4.8-1.1,9.1-0.9,13.2c0.2,4.4-1.9,4.8-5.4,4.8
		c-3.3-0.1-5.6,0-5.4-4.6c0.4-8.6,0-17.2,0.2-25.9c0-1.9-1.4-5.2,1.5-5.5c3.5-0.4,7.7-2.1,10.5,2c3,4.4,6,8.8,9,13.2
		C434.4,196.3,434.7,197.5,436.7,197.3z"/>
	<path class="st0" d="M598.1,200.6c4.5,3.2,6,8.2,8.6,12.7c1.1,1.9,1,2.8-1.6,3.1c-8.6,0.9-9.3,0.5-13.7-7c-1.6-2.8-2.3-8.1-6.5-6.9
		c-2.7,0.8-1.2,5.7-0.9,8.6c0.4,4.7-1.7,5.4-5.8,5.4c-3.9,0-6.1-0.4-5.8-5.3c0.4-8.9,0.3-17.9,0.1-26.9c-0.1-3.3,1.1-4.4,4.3-4.2
		c5.6,0.3,11.3,0.1,17,0.3c5.1,0.2,9.7,1.3,11.1,7.2C606.1,193.1,604.3,196.7,598.1,200.6z"/>
	<path class="st0" d="M47.7,195.7c8.5,0,8.5,0,8.5,8.4c0,7.9-0.9,9.2-8.4,11.6c-4.8,1.6-9.8,1.7-14.8,0.8c-9-1.6-14.1-9.1-13.6-19.7
		c0.4-9.4,6.3-16.1,15.1-16.9c3.3-0.3,6.6-0.1,10,0c2.2,0.1,4.3,0.9,6,2.1c2.6,1.8,5.1,4,4.4,7.6c-0.4,1.8-9.6,2-11.2,0.3
		c-2-2-4.3-2.4-6.9-1.9c-3.5,0.8-5.3,3.3-5.7,6.7c-0.5,4.8-1.3,9.9,3.7,13c3.3,2.1,6.7,1.1,10-0.6c1-0.5,1.5-1.2,1.4-2.4
		c-0.2-1.7-1.6-1.5-2.7-1.4c-2.6,0-4.9,0.1-4.8-3.7c0.1-2.9,0.9-4.3,4-4C44.3,195.8,46,195.7,47.7,195.7z"/>
	<path class="st0" d="M137.2,193.2c0,3.2,0.1,6.3,0,9.5c-0.4,8.4-5.4,13.5-13.8,14.1c-2,0.1-4,0.1-6,0c-9.5-0.5-14.4-5.1-14.9-14.5
		c-0.3-6.3,0-12.6-0.1-18.9c-0.1-2.8,1.3-3.2,3.7-3.3c7.7-0.3,7.7-0.4,7.7,7.3c0,4.8,0,9.6,0.1,14.4c0.1,3.8,1.7,6.4,5.9,6.5
		c4.2,0.1,6-2.5,6.2-6.3c0.2-5.8,0.4-11.6,0-17.4c-0.4-5.3,3-4.2,6.1-4.4c3.5-0.2,5.9,0.2,5.3,4.7
		C136.9,187.5,137.2,190.3,137.2,193.2z"/>
	<path class="st0" d="M159.8,180.2c4.8-1.3,6.5,1.2,7.9,5.2c3.1,9.1,6.6,18,10.2,27c1.2,3.1,0.7,4.3-2.7,3.9
		c-3.6-0.4-7.7,1.6-9.5-4.3c-1.1-3.5-5.9-1.1-9.1-1.6c-2-0.3-3.4,0.3-4.2,2.5c-1.1,2.9-8.9,4.9-11.3,3.2c-1.2-0.8-0.5-1.8-0.1-2.6
		c3.9-10.4,7.8-20.8,11.7-31.2C154.1,178.4,157.5,180.9,159.8,180.2z"/>
	<path class="st0" d="M648.8,198c0-4.6,0.1-9.3,0-13.9c-0.1-2.9,0.7-4.2,3.9-4.1c7.5,0.2,15,0.2,22.4,0c3.4-0.1,3.7,1.5,3.7,4.2
		c0,2.6-0.6,4-3.6,3.8c-3.8-0.2-7.6,0-11.5-0.1c-2.2,0-3.4,0.5-3.4,3c0.1,2.4,1.4,2.7,3.2,2.6c3.2,0,6.3,0.1,9.5,0
		c2.8-0.1,4.7,0,4.6,3.8c-0.1,3.5-1.8,3.6-4.4,3.5c-3-0.1-6,0.1-9,0c-2.5-0.1-4,0.4-4,3.4c0,2.9,1.1,3.7,3.8,3.6
		c4.1-0.2,8.3,0.1,12.5-0.1c3.1-0.1,3,1.8,2.9,3.9c-0.1,2,0.8,4.5-2.8,4.5c-8.3-0.1-16.6-0.1-24.9,0c-2.4,0-3.1-1.1-3.1-3.4
		C648.9,208,648.8,203,648.8,198z"/>
	<path class="st0" d="M740.7,198.2c0-4.8,0.1-9.6,0-14.4c-0.1-2.8,1-3.8,3.8-3.7c7.6,0.1,15.3,0.2,22.9,0c3.2-0.1,3.3,1.7,3.4,4.1
		c0,2.5-0.2,4.1-3.4,4c-4-0.2-8,0-12-0.1c-2.1,0-3,0.7-3,2.9c0,2.3,1.1,2.8,3.1,2.8c3.7-0.1,7.3,0.1,11,0c2.9-0.1,3.1,1.4,3.1,3.7
		s-0.3,3.8-3.2,3.7c-3.6-0.2-7.3,0.1-11-0.1c-3-0.1-3,1.6-3.1,3.8c-0.1,2.3,0.8,3.3,3.2,3.2c4.1-0.1,8.3,0.2,12.5-0.1
		c3.5-0.2,3.6,1.7,3.6,4.3c0.1,2.8-0.4,4.3-3.8,4.2c-7.8-0.2-15.6-0.1-23.4,0c-2.8,0-3.8-0.9-3.7-3.8
		C740.8,207.8,740.7,203,740.7,198.2z"/>
	<path class="st0" d="M966,180.2c4.7-1.2,6.6,1.1,8,5.1c3.2,9.2,6.7,18.4,10.3,27.5c1,2.5,0.8,3.8-2.2,3.5
		c-3.9-0.4-8.6,1.8-10.2-4.7c-0.7-2.9-11.8-1.4-13.2,1.6c-1.1,2.5-9.8,4.5-11.6,2.6c-0.9-1,0-1.9,0.3-2.7
		c3.7-10.1,7.7-20.1,11.3-30.3C960.1,178.5,963.6,180.8,966,180.2z"/>
	<path class="st0" d="M389.2,180.2c4.8-1.4,6.5,1.3,7.9,5.2c3.1,8.9,6.4,17.8,10,26.5c1.5,3.8,0.4,4.7-3.2,4.4
		c-3.7-0.2-7.5,0.9-8.9-4.6c-0.7-2.8-11.7-1.8-13,0.9c-1.5,3-8.4,5.1-11.2,3.4c-1.5-0.9-0.7-2-0.4-3c3.8-10.1,7.7-20.1,11.4-30.2
		C383.3,178.5,386.7,180.8,389.2,180.2z"/>
	<path class="st0" d="M472,190.9c2.5,2.8,5,2.9,6.9,3.7c4.4,1.8,7.3,4.8,7.3,9.7c0.1,5.1-2.3,9.1-7.1,11c-6.3,2.6-12.7,2.3-19-0.1
		c-1.7-0.6-3.2-1.8-4.1-3.5c-1.3-2.3-3.9-4.8-1.3-7.4c1.9-1.9,8.8-0.1,10.3,2.2c1.2,2,2.9,3.2,5.3,3.1c2.1,0,4.1-0.7,4.6-3
		s-1.2-3.3-3-3.9c-3.3-1.1-6.7-1.8-10-3.1c-4.6-1.8-7.5-5-7-10.2c0.4-5,3.7-7.7,8.2-8.9c4.7-1.2,9.5-1.2,14.3,0.1
		c2.5,0.7,4.5,2.1,5.9,4.3c0.9,1.4,2,3,1.4,4.6c-0.7,2-2.8,1.2-4.4,1.3C477.9,191,475.5,190.9,472,190.9z"/>
	<path class="st0" d="M702.9,190.9c2.2,2.8,4.5,2.8,6.4,3.5c4.8,1.9,7.8,5.1,7.7,10.4c0,4.9-3.1,9.2-8,10.9
		c-5.8,2-11.8,1.7-17.6-0.3c-1.7-0.6-3.3-1.7-4.2-3.3c-1.3-2.4-4.4-4.9-1.5-7.8c2-1.9,8.7-0.1,10.2,2.2c1.3,2,3,3.2,5.3,3.1
		c2.1-0.1,4.1-0.7,4.5-3.1c0.4-2.2-1.2-3.3-3.1-3.8c-3.2-1-6.4-1.7-9.5-2.9c-5.6-2.1-7.9-5.6-7.4-10.4c0.4-4.5,3.9-8.1,9.2-9.2
		c3.9-0.8,8-0.7,11.9,0c3,0.6,5.6,2,7.3,4.7c2.7,4.3,2,5.8-3,5.9C708.6,191,706.2,190.9,702.9,190.9z"/>
	<path class="st0" d="M795.7,192c1.3,1.7,3.6,1.7,5.5,2.4c4.8,1.9,7.8,5.1,7.7,10.4c0,4.9-3.1,9.2-8,10.9c-5.8,2-11.8,1.7-17.6-0.3
		c-1.7-0.6-3.3-1.7-4.2-3.3c-1.3-2.4-4.4-4.9-1.5-7.8c1.9-1.9,8.7-0.1,10.2,2.2c1.3,2,3,3.1,5.3,3.1c2.1-0.1,4.1-0.7,4.5-3.1
		c0.4-2.2-1.2-3.3-3.1-3.8c-3.2-1-6.4-1.7-9.5-2.9c-5.5-2.1-7.9-5.6-7.4-10.4c0.4-4.5,3.9-8.1,9.2-9.2c3.9-0.8,8-0.7,11.9,0
		c3,0.6,5.6,2,7.3,4.7c2.7,4.3,2,5.7-3,5.9c-2.3,0.1-4.6,0.2-7,0.3C795.9,191.2,795.8,191.5,795.7,192z"/>
	<path class="st0" d="M852.2,198.1c0-4.6,0.1-9.3,0-13.9c-0.1-2.9,0.6-4.2,3.9-4.1c7.6,0.2,15.3,0.2,22.9,0c3.2-0.1,3.5,1.5,3.4,4
		c-0.1,2.3,0.1,4.3-3.2,4.1c-4.1-0.2-8.3,0-12.5-0.1c-2,0-3.1,0.5-3.1,2.8c0,2.2,0.9,2.9,3,2.9c3.5-0.1,7,0.1,10.5,0
		c2.6-0.1,3.9,0.6,3.9,3.5c0,3.2-1.2,4-4.1,3.9c-3.3-0.2-6.7,0.1-10-0.1c-2.7-0.1-3.3,1.2-3.3,3.6c-0.1,2.7,1,3.5,3.5,3.4
		c4-0.1,8,0.2,12-0.1c3.2-0.2,4,1.2,3.9,4.1c-0.1,2.6-0.2,4.5-3.7,4.4c-7.8-0.2-15.6-0.2-23.4,0c-2.9,0-3.7-1.1-3.6-3.8
		C852.4,207.7,852.2,202.9,852.2,198.1z"/>
	<path class="st0" d="M1039.3,180.1c3.5,0,7,0.2,10.5-0.1c3.2-0.2,4.3,0.8,4.4,4.1c0.1,3.7-1.8,4-4.6,3.9c-3.2-0.1-6.3-0.1-9.5,0
		c-1.9,0.1-4.6-1-4.7,2.7c-0.1,4,2.9,2.8,4.9,2.9c3.2,0.1,6.3,0.1,9.5,0c2.6-0.1,3,1.4,2.9,3.5c0,2.1,0,4-3,3.9
		c-3.7-0.1-7.3,0.1-11-0.1c-2.7-0.1-3.4,1.1-3.4,3.6c0,2.6,0.9,3.5,3.5,3.5c4.2-0.1,8.3,0.1,12.5-0.1c3.2-0.2,3.5,1.5,3.5,4
		s0,4.5-3.6,4.4c-7.8-0.2-15.6-0.1-23.4,0c-2.8,0-3.7-1-3.7-3.8c0.1-9.6,0.1-19.2,0-28.9c0-2.9,1-3.8,3.8-3.7
		C1031.6,180.2,1035.4,180.1,1039.3,180.1z"/>
	<path class="st0" d="M1075.8,179.7c6,0.1,11.6,0.7,14.2,7.1c1.1,2.6,0.6,4.2-2.6,4c-3.3-0.1-6.9,1.4-9-2.9
		c-0.7-1.5-2.9-1.2-4.6-1.1c-1.3,0.1-2.2,0.7-2.5,2.1c-0.2,1.5,0.9,2.1,2,2.4c3.2,0.9,6.4,1.6,9.6,2.6c6.5,2.1,9.5,6,9.1,11.4
		c-0.4,5.7-4.6,10.2-10.9,11.2c-5,0.8-10,0.8-14.7-1.1c-1.5-0.6-3-1.7-3.9-2.9c-1.7-2.4-4.6-5.1-2-8.1c1.8-2.1,8.9-0.1,10.5,2.4
		c1.4,2.2,3.4,3.1,5.9,2.8c1.9-0.2,3.7-1.1,3.9-3.2c0.2-1.9-1.2-3-2.9-3.6c-2.8-0.9-5.8-1.6-8.6-2.5c-6.5-2.2-9.3-5.8-8.7-11
		c0.6-5.2,4.8-8.7,11.2-9.3C1073.3,179.8,1074.6,179.8,1075.8,179.7z"/>
	<path class="st0" d="M197.9,216.9c-9.3-0.1-14-2.9-15.8-9c-0.8-2.6-0.5-4.1,2.8-4c3.5,0.1,7.2-1.4,9,3.5c0.7,1.9,3.1,2.4,5.2,2.1
		c1.9-0.2,3.6-1,3.9-3.2c0.2-2-1.2-3-2.8-3.6c-3.1-1-6.4-1.8-9.5-2.9c-5.9-2.2-8.1-5.4-7.7-10.7c0.4-4.7,4.1-8.2,9.7-9.1
		c3.5-0.6,7-0.5,10.4,0c2.2,0.3,4.2,1.1,5.9,2.4c2.2,1.7,3.4,4,3.8,6.8c0.1,1.1-0.6,1.6-1.5,1.4c-3.2-0.5-6.9,2.2-9.6-1.4
		c-1-1.4-2.2-2.5-4-2.5c-1.7,0-3.7-0.2-4.1,1.9c-0.5,2.2,1.6,2.6,3.1,3.1c3,0.9,6.2,1.4,9.1,2.5c5.9,2,8.5,5.7,8.3,10.9
		c-0.2,5.3-3.6,9.2-9.2,11C202.6,216.9,200.1,216.8,197.9,216.9z"/>
	<path class="st0" d="M492.6,198.1c0-4.6,0.2-9.3-0.1-13.9c-0.2-3.4,1.2-4.3,4.3-4.2c5.6,0.3,11.3-0.1,16.9,0.5
		c6.4,0.7,9.4,4.4,9.5,10.6c0.1,6.3-3.3,10.4-9.4,11.6c-3.2,0.6-7.7-1.3-9.4,1.2c-1.6,2.3-0.6,6.4-0.6,9.7c0,1.9-0.8,2.5-2.7,2.7
		c-7.8,1-8.5,0.4-8.5-7.3C492.6,205.4,492.6,201.7,492.6,198.1z"/>
	<path class="st0" d="M815.3,198c0-4.6,0.1-9.3,0-13.9c-0.1-2.9,0.7-4.3,3.9-4.1c5.8,0.3,11.6-0.1,17.4,0.5
		c6.4,0.7,9.3,4.4,9.4,10.7c0,6.3-3.3,10.4-9.4,11.5c-3.2,0.6-7.6-1.4-9.4,1.2c-1.6,2.3-0.6,6.4-0.6,9.7c0,2-1,2.4-2.7,2.6
		c-7.9,0.9-8.5,0.4-8.5-7.4C815.3,205.3,815.3,201.7,815.3,198z"/>
	<path class="st0" d="M906.4,179.8c6.4-0.2,11.8,1.6,15.1,7.6c1.3,2.4,1.4,3.9-1.8,4.5c-3.3,0.6-6.2,1.9-9.1-2
		c-2.6-3.5-8.3-1.7-10.1,2.6c-1.6,4-1.4,8.1,0.1,12.2c0.9,2.4,2.9,3.5,5.5,3.6c2.7,0.1,4.8-0.9,6.2-3.4c0.6-1.2,0.6-3.4,2.7-2.9
		c2.7,0.6,5.5,1.5,7.9,2.7c0.9,0.5-0.2,2.2-0.5,3.2c-3.6,9.6-19.9,12.6-28.1,5.3c-5.7-5.1-7.7-14.9-4.7-23
		C891.9,183.2,897.6,179.8,906.4,179.8z"/>
	<path class="st0" d="M310.4,180.1c4,0,8,0.2,12-0.1c3.5-0.2,5,0.7,5,4.6c-0.1,3.6-0.8,5-4.7,4.9c-7.5-0.2-6.7-0.9-6.7,7
		c0,5.1-0.2,10.3,0,15.4c0.1,3.1-0.7,4.4-4.1,4.4c-7.3,0-7.3,0.2-7.3-7.2c0-4.8-0.3-9.6,0.1-14.4c0.4-4.5-1.4-5.9-5.7-5.5
		c-2.9,0.3-5.9,0.8-5.9-4.1c0.1-4.2,1.3-5.5,5.4-5.2C302.4,180.3,306.4,180.1,310.4,180.1z"/>
	<path class="st0" d="M254.2,192c1.4-2.2,2.5-3.5,3.1-5.1c2.3-6.6,7.3-7.6,13.4-6.9c2.3,0.3,3.2,0.7,1.6,2.9c-1.7,2.4-3.2,5.1-5,7.4
		c-5.2,6.6-8.8,13.6-7.3,22.3c0.6,3.4-1.6,4.2-4.2,3.6c-2.5-0.5-7.6,2.2-6.9-2.7c1.7-12-5.6-19.9-11.3-28.7
		c-0.8-1.3-2.9-2.5-1.8-4.2c0.8-1.2,2.8-0.3,4.2-0.6c5.4-1.1,8.8,1.2,10.8,6.1C251.5,188,252.7,189.6,254.2,192z"/>
	<path class="st0" d="M626.5,180.1c4.5,0,9,0.2,13.5-0.1c3.6-0.2,3.5,2,3.5,4.5s0.5,4.9-3.5,5c-8.1,0.3-8.1,0.5-8.1,8.7
		c0,4.8-0.1,9.6,0,14.4c0.1,2.4-0.5,3.5-3.3,3.7c-7.9,0.5-7.9,0.6-7.9-7.4c0-4.3-0.3-8.7,0.1-12.9c0.5-5-0.9-7.5-6.4-6.6
		c-4,0.7-5-1.2-5-5c0-3.6,1.3-4.6,4.7-4.4C618.2,180.3,622.4,180.1,626.5,180.1z"/>
	<path class="st0" d="M989.7,198c0-4.6,0.2-9.3-0.1-13.9c-0.3-5.1,3.1-4,5.9-4c2.7,0,5.8-0.9,5.6,3.9c-0.3,6.4,0.1,12.9-0.1,19.4
		c-0.1,3,1,4.2,4,4c3.5-0.2,7,0.1,10.4,0c3.5-0.1,3,2.4,2.9,4.4s0.9,4.6-2.7,4.6c-7.6,0-15.3-0.1-22.9,0c-2.5,0-3-1.3-3-3.4
		C989.8,207.9,989.7,203,989.7,198z"/>
	<path class="st0" d="M929.8,198.4c0-5,0-9.9,0-14.9c0-5.4,4.1-3,6.5-3.3c2.5-0.4,5-0.5,4.9,3.5c-0.2,9.8-0.1,19.5,0,29.3
		c0,2.7-1.1,3.3-3.6,3.4c-7.9,0.4-7.8,0.5-7.9-7.1C929.8,205.6,929.8,202,929.8,198.4L929.8,198.4z"/>
	<path class="st0" d="M182.7,107.1c-0.9-12.4-6.3-21.1-19.2-23.9c-0.4-0.1-0.7-0.5-1.2-0.9c0.9-1.4,2.2-1.6,3.3-2.1
		c6.1-2.6,9.8-7.3,11.3-13.7c1.9-7.7,2.1-15.4,0.6-23.2c-2-10.6-8.4-17.3-18.5-20.8c-7.7-2.6-15.6-3.5-23.6-3.5
		c-37.5,0-75,0.1-112.4-0.1c-4.4,0-5.6,1.1-5.6,5.5c0.2,39.2,0.2,78.3,0,117.5c0,4.8,1.6,5.7,6,5.7c32.1-0.2,64.2,0,96.4-0.1
		c11.1,0,22.3,0.5,33.4-0.4c18.8-1.5,28-10.5,29.7-29.1C183.1,114.4,182.9,110.8,182.7,107.1z M58.3,51.1c2.9-2.9,9.2-0.8,14-0.8
		c18.6-0.1,37.2-0.1,55.8,0c7.1,0,10.5,3.3,10.4,9.8c0,6.4-3.3,9.6-10.5,9.7c-11.1,0.2-22.3,0-33.4,0l0,0c-11,0-21.9-0.1-32.9,0.1
		c-3.4,0.1-4.8-1-4.5-4.5C57.8,60.5,55.2,54.2,58.3,51.1z M131.7,116.2c-11.8,0.3-23.6,0.1-35.4,0.1l0,0c-11.5,0-22.9-0.2-34.4,0.1
		c-3.8,0.1-4.9-1.1-4.6-4.8c0.3-3.8,0.2-7.6,0-11.4c-0.1-2.6,0.9-3.5,3.4-3.5c23.3,0.1,46.5,0,69.8,0.1c4.2,0,8.4,0.9,10.6,5.2
		C144.7,109.3,140.4,116,131.7,116.2z"/>
	<path class="st0" d="M552.6,119.7c-0.7-10.7-5.7-18.6-16.7-21.5c-0.6-0.2-1.1-0.5-2.4-1.1c13.9-6.5,17.8-10.8,19.2-21
		c1.2-8.1,1.3-16.2,0.5-24.3c-2.1-22.2-11.3-32.1-33.6-32.5c-40.3-0.8-80.5-0.2-120.8-0.3c-3.2,0-3.4,1.7-3.4,4.1
		c0,40.2,0,80.3,0,120.5c0,3,0.9,4.1,4,4c10.5-0.1,21-0.1,31.5,0c3.1,0,4.4-0.8,4.3-4.2c-0.2-8.3,0-16.6-0.1-24.9
		c0-2.8,0.5-4.3,3.8-4.2c20.3,0.1,40.6-0.1,60.9,0.1c8.6,0.1,12.7,4.4,13.2,13c0.3,5.5,0.4,10.9,0.4,16.4c0,2.8,1,3.8,3.8,3.7
		c10.8-0.1,21.6-0.1,32.5,0c2.5,0,3.6-0.8,3.5-3.5C552.8,136,553.1,127.8,552.6,119.7z M512.3,77.7c-2.5,4-7.2,4.4-11.6,4.4
		c-10.1,0.1-20.3,0-30.4,0c-10.3,0-20.6-0.1-30.9,0.1c-3.2,0-4.4-0.8-4.4-4.2c0.2-7.6,0.2-15.3,0-22.9c-0.1-3.1,1.1-4,4-3.9
		c20.5,0.1,40.9,0,61.4,0.1c5.2,0,11,0.4,13,6.2C515.8,64.2,516.3,71.3,512.3,77.7z"/>
	<path class="st0" d="M1076,98.1c-0.6-0.1-1.1-0.6-2-1.2c1.8-0.8,3.1-1.4,4.5-1.9c8.1-3.2,13.1-9.1,14.4-17.6
		c1.8-11,1.8-22.2-0.2-33.2c-2.4-13.4-10.5-21.3-24-24c-3.9-0.8-7.9-1.2-11.9-1.2c-38.6,0-77.2,0-115.8-0.1c-4.1,0-5.3,1.1-5.3,5.3
		c0.1,39.5,0.1,79,0,118.5c0,3.5,0.6,5.1,4.6,5c10.3-0.3,20.6-0.2,30.9,0c3.3,0,4.3-1.1,4.2-4.3c-0.2-8.3,0-16.6-0.1-24.9
		c0-2.8,0.6-4.2,3.8-4.2c20.1,0.1,40.3,0,60.4,0.1c8.9,0.1,13.2,4.3,13.6,13.1c0.3,5.3,0.2,10.6,0.1,15.9c-0.1,2.9,0.7,4.2,3.9,4.2
		c10.8-0.1,21.6-0.1,32.4,0c2.8,0,3.8-0.9,3.8-3.7c-0.2-7.3,0-14.6-0.3-21.9C1092.6,109,1087.1,100.9,1076,98.1z M1052.7,77.6
		c-2.5,4.1-7.2,4.4-11.6,4.5c-10.1,0.1-20.3,0-30.4,0c-10.1,0-20.3-0.1-30.4,0.1c-3.5,0.1-5.1-0.7-4.9-4.6c0.3-7.4,0.2-14.9,0-22.4
		c-0.1-3,0.9-4,4-4c20.4,0.1,40.9,0,61.3,0.1c5.2,0,11,0.4,13.1,6.2C1056.2,64.1,1056.6,71.3,1052.7,77.6z"/>
</g>
</svg>
