<?xml version="1.0" encoding="utf-8"?>
<!-- Generator: Adobe Illustrator 26.0.1, SVG Export Plug-In . SVG Version: 6.00 Build 0)  -->
<svg version="1.1" id="Capa_1" xmlns="http://www.w3.org/2000/svg" xmlns:xlink="http://www.w3.org/1999/xlink" x="0px" y="0px"
	 viewBox="0 0 17.2 50" style="enable-background:new 0 0 17.2 50;" xml:space="preserve">
<style type="text/css">
	.st0{fill:#6BB0C3;}
	.st1{fill:#1C2E35;}
	.st2{fill:#C9E5EE;}
</style>
<g id="XMLID_699_">
	<g id="XMLID_727_">
		<path id="XMLID_785_" class="st0" d="M10.7,42.3c0,0.1,0,0.1-0.1,0.2C10.6,42.4,10.7,42.3,10.7,42.3z"/>
		<path id="XMLID_784_" class="st0" d="M6.1,32.2c0,0.1,0,0.3-0.1,0.4C6,32.4,6.1,32.3,6.1,32.2z"/>
		<path id="XMLID_783_" class="st0" d="M6.1,31.9c0-0.1,0-0.2,0-0.3C6.1,31.7,6.1,31.8,6.1,31.9z"/>
		<path id="XMLID_782_" class="st0" d="M8.7,23.4c0,0.3,0,0.7,0,1C8.9,24.1,8.8,23.7,8.7,23.4z"/>
		<path id="XMLID_778_" class="st0" d="M14,45.5c-1.4-0.1-1.5-1.1-1.5-2.1c0-0.5-0.1-1-0.7-1.1c-0.1,0-0.2,0-0.3,0
			c-0.3,0-0.5,0-0.8,0c0,0,0,0.1,0,0.1c0,0.1,0,0.1-0.1,0.2c0,0,0.1-0.1,0.1-0.2c0,0,0-0.1,0-0.1c-0.4-0.1-0.8,0.1-1.1-0.2l0,0
			c-0.1-0.5-0.1-1.1-0.8-1.2c0,0-0.1-0.1-0.1-0.1c0,0,0-0.1-0.1-0.1c0-0.1-0.1-0.1-0.1-0.2l0,0c-0.1-0.5-0.1-0.9,0.2-1.3
			c0.3-0.3,0.3-0.6,0.2-1c-0.1-0.1-0.1-0.1-0.1-0.2c0,0.1,0.1,0.1,0.1,0.2c0-0.1,0-0.1,0-0.2c-0.1-0.2-0.1-0.4,0-0.7
			C8.9,37.3,9,37.1,9,36.9c0-0.3,0-0.6,0-0.8c0-0.1,0-0.1,0-0.1c0-0.2,0-0.3,0-0.5c0,0,0.1,0,0.1,0c0-0.2,0-0.4,0-0.6
			c0-0.2,0-0.3,0-0.5c0.1-0.1,0.2-0.3,0-0.4c0,0,0-0.1-0.1-0.1c-0.1,0-0.2,0-0.3,0c0.1,0,0.2,0,0.3,0c-0.2-0.2-0.4-0.2-0.6-0.3
			c-0.2-0.4,0.2-1-0.2-1.4C8.4,31,8,30,8.2,28.8c0-0.1,0-0.1,0-0.2c0.2-0.3,0.1-0.7,0.1-1c0.4-0.2,0.4-0.6,0.2-1
			c-0.1-0.4-0.3-0.7-0.2-1.2c-0.3-0.4,0.1-0.6,0.2-0.8c0.1-0.1,0.2-0.2,0.2-0.3c0-0.3,0-0.7,0-1c0-0.3,0.1-0.7,0.3-1
			c0.4-1.3-0.4-2.3-0.8-3.5c0.4-1.1,0.3-2.2,0.6-3.3c0.2-0.6,0.4-1.3,0.9-1.7c0.2-0.2,0.2-0.5,0.2-0.7c-0.2-0.6-0.3-1.3-0.2-1.9
			c0-0.2,0-0.5,0.3-0.6c0.8-0.3,1-1,1.2-1.7c0-0.2,0-0.5-0.2-0.5c-0.9,0-0.9-0.7-1.1-1.3C9.8,6.6,9,6.1,9.3,5.3c0-0.9-0.8-1.5-1-2.4
			c0-0.1-0.2-0.2-0.2-0.4c-0.2,0-0.4,0-0.7,0c-0.2,0.3-0.1,0.8-0.6,1C6.7,3.5,6.8,3.8,6.9,4C7,4.9,7.2,5.8,7.2,6.8
			C7.4,7.5,7.4,8.3,7,9.1c-0.1,1.1,0.3,2.2,0,3.3c0.2,1.1-0.1,2.2-0.4,3.3c0.2,1-0.1,2.1,0,3.1l0,0c0.1,0.1,0.1,0.2,0.1,0.4
			c0.5,1,0,2.1,0,3.1c0,0.1,0,0.2,0,0.3c0-0.1,0-0.2,0-0.3c0,0-0.1,0-0.1,0c0,0.2,0,0.4,0,0.6c0,0.1,0,0.2,0,0.3l0,0
			c-0.4,0.7-0.3,1.7-0.9,2.4c0,0,0,0.1,0,0.1c-0.1,0.9,0.2,1.7,0.6,2.5c-0.1,0.2-0.1,0.5-0.3,0.7c-0.2,1.1,0.2,2.2,0,3.3
			c0,0.2,0.1,0.3,0.1,0.5l0,0c0,0.3-0.5,0.4-0.3,0.7C5.9,33.7,6,33,6.3,33.3c0,0,0,0,0.1,0l0,0c0,0.1,0,0.2,0,0.3v0
			c-0.3,0.2-0.3,0.5-0.5,0.7c-0.2,0.3-0.4,0.6,0.3,0.5c0,0,0.1,0.2,0.1,0.3c0,0,0,0.1,0,0.1c0,0.1-0.1,0.1-0.1,0.2
			c0-0.1,0.1-0.1,0.1-0.2c0,0.1-0.1,0.1-0.1,0.2l0,0v0c0,0-0.1,0-0.1,0c-0.1,0.4-0.3,0.8-0.4,1.2c-0.1,0.4,0,0.6,0.4,0.6
			c0.2,0,0.4,0,0.6,0.1c0,0.6-0.8,0.9-0.7,1.6c0.2,0.5,0.3,0.9,0.5,1.4l0,0c0,0,0,0.1,0,0.1c0,0.1,0.1,0.2,0.1,0.3
			C6.2,41.2,7,41.5,6.9,42c0.1,0.2,0,0.5,0.2,0.6v0c0.4,0.5,0.8,1,1,1.6c0.2,0.1,0.4,0.3,0.7,0.4c0.1,0.5,0.6,0.4,0.8,0.6
			c0.7,0.3,1.3,0.6,2,1c0.4,0.3,0.9,0,1.3,0.2c0.8,0.3,1.2,0,1.3-0.9C14.1,45.5,14,45.5,14,45.5z M6,32.6c0.1-0.1,0.1-0.3,0.1-0.4
			C6.1,32.3,6,32.4,6,32.6z M6.1,31.9c0-0.1,0-0.2,0-0.3C6.1,31.7,6.1,31.8,6.1,31.9z"/>
		<path id="XMLID_777_" class="st0" d="M9,36.1c0,0.3,0,0.6,0,0.8C9.2,36.6,9.2,36.3,9,36.1z"/>
		<path id="XMLID_753_" class="st0" d="M8.5,40.7c0-0.1-0.1-0.1-0.1-0.2"/>
		<path id="XMLID_752_" class="st0" d="M6.1,35.4c0-0.1,0.1-0.1,0.1-0.2"/>
	</g>
	<g id="XMLID_700_">
		<g>
			<circle id="XMLID_00000049912806888314838060000010126937154283551662_" class="st1" cx="8.8" cy="8.2" r="0.6"/>
			<circle id="XMLID_00000034808611866504851600000016903127917277243303_" class="st1" cx="7.7" cy="12.9" r="0.6"/>
			<circle id="XMLID_00000036951536665203538390000008556379276215806359_" class="st2" cx="7.7" cy="12.9" r="0.2"/>
			<circle id="XMLID_00000139293044922250153480000018236053078550524333_" class="st2" cx="8.8" cy="8.2" r="0.2"/>
			<circle id="XMLID_00000005238353812889907560000016463827260441347723_" class="st1" cx="8.4" cy="20.7" r="0.6"/>
			<circle id="XMLID_00000086671201914651851640000004820240205662586038_" class="st1" cx="6.3" cy="25.1" r="0.6"/>
			<circle id="XMLID_00000056401380226599303880000010944748494961598359_" class="st1" cx="7.9" cy="28" r="0.6"/>
			<circle id="XMLID_00000160160486611995664830000008637677914756612789_" class="st1" cx="7.6" cy="37.2" r="0.6"/>
			<circle id="XMLID_00000008112877206791245730000017082567255747553204_" class="st2" cx="8.4" cy="20.7" r="0.2"/>
			<circle id="XMLID_00000034089383627812722140000000828918141969393579_" class="st2" cx="6.3" cy="25.1" r="0.2"/>
			<circle id="XMLID_00000151503034299980787210000002841661894862218407_" class="st2" cx="7.9" cy="28" r="0.2"/>
			<circle id="XMLID_00000017511711352258031780000014785628802336417198_" class="st2" cx="7.6" cy="37.2" r="0.2"/>
		</g>
	</g>
</g>
</svg>
