<?xml version="1.0" encoding="UTF-8"?>
<svg id="Capa_1" data-name="Capa 1" xmlns="http://www.w3.org/2000/svg" viewBox="0 0 129.45 118.93">
  <defs>
    <style>
      .cls-1 {
        fill: #070508;
      }
    </style>
  </defs>
  <path class="cls-1" d="M65.76.19c.11.05.23.08.35.11.04.01.08.03.12.04v.08s.06,0,.09,0c.14.01.22.06.34.14.04.02.07.05.11.08t.1.07l.12.08v.08c.07.03.13.05.2.08v.08h.12v.08h.08q.06.05.12.12v.08h.08c.06.08.12.15.18.23.02.02.03.04.05.07q.12.17.12.26h.08c.06.11.08.15.08.28h.08c.07.12.08.17.08.32h.08c.05.09.09.18.14.27.01.03.03.05.04.08.07.14.1.21.1.37h.08v.2h.08s.03.09.05.13c.07.18.15.35.23.52.04.1.07.19.08.3h.08v.16h.08v.2h.08c.06.13.08.21.08.36h.08s.02.05.03.07c.08.21.17.41.29.6q.04.08.04.24h.08v.2h.08s.02.05.04.1c.12.33.27.64.43.95q.05.1.05.26h.08c.06.13.08.21.08.36h.08s.03.07.04.11q.03.07.05.14t.05.14.13.24v.12h.08c.03.06.05.13.08.19.01.04.03.07.04.11q.03.1.03.26h.08s.03.09.05.14c.06.17.14.33.23.5.1.19.18.37.25.56.03.09.08.18.12.27.12.24.24.49.3.76h.08s.03.09.05.13c.06.17.14.33.21.49.08.17.15.34.23.51.01.03.03.06.04.09.07.15.12.29.15.45h.08c.06.13.08.21.08.36h.08s.03.09.04.13c.07.19.16.35.27.52.05.11.06.18.05.3h.08c.07.12.09.21.08.36h.08s.04.09.06.13c.03.06.05.12.08.18t.04.09s.02.06.04.09t.03.08q.04.08.11.19v.16h.08c.06.13.08.21.08.36h.08v.2h.08s.03.06.04.09q.11.28.25.54.07.12.07.24h.08v.2h.08s.03.09.05.14c.07.18.15.34.23.51t.04.08s.03.05.04.08t.04.08c.03.05.06.1.08.16q.03.07.03.23h.08s.03.09.04.14c.09.27.23.52.36.78.04.08.08.17.13.25.01.02.03.05.04.08.03.07.06.15.09.22.11.31.26.6.4.89.08.16.16.33.22.5.15.38.34.74.54,1.09q.05.11.05.27h.08c.06.13.08.21.08.36h.08s.02.04.03.07c.1.26.22.51.36.76q.06.12.06.28h.08s.03.09.04.13c.07.2.17.38.27.56q.05.1.05.22h.08c.06.13.08.21.08.36h.08c.06.13.08.21.08.36h.08s.03.09.04.13c.07.18.16.35.26.52.09.16.14.27.14.46h.08q.02.07.05.14c.08.21.18.4.28.59q.11.21.11.34h.08v.2h.08v.16h.08s.03.09.05.14c.06.17.14.33.23.5.09.18.18.36.25.56.05.13.11.26.17.38t.04.08c.06.12.11.23.17.35q.05.11.05.23h.08v.2h.08v.16h.08v.2h.08l.05.14c.06.17.14.33.23.5.1.18.18.36.25.56.05.12.1.23.16.35.01.02.02.05.04.07.06.11.11.22.17.33.02.03.04.07.05.1.02.03.03.06.05.09q.03.08.03.24h.08s.02.06.04.1c.13.34.27.66.45.98q.03.08.03.23h.08v.16h.08s.03.09.05.13c.1.26.21.52.34.76q.05.1.05.22h.08q.13.34.16.52h.08s.02.06.04.1c.1.27.21.52.36.76q.05.09.05.25h.08v.2h.08s.03.09.04.13c.07.2.17.38.27.56q.05.1.05.18s.1,0,.14,0c.75-.04,1.49-.04,2.24-.04.2,0,.4,0,.6,0,.35,0,.7,0,1.05,0,.52,0,1.04,0,1.56,0,.98,0,1.96,0,2.94,0h.32s.04,0,.08,0c.6,0,1.19,0,1.79,0,.25,0,.49,0,.74,0,.03,0,.05,0,.08,0,1.55,0,3.11,0,4.66,0h.17c.26,0,.52,0,.79,0,.12,0,.23,0,.35,0,.06,0,.12,0,.18,0,1.85,0,3.7,0,5.55,0,.47,0,.93,0,1.4,0,.03,0,.06,0,.09,0,.89,0,1.77,0,2.66,0,.03,0,.06,0,.08,0,.61,0,1.22,0,1.83,0,.22,0,.44,0,.66,0h.16c.86,0,1.73,0,2.59,0,.9,0,1.79,0,2.69,0,.52,0,1.03,0,1.55,0,.35,0,.69,0,1.04,0,.2,0,.39,0,.59,0,.7,0,1.39,0,2.08.05.05,0,.1,0,.15,0q.8.06,1.11.23s.09.03.14.04c.14.04.25.09.38.16v.08h.12s.08.08.12.12c.04.03.08.05.13.08q.06.04.11.08v.08s.05.02.07.03q.09.04.21.12v.08h.08v.08h.08v.08h.08v.12h.08v.08h.08c.06.09.12.18.18.27.02.03.03.05.05.08q.21.33.21.49h.08s.02.06.02.09q.02.05.03.11s.02.07.03.11q.02.09.07.13c.01.09.03.19.04.28l.04.04c.05.32.05.65.04.98q0,.07,0,.14,0,.66-.08.75c0,.08-.02.16-.03.23-.02.11-.05.22-.09.32h-.08s0,.06,0,.09c0,.12-.03.2-.08.31h-.08v.16h-.08s0,.04-.01.07c-.04.12-.1.2-.17.29-.08.11-.14.19-.18.32h-.08v.08h-.08v.08c-.08.07-.16.13-.24.2-.01.03-.03.05-.04.08h-.08v.08c-.06.05-.13.11-.19.16q-.14.11-.27.23-.05.05-.13.05v.08h-.08v.08h-.08v.08h-.12v.08h-.08v.08h-.12v.08q-.06.07-.15.14s-.06.05-.08.07c-.08.06-.15.1-.24.15v.08c-.06.05-.12.1-.18.15q-.05.04-.11.09s-.07.05-.1.08c-.11.09-.22.18-.32.28-.09.09-.18.16-.28.24h-.08c-.03.05-.05.1-.08.16h-.08s-.03.08-.04.12h-.08v.08q-.07.06-.15.12s-.04.03-.09.06q-.08.05-.16.05v.08h-.08v.08q-.22.2-.32.2v.08h-.12v.08h-.08v.08h-.08v.08q-.06.06-.15.13s-.06.05-.09.07c-.03.02-.06.05-.08.07-.04.03-.08.06-.11.1q-.08.06-.16.06v.08h-.08v.08q-.18.16-.28.16v.08q-.14.12-.24.12v.08h-.08v.08h-.08v.08h-.08v.08c-.07.06-.14.12-.21.18-.04.03-.08.06-.12.1-.09.07-.17.12-.27.16v.08c-.07.03-.13.05-.2.08v.08h-.08v.08q-.14.12-.24.12v.08h-.08v.08h-.08v.08s-.05.01-.09.03c-.12.06-.13.09-.18.21q-.2.2-.32.2v.08h-.08v.08h-.12v.08q-.22.2-.32.2v.08h-.08v.08h-.08v.08q-.18.16-.28.16v.08h-.08v.08q-.22.2-.32.2v.08h-.12v.08q-.08.08-.19.16s-.07.06-.11.09q-.09.07-.17.07s-.02.04-.03.07c-.05.09-.09.14-.17.21h-.08v.08h-.08v.08h-.08v.08q-.08.06-.19.13c-.11.07-.2.14-.3.23q-.07.07-.15.07v.08c-.07.03-.13.05-.2.08v.08h-.08v.08q-.09.1-.2.2h-.08v.08h-.08v.08c-.07.03-.13.05-.2.08v.08h-.12v.08q-.18.16-.28.16v.08q-.14.12-.24.12v.08h-.08v.08q-.18.16-.28.16s-.02.04-.02.07c-.08.13-.17.2-.29.29h-.08v.08c-.07.03-.13.05-.2.08v.08h-.08v.08q-.07.07-.15.14s-.04.04-.09.08q-.08.06-.16.06v.08q-.18.16-.28.16s-.02.04-.02.07c-.08.13-.17.2-.29.29h-.08v.08h-.12v.08h-.08v.08h-.08v.08q-.07.07-.15.14s-.04.04-.09.08q-.08.06-.16.06v.08h-.12v.08h-.08v.08h-.08v.08h-.08v.08q-.08.07-.17.14s-.05.04-.1.08q-.09.06-.17.06v.08h-.08v.08h-.08v.08q-.18.16-.28.16v.08h-.08v.08q-.14.12-.24.12v.08h-.08v.08h-.08v.08q-.18.16-.28.16v.08q-.14.12-.24.12v.08h-.08v.08q-.18.16-.28.16v.08q-.22.2-.32.2v.08h-.08v.08c-.07.03-.13.05-.2.08v.08h-.08v.08q-.22.2-.32.2v.08h-.08v.08c-.07.03-.13.05-.2.08v.08h-.08v.08c-.07.06-.14.12-.21.18-.04.03-.08.06-.12.1q-.1.08-.18.08v.08h-.08v.08h-.08v.08q-.22.2-.32.2v.08c-.07.03-.13.05-.2.08v.08h-.08v.08h-.08v.08c-.07.03-.13.05-.2.08v.08q-.14.12-.24.12v.08h-.08v.08h-.08v.08q-.07.06-.15.12c-.08.06-.16.12-.23.19q-.05.05-.13.05v.08h-.08v.08h-.08v.08c-.07.03-.13.05-.2.08v.08q-.06.05-.14.1-.11.07-.18.18h-.08v.08h-.08v.08h-.08v.08c-.07.03-.13.05-.2.08v.08q-.22.2-.32.2v.08h-.08v.08c-.07.03-.13.05-.2.08v.08h-.08v.08q-.22.16-.32.16s-.02.04-.03.07c-.07.12-.17.21-.28.3-.02.02-.04.04-.06.06-.04.04-.09.08-.13.11-.05.05-.11.1-.16.14t-.08.08s-.05.04-.07.07q-.06.05-.14.05v.08q-.08.08-.19.16s-.07.06-.11.09q-.09.07-.17.07s-.02.04-.03.08q-.05.08-.17.12v.08h-.08v.08c-.09.07-.17.14-.26.21-.05.04-.1.08-.15.12-.02.02-.05.04-.07.06-.08.06-.16.13-.24.2q-.11.09-.19.09v.08h-.08v.08c-.06.05-.11.1-.17.14q-.07.06-.17.16c-.08.08-.16.15-.25.21h-.08v.08h-.08v.08q-.08.08-.19.16s-.07.06-.11.09q-.1.07-.22.11v.08h-.08v.08q-.06.06-.15.13s-.06.05-.09.07c-.03.02-.06.05-.08.07-.04.03-.08.06-.11.1q-.08.06-.16.06v.08q-.18.16-.28.16v.08q-.14.12-.24.12v.08h-.08v.08c-.07.03-.13.05-.2.08v.08h-.08l-.08.16h-.08v.08q-.14.12-.24.12v.08c-.07.03-.13.05-.2.08v.08c-.07.06-.14.12-.21.18-.04.03-.08.06-.12.1-.09.07-.17.12-.27.16v.08h-.08v.08h-.08v.08h-.08v.08q-.08.07-.17.14s-.05.04-.1.08q-.09.06-.17.06v.08q-.18.16-.28.16v.08q-.08.07-.18.14-.13.09-.22.22h-.08v.08h-.08v.08h-.08v.08q-.08.07-.17.14s-.05.04-.1.08q-.09.06-.17.06v.08c-.09.08-.18.15-.28.22-.05.04-.1.08-.16.12-.02.02-.05.03-.07.05q-.06.05-.1.13c.03.05.05.11.08.16.01.06.03.11.04.17.02.12.05.22.11.33.06.14.07.23.05.37h.08c.06.16.09.31.11.47.02.11.06.21.1.31.04.11.07.22.09.33.06.23.12.45.21.67.09.21.13.43.18.65q.02.1.07.15s0,.08.01.12c.02.13.06.23.11.35.06.15.09.31.12.47.05.23.11.45.21.66.07.18.11.36.15.56q.01.1.07.15s0,.08.01.12c.03.16.08.28.14.43.02.07.04.15.06.22q.07.35.22.65c0,.07,0,.13,0,.2h.08s0,.08.01.12q.02.16.09.29c.05.12.07.18.08.3.01.13.05.23.11.35.06.16.09.32.12.49q.02.12.11.23s.01.09.02.13c.02.13.05.22.11.34.06.15.09.31.13.46q.02.1.07.14s0,.08.01.12c.02.15.06.26.11.39.03.08.05.16.07.24.03.11.06.19.1.3.06.15.06.26.05.41h.08s.01.07.02.1q.06.3.16.59.05.14.07.29c.02.16.08.27.14.41.08.2.14.38.12.6h.08v.32h.08s.01.07.02.1q.06.28.16.55c.08.18.11.35.15.54.03.1.06.18.11.28q0,.13,0,.24h.08c.06.17.09.34.12.52.01.01.03.03.04.04,0,.07,0,.13,0,.2h.08q.01.06.02.12.02.08.03.16c.01.05.02.1.03.16q.02.12.07.17c.01.05.02.11.03.16.03.13.06.22.11.34.06.15.06.25.05.41h.08c.05.13.08.24.1.37.02.14.06.25.11.38q.03.08.05.22c.02.12.05.21.1.33.07.17.11.34.16.51.06.2.13.38.21.57.04.15.04.28.03.44h.08v.24h.08s.01.06.02.09c.05.21.11.42.16.63,0,.04.02.07.03.11q.02.08.07.12c0,.08,0,.16,0,.24h.08s0,.08.01.12q.02.16.09.3c.06.14.08.26.1.42.04.09.08.19.12.28.02.08.04.17.06.25q.06.36.22.66c0,.07,0,.13,0,.2h.08v.32h.08c.05.15.08.29.1.44q.01.15.08.27c.08.16.11.32.15.49q.03.11.07.2c.06.12.04.23.04.35h.08c.08.2.09.35.08.56h.08s.01.07.02.1c.05.22.1.44.18.65.06.16.11.33.16.49q.03.11.07.19c0,.09,0,.19,0,.28h.08v.24h.08s0,.08.01.12c.02.14.06.26.12.39.03.08.05.16.07.25.06.3.15.6.27.88.05.16.06.26.05.42h.08c.06.19.09.35.08.56h.08s.01.07.02.1c.05.25.12.48.22.72.05.14.09.28.13.42q.02.08.06.12s0,.1.01.14c.02.17.08.3.14.45.01.09.03.19.04.28.03.07.06.13.09.2.06.15.09.3.12.45q.03.11.07.19c.06.12.04.23.04.35h.08v.24h.08s0,.08.01.12c.02.14.06.26.11.39.07.2.13.41.18.62.04.16.09.31.16.46.06.14.06.25.05.4h.08s.01.07.02.11q.06.32.16.62c.06.14.07.27.09.42.02.05.04.1.06.15.07.17.09.34.1.52h.08v.28h.08q0,.05,0,.1s0,.09.01.13c0,.04,0,.09,0,.13q0,.1.05.15c0,.08,0,.17,0,.25,0,.05,0,.1,0,.16t0,.08c0,.08,0,.17,0,.25,0,.05,0,.1,0,.16,0,.05,0,.1,0,.14q0,.11-.04.15c0,.05-.01.11-.02.16-.02.17-.05.31-.1.47h-.08s0,.07-.01.1c-.03.15-.08.27-.15.41-.02.05-.04.09-.07.14-.02.03-.03.07-.05.1h-.08c-.03.07-.05.13-.08.2h-.08s0,.05-.01.07c-.03.1-.07.16-.14.24-.02.02-.04.05-.06.07q-.06.06-.14.06v.08h-.08v.08h-.08v.08c-.07.03-.13.05-.2.08v.08c-.06.04-.13.08-.2.12-.09.06-.18.13-.27.19q-.08.05-.2.05v.08h-.2v.08h-.2v.08h-.28v.08c-.33.09-.65.09-.98.09-.09,0-.18,0-.27,0-.3,0-.6,0-.89-.09-.01-.01-.03-.03-.04-.04-.04,0-.09-.01-.13-.02-.13-.02-.23-.05-.35-.1v-.08h-.2v-.08s-.04,0-.09-.01c-.13-.03-.22-.09-.34-.17-.11-.08-.2-.14-.33-.18v-.08s-.05-.01-.07-.02c-.07-.02-.14-.04-.21-.06v-.08s-.06-.02-.09-.03c-.12-.05-.22-.11-.33-.18-.16-.11-.33-.21-.5-.3v-.08s-.03,0-.07-.01c-.1-.03-.18-.07-.27-.13-.03-.02-.07-.04-.1-.06-.15-.1-.3-.19-.46-.29q-.09-.06-.21-.1v-.08s-.06-.02-.1-.02c-.15-.06-.27-.14-.41-.23-.11-.08-.23-.15-.35-.22-.02-.01-.04-.03-.06-.04v-.08s-.05,0-.08,0c-.14-.04-.24-.1-.36-.18-.09-.06-.19-.12-.28-.17-.19-.11-.37-.23-.56-.35-.07-.05-.15-.09-.22-.14-.04-.02-.08-.05-.12-.07q-.05-.03-.11-.06s-.05-.04-.07-.05v-.08h-.2s-.02-.05-.03-.08q-.04-.09-.12-.1s-.06-.01-.09-.02c-.06-.03-.12-.06-.17-.1-.03-.02-.07-.04-.1-.06-.16-.1-.32-.2-.47-.3-.11-.07-.22-.14-.34-.21-.17-.1-.33-.2-.49-.31-.14-.09-.29-.18-.44-.25v-.08s-.05,0-.07-.01c-.1-.03-.17-.07-.26-.12-.03-.02-.07-.04-.1-.06-.09-.06-.19-.12-.28-.18-.03-.02-.06-.04-.08-.05-.06-.03-.11-.07-.17-.1-.15-.1-.3-.18-.47-.26v-.08c-.09-.03-.18-.05-.28-.08v-.08h-.12v-.08h-.12v-.08s-.06,0-.08,0c-.13-.04-.19-.09-.29-.18-.09-.08-.19-.12-.3-.17-.05-.03-.11-.05-.16-.08v-.08s-.05-.01-.07-.02c-.07-.02-.14-.04-.21-.06v-.08c-.08-.03-.16-.05-.24-.08v-.08q-.05-.02-.11-.03c-.12-.04-.22-.09-.33-.17v-.08h-.16v-.08s-.07-.02-.1-.03c-.19-.07-.35-.15-.49-.29-.11-.11-.22-.14-.36-.2v-.08h-.12v-.08s-.04,0-.06,0c-.17-.05-.32-.15-.46-.25q-.07-.06-.17-.09c-.11-.04-.2-.1-.29-.17q-.12-.08-.25-.16v-.08s-.04,0-.06,0c-.14-.04-.25-.12-.37-.19-.03-.02-.05-.03-.08-.05-.05-.03-.11-.07-.16-.1-.07-.05-.15-.09-.22-.14q-.36-.22-.53-.34c-.11-.08-.2-.12-.32-.16q-.11-.06-.2-.12v-.08s-.05,0-.07-.01c-.1-.03-.16-.07-.25-.12t-.08-.05s-.05-.03-.08-.05c-.12-.07-.23-.14-.36-.2v-.08s-.05-.01-.07-.02c-.07-.02-.14-.04-.21-.06v-.08h-.12v-.08s-.05-.01-.07-.02c-.07-.02-.14-.04-.21-.06v-.08c-.05-.01-.1-.03-.16-.04v-.08s-.09-.02-.13-.03c-.14-.04-.18-.06-.27-.17q-.06-.02-.12-.04v-.08s-.06-.01-.09-.02q-.1-.02-.18-.06v-.08c-.05-.01-.1-.03-.16-.04v-.08s-.08,0-.12-.01c-.04,0-.08-.02-.12-.02-.01-.03-.03-.05-.04-.08q-.06-.02-.12-.04v-.08s-.06-.01-.09-.02q-.1-.02-.18-.06v-.08s-.04,0-.06-.01c-.13-.04-.25-.11-.36-.19-.02-.01-.05-.03-.07-.04-.06-.04-.12-.08-.18-.12v-.08s-.06-.01-.09-.02q-.1-.02-.18-.06v-.08s-.05,0-.07-.01c-.09-.03-.15-.06-.23-.11-.03-.02-.05-.03-.08-.05-.03-.02-.05-.03-.08-.05q-.18-.11-.37-.22v-.08h-.12v-.08h-.12v-.08s-.06,0-.08,0c-.14-.04-.24-.1-.35-.19v-.08s-.06,0-.09-.01c-.13-.03-.23-.09-.34-.16-.02-.01-.04-.03-.07-.04-.13-.08-.26-.17-.39-.25-.35-.23-.69-.43-1.07-.61v-.08c-.14-.07-.29-.14-.44-.2v-.08c-.08-.03-.16-.05-.24-.08v-.08s-.06,0-.08,0c-.15-.04-.23-.13-.35-.23-.07-.03-.13-.06-.2-.08q-.11-.06-.2-.12v-.08s-.05-.01-.07-.02c-.07-.02-.14-.04-.21-.06v-.08c-.1-.05-.2-.1-.3-.14q-.14-.06-.26-.14v-.08s-.03,0-.06-.01c-.12-.03-.22-.09-.33-.15v-.08h-.12v-.08s-.09-.02-.14-.03c-.05-.01-.09-.03-.14-.04-.01-.03-.03-.05-.04-.08-.07-.04-.13-.07-.2-.1-.04-.02-.07-.04-.11-.05-.03-.01-.06-.03-.09-.04v-.08h-.12v-.08s-.05-.01-.07-.02c-.07-.02-.14-.04-.21-.06v-.08s-.05-.02-.08-.03c-.17-.07-.32-.16-.48-.25v-.08h-.12v-.08s-.05,0-.08,0c-.13-.04-.21-.1-.33-.18q-.07-.06-.19-.11c-.11-.06-.21-.13-.31-.2-.1-.07-.21-.12-.33-.17-.14-.07-.26-.13-.37-.23-.12-.11-.23-.15-.39-.21v-.08s-.07-.02-.11-.03c-.1-.04-.19-.07-.29-.12v-.08s-.04-.02-.08-.03c-.13-.05-.25-.12-.37-.19q-.06-.04-.13-.07s-.06-.04-.1-.07v-.08s-.06-.01-.09-.02q-.1-.02-.18-.06v-.08s-.03,0-.06-.01c-.17-.05-.3-.12-.44-.23-.09-.07-.14-.1-.25-.11v-.08s-.06-.02-.09-.03c-.12-.05-.22-.11-.32-.18-.04-.02-.08-.05-.12-.07-.04-.02-.07-.05-.11-.07-.06-.04-.12-.08-.18-.11-.02-.02-.05-.03-.07-.05q-.07-.04-.19-.08v-.08s-.05-.01-.07-.02c-.07-.02-.14-.04-.21-.06v-.08s-.05-.02-.08-.03c-.17-.07-.32-.16-.48-.25v-.08h-.12v-.08s-.06-.01-.09-.02q-.1-.02-.18-.06v-.08s-.04,0-.07-.01c-.11-.03-.2-.08-.3-.14-.04-.02-.07-.04-.11-.06-.03-.02-.05-.04-.08-.06v-.08s-.04,0-.09-.01c-.12-.03-.19-.07-.29-.15-.1-.07-.17-.12-.29-.16v-.08s-.04-.02-.08-.03q-.11-.05-.23-.11c-.12-.06-.23-.1-.36-.14v.08s-.06.03-.09.05c-.04.02-.08.04-.12.06-.04.02-.08.04-.12.06q-.11.06-.2.13-.07.05-.19.05v.08q-.26.16-.4.16v.08s-.06.03-.09.05c-.04.02-.08.04-.12.06-.04.02-.08.04-.12.06q-.11.06-.2.13-.07.05-.19.05v.08s-.04.02-.06.03c-.23.13-.45.27-.67.42q-.1.06-.22.06v.08c-.11.06-.15.08-.28.08v.08h-.12v.08q-.23.12-.32.12v.08c-.08.03-.16.05-.24.08v.08c-.11.06-.15.08-.28.08v.08s-.04.02-.07.04c-.2.11-.39.23-.57.36q-.08.05-.2.05v.08h-.12v.08c-.11.06-.15.08-.28.08v.08c-.06.03-.12.07-.17.1-.03.02-.06.04-.1.06q-.09.04-.17.04v.08q-.12.08-.24.08v.08h-.16v.08q-.26.16-.4.16v.08q-.07.05-.15.1s-.06.04-.09.05q-.08.04-.2.04v.08c-.08.03-.16.05-.24.08v.08h-.16v.08c-.07.04-.14.08-.21.12-.04.02-.08.04-.12.07-.09.05-.17.08-.27.1v.08h-.08v.08h-.16v.08s-.04.02-.07.04c-.2.11-.39.23-.57.36q-.08.05-.2.05v.08h-.12v.08s-.04.02-.08.05c-.21.11-.41.23-.61.36q-.06.04-.14.04v.08h-.16v.08q-.08.06-.19.12s-.07.04-.11.06q-.1.05-.22.05v.08q-.08.06-.19.12-.05.03-.11.06c-.09.05-.16.07-.26.09v.08h-.12v.08h-.16v.08q-.08.06-.19.12-.05.03-.11.06c-.09.05-.16.07-.26.09v.08h-.12v.08h-.16v.08h-.12v.08s-.04.02-.07.04c-.2.11-.39.23-.57.36q-.08.05-.2.05v.08c-.11.06-.15.08-.28.08v.08c-.07.04-.14.08-.21.12-.04.02-.08.04-.12.07q-.11.06-.23.1v.08c-.11.06-.15.08-.28.08v.08c-.06.04-.13.08-.2.12-.04.03-.08.05-.13.08-.02.01-.04.03-.07.04-.05.03-.09.06-.14.09q-.17.11-.3.11v.08h-.12v.08q-.26.16-.4.16v.08s-.08.04-.12.07c-.14.08-.27.16-.41.25q-.07.04-.19.04v.08c-.11.06-.15.08-.28.08v.08q-.09.07-.21.14s-.08.05-.12.08q-.11.06-.23.06v.08q-.26.16-.4.16v.08c-.06.03-.12.07-.17.1-.03.02-.06.04-.1.06q-.09.04-.17.04v.08q-.26.16-.4.16v.08h-.12v.08s-.07.04-.11.06c-.17.1-.34.21-.51.32q-.1.06-.22.06v.08c-.11.06-.15.08-.28.08v.08s-.08.05-.13.07c-.09.05-.18.1-.26.16q-.09.05-.17.05v.08c-.11.06-.15.08-.28.08v.08s-.06.03-.09.05c-.18.09-.35.19-.51.31q-.12.08-.24.08v.08q-.26.16-.4.16v.08c-.06.03-.12.07-.17.1-.03.02-.06.04-.1.06q-.09.04-.17.04v.08c-.11.06-.15.08-.28.08v.08q-.26.16-.4.16v.08c-.06.03-.12.07-.17.1-.03.02-.06.04-.1.06q-.09.04-.17.04v.08h-.12v.08h-.16v.08h-.12v.08c-.06.03-.12.07-.17.1-.03.02-.06.04-.1.06q-.09.04-.17.04v.08q-.12.08-.24.08v.08c-.11.06-.15.08-.28.08v.08c-.11.06-.15.08-.28.08v.08q-.09.07-.21.14s-.08.05-.12.08q-.11.06-.23.06v.08h-.12v.08h-.16v.08s-.04.02-.09.05c-.04.02-.08.04-.12.06q-.06.03-.12.06-.11.06-.2.13-.07.05-.15.05v.08h-.16v.08c-.11.06-.15.08-.28.08v.08q-.37.21-.56.28v.08c-.11.06-.15.08-.28.08v.08h-.12v.08h-.16v.08q-.37.21-.56.28v.08h-.08v.08c-.12.05-.19.08-.32.08v.08s-.05.03-.08.04c-.03.02-.06.04-.1.05t-.1.05q-.09.05-.17.13h-.12v.08c-.11.06-.15.08-.28.08v.08h-.12v.08c-.11.06-.15.08-.28.08v.08q-.09.07-.21.14s-.08.05-.12.08q-.11.06-.23.06v.08q-.12.08-.28.08v.08h-.12v.08c-.07.04-.14.08-.21.12-.04.02-.08.04-.12.07q-.11.06-.23.1v.08h-.16v.08h-.12v.08s-.04.02-.09.05c-.04.02-.08.04-.12.06q-.06.03-.12.06c-.08.04-.15.09-.22.13q-.09.05-.17.05v.08h-.12v.08h-.16v.08q-.1.07-.23.14s-.08.05-.13.07c-.11.06-.21.1-.32.15v.08h-.16v.08q-.07.05-.17.11s-.07.04-.11.06q-.52.29-.67.34v.08c-.11.06-.15.08-.28.08v.08s-.04.02-.09.05c-.04.02-.08.04-.12.06q-.06.03-.12.06-.11.06-.2.13-.07.05-.19.05v.08c-.11.06-.15.08-.28.08v.08h-.16v.08h-.16v.08s-.09.04-.14.07c-.12.06-.24.12-.36.19-.64.36-1.31.47-2.03.46-.04,0-.08,0-.12,0q-.78,0-.86-.08-.06,0-.12-.01c-.36-.05-.69-.25-1-.42-.03-.02-.06-.04-.1-.06q-.16-.1-.22-.14v-.08c-.07-.03-.13-.05-.2-.08v-.08s-.05-.02-.1-.03c-.03-.02-.07-.03-.1-.05-.01-.04-.03-.08-.04-.12h-.08v-.08h-.08q-.05-.06-.1-.13c-.05-.08-.1-.14-.17-.21-.07-.07-.08-.12-.09-.21h-.08c-.21-.4-.38-.78-.46-1.23q-.02-.09-.06-.2c0-.18,0-.35,0-.53,0-.05,0-.1,0-.15,0-.05,0-.09,0-.14,0-.04,0-.09,0-.13.01-.13.04-.24.09-.36q.01-.09.02-.17c.02-.16.05-.29.11-.44.07-.2.11-.41.15-.62h.08s0-.08,0-.12c0-.15.04-.26.1-.4q.04-.09.07-.22.04-.14.1-.28c.07-.19.11-.39.16-.58q.03-.11.07-.15c.01-.09.03-.19.04-.28h.08v-.28h.08s0-.08,0-.12c0-.14.03-.25.09-.38.14-.36.25-.72.33-1.1.04-.15.09-.29.15-.43.05-.13.08-.23.09-.37.03-.16.08-.29.14-.44.06-.15.1-.3.14-.46q.02-.09.06-.13s0-.08.01-.12c.03-.16.08-.28.14-.43.01-.09.03-.19.04-.28.02-.09.05-.19.08-.28h.08s0-.08,0-.12c0-.13.03-.21.08-.33.09-.19.13-.38.18-.59.02-.1.05-.18.09-.28.09-.23.13-.48.18-.72h.08s0-.05,0-.08c.01-.17.07-.32.13-.48.09-.24.15-.49.21-.74q.03-.1.07-.14s0-.08.01-.12c.02-.12.04-.2.08-.32.06-.15.08-.28.1-.44h.08s0-.05,0-.09c.01-.17.06-.28.13-.43.06-.16.1-.32.14-.48.03-.12.06-.23.11-.35h.08q0-.07,0-.14c0-.17.03-.3.08-.45h.08s0-.08,0-.12c0-.16.05-.27.12-.41.14-.33.22-.7.3-1.05q.02-.09.06-.13s.01-.08.02-.12c.02-.15.06-.29.1-.43h.08q0-.07,0-.14c0-.18.05-.3.13-.45.05-.12.06-.24.08-.36.03-.06.06-.13.09-.19.06-.16.09-.33.13-.5q.03-.11.07-.15c.01-.09.03-.19.04-.28h.08s0-.06,0-.1c.01-.23.1-.43.19-.64.06-.14.07-.26.09-.41.03-.07.06-.15.09-.22.07-.2.11-.41.15-.61h.08v-.32h.08s0-.05,0-.09c.01-.2.09-.36.17-.54.05-.13.08-.24.1-.38.02-.16.08-.28.14-.42.02-.09.03-.19.04-.28h.08s0-.08,0-.12q0-.12.04-.16c.01-.09.03-.19.04-.28h.08s0-.05,0-.09c.01-.2.09-.36.17-.54.05-.13.08-.24.1-.37.02-.13.06-.24.11-.37.07-.2.11-.41.15-.61h.08q0-.06,0-.11c0-.17.06-.3.13-.45.06-.16.1-.33.14-.49q.02-.09.06-.13s0-.08.01-.12c.03-.16.08-.28.14-.43.02-.09.03-.19.04-.28h.08s0-.06,0-.1c0-.15.04-.25.09-.39.04-.13.08-.26.12-.39.04-.15.08-.29.15-.43.06-.13.07-.26.09-.4.03-.07.06-.15.09-.22.07-.2.11-.41.15-.61h.08s0-.09.01-.14c.02-.16.06-.29.11-.44.05-.16.09-.32.13-.48q.03-.1.07-.14s0-.08.01-.12c.03-.16.08-.28.14-.43.02-.09.03-.19.04-.28h.08s.01-.08.02-.12c.05-.37.17-.73.3-1.07.06-.16.09-.31.11-.48.02-.12.05-.24.09-.36h.08q0-.06,0-.12c0-.13.03-.21.08-.33.09-.19.13-.38.18-.59.02-.1.05-.18.09-.28.09-.23.13-.48.18-.72h.08s0-.05,0-.1c0-.17.06-.3.13-.46.06-.15.12-.29.14-.46.02-.13.06-.24.11-.36.06-.16.09-.34.13-.51q.03-.11.07-.15c.01-.09.03-.19.04-.28h.08s0-.05,0-.09c0-.13.03-.19.08-.31.1-.24.16-.48.22-.73,0-.03.02-.06.02-.1t.02-.09q.02-.07.06-.11c.04-.12.05-.23.04-.36-.09-.15-.2-.28-.36-.36v-.08h-.08v-.08h-.08v-.08s-.03-.02-.07-.03c-.1-.05-.2-.1-.29-.17v-.08s-.05-.02-.07-.03c-.1-.05-.17-.11-.26-.19t-.09-.07q-.06-.07-.06-.15c-.07-.03-.13-.05-.2-.08v-.08h-.08v-.08h-.08v-.08h-.08v-.08h-.08v-.08h-.08v-.08s-.06-.02-.08-.03c-.14-.07-.24-.14-.35-.25v-.08c-.07-.03-.13-.05-.2-.08v-.08s-.03-.02-.07-.03c-.09-.05-.17-.1-.25-.17v-.08h-.08v-.08h-.08v-.08s-.06-.02-.09-.03c-.13-.06-.22-.12-.32-.21-.04-.03-.07-.06-.11-.08-.03-.02-.05-.05-.08-.07v-.08h-.08c-.07-.07-.13-.13-.2-.2-.03-.03-.07-.05-.1-.08-.11-.09-.2-.18-.3-.28v-.08s-.04-.01-.08-.02c-.16-.07-.31-.17-.44-.29v-.08h-.08s-.09-.09-.14-.14c-.09-.09-.19-.17-.28-.25-.02-.02-.04-.03-.05-.05v-.08s-.03-.01-.07-.03c-.1-.06-.18-.13-.27-.21-.09-.09-.18-.16-.29-.23-.1-.06-.13-.1-.17-.21h-.08v-.08s-.03-.02-.07-.03c-.1-.05-.16-.11-.24-.2-.18-.18-.37-.36-.58-.51t-.07-.06v-.08s-.04-.01-.09-.03c-.12-.05-.21-.12-.31-.21v-.08h-.08v-.08s-.04-.02-.07-.03c-.12-.07-.21-.16-.32-.25q-.14-.13-.29-.24v-.08h-.08v-.08s-.04-.02-.06-.03c-.12-.07-.23-.15-.34-.23-.02-.02-.04-.03-.07-.05-.06-.04-.11-.09-.16-.13v-.08h-.08v-.08h-.08v-.08h-.08v-.08s-.04-.02-.06-.03c-.13-.07-.23-.15-.33-.25v-.08s-.05-.02-.07-.03c-.09-.05-.15-.1-.22-.16-.09-.08-.16-.13-.26-.19-.03-.02-.05-.03-.08-.05v-.08h-.08v-.08h-.08v-.08h-.08v-.08h-.08v-.08s-.03-.02-.07-.03c-.09-.05-.17-.1-.25-.17v-.08c-.07-.03-.13-.05-.2-.08v-.08h-.08v-.08h-.08v-.08s-.03-.02-.07-.03c-.26-.13-.43-.3-.63-.51-.12-.12-.23-.23-.37-.32q-.06-.04-.12-.09v-.08h-.08v-.08h-.08v-.08s-.05-.02-.07-.03c-.23-.12-.43-.29-.61-.48v-.08s-.06-.02-.09-.03c-.13-.06-.21-.14-.31-.25-.04-.03-.08-.05-.12-.08v-.08h-.08v-.08h-.08v-.08s-.05-.02-.07-.03c-.26-.14-.52-.35-.72-.56v-.08h-.08v-.08s-.03-.02-.07-.03c-.09-.05-.17-.1-.25-.17v-.08h-.08v-.08c-.07-.03-.13-.05-.2-.08v-.08s-.04-.02-.06-.03c-.23-.12-.37-.25-.53-.45-.03-.01-.05-.03-.08-.04v-.08s-.04-.02-.06-.03c-.13-.07-.23-.15-.33-.25v-.08h-.08v-.08c-.07-.03-.13-.05-.2-.08v-.08s-.04-.02-.06-.03c-.12-.07-.22-.15-.33-.25t-.07-.06c-.19-.17-.38-.34-.57-.51q-.11-.11-.24-.19v-.08s-.05-.02-.07-.03q-.09-.04-.21-.12v-.08s-.06-.02-.09-.03c-.13-.06-.21-.14-.31-.25v-.08h-.08v-.08c-.07-.03-.13-.05-.2-.08v-.08s-.03-.02-.07-.03c-.09-.05-.17-.1-.25-.17v-.08h-.08v-.08h-.08v-.08c-.07-.03-.13-.05-.2-.08v-.08s-.06-.02-.09-.03q-.11-.04-.23-.12v-.08h-.08c-.07-.07-.13-.13-.2-.2-.04-.03-.07-.06-.11-.09-.03-.02-.06-.05-.09-.07v-.08s-.06-.02-.09-.02c-.12-.06-.18-.13-.26-.23-.1-.12-.22-.21-.36-.28-.03-.02-.06-.04-.09-.05v-.08h-.08v-.08h-.08v-.08s-.04-.02-.07-.03c-.1-.05-.19-.12-.28-.19t-.1-.07s-.05-.04-.07-.07v-.08h-.08v-.08h-.08v-.08h-.08v-.08s-.05-.02-.07-.03c-.24-.13-.44-.31-.63-.51q-.06-.06-.14-.1v-.08h-.12v-.08h-.08v-.08h-.08v-.08h-.08v-.08h-.08v-.08h-.08v-.08s-.03-.02-.07-.03c-.15-.08-.28-.18-.41-.29-.02-.02-.05-.04-.07-.06-.06-.05-.11-.09-.16-.14v-.08s-.05-.02-.07-.03c-.09-.05-.17-.1-.25-.17v-.08h-.08v-.08h-.08v-.08h-.08v-.08h-.08v-.08s-.04-.01-.08-.03c-.18-.08-.35-.18-.47-.33v-.08h-.08v-.08s-.04-.02-.06-.03c-.13-.07-.23-.15-.33-.25v-.08s-.03-.01-.07-.03c-.11-.06-.2-.13-.29-.21v-.08s-.04-.02-.06-.03c-.12-.06-.23-.13-.33-.21v-.08h-.08q-.06-.05-.12-.12v-.08h-.08v-.08s-.04-.02-.06-.03c-.13-.07-.23-.15-.33-.25v-.08h-.08v-.08s-.05-.02-.07-.03q-.09-.04-.21-.12v-.08h-.08v-.08s-.06-.02-.08-.03c-.14-.07-.24-.14-.35-.25v-.08c-.05-.03-.1-.05-.16-.08v-.08s-.04-.02-.07-.03c-.1-.05-.19-.12-.28-.19-.03-.02-.06-.05-.1-.07-.02-.02-.05-.04-.07-.07v-.08h-.08v-.08h-.08v-.08h-.08v-.08s-.05,0-.07-.01c-.11-.03-.17-.09-.25-.16-.03-.02-.05-.05-.08-.07t-.08-.07s-.03-.03-.07-.06q-.05-.06-.05-.14h-.08v-.08h-.12v-.08h-.08v-.08s-.03-.02-.07-.03c-.09-.05-.17-.1-.25-.17v-.08h-.08v-.08h-.08v-.08h-.12v-.08s-.06-.02-.09-.03q-.11-.04-.23-.12v-.08h-.08v-.08h-.08q-.06-.05-.12-.12v-.08s-.03-.01-.07-.03c-.12-.07-.2-.15-.3-.24-.13-.12-.26-.23-.41-.33-.04-.03-.09-.05-.13-.08v-.08s-.04-.02-.07-.03c-.11-.06-.19-.14-.28-.23-.03-.03-.06-.06-.1-.1q-.07-.08-.07-.16h-.08c-.05-.07-.09-.14-.14-.21q-.09-.15-.2-.28c-.09-.1-.15-.22-.21-.34-.01-.02-.03-.05-.04-.07-.07-.14-.11-.25-.09-.41h-.08s-.02-.08-.02-.12c-.01-.05-.02-.1-.03-.16-.01-.05-.02-.1-.03-.16q-.02-.12-.07-.17c0-.12,0-.24,0-.37,0-.04,0-.07,0-.11,0-.08,0-.16,0-.23,0-.12,0-.24,0-.36,0-.08,0-.15,0-.23,0-.04,0-.07,0-.11q0-.25.05-.3c.01-.09.03-.19.04-.28h.08q0-.05,0-.1c0-.17.06-.26.14-.41.01-.02.03-.05.04-.07.04-.07.07-.14.11-.21.03-.06.06-.13.1-.19l.06-.12h.08s.02-.06.03-.09c.05-.12.12-.21.21-.31h.08s.03-.08.04-.12h.08v-.08h.08v-.08h.08v-.08h.08v-.08h.08v-.08c.2-.18.44-.32.68-.44.03-.01.05-.03.08-.04.69-.34,1.49-.37,2.24-.37.07,0,.13,0,.2,0,.18,0,.37,0,.55,0,.2,0,.4,0,.6,0,.35,0,.7,0,1.05,0,.52,0,1.04,0,1.56,0,.88,0,1.75,0,2.63,0,.87,0,1.74,0,2.6,0h.16c.22,0,.44,0,.66,0,.61,0,1.23,0,1.84,0,.03,0,.06,0,.08,0,.89,0,1.78,0,2.67,0,.03,0,.06,0,.09,0,.47,0,.94,0,1.41,0,1.86,0,3.71,0,5.57,0,.06,0,.12,0,.18,0,.12,0,.23,0,.35,0,.26,0,.52,0,.79,0,.06,0,.12,0,.17,0,1.56,0,3.12,0,4.67,0t.08,0q.49,0,.74,0c.6,0,1.19,0,1.79,0t.08,0c.11,0,.22,0,.32,0,1.01,0,2.01,0,3.02,0,.52,0,1.03,0,1.55,0,.35,0,.69,0,1.04,0,.2,0,.39,0,.59,0,1.04,0,2.08.02,3.13.05,0-.03.01-.06.02-.09.06-.3.22-.58.36-.86.09-.18.16-.37.22-.56.03-.07.05-.13.08-.2h.08s0-.06.01-.09c.03-.11.07-.2.12-.31.12-.23.22-.47.3-.72h.08v-.16h.08s0-.05,0-.08c.01-.16.08-.27.16-.41q.13-.23.23-.48c.04-.12.09-.23.15-.35.07-.14.13-.29.19-.44.03-.08.07-.15.1-.23.07-.13.13-.27.18-.4.08-.19.16-.37.26-.55.06-.12.11-.24.16-.37.03-.06.05-.12.08-.18.07-.16.14-.33.2-.5h.08v-.16h.08v-.2h.08s0-.04.01-.09c.03-.11.07-.2.12-.3.07-.14.14-.29.19-.44.06-.16.12-.32.19-.48h.08s.01-.06.02-.09c.02-.09.04-.18.06-.27h.08c.04-.13.08-.26.12-.4h.08s0-.04,0-.09c0-.11.03-.17.08-.27h.08v-.2h.08s0-.05.01-.08c.05-.23.16-.43.27-.63.13-.26.23-.52.32-.8h.08q.01-.08.02-.15c.04-.2.13-.36.23-.53.08-.15.13-.3.18-.47h.08v-.16h.08v-.2h.08s0-.04.01-.06c.03-.1.07-.2.11-.3.06-.13.1-.26.15-.4h.08s.01-.06.02-.09c.02-.09.04-.18.06-.27h.08v-.16h.08s.01-.06.02-.09c.02-.09.04-.18.06-.27h.08s.01-.04.02-.06c.07-.21.15-.4.26-.6.04-.1.07-.19.08-.29h.08s0-.05.01-.08c.06-.27.21-.52.33-.76.04-.09.07-.17.09-.27h.08v-.16h.08s0-.06,0-.09c0-.14.05-.2.13-.31.01-.03.03-.07.04-.1q.04-.1.1-.19c.07-.13.12-.26.17-.4,0-.03.02-.05.03-.08.02-.06.04-.13.06-.19h.08v-.16h.08v-.2h.08v-.16h.08s0-.07.01-.11c.03-.14.07-.21.15-.33.03-.08.06-.15.08-.23.04-.1.09-.19.13-.29.06-.12.11-.23.16-.36.05-.14.11-.26.18-.38.1-.18.17-.35.24-.54.02-.05.03-.09.05-.14t.03-.1h.08s0-.05.01-.08c.05-.23.16-.42.27-.63.09-.17.15-.33.21-.51.05-.17.12-.33.19-.49h.08s0-.06.01-.09c.03-.11.06-.22.11-.32.01-.04.03-.07.04-.11t.03-.08h.08s0-.05.01-.08c.03-.12.07-.24.12-.36.04-.1.08-.21.11-.32h.08s0-.04.01-.08c.04-.14.1-.27.17-.4q.11-.21.18-.43h.08v-.2h.08v-.16h.08s0-.05,0-.08c.01-.13.05-.2.12-.31.08-.14.14-.3.2-.45q.05-.11.11-.22c.06-.1.09-.18.12-.29,0-.03.02-.06.03-.1,0-.02.01-.05.02-.07h.08s0-.05.01-.08c.03-.14.09-.26.16-.39.1-.2.19-.39.26-.6.02-.05.03-.09.05-.14t.03-.1h.08s0-.06.01-.09c.03-.15.08-.27.16-.4.12-.21.19-.44.26-.66h.08c.03-.12.05-.24.08-.36h.08s0-.04.01-.09c.03-.11.07-.2.12-.3.08-.15.14-.29.19-.44.06-.15.12-.29.19-.44h.08s0-.05,0-.08c.01-.17.08-.28.16-.43.11-.21.21-.42.29-.64h.08v-.2h.08v-.16h.08s0-.04,0-.08c.01-.13.05-.2.12-.31.08-.15.14-.32.2-.48.05-.12.1-.22.17-.32q.03-.09.04-.16h.08s0-.05.01-.08c.05-.19.13-.36.22-.54.09-.18.16-.38.24-.57.04-.11.08-.21.13-.32h.08s0-.04.01-.09c.03-.11.07-.2.12-.3.09-.17.16-.34.22-.52h.08v-.2h.08s0-.04,0-.06c.08-.27.27-.49.44-.71.05-.07.1-.14.15-.22h.08v-.08h.08v-.08h.08v-.08c.07-.06.15-.11.23-.16.04-.03.09-.06.13-.09q.12-.07.24-.11v-.08c.89-.49,2.21-.79,3.19-.39ZM64.65,14.57c-.12.19-.2.33-.2.56h-.08s-.02.07-.04.1c-.12.36-.27.69-.45,1.02-.07.14-.11.22-.11.38h-.08v.16h-.08s-.02.06-.04.1c-.1.27-.21.51-.35.76-.06.11-.1.22-.14.34-.05.13-.12.26-.18.38-.04.07-.07.15-.1.23-.06.13-.12.25-.18.38-.1.2-.16.38-.2.6h-.08v.2h-.08v.16h-.08s-.03.09-.04.13c-.05.14-.12.27-.19.4-.13.24-.24.47-.28.74h-.08s-.03.07-.04.1c-.08.22-.17.44-.28.66-.04.09-.09.18-.13.26-.01.03-.03.06-.04.09q-.04.09-.03.24h-.08v.16h-.08c-.03.08-.07.15-.1.23-.02.04-.04.09-.06.13q-.05.11-.04.24h-.08v.16h-.08s-.02.04-.03.09c-.09.26-.2.5-.33.74-.12.23-.22.46-.31.71-.07.19-.17.37-.26.55-.09.18-.17.36-.25.54-.04.08-.08.16-.12.24q-.06.12-.05.27h-.08v.2h-.08v.16h-.08q-.14.3-.26.61-.05.15-.12.28-.06.11-.05.27h-.08s-.03.09-.04.13c-.06.15-.12.29-.19.43-.12.24-.24.48-.28.76h-.08v.16h-.08s-.03.09-.05.14c-.04.12-.09.22-.16.33q-.08.13-.07.29h-.08v.2h-.08v.16h-.08q-.02.07-.05.14c-.06.17-.14.33-.23.49-.03.06-.06.11-.08.17-.01.03-.03.05-.04.08-.05.09-.09.19-.14.28-.01.03-.02.05-.04.08q-.03.08-.02.23h-.08v.2h-.08v.16h-.08c-.04.1-.08.19-.12.29-.01.03-.02.05-.03.08-.06.14-.1.28-.13.43h-.08q-.1.27-.16.56h-.08s-.03.07-.04.11c-.06.14-.12.27-.19.4q-.2.38-.28.8h-.08s-.03.07-.04.11c-.06.14-.13.27-.19.4-.09.18-.17.37-.24.56-.02.04-.04.09-.07.13q-.06.11-.05.27h-.08s-.03.07-.04.11c-.06.14-.13.27-.19.4-.09.18-.17.37-.24.56-.01.01-.03.03-.04.04,0,.07,0,.13,0,.2h-.08c-.04.09-.08.19-.12.28-.02.04-.03.08-.05.12-.02.04-.04.08-.05.13-.02.04-.03.08-.05.12-.04.1-.06.2-.08.31h-.08s-.02.07-.04.11c-.09.27-.19.5-.34.74-.14.25-.25.53-.3.82h-.08c-.03.06-.05.13-.08.19-.01.04-.03.07-.04.11q-.04.1-.03.22h-.08c-.14.25-.23.47-.28.76h-.08v.2h-.08v.16h-.08s-.02.06-.03.09c-.06.16-.13.3-.21.45q-.05.09-.04.21h-.08s-.03.09-.04.14c-.11.33-.28.64-.45.95q-.04.07-.03.19h-.08v.16h-.08v.16h-.08v.12h-.08q-.07.09-.14.19s-.05.07-.08.11q-.07.09-.06.17h-.08q-.12.12-.16.28h-.08v.08h-.08v.08c-.07.03-.13.05-.2.08v.08l-.24.12v.08s-.05.02-.08.03c-.18.08-.35.19-.51.3-.17.11-.33.19-.52.27v.08s-.04,0-.08.02c-.12.03-.24.05-.36.08q-.06.02-.13.03-.1.02-.14.07c-.08.01-.16.02-.25.03q-.07,0-.11.05c-.77.1-1.56.09-2.34.09-.16,0-.32,0-.48,0-.28,0-.56,0-.84,0-.42,0-.83,0-1.25,0-.7,0-1.4,0-2.1,0-.69,0-1.38,0-2.08,0q-.06,0-.13,0c-.22,0-.44,0-.66,0-1.55,0-3.1,0-4.65,0-1.5,0-3.01,0-4.51,0q-.07,0-.14,0c-.47,0-.93,0-1.4,0-.95,0-1.9,0-2.85,0q-.07,0-.13,0c-2.91,0-5.82,0-8.73,0,.06.13.12.2.23.3.03.02.06.05.09.07.03.02.06.05.08.07.02.02.05.04.07.06q.11.1.25.14v.08q.12.12.28.16v.08c.07.06.13.11.2.17.13.11.26.21.38.33l.1.1h.08v.08c.06.05.13.11.19.16q.2.15.27.23.05.06.13.05v.08q.12.12.28.16v.08q.07.07.15.14s.06.05.08.07c.08.06.15.1.24.15v.08q.06.06.14.11c.22.16.42.33.61.52.24.22.48.43.74.63q.1.08.18.17.06.08.15.07v.08q.07.07.15.14s.06.05.09.08q.07.07.16.06v.08c.06.06.13.11.2.16.18.15.36.3.53.45q.07.07.15.06v.08h.08v.08q.12.12.28.16v.08q.14.14.32.2v.08c.07.03.13.05.2.08v.08h.08v.08q.14.14.32.2v.08q.12.12.28.16v.08h.08v.08c.07.06.14.12.21.18q.06.05.12.1.09.08.18.08v.08h.08v.08h.08v.08q.09.08.19.16s.07.06.11.09q.1.08.22.11v.08h.08v.08c.06.05.13.11.19.16q.2.15.27.23.05.06.13.05v.08h.08v.08c.07.03.13.05.2.08v.08h.08v.08q.1.1.24.12v.08h.08v.08q.07.06.15.12c.08.06.16.12.23.19q.05.06.13.05v.08h.08v.08q.12.12.28.16v.08q.07.07.15.14s.04.04.09.08q.07.07.16.06v.08c.07.03.13.05.2.08v.08c.07.03.13.05.2.08v.08q.06.06.14.13s.06.05.09.07t.09.08s.05.05.08.07c.02.02.05.04.07.07.02.02.04.04.07.06q.06.05.14.04v.08c.06.06.13.11.2.17.14.11.27.22.4.33q.1.11.2.1v.08h.08v.08h.08v.08h.08v.08c.06.06.13.11.19.16.16.13.32.27.48.41q.23.25.52.39v.08h.08v.08q.07.07.15.14s.06.05.09.07q.08.07.2.1v.08c.05.01.1.03.16.04v.08h.08v.08h.12v.08h.08v.08q.14.14.32.2v.08h.08v.08q.12.12.28.16v.08h.08v.08h.08v.08q.1.1.24.12v.08c.07.03.13.05.2.08v.08h.08v.08q.14.14.32.2v.08q.12.12.28.16v.08h.08v.08c.08.07.16.13.24.19.25.19.47.39.69.6q.11.12.26.16v.08h.08v.08h.08v.08q.07.06.15.12c.08.06.16.12.23.19q.05.06.13.05v.08c.07.03.13.05.2.08v.08q.07.07.15.14s.04.04.09.08q.07.07.16.06v.08q.09.08.19.16s.07.06.11.09q.09.07.17.07v.08h.12v.08h.08v.08h.08s.03.08.04.12q.12.12.28.16v.08h.08v.08q.12.12.28.16s.02.05.03.07c.06.1.11.15.21.21h.08v.08q.12.12.28.16v.08h.08v.08q.14.14.32.2v.08q.05.06.13.12s.06.05.09.07c.03.03.07.06.1.09.04.04.08.07.12.11.04.04.09.07.13.11t.06.05q.11.1.24.13v.08h.08v.08h.08v.08s.05.02.1.03q.05.02.1.05s.03.08.04.12q.07.07.15.14s.06.05.08.07q.08.07.2.1v.08h.08v.08q.08.07.17.14s.05.04.1.08q.08.07.17.06v.08h.08v.08c.07.03.13.05.2.08v.08h.08v.08q.07.07.15.14s.06.05.09.08q.07.07.16.06v.08h.08v.08h.08s.03.08.04.12h.08v.08h.08s.02.05.03.07c.08.15.17.28.26.42.02.03.04.06.06.09.02.03.04.06.06.08.02.03.03.05.05.08.02.02.03.04.05.06h.08s.01.06.02.09q.02.11.06.23h.08v.2h.08s0,.05.01.08c.03.12.06.22.1.34.11.31.16.6.17.94h.08c0,.18-.01.36-.02.53q0,.08,0,.15,0,.07,0,.15s0,.09,0,.14q0,.1-.05.14c0,.06,0,.13-.01.19-.02.21-.07.4-.14.6-.06.18-.1.36-.14.54q-.02.1-.06.14c-.02.09-.03.19-.04.28,0,.05-.01.1-.02.16,0,.04-.01.08-.02.12h-.08q0,.06-.01.12c-.03.16-.08.28-.15.43-.01.06-.03.12-.04.18-.03.14-.07.25-.13.38-.06.15-.09.3-.13.46q-.03.1-.07.14c-.01.06-.03.11-.04.17-.02.11-.04.19-.09.29-.05.13-.04.24-.03.37h-.08v.28h-.08s-.02.07-.02.11q-.02.07-.03.14s-.02.09-.03.14q-.03.12-.11.24c-.01.09-.03.19-.04.28-.01.01-.03.03-.04.04,0,.08,0,.16,0,.24h-.08s-.01.07-.02.11c0,.05-.02.1-.03.15,0,.05-.02.1-.03.15-.03.13-.08.26-.13.39-.06.16-.1.32-.15.49-.01.04-.02.07-.03.11-.04.14-.08.28-.12.41-.02.08-.04.16-.07.24-.01.04-.02.09-.04.13q-.03.1-.07.14c0,.05-.01.11-.02.16q-.02.15-.06.2c0,.07,0,.13,0,.2h-.08s-.02.06-.02.1q-.02.06-.03.13s-.02.08-.03.13q-.03.12-.08.23-.04.1-.05.23c-.02.15-.07.25-.14.38-.01.09-.03.19-.04.28-.04.09-.08.19-.12.28-.01.06-.03.11-.04.17-.04.18-.1.36-.16.53-.08.23-.15.46-.21.7-.05.2-.11.4-.19.59-.05.14-.09.26-.1.41q-.02.15-.06.19c0,.07,0,.13,0,.2h-.08q-.14.44-.25.88-.03.15-.08.25c-.05.13-.04.24-.03.37h-.08s-.01.07-.02.11c-.05.26-.11.5-.22.74-.12.29-.2.6-.26.9q-.02.07-.06.18c-.05.12-.06.24-.08.37-.01.01-.03.03-.04.04,0,.07,0,.13,0,.2h-.08s-.02.1-.03.14q-.14.64-.28.92c-.06.15-.08.28-.09.44-.01.01-.03.03-.04.04,0,.07,0,.13,0,.2h-.08q0,.06-.01.12c-.03.16-.08.29-.15.43,0,.04-.01.09-.02.13-.02.13-.04.2-.1.31-.09.19-.13.37-.18.57q-.02.1-.06.14c-.05.18-.09.37-.08.56h-.08v.28h-.08s-.01.06-.02.09c-.06.25-.13.5-.22.75-.05.17-.09.34-.13.51q-.02.09-.06.13c0,.05-.01.11-.02.16q-.02.15-.06.2c0,.08,0,.16,0,.24h-.08s-.01.05-.02.08c-.06.25-.13.5-.2.74t-.03.09q-.06.2-.11.25s0,.08-.01.12c-.02.14-.06.26-.11.39-.04.12-.07.23-.09.36q-.02.09-.06.18c-.04.11-.07.21-.1.32-.07.3-.15.6-.27.88q-.04.1-.05.23c-.02.16-.08.28-.14.42-.02.09-.04.18-.06.27q-.02.09-.06.18c-.06.15-.09.31-.13.47q-.03.11-.07.19c-.05.11-.08.23-.1.35q-.05.25-.1.29s0,.08-.01.12c-.02.12-.04.2-.08.31-.06.16-.08.31-.1.48t-.04.04c0,.08,0,.16,0,.24h-.08c-.03.09-.06.18-.08.27-.02.05-.03.1-.05.15-.03.12-.04.18,0,.3.18-.09.35-.18.52-.29.18-.12.35-.22.55-.3v-.08s.06-.01.1-.02c.13-.05.21-.1.31-.19.17-.14.34-.23.54-.3v-.08q.05-.01.1-.03c.11-.04.2-.09.3-.16.25-.17.51-.33.78-.48.13-.07.24-.15.36-.24.08-.05.16-.09.24-.13v-.08s.07-.02.1-.03c.14-.05.25-.12.37-.21.06-.03.11-.06.17-.09.16-.09.31-.19.46-.29.08-.05.16-.09.24-.13v-.08s.06,0,.09-.01c.13-.03.21-.08.32-.15.04-.03.08-.05.12-.08.1-.07.2-.13.3-.2.12-.08.24-.16.37-.23.2-.11.4-.23.59-.36v-.08h.16v-.08s.05-.01.09-.03c.19-.07.36-.18.53-.28.03-.02.07-.04.1-.06.2-.12.39-.24.58-.37.07-.05.14-.09.22-.13.11-.06.21-.13.31-.19.28-.19.57-.36.87-.51q.08-.04.13-.11c.08-.08.16-.12.26-.17.2-.1.38-.22.57-.34.14-.09.27-.17.41-.25.09-.05.17-.11.26-.16.17-.1.33-.21.51-.29v-.08s.05-.01.07-.02q.09-.02.16-.06v-.08s.06-.01.09-.02q.1-.02.18-.06v-.08s.04,0,.07-.01c.21-.06.39-.21.57-.33q.08-.05.2-.09v-.08h.16v-.08h.08v-.08s.05,0,.08,0c.13-.04.21-.1.32-.18.11-.08.23-.14.36-.21q.09-.05.2-.12v-.08s.04,0,.07-.01c.27-.08.54-.25.77-.42v-.08s.06,0,.08-.01c.14-.04.23-.1.35-.18.22-.15.44-.29.68-.4v-.08s.05,0,.07-.01c.1-.03.18-.07.27-.13.03-.02.07-.04.11-.06.08-.05.16-.1.25-.15.23-.14.46-.28.71-.4v-.08s.05-.02.08-.03c.17-.07.32-.16.48-.25v-.08s.07-.02.11-.03c.13-.05.23-.11.35-.18.04-.02.07-.05.11-.07.08-.05.15-.1.23-.15.14-.09.28-.18.42-.26.03-.02.05-.03.08-.05.17-.1.33-.2.5-.29v-.08s.07-.02.1-.03c.14-.05.25-.12.37-.21.17-.1.33-.2.5-.3.16-.09.31-.19.46-.29.19-.13.38-.24.57-.36.12-.07.23-.14.34-.22q.11-.07.23-.11v-.08s.07-.02.1-.03c.17-.06.32-.14.46-.25v-.08c.08-.03.16-.05.24-.08v-.08h.16v-.08s.07-.02.11-.03c.1-.04.19-.07.29-.12v-.08s.06-.02.08-.03c.13-.06.25-.13.37-.2.18-.11.36-.22.54-.32v-.08s.07-.02.11-.03c.1-.04.19-.07.29-.12v-.08s.07-.02.1-.03c.14-.05.22-.11.34-.2.08-.06.16-.1.25-.15.23-.12.45-.26.65-.43.09-.07.18-.11.29-.15.13-.06.24-.14.36-.22q.08-.05.2-.09v-.08s.05-.01.1-.02c.15-.06.27-.14.4-.23.15-.1.3-.18.45-.26v-.08h.16v-.08q.05-.02.1-.03c.14-.05.27-.12.41-.19.2-.1.38-.18.6-.22v-.08c.19-.03.37-.05.56-.07q.08,0,.16-.05c.11,0,.22,0,.34,0,.03,0,.07,0,.1,0,.07,0,.14,0,.21,0,.11,0,.22,0,.32,0,.07,0,.14,0,.21,0t.1,0q.23,0,.27.05c.08,0,.16.01.24.02q.23.02.28.06c.08,0,.16,0,.24,0v.08q.07.02.15.05c.3.1.59.2.85.38.17.11.34.21.51.31.04.02.08.05.12.07.04.02.08.04.11.07.03.02.07.04.1.06.09.04.16.07.25.09v.08h.12v.08h.12v.08h.16v.08s.08.04.12.07c.05.03.1.06.15.09t.08.04c.11.06.2.12.3.19q.08.06.23.05v.08c.08.03.16.05.24.08v.08q.15.09.32.12v.08h.12v.08h.16v.08q.11.09.24.08v.08s.07.03.1.05c.18.09.34.21.5.32q.1.08.23.07v.08h.12v.08h.16v.08c.15.11.31.2.48.28q.07.04.16.11.07.06.19.05v.08h.12v.08h.12v.08c.09.05.18.1.27.16.03.01.05.03.08.04.12.07.23.13.37.16v.08s.06.03.09.05c.2.11.4.22.59.35.06.04.11.07.17.11.03.02.05.03.08.05q.08.05.19.04v.08h.16v.08c.14.13.3.21.48.28.03.03.05.05.08.08h.12v.08c.09.03.18.05.28.08v.08h.12v.08c.07.04.14.08.21.12.04.02.08.04.12.07q.11.06.23.1v.08h.16v.08h.12v.08q.07.03.14.07c.13.07.23.14.34.24.13.1.27.17.41.24q.1.05.22.13h.12v.08q.09.07.2.14s.08.05.11.07c.12.06.23.11.36.15v.08s.06.02.09.03c.12.05.21.11.31.19.14.1.27.18.44.22v.08c.09.03.18.05.28.08v.08h.16v.08q.08.06.18.11c.16.09.32.19.47.29q.07.04.19.04v.08h.08v.08h.2v.08q.08.06.18.11c.13.07.25.15.37.24.11.08.2.12.33.17.03.03.05.05.08.08h.12v.08s.05.03.07.04q.45.25.57.35.08.07.24.05v.08h.08v.08h.16v.08q.08.02.16.04v.08c.11.06.15.08.28.08v.08q.11.09.24.08v.08s.06.03.09.05q.06.03.12.06.06.03.12.06c.09.06.15.11.23.18.06.04.11.07.17.1t.09.05c.1.05.19.07.29.08v.08c.13.1.24.18.39.25.16.08.31.18.47.29q.1.07.22.06v.08c.11.06.15.08.28.08v.08s.08.02.12.03c.04.02.08.03.12.05q.02.06.04.12.14.05.28.08v.08h.12v.08h.16v.08c.14.11.26.19.42.26.11.05.19.09.29.17q.12.1.25.09v.08s.06.03.09.05q.06.03.12.06s.08.04.12.06q.11.06.2.13.07.06.15.05v.08s.07.03.11.04c.18.08.34.19.51.29q.1.07.22.1v.08q.21.1.44.16v.08q.07.05.17.11c.2.11.39.23.57.36q.08.06.17.05v.08c.09.03.18.05.28.08v.08q.1.07.23.14s.09.05.13.08q.1.06.19.06v.08c.06.03.13.06.19.1.04.02.07.04.11.05q.1.05.22.09v.08s.09.04.13.06c.19.09.36.2.53.32q.09.07.22.06v.08c.07.05.14.09.22.13.21.12.42.25.62.39q.12.09.28.08v.08c.08.03.16.05.24.08v.08q.15.09.32.12v.08c.11.06.15.08.28.08v.08h.12v.08h.12v.08q.09.06.19.12s.07.04.11.06q.1.06.22.09c.01-.18-.02-.3-.09-.46-.07-.2-.13-.41-.18-.62-.05-.16-.09-.33-.15-.49-.05-.13-.08-.24-.09-.38h-.08s0-.09,0-.14q.01-.13-.04-.18s0-.08-.01-.12c-.02-.15-.06-.28-.11-.41-.11-.31-.2-.62-.27-.94h-.08s0-.07,0-.1c0-.15-.04-.24-.1-.38-.04-.12-.05-.24-.07-.36-.02-.05-.03-.11-.05-.16-.08-.24-.15-.48-.21-.73-.04-.16-.09-.31-.15-.45-.06-.13-.09-.25-.12-.39-.03-.15-.07-.29-.12-.43-.05-.14-.07-.27-.09-.42-.03-.11-.08-.21-.12-.32-.1-.23-.15-.46-.21-.71-.02-.1-.05-.19-.09-.28-.05-.13-.08-.25-.11-.39-.05-.24-.12-.47-.19-.71q-.02-.05-.03-.1s-.02-.07-.03-.1c0-.03-.02-.06-.03-.09q-.03-.08-.07-.16c-.06-.11-.06-.23-.08-.36h-.08q0-.05,0-.1c0-.15-.04-.27-.08-.41h-.08s0-.07,0-.1c0-.15-.04-.24-.1-.37-.03-.08-.05-.16-.07-.24-.03-.13-.08-.26-.13-.38-.05-.16-.08-.32-.12-.49-.02-.1-.05-.19-.09-.28-.07-.18-.11-.36-.15-.55-.03-.14-.07-.27-.12-.4-.03-.08-.05-.16-.07-.25-.02-.1-.05-.18-.1-.28-.1-.22-.13-.47-.18-.71h-.08s0-.07,0-.1c0-.14-.04-.24-.09-.36-.04-.11-.07-.21-.09-.32-.05-.2-.11-.38-.18-.57-.05-.15-.09-.31-.13-.46q-.02-.08-.06-.12,0-.06-.01-.12c-.02-.14-.06-.25-.11-.38-.04-.12-.07-.23-.09-.35-.04-.2-.1-.38-.18-.58-.1-.24-.16-.48-.21-.73q-.02-.1-.07-.15,0-.06-.01-.12c-.02-.13-.06-.23-.11-.35-.04-.11-.06-.22-.09-.34-.04-.2-.11-.39-.19-.58-.04-.11-.06-.21-.07-.32h-.08s0-.08,0-.12c0-.17-.06-.28-.13-.43-.01-.09-.03-.19-.04-.28-.03-.07-.05-.15-.08-.22-.06-.17-.11-.34-.16-.52-.03-.11-.07-.22-.11-.33-.05-.13-.07-.26-.09-.4h-.08s0-.07,0-.1c0-.14-.04-.24-.09-.36-.04-.12-.07-.23-.09-.35-.04-.2-.1-.38-.18-.58-.1-.24-.16-.48-.21-.73q-.02-.1-.07-.15,0-.06-.01-.12c-.02-.13-.06-.23-.11-.35-.04-.11-.06-.22-.09-.34-.04-.2-.1-.38-.18-.56-.06-.15-.09-.31-.13-.47-.03-.13-.07-.26-.11-.39h-.08s0-.08,0-.12c0-.14-.03-.22-.09-.35-.04-.11-.07-.22-.09-.34-.04-.2-.1-.36-.19-.54-.05-.1-.06-.2-.07-.32h-.08s0-.08,0-.12c0-.15-.04-.26-.1-.4-.04-.12-.05-.24-.07-.36-.01-.01-.03-.03-.04-.04-.01-.09-.03-.19-.04-.28-.01-.01-.03-.03-.04-.04-.01-.05-.02-.11-.03-.16,0-.03-.01-.07-.02-.1,0-.04-.01-.07-.02-.11-.01-.07-.02-.14-.03-.21,0-.03,0-.06-.01-.09q-.01-.09-.05-.2c-.04-.44,0-.89.07-1.33q0-.06.02-.12c.04-.21.1-.39.19-.59.02-.06.03-.12.04-.18.07-.24.2-.44.34-.64.02-.03.03-.05.05-.08t.05-.07q.04-.07.03-.18h.08c.03-.08.05-.16.08-.24h.08q.07-.07.14-.15s.05-.06.07-.08q.07-.08.1-.17c.05-.1.1-.11.2-.15.08-.07.16-.15.24-.22.25-.23.5-.44.77-.65.03-.02.06-.05.09-.07t.08-.06c.14-.11.26-.24.38-.37.2-.2.38-.35.62-.5v-.08h.08v-.08s.05-.02.07-.03q.09-.05.21-.12v-.08s.04-.02.07-.03c.09-.05.15-.11.23-.19.19-.19.38-.38.61-.52t.09-.06v-.08h.08v-.08s.03-.02.07-.03c.1-.05.19-.12.28-.19.03-.02.06-.05.1-.07.02-.02.05-.04.07-.07v-.08h.08v-.08s.03-.01.07-.03c.11-.06.2-.13.29-.21v-.08s.04-.02.09-.03c.1-.05.18-.09.27-.17v-.08h.08v-.08h.08v-.08s.05-.01.08-.02c.16-.08.27-.2.4-.33.15-.16.28-.3.48-.4.09-.06.16-.13.24-.2v-.08s.03-.01.07-.03c.11-.06.19-.14.29-.22.1-.09.2-.19.31-.27t.09-.07v-.08h.08v-.08s.05,0,.07-.01c.1-.03.17-.07.25-.15v-.08s.05-.02.08-.03q.1-.04.12-.17s.06-.02.08-.03c.14-.06.22-.15.33-.26q.07-.07.18-.15v-.08h.08v-.08h.08v-.08h.08v-.08h.08v-.08s.04,0,.07,0c.12-.04.19-.11.28-.19.16-.15.33-.29.5-.42.02-.02.04-.04.06-.06v-.08s.05-.02.07-.03c.1-.06.16-.12.24-.2.13-.14.26-.23.43-.33.02-.01.04-.03.06-.04v-.08h.08v-.08h.08v-.08s.04-.02.07-.03c.12-.07.22-.16.32-.26.04-.04.09-.08.13-.12t.06-.06q.33-.31.52-.42s.07-.04.1-.07v-.08h.08v-.08c.07-.03.13-.05.2-.08v-.08h.08v-.08s.05-.02.07-.03c.1-.06.17-.13.25-.21q.15-.15.23-.2v-.08s.06-.02.09-.03c.1-.05.18-.09.27-.17v-.08h.08v-.08h.08v-.08s.05-.02.07-.03q.09-.05.21-.12v-.08s.03-.01.06-.02c.14-.08.23-.19.34-.3.19-.19.37-.36.6-.5.02-.02.05-.03.07-.05v-.08s.03-.01.07-.03c.12-.07.21-.16.32-.25q.21-.19.29-.24v-.08s.05-.02.07-.03c.09-.05.16-.11.24-.18.14-.12.28-.23.43-.34.02-.02.04-.03.06-.05v-.08h.08v-.08h.08v-.08h.08v-.08s.05-.01.08-.02c.17-.08.27-.2.4-.34.05-.05.1-.1.15-.15.02-.02.04-.05.06-.07q.06-.05.18-.09v-.08s.05-.02.07-.03c.09-.05.17-.1.25-.17v-.08h.08v-.08h.08v-.08c.07-.03.13-.05.2-.08v-.08s.04-.02.06-.03c.13-.07.23-.15.33-.25v-.08h.08v-.08h.08v-.08s.06-.02.08-.03c.14-.07.24-.14.35-.25v-.08h.08v-.08s.05-.02.07-.03q.09-.05.21-.12v-.08s.05-.02.07-.03c.09-.05.17-.1.25-.17v-.08h.08v-.08h.08v-.08s.03-.02.07-.03c.1-.05.19-.12.28-.19.03-.02.06-.05.1-.07.02-.02.05-.04.07-.07v-.08s.04-.02.07-.03c.11-.06.2-.14.29-.23.1-.1.2-.18.32-.26v-.08s.05-.02.07-.03c.09-.05.16-.1.24-.17.02-.02.05-.04.07-.06q.06-.05.06-.14s.06-.02.08-.03c.14-.07.24-.14.35-.25v-.08h.08v-.08c.07-.03.13-.05.2-.08v-.08s.03-.01.07-.03c.11-.06.19-.15.28-.24.17-.17.33-.31.53-.45.07-.05.13-.1.2-.16v-.08h.08v-.08s.04-.01.08-.02c.15-.07.25-.17.36-.3q.22-.23.31-.28v-.08h.08v-.08s.06-.02.08-.03c.14-.07.24-.14.35-.25v-.08h.08v-.08h.08v-.08s.05-.02.07-.03q.09-.05.21-.12v-.08s.05-.02.07-.03c.09-.05.17-.1.25-.17v-.08h.08v-.08h.08v-.08h.08v-.08s.06-.02.09-.03c.11-.05.2-.11.3-.18.03-.02.06-.05.09-.07q.09-.07.16-.19c-.36-.04-.71-.04-1.07-.03-.78.03-1.56.03-2.34.03-.03,0-.06,0-.09,0-.39,0-.78,0-1.17,0-.36,0-.71,0-1.07,0-.7,0-1.39,0-2.09,0-.61,0-1.22,0-1.83,0-.04,0-.08,0-.12,0-.16,0-.33,0-.49,0-1.54,0-3.08,0-4.62,0-1.37,0-2.74,0-4.11,0-1.54,0-3.08,0-4.62,0-.16,0-.33,0-.49,0-.04,0-.08,0-.12,0-.61,0-1.22,0-1.83,0-.69,0-1.38,0-2.08,0-.39,0-.78,0-1.16,0-.26,0-.52,0-.78,0-.15,0-.29,0-.44,0-.16,0-.32,0-.48,0-.05,0-.09,0-.14,0-.04,0-.08,0-.13,0-.04,0-.07,0-.11,0-.1,0-.2-.02-.3-.04-.06,0-.11,0-.17-.01t-.09,0c-.06,0-.12,0-.19,0q-.23-.01-.27-.06c-.05,0-.11-.01-.16-.02q-.15-.02-.2-.06c-.09,0-.19,0-.28,0v-.08s-.05-.02-.07-.03c-.24-.09-.47-.2-.7-.32q-.1-.05-.22-.09v-.08s-.06,0-.09-.01q-.1-.03-.18-.15h-.08v-.08q-.07-.06-.16-.13c-.12-.09-.23-.18-.33-.29-.03-.03-.07-.07-.1-.1h-.08v-.08h-.08v-.08h-.08c-.03-.07-.05-.13-.08-.2h-.08s-.02-.06-.03-.09q-.04-.1-.1-.16c-.08-.08-.13-.18-.18-.28q-.04-.07-.11-.15c-.06-.08-.08-.14-.09-.23h-.08s0-.04-.01-.07c-.11-.39-.32-.76-.5-1.13h-.08s0-.06-.02-.09c-.02-.11-.06-.2-.1-.3-.02-.04-.03-.07-.05-.11-.02-.04-.03-.07-.05-.11q-.02-.05-.05-.11c-.03-.07-.06-.14-.09-.21-.05-.13-.11-.25-.16-.38h-.08s0-.05-.01-.08c-.05-.22-.14-.43-.23-.64h-.08s0-.06-.01-.09c-.03-.12-.07-.21-.13-.31-.06-.12-.11-.22-.14-.36h-.08v-.2h-.08s0-.05-.01-.08c-.07-.3-.21-.56-.35-.82q-.13-.23-.15-.37h-.08s-.01-.06-.02-.09c-.02-.09-.04-.18-.06-.27h-.08s0-.04,0-.08c-.03-.14-.09-.26-.15-.39-.04-.09-.08-.19-.12-.28h-.08s-.01-.06-.02-.09c-.02-.09-.04-.18-.06-.27h-.08s0-.05-.01-.08c-.07-.3-.21-.56-.35-.82q-.13-.23-.15-.37h-.08s0-.05-.01-.08c-.06-.27-.18-.52-.31-.77-.03-.05-.06-.11-.08-.16-.01-.02-.02-.05-.04-.07-.03-.08-.05-.15-.07-.23h-.08v-.16h-.08s0-.05-.01-.08c-.04-.16-.1-.3-.16-.45t-.04-.09c-.08-.19-.17-.36-.27-.53q-.03-.1-.04-.16h-.08s-.01-.06-.02-.09c-.02-.09-.04-.18-.06-.27h-.08s0-.05-.01-.08c-.03-.14-.09-.26-.16-.39q-.15-.3-.21-.45c-.04-.12-.09-.22-.15-.34-.1-.2-.18-.41-.26-.62q-.04-.11-.12-.19-.02-.08-.04-.16h-.08v-.16h-.08v-.2h-.08s0-.03-.01-.06c-.1-.36-.26-.71-.42-1.05h-.08v-.2h-.08v-.16h-.08s0-.05-.01-.08c-.04-.15-.1-.28-.16-.41-.02-.05-.05-.1-.07-.15-.01-.02-.02-.05-.04-.07-.05-.12-.1-.24-.15-.35h-.08s0-.06-.01-.09c-.08-.34-.25-.66-.41-.96-.04-.09-.07-.17-.09-.26h-.08v-.16h-.08s0-.05-.01-.08c-.07-.3-.21-.56-.35-.82q-.13-.23-.15-.37h-.08s0-.06-.01-.08c-.08-.35-.24-.66-.41-.97-.07-.14-.12-.27-.17-.42-.03-.07-.05-.13-.08-.2h-.08s0-.04-.01-.08c-.04-.14-.1-.27-.17-.4q-.15-.29-.18-.43h-.08s0-.05-.01-.08c-.09-.4-.3-.75-.49-1.11-.02-.03-.04-.07-.05-.1-.02-.03-.03-.06-.05-.09-.04-.08-.06-.16-.08-.24h-.08v-.16h-.08s0-.04-.01-.08c-.04-.17-.11-.31-.18-.47-.03-.06-.06-.13-.09-.19-.01-.03-.03-.06-.04-.09-.07-.16-.14-.32-.2-.48h-.08s0-.05-.01-.08c-.04-.16-.11-.31-.19-.46q-.18-.36-.24-.54h-.08s0-.06-.01-.09c-.03-.12-.07-.22-.12-.33-.02-.04-.04-.08-.06-.12-.02-.04-.04-.08-.06-.13-.02-.04-.04-.08-.06-.13-.08-.18-.17-.36-.26-.54-.06-.12-.1-.24-.15-.36-.11-.26-.25-.52-.38-.77-.02-.03-.04-.07-.05-.1-.02-.03-.03-.06-.05-.09-.04-.08-.06-.16-.08-.24h-.08s0-.06,0-.09c0-.13-.04-.22-.1-.34-.02-.04-.03-.07-.05-.11-.05-.09-.1-.15-.17-.22ZM96.09,105.17v.08h.08v-.08h-.08Z"/>
</svg>