<?xml version="1.0" encoding="utf-8"?>
<!-- Generator: Adobe Illustrator 26.0.1, SVG Export Plug-In . SVG Version: 6.00 Build 0)  -->
<svg version="1.0" id="Capa_1" xmlns="http://www.w3.org/2000/svg" xmlns:xlink="http://www.w3.org/1999/xlink" x="0px" y="0px"
	 viewBox="0 0 1124.9 423.4" style="enable-background:new 0 0 1124.9 423.4;" xml:space="preserve">
<style type="text/css">
	.st0{fill:#FFFFFF;}
</style>
<path class="st0" d="M211.7,0C313,0.6,399.3,71.5,419.1,170.1c22.7,112.8-50.6,224.8-163.5,248.2c-72.9,15.1-137.1-3.7-191.6-54.5
	c-5.2-4.8-9.6-10.2-10.9-17.5c-1.4-7.5,1-13.6,7.2-17.9s12.9-6,20.2-2.2c3.9,2,6.9,5.2,10,8.2c27.8,27.7,61,44.9,100.1,49.6
	c73,8.8,145.3-27.1,176.6-97.8c29.8-67.4,21.7-131.8-25.9-188.8c-35.7-42.4-83-61.1-138.3-59C128.6,41.2,61.1,97.5,44.5,170.5
	c-5.4,23.6-7.1,47.4-1.1,71.2c1,4.2,2.5,8.3,4.5,12.1c6.8,13.2,16.5,17.7,31,14c3.7-0.9,7.3-2.2,10.9-3.4c7.7-2.7,6.5-1.7,4.3-8.4
	c-5.6-16.6-8.2-34-7.7-51.6c1.9-57.3,43.1-109.5,98.4-122.2c35.4-8.1,69.3-3.3,98.6,20.3c12.1,9.8,21,22.2,28.4,35.8
	c0.5,0.9,0.9,1.8,1.1,2.8c0.5,1.6,0.7,3.4-0.8,4.6c-1.5,1.2-3.1,0.7-4.6-0.3c-1.9-1.3-3.8-2.7-5.7-4.1
	c-31.1-22.2-65.7-29.4-102.9-22.7c-43.5,7.8-71.4,42.8-72,88.5c-0.2,11.6,1.1,22.9,5.1,33.9c1.3,3.4,2.3,4.6,6.2,2.7
	c25.4-12.1,50.8-24.2,77.2-33.7c19.7-7.1,39.6-14,60.8-14.9c8.2-0.5,16.3,0.4,24.2,2.5c24.8,7.3,34.3,27.2,32.1,51.9
	c-2.5,28.5-17.5,50.2-39.9,66.4c-41.4,29.9-86.3,36.5-134,16.2c-16.3-7-29.7-18.3-41.1-31.8c-2.3-2.7-4.1-3.4-7.5-1.8
	c-12.5,5.6-25.2,10.5-39.3,10.1c-27.9-0.9-47.6-14.1-59.6-39C2.6,251.5-0.1,231.9,0,211.9c0.2-41.8,11.2-80.7,34.5-115.5
	c36.8-55,88.2-86.7,154.2-95.1C196.5,0.4,204.3,0.6,211.7,0z M208,305.6c29-0.2,51.5-8.3,68.4-23.3c10.1-8.9,17.6-19.5,19.2-33.4
	c1.1-9.7-3.2-15.1-12.8-16.6c-12.3-1.9-23.8,1.7-35.1,5.6c-30.8,10.9-60,25.1-89.5,39c-5,2.3-5.1,2.6-1,6.6
	C170.8,297,188.9,304.9,208,305.6z"/>
<path class="st0" d="M729.1,189.4c-0.4-17.5-9.1-31-26-36.7c-24.8-8.4-48.8-5.6-71.3,8.3c-3.1,1.9-4.3,3.6-1.5,6.9
	c2.6,3.1,4.8,6.4,6.8,9.9c1.8,3.1,3.3,3.8,6.4,1.5c12.1-8.7,25.8-10.8,40.4-8.9c13.7,1.8,21,10,21.2,23.8c0,2.9-1,3.2-3.5,3
	c-8.1-0.6-16.3-1.3-24.4-1.5c-9.8-0.4-19.7,1.2-28.8,4.8c-17.8,7.1-27.9,24.8-25.8,45.1c1.8,17.8,13.3,29.7,32.7,33
	c18.5,3.2,35.3-0.8,50.3-15.1c0,4,0.1,6.7,0,9.3c-0.2,2.8,1,3.8,3.8,3.7c5.7-0.2,11.3-0.1,17,0c2.3,0,3.2-0.6,3.2-3.1
	C729.3,245.3,729.7,217.3,729.1,189.4z M700.1,245.3c-8.4,11.5-25.4,16.9-39.8,12.3c-8.8-2.8-13-8.5-13-17.7
	c0-13,7.2-21.3,20.4-23.5c4.3-0.7,8.6-1.1,12.9-1.2c7.1,0.7,14.2,1.3,21.3,2c1.4,0.1,3.1-0.1,3.1,2.2
	C705,228.4,705.9,237.4,700.1,245.3L700.1,245.3z"/>
<path class="st0" d="M1124.8,212.1c-2.2-38.1-32.1-65.5-69.2-63.4c-38.4,2.1-64.2,35.2-61.4,72c2.6,34,33.4,61.4,68,59.4
	C1098.8,278,1126.8,247.6,1124.8,212.1z M1090.2,242c-7.1,9.9-18.7,15.7-30.9,15.6c-19.6,0-36.5-15.5-39.1-35.8
	c-1.5-11.8,0.3-22.9,6.8-33c11.2-17.8,34.6-23.1,52.4-11.9c3.6,2.3,6.8,5.1,9.5,8.5C1101.8,201,1102.4,225.7,1090.2,242z"/>
<path class="st0" d="M596.3,236.7c0,7.3,0,14.7,0,22c0.2,2-0.6,3.9-2.1,5.2c-24.3,21.1-72,21.8-95.1-2.3c-19-19.8-22.9-43.6-15-69
	c7.7-24.7,25.2-39.9,50.9-43.6c22.3-3.3,42.3,2.4,57.7,20.2c2.5,2.9,3.2,4.8-0.4,7.4c-3.6,2.7-7,5.7-10.1,8.9
	c-2.4,2.5-3.7,2-5.7-0.5c-10.5-13.7-24.4-18.7-41.1-14.7s-27.9,18.9-29.8,38.4c-2.3,23.6,10.5,43.4,31.9,48.2
	c11.3,2.5,22.5,1.6,32.8-4.5c2.4-1.4,3.5-3.1,3.3-6c-0.3-3.8-0.3-7.7,0-11.5c0.4-4-1.3-4.7-4.8-4.6c-6.7,0.2-13.3-0.1-20,0.1
	c-3.1,0.1-4.2-0.9-3.9-4c0.5-5.3-2.2-12.1,1.2-15.3c2.7-2.6,9.5-0.8,14.5-0.8c10.5,0,21,0.1,31.5-0.1c3.6-0.1,4.5,1.1,4.4,4.5
	C596.1,222,596.3,229.3,596.3,236.7L596.3,236.7z"/>
<path class="st0" d="M795.2,279.6c-14.6-0.5-28.6-5.8-39.8-15.1c-3.8-3.1-4.4-5.3-0.4-8.7c3.3-3,6.4-6.3,9.2-9.9
	c1.9-2.3,3-2.5,5.4-0.4c13.9,12.3,30.2,14.4,47.7,10.8c1.8-0.4,3.5-1,5.2-1.8c4.6-2,7.6-5.3,7.9-10.6c0.5-5-2-9.7-6.4-12.1
	c-6.5-3.9-13.9-5.4-21.1-7.3c-8-2.1-16.2-3.8-23.8-7.2c-18.2-8.3-26.3-25.1-20.4-42.3c3.3-9.7,10.3-16.5,19.5-20.3
	c25-10.5,49-8.4,71.5,7.1c3,2.1,3.9,3.9,0.8,6.5c-0.1,0.1-0.2,0.3-0.3,0.4c-3.3,4.2-5.8,10-10.2,12c-4.3,2.1-8.2-4.3-12.8-6.2
	c-10.8-4.6-22.8-5.5-34.2-2.5c-7.3,1.9-10.5,5.8-10.8,11.9s2.4,9.5,9.5,12.4c11.2,4.5,23,6.4,34.4,10.2c4.6,1.4,9,3.4,13.2,5.8
	c21.4,13,22.9,41.5,2.8,56.6C832.3,276.1,819.1,279.8,795.2,279.6z"/>
<path class="st0" d="M941.7,279.9c-41.9,0.1-67.2-21.9-71.2-56c-4.2-35.9,16.5-66.8,50.2-73.8c22.6-4.7,42.9,0.3,60,16.6
	c2.7,2.6,2.8,4.1-0.2,6.5c-3.6,3-6.9,6.2-10,9.7c-2.5,2.8-4,3-6.8,0c-15.3-15.9-41.8-15.8-56.3,0c-15.5,16.9-15.1,47,0.9,63.4
	c14.7,15.1,41.3,14.8,56.7-1c2.9-3,4.3-2.8,6.8,0.1c3.1,3.7,6.4,7.2,9.9,10.5c2.1,2,1.8,3.3-0.1,5.2C968.5,274,953,280,941.7,279.9z
	"/>
<path class="st0" d="M968,401.9"/>
</svg>
