<?xml version="1.0" encoding="utf-8"?>
<!-- Generator: Adobe Illustrator 26.0.1, SVG Export Plug-In . SVG Version: 6.00 Build 0)  -->
<svg version="1.1" id="Capa_1" xmlns="http://www.w3.org/2000/svg" xmlns:xlink="http://www.w3.org/1999/xlink" x="0px" y="0px"
	 viewBox="0 0 50 50" style="enable-background:new 0 0 50 50;" xml:space="preserve">
<style type="text/css">
	.st0{fill:#1C2E35;}
</style>
<g id="XMLID_414_">
	<g>
		<g id="XMLID_00000064331646258753604810000001778583567334536624_">
			<g>
				<path id="XMLID_00000111160018496766841040000010940884356912428688_" class="st0" d="M12.6,44.3c-4.2-0.2-7.5-3.8-7.2-8
					c0.2-4.3,3.8-7.5,8-7.3c4.3,0.2,7.5,3.8,7.3,8.1C20.3,41.5,16.8,44.5,12.6,44.3z"/>
				<path id="XMLID_00000060000666205953413920000005540338378551751046_" class="st0" d="M32.1,27.8c0-3.6,2.8-6.4,6.5-6.3
					c3.6,0,6.3,2.9,6.3,6.5c0,3.2-2.6,6.1-6.2,6.2C34.9,34.2,32,31.5,32.1,27.8z"/>
				<path id="XMLID_00000052801131968926598430000012280809121291175871_" class="st0" d="M9.7,15.2c-0.1-0.1-0.5-0.5-0.6-0.6
					c-0.2-0.2-0.2-0.4,0.1-0.5c1-0.2,1.9-0.5,2.9-0.7c0.9-0.2,1.1,0,0.9,0.9c-0.1,1-0.3,1.9-0.5,2.8c0,0.3-0.2,0.3-0.4,0.2
					c-0.2-0.1-0.6-0.5-0.8-0.7c-0.7,0.9-1.3,1.8-1.7,2.8c-0.9,1.9-1.4,3.9-1.4,6.1c0,1,0.1,1.6,0.3,2.6c0,0.4,0,0.6-0.4,0.7
					c-0.3,0.1-0.6,0.1-0.9,0.2c-0.4,0.1-0.6,0-0.7-0.5c-0.3-1.4-0.4-2.3-0.3-3.7c0.1-2.5,0.7-4.8,1.9-7C8.6,16.9,9.1,16,9.7,15.2z"
					/>
				<path id="XMLID_00000087393386322349610240000015789404443399778216_" class="st0" d="M37.5,16.7c0.1-0.1,0.6-0.3,0.8-0.4
					c0.3-0.1,0.5,0,0.4,0.3c-0.1,1-0.2,2-0.4,2.9c-0.1,0.9-0.4,1-1.2,0.6c-0.8-0.5-1.7-1-2.5-1.5c-0.2-0.1-0.2-0.3,0-0.5
					c0.2-0.1,0.7-0.4,0.9-0.5c-0.6-0.9-1.2-1.8-2-2.6c-1.5-1.5-3.2-2.7-5.2-3.4c-1-0.3-1.6-0.4-2.6-0.7c-0.4-0.1-0.5-0.2-0.5-0.6
					c0-0.3,0.1-0.6,0.1-0.9c0.1-0.4,0.2-0.6,0.7-0.5c1.4,0.2,2.3,0.5,3.6,1c2.3,1,4.3,2.4,5.9,4.3C36.3,15,36.9,15.8,37.5,16.7z"/>
				<path id="XMLID_00000157296321422998464240000008049941996141147309_" class="st0" d="M24.1,42.1c0,0.1,0,0.7,0,0.9
					c0,0.3-0.2,0.4-0.5,0.2c-0.8-0.6-1.6-1.1-2.4-1.7c-0.7-0.5-0.7-0.8,0.1-1.3c0.8-0.5,1.6-1,2.5-1.5c0.2-0.1,0.4,0,0.4,0.2
					c0,0.2,0,0.8,0,1c1.1-0.1,2.2-0.2,3.2-0.5c2-0.6,3.9-1.5,5.5-2.9c0.8-0.7,1.1-1.2,1.8-1.9c0.2-0.3,0.5-0.3,0.8-0.1
					c0.2,0.2,0.5,0.4,0.7,0.5c0.4,0.3,0.4,0.5,0.1,0.8c-0.8,1.1-1.5,1.8-2.6,2.7c-1.9,1.6-4.1,2.6-6.6,3.2
					C26.1,41.9,25.1,42,24.1,42.1z"/>
				<path id="XMLID_00000021840624119264655580000000031497259620215209_" class="st0" d="M13.2,10.5c0-3,2.3-5.4,5.3-5.4
					c3.1,0,5.5,2.5,5.4,5.4c0,3.1-2.4,5.4-5.3,5.4C15.6,15.9,13.1,13.4,13.2,10.5z"/>
			</g>
		</g>
	</g>
</g>
</svg>
