<?xml version="1.0" encoding="utf-8"?>
<!-- Generator: Adobe Illustrator 26.0.1, SVG Export Plug-In . SVG Version: 6.00 Build 0)  -->
<svg version="1.1" id="Capa_1" xmlns="http://www.w3.org/2000/svg" xmlns:xlink="http://www.w3.org/1999/xlink" x="0px" y="0px"
	 viewBox="0 0 50 50" style="enable-background:new 0 0 50 50;" xml:space="preserve">
<style type="text/css">
	.st0{fill:#1C2E35;}
</style>
<g id="XMLID_505_">
	<g>
		<g id="XMLID_00000017484577871267064140000005596547707370506131_">
			<g id="XMLID_00000110468412439614037080000018431021968004997286_">
				<path id="XMLID_00000155838345447112199150000004290123004958775436_" class="st0" d="M36.5,25.2c-5.1,0-9.3,4.2-9.3,9.3
					s4.2,9.3,9.3,9.3s9.3-4.2,9.3-9.3S41.6,25.2,36.5,25.2z M38.2,40.4c-0.5,0.2-0.6,0.4-0.6,0.9c0,1.1,0,1.1-1.1,1.1
					c-1.2,0-1.2,0-1.2-1.2c0-0.2,0-0.3,0-0.5c-1.5-0.3-2.5-1.1-2.9-2.7c-0.1-0.4,0-0.6,0.5-0.6c0.3,0,0.6,0,0.9,0c0.5,0,0.9,0,1,0.6
					c0,0.2,0.3,0.4,0.4,0.4c0.8,0,1.6,0.1,2.3-0.1c0.6-0.2,0.9-0.9,0.8-1.4c-0.1-0.6-0.7-1-1.4-1c-0.7,0-1.4,0-2.1-0.2
					c-1.6-0.4-2.6-1.9-2.6-3.6c0-1.6,1.1-3,2.7-3.4c0.3-0.1,0.4-0.2,0.4-0.5c-0.1-1.6,0-1.4,1.4-1.4c0.9,0,0.9,0,0.9,0.9
					c0,0.1,0,0.3,0,0.4c0,0.3,0.1,0.4,0.4,0.5c1.3,0.3,2.2,1.2,2.4,2.5c0.1,0.5,0,0.7-0.6,0.7c-0.3,0-0.6,0-0.8,0
					c-0.5,0-0.9,0-1-0.6c-0.1-0.2-0.4-0.4-0.6-0.4c-0.6-0.1-1.2-0.1-1.7,0c-0.7,0.1-1.2,0.8-1.2,1.4c0.1,0.7,0.6,1.2,1.4,1.2
					c0.4,0,0.9,0,1.3,0c1.8,0.1,3.2,1.3,3.5,3.1C40.9,38.1,39.9,39.8,38.2,40.4z"/>
			</g>
			<path id="XMLID_00000004544604239536372420000005486490781384323244_" class="st0" d="M31.7,15.5c0,1.5,0,2.9,0,4.4
				c0,1.1,0,2.1,0,3.2c0,0.2,0,0.4-0.3,0.5c-1.9,0.7-2.2,1.1-3.8,2.8c0,0-0.1,0.1-0.2,0.1c0-3.9,0-7,0-10.9c-0.9,0-2,0-2.8,0
				c-0.7,0-1.7-0.3-1.5-0.8c-0.2-0.3,0.3-0.8,0.7-1.3c1.8-2.2,5.4-6.7,5.6-7c0.6-0.6,0.3-0.6,0.8,0.1c0.5,0.8,4,5.4,5.4,7
				c0.4,0.5,0.6,1.1,0.5,1.4c-0.2,0.4-0.8,0.5-1.5,0.5C33.8,15.5,32.7,15.5,31.7,15.5z"/>
			<path id="XMLID_00000072275399917904445670000010964883106434340274_" class="st0" d="M19.6,26.8c0-2,0-4.1,0-6.1
				c0-1.1,0.2-1.5,1-1.5c0.8,0,1.6,0,2.4,0c0.5,0,0.8,0.4,0.8,1.2c0,0.6,0,1.1,0,1.7c0,3.6,0,7.3,0,10.9c0,1-0.3,1.4-1,1.4
				c-0.8,0-1.6,0-2.4,0c-0.6,0-0.9-0.4-0.9-1.3C19.6,31,19.6,28.9,19.6,26.8z"/>
			<path id="XMLID_00000137832286315276142200000006115426362494960258_" class="st0" d="M11.8,28.6c0-1.5,0-2.9,0-4.4
				c0-0.9,0.3-1.4,0.9-1.4c0.8,0,1.6,0,2.4,0c0.6,0,0.9,0.5,0.9,1.4c0,2.9,0,5.8,0,8.8c0,0.9-0.3,1.4-0.9,1.4c-0.8,0-1.6,0-2.4,0
				c-0.6,0-0.9-0.4-0.9-1.3c0-0.7,0-1.5,0-2.2C11.9,30.1,11.9,29.4,11.8,28.6L11.8,28.6z"/>
			<path id="XMLID_00000085242722542598133250000011146807642182205087_" class="st0" d="M4.2,30.5c0-0.9,0-1.7,0-2.6
				c0-0.8,0.3-1.3,0.8-1.3c0.8,0,1.6,0,2.5,0c0.6,0,0.9,0.4,0.9,1.3c0,1.8,0,3.5,0,5.3c0,0.7-0.3,1.2-0.8,1.2c-0.8,0-1.7,0-2.5,0
				c-0.6,0-0.9-0.5-0.9-1.3C4.2,32.3,4.2,31.4,4.2,30.5C4.2,30.5,4.2,30.5,4.2,30.5z"/>
		</g>
	</g>
</g>
</svg>
