<?xml version="1.0" encoding="utf-8"?>
<!-- Generator: Adobe Illustrator 26.0.1, SVG Export Plug-In . SVG Version: 6.00 Build 0)  -->
<svg version="1.1" id="Capa_1" xmlns="http://www.w3.org/2000/svg" xmlns:xlink="http://www.w3.org/1999/xlink" x="0px" y="0px"
	 viewBox="0 0 520.9 136.3" style="enable-background:new 0 0 520.9 136.3;" xml:space="preserve">
<style type="text/css">
	.st0{fill:#FFFFFF;}
</style>
<path class="st0" d="M67.7,26.5c-13.9,7-23,17.3-23.3,33.5c-0.3,16.2,9.7,25.7,22.8,32.3c6.7,3.4,14.1,5.3,21.1,8.3
	c10.1,4.4,15.5,14.3,14.1,24c-0.8,5.2-3.1,7.3-8.6,6.8c-27.9-2.8-50.4-15.3-67.5-37.3c-9.2-11.8-16.7-24.6-19-39.8
	c-3.7-25.1,11.6-42.6,37-42.7c7.6,0,15.1,0.2,22.4,2.6c23.5,7.7,46.8,5.2,70.3-0.5c12.2-3,25.1-4.8,37.2,1.3
	c14.5,7.3,21.2,21.2,17.7,37.1c-8.7,40.5-37.3,67.2-76.2,77.8c-1.1,0.3-2.4-0.3-4.7-0.7c8.8-7.4,17.8-12.9,22.8-22.5
	c9.9-19.1,1.6-38.8-19.2-44.7c-8.2-2.3-16.6-1.8-25-2.1C79.5,59.5,68.9,59.1,64,47.3C60.6,39.4,64.9,33.4,67.7,26.5z"/>
<path class="st0" d="M199.5,26.5c9.1,0,18.2,0.1,27.3,0c4.4-0.1,2.9,2.6,2.5,4.7c-2.5,14.8-4.8,29.6-7.6,44.4
	c-0.6,3.5,0,4.7,3.6,4.3c0.8-0.1,1.6-0.1,2.4,0c14.1,0,14,0,11.1,13.6c-0.6,2.9-1.8,3.8-4.8,3.7c-10.4-0.2-20.8-0.3-31.1,0
	c-4.4,0.1-4.9-1.5-4.2-5.1c3.1-17.5,5.5-35.1,8.9-52.5c1.1-5.7-0.3-8.7-5.6-10.6C201.2,28.6,199.6,28.5,199.5,26.5z"/>
<path class="st0" d="M508.6,43.4c7.7,0,7.9,0.3,6.1,6.8c-0.5,1.3-0.8,2.6-1,4c-0.2,3.7-1.8,5.3-5.7,4c-1.3-0.3-2.7-0.4-4.1-0.2
	c-1.3,0.2-3,0.3-3.4,1.9c-0.4,1.6,1,2.3,2.2,3.1c0.3,0.2,0.7,0.4,1,0.6c6.6,3.1,11,7.8,10.6,15.4c-0.5,7.8-5.5,12.6-12.3,16
	c-7.2,3.5-14.7,4.3-22.7,3.3c-3.8-0.5-4.9-1.9-3.4-5.3c0.2-0.5,0.3-1.1,0.3-1.7c0-6.5,2.5-9.4,9.6-7.3c2.2,0.7,5.7,1.1,6.6-2.1
	c0.8-2.7-2.1-3.4-3.9-4.4c-9.1-5.1-10.6-7.6-9.2-14.8c1.7-8.7,8.8-16.6,16.5-17.1C500.6,45.3,504.5,42.2,508.6,43.4z"/>
<path class="st0" d="M248.5,45.9c7.5,0,15,0.1,22.4,0c3,0,3.3,1.4,2.8,3.7c-2.7,15.1-5.3,30.3-7.9,45.5c0,0.2-0.1,0.4-0.1,0.6
	c-0.7,2-13.6,3.8-18.2,2.3c-3.8-1.2-1.2-4-1-5.8c1.8-11.9,3.8-23.8,6.1-35.7C253.5,51.9,253.7,48.3,248.5,45.9z"/>
<path class="st0" d="M336.8,44.9c7.5,0,15,0,22.5,0c2.5,0,3.5,0.4,3,3.3c-2.7,15.1-5.3,30.3-7.7,45.4c-0.4,2.7-1.7,3.6-4.3,3.5
	c-5.1-0.2-11.8,1.7-15-0.8c-3.2-2.5,0.6-8.8,1.2-13.5c1.2-8.9,2.7-17.7,4.5-26.5C341.9,51.7,342.7,47.5,336.8,44.9z"/>
<path class="st0" d="M419.8,44.8c-6.7,0.4-13.9,1.8-20.2,0.3c-10.6-2.6-19,0.3-27.2,6c-7.6,5.3-9.5,17.3-3.8,24.7
	c2,2.6,0.1,3.3-1.3,4.6c-3.3,3.3-7,7.2-4.2,11.7c2.3,3.8,0.8,5.1-1.5,7.6c-8.4,8.9-5.3,19.8,6.4,22.3c3,0.5,5.9,0.8,8.9,0.9
	c13.4-0.2,24.2-3.3,31.8-13.7c3.6-4.9,5.6-14.1,2.5-18.1c-3.9-5-9.2-7-15.8-5.1c-3.2,0.9-6.1-1.2-9.3-1.2c-0.9,0-2-0.5-1.8-1.8
	c0.2-1,1.1-1.7,2.2-1.6c1.6-0.1,3.2-0.2,4.8-0.2c10.9-0.2,18.6-5.4,22.1-15.5c1.2-3.5,2.1-6.2,6.6-5.4c1.8,0.3,2.2-1.1,2.5-2.6
	c0.4-2.7,0.8-5.4,1.4-8.1C424.7,45.9,423.7,44.5,419.8,44.8z M385.2,99.4c3,0.2,7.7-1.4,7.6,3.5c-0.2,4.8-4.8,5.7-8.8,5.8
	c-3.2,0.1-6.8-0.6-6.6-4.8C377.6,99.1,381.1,98.6,385.2,99.4z M390.3,68.6c-3.5-0.2-6.2-2-5.9-5.9c0.3-3.5,3-5.1,6.2-5
	c3.3,0.1,5.3,2.3,5.8,5.5C395.6,66.5,393.7,68.8,390.3,68.6L390.3,68.6z"/>
<path class="st0" d="M332.6,56.3c-1.1-6.6-5.3-10.7-12-12c-6.9-1.4-12.9,0.8-18.3,4.7c-1.5-1.3,0.4-4.3-3.1-4.2
	c-6.5,0.2-12.9,0.1-19.4,0.1c4.1,2.5,3.4,5.8,2.8,9.3c-3.7,21.3-7.1,42.6-10.8,63.9c-0.6,3.2,0.1,4.2,3.4,4.1c4-0.2,8-0.2,11.9,0
	c3.2,0.2,4.2-1.1,4.5-3.9c0.6-5.2,1.4-10.4,2-15.6c0.3-2.9,1.4-4.2,4.8-4.4C321.4,97.2,336.4,78.7,332.6,56.3z M306,81.2
	c-1.9,1.9-4.6,2.5-7.2,1.6c-3-1-1-3.7-0.8-5.5c0.7-5,1.9-9.9,4.8-14.2c1.5-2.2,3.7-3.8,6.5-2.9c2.7,0.9,3,3.4,3.2,6
	C311.8,71.6,310.3,77,306,81.2L306,81.2z"/>
<path class="st0" d="M472.1,58.7c1.7-9.7-1.3-13.4-11.5-13.6c-6-0.1-12-0.1-17.9-0.1c-10.6,0-10.4,0-12,10.4c-0.6,4,0.8,4.7,4.3,4.5
	c4.8-0.2,9.6-0.1,14.3-0.1c1.6,0,2.8,0.6,2.7,2.3c-0.1,1.3-1.1,1.9-2.5,1.9c-2.4,0.1-4.8,0.1-7.2,0.4c-12.4,1.6-21.2,9-22.6,19.1
	c-1.6,11.1,3.7,15.2,14.5,15c5.3-0.1,9.7-2.8,14-5.7c1.2,5,1.4,5.1,22.3,3.6c-3.7-1.4-4-4-3.4-7.2C468.9,79.1,470.3,68.9,472.1,58.7
	z M441.6,84.3c-2.1,0-3.7-0.9-3.5-3.1c0.5-4.5,4.2-5.2,7.9-5.5c1.4-0.1,3.3-1,3.6,0.9C449.7,79.9,444.6,84.3,441.6,84.3L441.6,84.3z
	"/>
</svg>
