<?xml version="1.0" encoding="utf-8"?>
<!-- Generator: Adobe Illustrator 26.0.1, SVG Export Plug-In . SVG Version: 6.00 Build 0)  -->
<svg version="1.1" id="Capa_1" xmlns="http://www.w3.org/2000/svg" xmlns:xlink="http://www.w3.org/1999/xlink" x="0px" y="0px"
	 viewBox="0 0 197 194.2" style="enable-background:new 0 0 197 194.2;" xml:space="preserve">
<style type="text/css">
	
		.st0{clip-path:url(#SVGID_00000030465341867765223850000004017333056583836829_);fill:url(#SVGID_00000088135409331869622520000004411545000662705805_);}
	
		.st1{clip-path:url(#SVGID_00000060010766369032204780000001770667585878003079_);fill:url(#SVGID_00000111896691683232949660000016478509215100245901_);}
	
		.st2{clip-path:url(#SVGID_00000032619434468047589700000015702275957545377153_);fill:url(#SVGID_00000023266904245776286300000008138756354276189886_);}
</style>
<g>
	<g>
		<defs>
			<path id="SVGID_1_" d="M84.7,3.2c-49,2-71.5,43-78.3,58.7c-0.2,0.4,0.4,0.8,0.7,0.3C15.6,48,42.4,12.9,95.5,25.1
				c51.2,11.8,60.7,64.5,47.8,94.3c-1.5,3.6-5.8,9.4-5.2,10.9c3.4,1.1,11.3-7,15.1-12.8C192.9,57.1,139.1,3.2,87.7,3.2
				C86.7,3.2,85.7,3.2,84.7,3.2"/>
		</defs>
		<clipPath id="SVGID_00000061450359682251440420000017165479424927035303_">
			<use xlink:href="#SVGID_1_"  style="overflow:visible;"/>
		</clipPath>
		
			<linearGradient id="SVGID_00000039115273902974913600000015443583066071358357_" gradientUnits="userSpaceOnUse" x1="3960.625" y1="755.7535" x2="3961.553" y2="755.7535" gradientTransform="matrix(85.6811 85.6811 85.6811 -85.6811 -404059.75 -274584.4688)">
			<stop  offset="0" style="stop-color:#D4E9F4"/>
			<stop  offset="2.030861e-02" style="stop-color:#C3DEEB"/>
			<stop  offset="7.143998e-02" style="stop-color:#9FC7D8"/>
			<stop  offset="0.129" style="stop-color:#7FB2C7"/>
			<stop  offset="0.1925" style="stop-color:#63A1B9"/>
			<stop  offset="0.2643" style="stop-color:#4D93AE"/>
			<stop  offset="0.3481" style="stop-color:#3C88A5"/>
			<stop  offset="0.4518" style="stop-color:#31819F"/>
			<stop  offset="0.5971" style="stop-color:#2A7C9B"/>
			<stop  offset="1" style="stop-color:#287B9A"/>
		</linearGradient>
		
			<polygon style="clip-path:url(#SVGID_00000061450359682251440420000017165479424927035303_);fill:url(#SVGID_00000039115273902974913600000015443583066071358357_);" points="
			99.6,-90.2 257,67.3 99.6,224.7 -57.9,67.3 		"/>
	</g>
	<g>
		<defs>
			<path id="SVGID_00000060028893600382739560000014720838601297027223_" d="M171.4,38.2c7.8,14.7,23.8,55.8-14.2,94.9
				c-36.7,37.7-86.6,18.3-105.4-8.2c-2.3-3.2-5-9.8-6.6-10.1c-2.7,2.3-0.1,13.4,3.1,19.5c34.8,67.5,110.3,49.2,133.2,0.9
				c21-44.3,0.5-83.4-9.4-97.4c-0.1-0.1-0.2-0.2-0.3-0.2C171.5,37.7,171.2,37.9,171.4,38.2"/>
		</defs>
		<clipPath id="SVGID_00000144329842440411679180000010229098822525536662_">
			<use xlink:href="#SVGID_00000060028893600382739560000014720838601297027223_"  style="overflow:visible;"/>
		</clipPath>
		
			<linearGradient id="SVGID_00000006669059727483598050000004686817438517400212_" gradientUnits="userSpaceOnUse" x1="4008.0479" y1="772.6966" x2="4008.9758" y2="772.6966" gradientTransform="matrix(-184.0056 67.8423 67.8423 184.0056 685299.375 -414011.2188)">
			<stop  offset="0" style="stop-color:#D4E9F4"/>
			<stop  offset="8.938750e-03" style="stop-color:#D4E9F4"/>
			<stop  offset="8.741696e-02" style="stop-color:#AED1E0"/>
			<stop  offset="0.198" style="stop-color:#7EB2C7"/>
			<stop  offset="0.3033" style="stop-color:#599AB4"/>
			<stop  offset="0.4006" style="stop-color:#3E89A5"/>
			<stop  offset="0.4869" style="stop-color:#2E7F9D"/>
			<stop  offset="0.5533" style="stop-color:#287B9A"/>
			<stop  offset="1" style="stop-color:#287B9A"/>
		</linearGradient>
		
			<polygon style="clip-path:url(#SVGID_00000144329842440411679180000010229098822525536662_);fill:url(#SVGID_00000006669059727483598050000004686817438517400212_);" points="
			255.8,182.2 61.6,253.8 -10.8,57.3 183.4,-14.3 		"/>
	</g>
	<g>
		<defs>
			<path id="SVGID_00000130610622158111111110000009084593826191736979_" d="M21.6,154c27.4,40.7,74,38.4,91,35.9
				c0.5-0.1,0.4-0.8-0.1-0.8c-16.6,0.3-60.5-4.2-78-55.8C17.8,83.5,57.7,47.9,89.9,43.2c3.9-0.6,11,0,12-1.3
				c-0.8-3.5-11.9-5.9-18.8-6.1c-1,0-2.1,0-3.1,0C9,35.8-7.2,111.2,21.6,154"/>
		</defs>
		<clipPath id="SVGID_00000154385316985248965480000000070566235282565560_">
			<use xlink:href="#SVGID_00000130610622158111111110000009084593826191736979_"  style="overflow:visible;"/>
		</clipPath>
		
			<linearGradient id="SVGID_00000084520085407664670560000013243169133041587887_" gradientUnits="userSpaceOnUse" x1="3993.676" y1="798.9566" x2="3994.6038" y2="798.9566" gradientTransform="matrix(-75.6146 -219.0837 -219.0837 75.6146 477094.25 814717.5625)">
			<stop  offset="0" style="stop-color:#D4E9F4"/>
			<stop  offset="4.102400e-07" style="stop-color:#D4E9F4"/>
			<stop  offset="1.429849e-02" style="stop-color:#C5DFEC"/>
			<stop  offset="5.339263e-02" style="stop-color:#A0C8D9"/>
			<stop  offset="9.723739e-02" style="stop-color:#7FB3C8"/>
			<stop  offset="0.1456" style="stop-color:#64A1B9"/>
			<stop  offset="0.2002" style="stop-color:#4E93AE"/>
			<stop  offset="0.2636" style="stop-color:#3D88A5"/>
			<stop  offset="0.3418" style="stop-color:#31819F"/>
			<stop  offset="0.4505" style="stop-color:#2A7C9B"/>
			<stop  offset="0.7431" style="stop-color:#287B9A"/>
			<stop  offset="1" style="stop-color:#287B9A"/>
		</linearGradient>
		
			<polygon style="clip-path:url(#SVGID_00000154385316985248965480000000070566235282565560_);fill:url(#SVGID_00000084520085407664670560000013243169133041587887_);" points="
			5.6,231.8 -56.2,52.7 100.3,-1.3 162.1,177.7 		"/>
	</g>
</g>
</svg>
