<?xml version="1.0" encoding="utf-8"?>
<!-- Generator: Adobe Illustrator 26.0.1, SVG Export Plug-In . SVG Version: 6.00 Build 0)  -->
<svg version="1.1" id="Capa_1" xmlns="http://www.w3.org/2000/svg" xmlns:xlink="http://www.w3.org/1999/xlink" x="0px" y="0px"
	 viewBox="0 0 835.4 194.2" style="enable-background:new 0 0 835.4 194.2;" xml:space="preserve">
<style type="text/css">
	.st0{fill:#FFFFFF;}
	.st1{clip-path:url(#SVGID_00000096737379553130214460000011720592331637569959_);fill:#FFFFFF;}
	.st2{clip-path:url(#SVGID_00000008855587787236150220000011515534882057106317_);fill:#FFFFFF;}
	.st3{clip-path:url(#SVGID_00000163048091849501685220000014901430569558951832_);fill:#FFFFFF;}
</style>
<g>
	<g>
		<g>
			<path class="st0" d="M250.9,94.5v10.8h12.6v8.2c-3.2,2.3-7.1,3.4-11.8,3.4c-2.6,0-4.9-0.4-6.9-1.3c-2.1-0.9-3.9-2.2-5.4-3.8
				c-1.5-1.6-2.7-3.5-3.6-5.7c-0.8-2.2-1.3-4.6-1.3-7.2v-0.2c0-2.4,0.4-4.7,1.3-6.9c0.8-2.1,2-4,3.5-5.6c1.5-1.6,3.2-2.9,5.2-3.8
				c2-0.9,4.1-1.4,6.4-1.4c1.6,0,3.1,0.1,4.5,0.4c1.4,0.3,2.6,0.6,3.8,1.1c1.2,0.5,2.3,1.1,3.4,1.8c1.1,0.7,2.2,1.5,3.2,2.4l7.9-9.5
				c-1.5-1.3-3-2.4-4.5-3.3c-1.6-1-3.2-1.8-5-2.4c-1.8-0.6-3.7-1.2-5.8-1.5c-2.1-0.4-4.4-0.5-6.9-0.5c-4.3,0-8.3,0.8-11.9,2.3
				c-3.6,1.5-6.8,3.6-9.4,6.3c-2.7,2.7-4.7,5.8-6.2,9.3c-1.5,3.5-2.2,7.3-2.2,11.4v0.2c0,4.2,0.7,8.1,2.2,11.7
				c1.5,3.6,3.5,6.6,6.1,9.3c2.6,2.6,5.8,4.6,9.4,6.1c3.6,1.5,7.7,2.2,12.1,2.2c5.2,0,9.8-0.9,13.8-2.6c4-1.7,7.5-3.9,10.4-6.4V94.5
				H250.9z"/>
			<path class="st0" d="M349.6,87.2c-1.5-3.5-3.6-6.6-6.3-9.2c-2.7-2.6-5.9-4.7-9.5-6.3c-3.7-1.5-7.7-2.3-12.1-2.3
				c-4.4,0-8.4,0.8-12.1,2.3c-3.7,1.5-6.9,3.6-9.6,6.3c-2.7,2.7-4.8,5.8-6.3,9.3c-1.5,3.5-2.3,7.3-2.3,11.4v0.2
				c0,4.1,0.7,7.9,2.2,11.4c1.5,3.5,3.6,6.6,6.2,9.3c2.7,2.6,5.9,4.7,9.5,6.2c3.7,1.5,7.7,2.3,12.1,2.3c4.4,0,8.4-0.8,12.1-2.3
				c3.7-1.5,6.9-3.6,9.6-6.3c2.7-2.7,4.8-5.8,6.3-9.3s2.3-7.3,2.3-11.4v-0.2C351.8,94.6,351.1,90.8,349.6,87.2 M338.8,98.9
				c0,2.4-0.4,4.7-1.3,6.9c-0.8,2.1-2,4-3.5,5.6c-1.5,1.6-3.3,2.9-5.4,3.8c-2.1,0.9-4.4,1.4-6.9,1.4c-2.5,0-4.9-0.5-6.9-1.4
				c-2.1-0.9-3.9-2.2-5.4-3.8c-1.5-1.6-2.7-3.5-3.6-5.7c-0.8-2.2-1.3-4.5-1.3-6.9v-0.2c0-2.4,0.4-4.7,1.3-6.8c0.8-2.1,2-4,3.5-5.6
				c1.5-1.6,3.3-2.9,5.4-3.8c2.1-0.9,4.4-1.4,6.9-1.4c2.5,0,4.8,0.5,6.9,1.4c2.1,1,3.9,2.2,5.5,3.9c1.5,1.6,2.7,3.5,3.6,5.7
				c0.8,2.2,1.3,4.5,1.3,6.9V98.9z"/>
			<polygon class="st0" points="381.9,115.9 381.9,70.4 369.4,70.4 369.4,127.2 410.2,127.2 410.2,115.9 			"/>
			<path class="st0" d="M476.3,87.5c-1.5-3.4-3.5-6.4-6.2-9c-2.7-2.6-5.9-4.5-9.6-6c-3.7-1.4-7.8-2.1-12.2-2.1h-22.1v56.8h22.1
				c4.4,0,8.5-0.7,12.2-2.2c3.7-1.5,6.9-3.5,9.6-6c2.7-2.5,4.7-5.5,6.2-9c1.5-3.5,2.2-7.2,2.2-11.2v-0.2
				C478.4,94.6,477.7,90.9,476.3,87.5 M465.4,98.9c0,2.6-0.4,4.9-1.3,6.9c-0.8,2-2,3.8-3.5,5.4c-1.5,1.5-3.3,2.7-5.4,3.5
				c-2.1,0.8-4.4,1.2-7,1.2h-9.7V81.7h9.7c2.5,0,4.9,0.4,7,1.3c2.1,0.8,3.9,2,5.4,3.5c1.5,1.5,2.6,3.3,3.5,5.4
				c0.8,2.1,1.3,4.4,1.3,6.9V98.9z"/>
			<polygon class="st0" points="508.4,116.1 508.4,104.1 535.1,104.1 535.1,93 508.4,93 508.4,81.5 538.8,81.5 538.8,70.4 496,70.4 
				496,127.2 539.2,127.2 539.2,116.1 			"/>
			<polygon class="st0" points="595,70.4 595,105.3 568.4,70.4 556.9,70.4 556.9,127.2 569.2,127.2 569.2,91.1 596.7,127.2 
				607.3,127.2 607.3,70.4 			"/>
			<path class="st0" d="M681.6,87.5c-1.3-3.5-3.3-6.6-5.8-9.3c-2.5-2.7-5.5-4.8-9-6.4c-3.5-1.6-7.4-2.4-11.7-2.4
				c-4.3,0-8.2,0.8-11.8,2.4c-3.5,1.6-6.5,3.7-9,6.4c-2.5,2.7-4.4,5.8-5.8,9.4c-1.4,3.5-2.1,7.3-2.1,11.1v0.2c0,3.9,0.7,7.6,2,11.1
				c1.3,3.5,3.3,6.6,5.8,9.3c2.5,2.7,5.5,4.8,9,6.4c3.5,1.6,7.4,2.4,11.7,2.4c4.3,0,8.2-0.8,11.7-2.4c3.5-1.6,6.6-3.7,9-6.5
				c2.5-2.7,4.4-5.8,5.8-9.4c1.4-3.5,2.1-7.3,2.1-11.2c0.1-0.1,0.1-0.1,0-0.2C683.6,94.7,683,91,681.6,87.5 M679.3,98.9
				c0,3.5-0.6,6.8-1.8,9.9c-1.2,3.1-2.9,5.8-5,8.1c-2.1,2.3-4.7,4.1-7.6,5.4c-2.9,1.3-6.2,2-9.7,2c-3.5,0-6.8-0.7-9.7-2
				c-3-1.3-5.5-3.2-7.7-5.5c-2.1-2.3-3.8-5-5-8.1c-1.2-3.1-1.8-6.4-1.8-9.9v-0.2c0-3.5,0.6-6.8,1.8-9.9c1.2-3.1,2.8-5.8,5-8.1
				c2.1-2.3,4.7-4.1,7.6-5.4c2.9-1.3,6.2-2,9.7-2c3.5,0,6.8,0.7,9.7,2c3,1.4,5.5,3.2,7.7,5.5c2.1,2.3,3.8,5,5,8.1
				c1.2,3.1,1.8,6.4,1.8,9.9V98.9z"/>
			<path class="st0" d="M730.1,70h-4.1l-26.4,57.2h4.4l7.2-15.9h33.5l7.2,15.9h4.6L730.1,70z M713,107.5l15-32.9l14.9,32.9H713z"/>
			<polygon class="st0" points="796.4,95.4 821.2,70.4 815.5,70.4 779.3,107.7 779.3,70.4 775.1,70.4 775.1,127.2 779.3,127.2 
				779.3,112.7 793.4,98.4 816.7,127.2 822.3,127.2 			"/>
		</g>
	</g>
	<g>
		<g>
			<defs>
				<path id="SVGID_1_" d="M86.6,7.1C38.8,7.8,15.9,46.8,8.8,61.9c-0.2,0.4,0.4,0.7,0.6,0.4c8.6-13.6,35.6-46.9,87-33.7
					c49.6,12.7,57.5,64,44.2,92.5c-1.6,3.4-5.9,9-5.4,10.4c3.3,1.2,11.1-6.5,15-12C190.5,62,139.5,8.4,89.5,7.1
					C88.5,7.1,87.5,7,86.6,7.1"/>
			</defs>
			<use xlink:href="#SVGID_1_"  style="overflow:visible;fill:#FFFFFF;"/>
			<clipPath id="SVGID_00000171691160106651792770000007704277030240593536_">
				<use xlink:href="#SVGID_1_"  style="overflow:visible;"/>
			</clipPath>
			<polygon style="clip-path:url(#SVGID_00000171691160106651792770000007704277030240593536_);fill:#FFFFFF;" points="103.4,-82.9 
				252.6,73.5 95.3,221.8 -53.9,65.4 			"/>
		</g>
		<g>
			<defs>
				<path id="SVGID_00000090282696568302056140000010738026244118068136_" d="M170,43.2c7.2,14.4,21.8,54.6-16.2,91.4
					C117.1,170.1,69,150.1,51.4,124c-2.1-3.1-4.6-9.6-6.2-10c-2.7,2.2-0.4,12.9,2.5,19c32.2,66.2,106.1,50.4,129.6,4.3
					c21.6-42.3,2.6-80.7-6.7-94.5c-0.1-0.1-0.2-0.2-0.3-0.2C170.1,42.6,169.9,42.9,170,43.2"/>
			</defs>
			<use xlink:href="#SVGID_00000090282696568302056140000010738026244118068136_"  style="overflow:visible;fill:#FFFFFF;"/>
			<clipPath id="SVGID_00000026123013024217571910000007220629789907667123_">
				<use xlink:href="#SVGID_00000090282696568302056140000010738026244118068136_"  style="overflow:visible;"/>
			</clipPath>
			<polygon style="clip-path:url(#SVGID_00000026123013024217571910000007220629789907667123_);fill:#FFFFFF;" points="248.5,184.6 
				57.7,249 -7.9,57 183,-7.4 			"/>
		</g>
		<g>
			<defs>
				<path id="SVGID_00000176010111552629739310000004670229279292429954_" d="M21.3,151.4c25.6,40.1,71.1,39,87.7,37.1
					c0.5-0.1,0.4-0.7,0-0.7c-16.2-0.2-58.8-5.6-74.5-56C19.3,83.1,59.1,49.6,90.5,45.9c3.8-0.4,10.7,0.3,11.7-0.9
					c-0.7-3.4-11.4-6-18.2-6.4c-1-0.1-2-0.1-3-0.1C12,36.6-5.7,109.2,21.3,151.4"/>
			</defs>
			<use xlink:href="#SVGID_00000176010111552629739310000004670229279292429954_"  style="overflow:visible;fill:#FFFFFF;"/>
			<clipPath id="SVGID_00000109011841478810009380000009912948931327877560_">
				<use xlink:href="#SVGID_00000176010111552629739310000004670229279292429954_"  style="overflow:visible;"/>
			</clipPath>
			<polygon style="clip-path:url(#SVGID_00000109011841478810009380000009912948931327877560_);fill:#FFFFFF;" points="3.7,226.2 
				-51.9,51.3 101.8,3.1 157.4,178 			"/>
		</g>
	</g>
</g>
</svg>
