<?xml version="1.0" encoding="UTF-8"?>
<svg id="Capa_1" data-name="Capa 1" xmlns="http://www.w3.org/2000/svg" viewBox="0 0 130.16 80.71">
  <defs>
    <style>
      .cls-1 {
        fill: #070508;
        stroke: #000;
        stroke-miterlimit: 10;
        stroke-width: 2px;
      }
    </style>
  </defs>
  <path class="cls-1" d="M21.2,1.28l.12.04,1.29.42.26.09,1.76.59,1.65.56.34.12.23.08.12.04.57.18c1.43.47,2.39.88,2.88,1.22l.14.11c.69.51,1.28,1.12,1.72,1.85l.06.09c.49.82.8,1.8.83,2.75v.16l-.05,1.06v.11c-.12.78-.41,1.54-.67,2.29l-.23.67-.05.13-.12.33,8.23.32.69.03,3.08.12.74.03h.1l3.01.12,3.2.12,1.74.07,1.48.06.75.03,1.65.06h.31l.54.02h.15c.19,0,.37-.04.53-.12l.26-.4.21-.23.42-.49.53-.6.32-.37.53-.6.32-.37.53-.6.32-.37.54-.61.3-.36c.18-.17.38-.23.63-.23h.58l.59-.02h.41l2.12-.04h.84l1.76-.02,1.49-.02,1.76-.02h1.27s.17,0,.17,0h.84s.16,0,.16,0h.33l1.03-.02h.69l.33-.02c.68-.02,1.12.03,1.67.45l.21.13.18.12.21.14.12.08.7.46.23.15.16.11.83.55,1.82,1.19.9.59.75.49.76.49.33.21.43.29.16.11.15.1.16.11.44.34c.81.69,1.88.7,2.9.82l.82.1,1.54.18,1.77.21,3.62.44-.05-.12-.4-1.2-.21-.61-.2-.59-.08-.23c-.57-1.67-.58-3.4.19-5.02.29-.57.64-1.06,1.07-1.53l.12-.13c.82-.86,1.85-1.34,2.98-1.71l.29-.1.6-.2,1.23-.41.71-.24,1.26-.43,1.01-.35.62-.21.59-.2.22-.08c.68-.23,1.39-.43,2.11-.46h.15c1.72-.05,3.32.62,4.56,1.8.91.89,1.37,1.98,1.77,3.17l.12.34.35,1.04.11.32.39,1.17.59,1.77.7,2.06.05.13.23.68.49,1.46.05.14.85,2.51.24.72.03.09.84,2.49.08.24.32.95.85,2.53.04.12,1.15,3.41,1.12,3.33.04.12.61,1.81.46,1.36.19.56.8,2.35.12.34.08.22.04.11.17.52.41,1.23.07.2.21.63.07.2c.58,1.7.56,3.42-.23,5.06-.82,1.64-2.24,2.67-3.94,3.24l-.24.08-2.78.93-2.07.7-1.75.59-.2.07c-.59.2-1.19.35-1.82.37h-.13c-1.29.04-2.59-.33-3.65-1.06l-.14-.11c-1.19-.86-1.88-1.99-2.37-3.35l-.14-.37-.11.1-.68.62-.54.49-.65.59-.39.36-.62.57-.47.43-.44.39-.54.49-.65.59-.47.43-.59.53-.18.23.08.12c.94,1.4,1.32,3.07,1,4.74-.35,1.6-1.29,3.01-2.67,3.91-1.34.84-3.02,1.17-4.59.83-.71-.17-1.34-.43-1.98-.8v.18c-.13,1.57-.71,2.96-1.92,4-1.1.9-2.53,1.33-3.95,1.2-.36-.04-.72-.11-1.06-.22l.02.09c.2,1.22-.15,2.54-.82,3.56l-.32.4-.1.12c-.8.94-2.03,1.59-3.26,1.7-1.4.09-2.63-.19-3.77-1.03v.1c-.17,1.22-.48,2.32-1.3,3.26l-.09.12c-.86,1.04-2.22,1.63-3.55,1.76-1.43.09-2.87-.34-3.95-1.29l-.14-.12-.08-.08-.9-.88-.32-.32-.66-.66-.77-.78-.31-.31-.19-.19-.09-.09-.42-.39-.63-.6-.19-.19-.21-.21-.43-.43-1-1-.91-.91-.43-.43-.2-.2-.25-.25-.61-.58-.26-.25-.08-.09-.06-.06c-.37.17-.66.52-.95.81l-.11.11-.34.35-.45.45-.11.11-.57.53-.47.46-.11.11-.33.34-.43.44-.1.1-.47.44-.58.55-.11.11-.34.35-.45.45-.11.11-.57.53-.49.47-.11.11-.35.35-.23.23-.42.42-.1.1-.15.15c-1.06,1.07-2.47,1.68-3.98,1.7-1.55,0-2.95-.58-4.06-1.66-1.04-1.05-1.58-2.45-1.59-3.9,0-.45.08-.89.15-1.32l-.15.02c-1.55.19-3.07-.05-4.36-.99l-.6-.53-.09-.08c-.83-.77-1.44-2.01-1.54-3.14v-.1c-.08-.69-.04-1.37.14-2.05l-.18.05c-1.39.31-2.86,0-4.06-.74-1.29-.86-2.15-2.11-2.49-3.64-.21-1.07-.09-2.2.3-3.21h-.14c-1.18.03-2.24-.35-3.16-1.07l-.1-.08c-.98-.81-1.46-2.01-1.61-3.23-.02-.28-.03-.54.03-.82.06-.29.05-.56-.05-.82l-.38-.31-.33-.26-.12-.11-.55-.5-.5-.43-.66-.59-.5-.43-.76-.67-1.08-.93-.06.16c-.48,1.38-1.33,2.61-2.6,3.38l-.13.09c-1.29.8-2.98,1.08-4.46.76l-.62-.17-.12-.04-1.45-.48-.31-.11-.48-.16-1.63-.56-.49-.16-1.47-.5-.63-.21-.3-.1c-1.91-.63-3.41-1.56-4.35-3.39l-.07-.12-.32-.84-.04-.12c-.18-.59-.23-1.13-.23-1.71v-.11c0-1.05.3-1.95.63-2.94l.31-.9.05-.14.18-.56.64-1.9.68-2.01.04-.12.21-.64.46-1.36.05-.13.75-2.22,1.03-3.04,1.1-3.27.24-.7.03-.09.77-2.26.04-.11.42-1.26.67-1.99.04-.11,1.09-3.23.9-2.67.25-.73.14-.41.04-.11.38-1.13.71-2.11.28-.82.24-.7.09-.25c.52-1.55,1.53-2.89,3-3.65,1.5-.74,3.13-.96,4.74-.46h0ZM16.01,4.12c-.65.77-.98,1.65-1.29,2.6l-.17.54-.05.14-.47,1.39-.72,2.13-.05.14-.25.73-.53,1.55-.05.15-.86,2.56-1.19,3.52-.35,1.06-.05.13-.92,2.73-.04.12-.37,1.1-.75,2.23-.12.34-1.55,4.6-.51,1.52-.12.35-.35,1.05-.19.58-.04.12-.53,1.56-.29.86-.2.6-.74,2.19-.05.14-.22.64c-.21.61-.36,1.19-.35,1.84v.16c.02,1.04.41,2.04,1.09,2.83l.1.12c.84.99,2.05,1.34,3.24,1.73l.6.2,1.08.36,1.06.35.94.32,1.41.48.13.05.61.21c.59.21,1.17.36,1.8.36h.14c1.25-.03,2.3-.55,3.18-1.42l.12-.12c.41-.43.69-.92.89-1.48l.05-.12.62-1.81.29-.87.03-.1.56-1.64.71-2.1.05-.14.24-.72.52-1.55.05-.15.93-2.74.07-.2.1-.3.07-.2.07-.2.86-2.54.08-.24.32-.94.56-1.64.04-.12.19-.59.35-1.05.19-.59.08-.23.15-.47.04-.12.08-.23.19-.59.35-1.05.19-.59.04-.12.56-1.63,1.52-4.48.6-1.78.16-.49.48-1.41.21-.61.19-.58.07-.21.16-.48.14-.41.08-.22.04-.11c.39-1.15.28-2.36-.23-3.46-.58-1.11-1.53-1.91-2.71-2.32l-.14-.06-2.55-.87-.58-.19-1.84-.61-.14-.05-.86-.29-.27-.09-1.24-.4-.17-.06c-1.61-.45-3.41.13-4.55,1.33l-.03.03ZM109.42,5.35l-.11.03-1.21.39-.25.09-.66.22-.53.17-3.37,1.14-.95.33-.11.04-.22.08-.11.04-.1.03c-.63.22-1.19.52-1.68.97l-.12.12c-.83.79-1.36,1.91-1.41,3.05v.1l.03.68.02.17.14.57.03.1.34,1.02.07.2.13.41.17.52.82,2.42.65,1.91.05.13.23.68.49,1.46.05.14.85,2.51.24.72.03.09.84,2.49.08.24.32.95.85,2.53.04.12,1.15,3.41,1.12,3.33.04.12.61,1.81,1.17,3.47.04.11.22.65.08.22.39,1.15.13.4.03.1.41,1.23.23.68.11.31c.26.79.54,1.53,1.06,2.18l.1.12c.77.9,1.89,1.43,3.05,1.53,1.12.09,2.15-.31,3.18-.66l.46-.15.91-.32.69-.23.68-.23,1.15-.39.62-.21.3-.11,1.5-.53.12-.05c1.13-.43,1.96-1.31,2.47-2.39.26-.59.37-1.17.37-1.8v-.15c0-.78-.25-1.51-.5-2.24l-.08-.22-.35-1.02-1.21-3.58-.49-1.46-.05-.14-.85-2.51-.24-.72-.03-.09-.84-2.49-.08-.24-.28-.83-.89-2.63-.08-.22-.3-.89-.49-1.46-.35-1.02-.04-.12-1.15-3.41-1.2-3.54-.83-2.48-.11-.31-.31-.91-.17-.51-.04-.11-.5-1.5-.3-.9-.25-.74-.15-.46-.07-.21c-.47-1.44-1.25-2.56-2.63-3.26-1.03-.47-2.16-.57-3.23-.24v.02ZM73.1,11.2h-.83l-1.74.03-1.58.02-1.64.02h-.91l-.85.02h-.32l-.82.02h-.25l-.35.02h-.11c-.23,0-.35.07-.5.24l-.18.26-.21.26-.11.13-.42.47-.32.37-.53.6-.31.37-.57.64-.43.52-.32.35-.42.49-.53.6-.31.37-.57.64-.43.52-.32.35-.42.49-.53.6-.31.37-.57.64-.43.52-.32.35-.42.49-.53.6-.31.37-.57.64-.43.52-.32.35-.42.49-.53.6-.42.51-.3.35c-1.16,1.29-1.74,2.7-1.68,4.43.09,1.34.73,2.53,1.64,3.5l.08.09c.58.62,1.35,1.04,2.15,1.3l.12.04c.52.16,1.02.21,1.56.21h.17c1.49-.02,2.9-.68,3.93-1.74l.35-.43.37-.45.17-.2.26-.32.99-1.2.32-.38.2-.25.74-.89.66-.81.32-.38.2-.25.74-.89.66-.81.83-1.02.66-.81.32-.38.2-.25.48-.59.09-.11.17-.21.35-.44c.2-.26.38-.42.54-.46.26-.03.48-.04.72.08.16.15.28.32.35.53l.16.12.47.42.28.26.58.53.21.2.11.1.46.43.09.08.62.58.7.65.59.54,1.08,1.02.91.84,1.09,1.02.91.84,1.09,1.02.91.84,1.09,1.02.91.84,1.09,1.02.91.84,1.09,1.02.91.84,1.09,1.02.91.84,1.09,1.02.83.78.22.2.31.28,1.6,1.56.41.41.26.26.12.12.11.11.28.25.78.75.17.17.36.36.58.58,1.33,1.33,1.22,1.22.58.58.35.35.16.16.78.74.37.35.08.08.26.26.18.18.47.47.48.48.94.94.34-.24.35-.33.51-.46.49-.44.57-.51.58-.53.39-.36.85-.78.7-.64.56-.5.4-.36.52-.47.12-.11.25-.22.12-.12.12-.11c.06-.06.11-.13.13-.23l-.05-.19-.04-.12-.05-.12-.05-.13-.14-.43-.1-.27-.47-1.38-1.16-3.41-.51-1.51-.05-.15-.82-2.46-1.15-3.41-1.19-3.53-1.19-3.52-.95-2.82-.03-.1-.32-.92-.15-.45-.03-.09-.44-1.31-.26-.78-.21-.64-.13-.39-.06-.18-.09-.25-.05-.14c-.1-.15-.17-.15-.35-.2l-.42-.06-.12-.02-.42-.05-.3-.04-.64-.09-1.03-.12-1.62-.2-2.9-.36-1.02-.12-.63-.08-.3-.04c-.97-.12-1.56-.26-1.77-.41l-.1-.07-.29-.19-.16-.11-.34-.22-.76-.5-.32-.21-.09-.06-1-.65-1.43-.94-1.41-.93-.1-.06-.76-.5-1.12-.74-.57-.37-.38-.25-.18-.12-.25-.16-.14-.1c-.21-.13-.39-.12-.64-.12h-.91l-3.53.03.07.08ZM31.44,15.78l-.03.1-1.26,3.74-.92,2.71-.37,1.1-.04.12-.72,2.13-.99,2.92-.29.84-.04.11-.74,2.18-.06.18-.06.18-.09.27-.06.18-.72,2.13-.07.19-.26.76-.45,1.33-.03.1-.16.47-.29.85-.16.47-.07.19-.16.47-.07.19-.16.47-.29.84-.15.47-.03.1-.44,1.3-.25.74-.2.59-.1.28-.12.34-.11.3-.11.3-.06.15-.05.13c-.03.08-.02.15,0,.22l.19.22.08.08.09.08.09.09.64.55.43.38.56.49.72.64.66.59.16.14.09.08.52.46c.29.26.58.52.9.74l.07-.09.78-.86.13-.13.28-.28.35-.35.28-.28.19-.19.62-.59.48-.47.11-.11.34-.35.45-.45.11-.11.47-.45.59-.56.12-.12.35-.35.46-.46.11-.11.58-.54.49-.48.12-.12.35-.35.46-.46.11-.11.59-.55.29-.28c1.08-1.12,2.27-1.82,3.88-1.86,1.3.04,2.52.54,3.43,1.47.78.82,1.22,1.89,1.28,3.01v.12l.02.27.16-.07c1.49-.59,3.11-.67,4.59-.02.52.23.96.52,1.39.88l.14.12c.21.18.38.4.56.63l.1.12c.74.97,1.07,2.1,1.08,3.31v.16l-.09.89-.02.35.12-.02,1.11-.09h.16c1.58.02,2.87.69,3.98,1.79,1,1.06,1.43,2.51,1.4,3.94,0,.38-.08.76-.15,1.12h.11c1.77-.17,3.3.07,4.72,1.18,1.15.98,1.8,2.29,1.96,3.79.12,1.5-.34,2.95-1.29,4.1-.35.41-.75.81-1.16,1.15l-.46.45.6.63,1.37,1.34.36.36.92.92,1,1,.43.43.2.2.25.25.6.57.42.4.1.1.2.2.32.32.9.91.56.56.21.21c.88.9,1.81,1.51,3.11,1.54.99-.02,1.9-.4,2.62-1.07.78-.85,1.08-1.81,1.05-2.95-.06-1.18-.74-2-1.53-2.78l-.19-.19-.52-.52-.55-.55-.92-.91-1.06-1.06-1.13-1.13-.33-.33-.51-.51-.18-.18-.85-.81-.53-.51-.12-.12c-.28-.27-.44-.52-.47-.73,0-.35.07-.51.31-.77.25-.14.49-.15.77-.09.29.12.48.35.69.58l.25.26.12.12.28.26.83.81.18.18.39.4.63.63,1.45,1.45,1.33,1.33.62.62.39.39.18.18.82.79.31.3.12.12.07.07.28.29.52.53.36.37.13.14c.47.48.99.82,1.62,1.04l.12.05c.89.28,1.83.1,2.65-.32.25-.13.47-.28.68-.47l.1-.09c.64-.59.98-1.47,1.04-2.33.02-.64-.09-1.22-.37-1.8l-.04-.09c-.28-.54-.73-.95-1.15-1.36l-.18-.18-.37-.37-.48-.48-.37-.37-.17-.17-.25-.25-.08-.08-.39-.36-.68-.65-.14-.14-.31-.31-.48-.49-1.11-1.11-1.03-1.03-.48-.48-.3-.3-.13-.13-.71-.67-.27-.25-.1-.1-.11-.11-.11-.11-.23-.23-.35-.35-.22-.22-.11-.11c-.24-.24-.42-.45-.42-.82,0-.23.05-.35.21-.54l.06-.08c.22-.16.46-.16.72-.13.26.08.45.27.63.46l.07.07.23.23.16.16.41.42.66.67.23.23.14.14.12.12.3.27.82.79.18.18.39.39.61.61,1.42,1.42,1.3,1.3.61.61.38.38.17.17.82.78.36.36.16.16.25.25c.71.73,1.55,1.28,2.61,1.33h.12c.96.04,1.92-.3,2.64-.94.75-.7,1.18-1.65,1.22-2.67,0-.63-.11-1.2-.38-1.77l-.04-.09c-.28-.54-.74-.96-1.16-1.38l-.18-.18-.38-.38-.49-.49-.37-.37-.18-.18-.25-.25-.08-.08-.39-.35-.76-.73-.16-.16-.35-.35-.56-.56-1.29-1.29-1.18-1.18-.56-.56-.35-.35-.16-.16-.77-.73-.4-.38-.09-.09-.18-.18-.28-.28-.18-.18-.09-.09c-.25-.25-.37-.45-.4-.81,0-.24.11-.39.26-.58.17-.14.31-.15.53-.16h.14c.31.04.51.27.71.48l.08.08.25.26.25.26.15.16.39.36.69.66.14.14.31.31.48.48,1.1,1.1,1.02,1.02.48.48.3.3.13.13.59.57.72.69.15.15.34.34.54.54.18.18.1.1,1.24,1.25.83.84.44.44.41.42.15.15c.9.91,2,1.53,3.31,1.55.48,0,.92,0,1.38-.15l.09-.03c1.17-.37,2.08-1.16,2.66-2.24.54-1.06.63-2.28.27-3.41-.21-.63-.52-1.17-.99-1.65l-.27-.3-.3-.3-.66-.63-.13-.13-.29-.29-.45-.45-1.04-1.05-.95-.96-.45-.45-.28-.28-.19-.19-.52-.49-.64-.61-.13-.13-.29-.29-.45-.45-1.04-1.05-.95-.96-.45-.45-.28-.28-.19-.19-.62-.59-.31-.29-.12-.12-.12-.12-.13-.13-.49-.49-.41-.42-.19-.19-.72-.67-.19-.17-.1-.09-.1-.1-.72-.67-.64-.6-.65-.6-.74-.69-.63-.59-.59-.54-.62-.58-.72-.66-.57-.53-.74-.69-.57-.52-.74-.69-.57-.52-.74-.69-.57-.52-.65-.6-.96-.88-1.05-.97-.57-.52-.74-.69-.57-.52-.74-.69-.57-.52-.74-.69-.63-.59-.59-.54-.76-.7-.33-.3-.1-.09-.17-.16-.62-.51-.08.1-.66.81-.2.25-1.06,1.29-.87,1.06-.53.63-.45.55-.95,1.15-.78.94-.95,1.15-.87,1.06-.27.33-.09.11-.17.21-.41.53c-1.17,1.47-2.91,2.35-4.77,2.58-1.75.18-3.56-.22-4.98-1.29l-.14-.11c-1.5-1.08-2.46-2.78-2.78-4.59-.14-.9-.12-1.88.09-2.76l.02-.1c.29-1.16.88-2.17,1.65-3.07l.08-.09.45-.53.35-.41.07-.08.13-.16.35-.4.14-.16,3.07-3.59.07-.08.14-.16.35-.4.8-.93.64-.75.29-.34.08-.09.14-.16.35-.43.08-.1.06-.08-6.27-.23-.76-.03h-.15l-2.08-.09-8.15-.31h-.14l-3.43-.13h-.38s-.87-.04-.87-.04l-1.05-.04-.53-.02-.57-.02h-.32s-.13,0-.13,0h-.4v-.09ZM36.85,42.4l-.23.23-.13.14-.38.35-.59.56-.11.11-.34.35-.45.45-.11.11-.57.53-.48.47-.11.11-.34.35-.45.45-.11.11-.57.53-.48.47-.11.11-.34.35-.45.45-.11.11-.57.53-.52.5-.12.12-.25.24-.25.25-.36.36-.12.11c-.61.62-.98,1.42-1.02,2.3.03.74.26,1.4.72,1.99l.08.1c.5.63,1.29.96,2.07,1.06.79.07,1.63-.12,2.25-.63l.4-.39.1-.1.15-.15.25-.23.59-.57.11-.11.34-.35.45-.45.11-.11.57-.53.48-.47.11-.11.34-.35.45-.45.11-.11.57-.53.48-.47.11-.11.34-.35.45-.45.11-.11.47-.44.59-.58.12-.12.36-.36.47-.48.11-.11.59-.56c.63-.55.98-1.32,1.06-2.15.03-.97-.29-1.77-.94-2.47-.63-.59-1.49-.92-2.36-.9-1.07.09-1.84.64-2.56,1.39h0ZM43.3,47.18l-.3.3-.18.18-.44.41-.58.56-.11.11-.34.35-.45.45-.11.11-.47.45-.59.56-.12.12-.35.35-.46.46-.11.11-.58.54-.48.47-.11.11-.34.35-.45.45-.11.11-.47.45-.59.56-.12.12-.35.35-.46.46-.11.11-.59.55-.59.57-.15.15c-.82.79-1.33,1.74-1.36,2.89-.02,1.12.36,2.12,1.14,2.94.79.76,1.85,1.15,2.94,1.14,1.57-.09,2.58-1.05,3.64-2.12l.34-.34.21-.21.47-.44.62-.59.12-.12.38-.38.5-.51.12-.12.59-.56.53-.51.12-.12.38-.38.5-.51.12-.12.59-.56.53-.51.12-.12.38-.38.5-.51.12-.12.5-.48.62-.59.12-.12.38-.38.51-.51.12-.12.59-.54c.79-.87,1.12-1.93,1.08-3.1-.06-.82-.41-1.58-.94-2.22l-.1-.12c-.58-.69-1.51-1.1-2.38-1.23-1.75-.15-2.85.63-4.02,1.82h-.07ZM50.66,53.29l-.25.23-.63.6-.12.12-.38.38-.5.51-.12.12-.59.56-.53.51-.12.12-.38.38-.5.51-.12.12-.59.56-.53.51-.12.12-.38.38-.5.51-.12.12-.59.56-.53.51-.12.12-.38.38-.5.51-.12.12-.59.56-.89.87-.26.25c-.94.92-1.63,1.87-1.7,3.22,0,1.16.45,2.13,1.25,2.97.23.22.47.39.76.55l.12.07c.9.48,1.94.57,2.92.31.87-.28,1.5-.78,2.13-1.43l.25-.25.11-.12.3-.28.59-.56.11-.11.34-.35.45-.45.11-.11.57-.53.47-.46.11-.11.33-.34.43-.44.1-.1.47-.44.58-.55.11-.11.34-.35.45-.45.11-.11.57-.53.48-.47.11-.11.34-.35.45-.45.11-.11.57-.53.9-.87.26-.25c.96-.94,1.65-1.9,1.66-3.3,0-1.01-.4-1.9-1.05-2.66l-.09-.12c-.56-.65-1.46-1.04-2.29-1.14-1.25-.08-2.43.18-3.32,1.12h.06ZM57.24,60.13l-.58.57-.43.41-.63.6-.12.12-.38.38-.5.51-.12.12-.59.56-.53.51-.12.12-.38.38-.5.51-.12.12-.59.56-.53.51-.12.12-.38.38-.5.51-.12.12-.59.56-.53.51-.12.12-.38.38-.5.51-.12.12-.6.57c-1,.86-1.77,1.81-1.98,3.16-.08,1.13.21,2.2.97,3.07.7.8,1.66,1.27,2.71,1.34,1.04.06,2.04-.28,2.82-.97l.24-.24.26-.24.58-.56.11-.11.33-.34.43-.44.1-.1.47-.44.58-.55.11-.11.34-.35.45-.45.11-.11.57-.53.47-.46.11-.11.33-.34.43-.44.1-.1.56-.52.47-.46.11-.11.33-.34.43-.44.1-.1.47-.44.58-.55.11-.11.34-.35.45-.45.11-.11.58-.54c.82-.71,1.38-1.55,1.57-2.63l.02-.11c.14-.98-.15-2.02-.72-2.83-.66-.86-1.62-1.44-2.7-1.59-1.29-.15-2.44.3-3.37,1.17l.09-.02Z"/>
</svg>