<?xml version="1.0" encoding="utf-8"?>
<!-- Generator: Adobe Illustrator 26.0.1, SVG Export Plug-In . SVG Version: 6.00 Build 0)  -->
<svg version="1.1" id="Capa_1" xmlns="http://www.w3.org/2000/svg" xmlns:xlink="http://www.w3.org/1999/xlink" x="0px" y="0px"
	 viewBox="0 0 946 261.7" style="enable-background:new 0 0 946 261.7;" xml:space="preserve">
<style type="text/css">
	.st0{fill:#FFFFFF;}
</style>
<path class="st0" d="M139.4,242.7c-13.9,2.4-28,3.2-42.6,5.1L52.2,117.2v136.2c-13.9,1.5-26.6,3.4-39.7,5.4V9.3h37l50.7,141.5V9.3
	h39.2L139.4,242.7z M216.1,100.6c15.1,0,38.2-0.7,52.1-0.7v39c-17.3,0-37.5,0-52.1,0.7v58c22.9-1.5,45.8-3.4,68.9-4.1V231
	l-107.9,8.5V9.3h107.9v39h-68.9V100.6z M430,48.2h-40.4v179.3c-13.2,0-26.3,0-39,0.5V48.2h-40.4v-39H430L430,48.2z M493.4,97.9h53.4
	v39h-53.4v88.4h-38.3V9.3H564v39h-70.7V97.9z M627.4,191.3c22.2,0.5,44.6,2.2,66.3,3.4v38.5c-34.8-2.2-69.7-4.4-105.2-5.1V9.3h39
	V191.3z M726.5,235.8c12.4,0.7,25.6,1.5,38.2,2.9V9.3h-38.2V235.8z M935.5,9.3l-49.5,118.6l49.5,130.8c-14.6-1.9-29.2-4.6-43.9-7.1
	l-28-72.1l-28.5,66.3c-14.1-2.4-27.8-3.2-41.9-5.1l50.2-114.3L798.1,9.3H840l25.6,65.5l27.3-65.5H935.5z"/>
</svg>
