<?xml version="1.0" encoding="utf-8"?>
<!-- Generator: Adobe Illustrator 26.0.1, SVG Export Plug-In . SVG Version: 6.00 Build 0)  -->
<svg version="1.1" id="Capa_1" xmlns="http://www.w3.org/2000/svg" xmlns:xlink="http://www.w3.org/1999/xlink" x="0px" y="0px"
	 viewBox="0 0 374 656" style="enable-background:new 0 0 374 656;" xml:space="preserve">
<style type="text/css">
	.st0{fill:#63C1E3;}
</style>
<g>
	<path class="st0" d="M333.8,13.5c8,0,15.1,4.8,18.2,12.1s1.4,15.8-4.3,21.4L67.1,327.6l280.6,280.6c4,3.6,6.4,8.7,6.6,14.1
		c0.2,5.4-1.9,10.6-5.7,14.4c-3.8,3.8-9,5.9-14.4,5.8c-5.4-0.1-10.5-2.5-14.1-6.5L25.5,341.5c-3.7-3.7-5.8-8.7-5.8-13.9
		s2.1-10.2,5.8-13.9L320,19.2C323.7,15.6,328.6,13.5,333.8,13.5L333.8,13.5z"/>
</g>
</svg>
