<?xml version="1.0" encoding="utf-8"?>
<!-- Generator: Adobe Illustrator 26.0.1, SVG Export Plug-In . SVG Version: 6.00 Build 0)  -->
<svg version="1.1" id="Capa_1" xmlns="http://www.w3.org/2000/svg" xmlns:xlink="http://www.w3.org/1999/xlink" x="0px" y="0px"
	 viewBox="0 0 950 413" style="enable-background:new 0 0 950 413;" xml:space="preserve">
<style type="text/css">
	.st0{fill:#FFFFFF;}
</style>
<path class="st0" d="M727.1,273l2.5-10.8h20.6v81c0,15.8-4.4,26.9-14.9,35.1c-7.9,6-18.7,10.4-31.7,10.4c-17.7,0-30.4-6-40.5-15.8
	l13-18c6.3,6,14.9,11.4,26,11.4c17.4,0,25-8.6,25-21.2v-6c-7,7.3-15.2,10.1-24.4,10.1c-24.1,0-43.1-19.6-43.1-44.6
	c0-24.7,19.6-43.7,43.7-43.7C713.2,260.9,722,265.7,727.1,273 M706.2,282.1c-12.3,0-22.2,9.5-22.2,22.5c0,12.3,9.8,22.2,22.2,22.2
	c12.3,0,22.2-9.8,22.2-22.2C728.4,291.6,718.6,282.1,706.2,282.1 M572.3,141.3c-9.8,0-18.1,5.7-19.9,14.9h39.3
	C589.7,147.3,581.8,141.3,572.3,141.3 M573.6,210c-26.3,0-45.6-18-45.6-44.3c0-23.7,17.4-45,45-45c20.6,0,41.8,15.5,41.8,44.3
	c0,2.2,0,5.1-0.6,8.2H552c2.2,9.5,10.8,15.8,21.2,15.8c9.5,0,16.8-3.5,22.8-9.8l14.2,14.6C601.1,204.3,587.8,210,573.6,210
	 M836.6,141.3c-9.8,0-18,5.7-19.9,14.9H856C854.1,147.3,846.1,141.3,836.6,141.3 M837.9,210c-26.3,0-45.6-18-45.6-44.3
	c0-23.7,17.4-45,45-45c20.6,0,41.8,15.5,41.8,44.3c0,2.2,0,5.1-0.6,8.2h-62.1c2.2,9.5,10.8,15.8,21.2,15.8c9.5,0,16.8-3.5,22.8-9.8
	l14.2,14.6C865.5,204.3,852.2,210,837.9,210 M897.1,280.6c-9.8,0-18,5.7-19.9,14.9h39.3C914.5,286.6,906.6,280.6,897.1,280.6
	 M898.4,349.2c-26.3,0-45.6-18-45.6-44.3c0-23.7,17.4-45,45-45c20.6,0,41.8,15.5,41.8,44.3c0,2.2,0,5.1-0.6,8.2h-62
	c2.2,9.5,10.8,15.8,21.2,15.8c9.5,0,16.8-3.5,22.8-9.8l14.2,14.6C925.9,343.5,912.6,349.2,898.4,349.2 M509,280.6
	c-9.8,0-18,5.7-19.9,14.9h39.3C526.4,286.6,518.5,280.6,509,280.6 M510.3,349.2c-26.3,0-45.6-18-45.6-44.3c0-23.7,17.4-45,44.9-45
	c20.6,0,41.8,15.5,41.8,44.3c0,2.2,0,5.1-0.6,8.2h-62.1c2.2,9.5,10.8,15.8,21.2,15.8c9.5,0,16.8-3.5,22.8-9.8l14.2,14.6
	C537.8,343.5,524.5,349.2,510.3,349.2 M380.1,347V221.4h25v101.9h54.5V347L380.1,347z M475.4,207.7v-84.8h20.3l2.5,12.3
	c3.8-7.9,11.4-13.3,21.5-13.3c2.2,0,4.4,0.3,6.6,0.9v22.5c-2.9-0.6-5.4-1-8.2-1c-11.4,0-19.3,7-19.3,20.6v42.7L475.4,207.7
	L475.4,207.7z M888.2,207.7v-84.8h20.3l2.5,12.3c3.8-7.9,11.4-13.3,21.5-13.3c2.2,0,4.4,0.3,6.7,0.9v22.5c-2.9-0.6-5.4-1-8.2-1
	c-11.4,0-19.3,7-19.3,20.6v42.7L888.2,207.7L888.2,207.7z M724.6,157.7c0-9.2-5.1-14.9-13-14.9c-9.2,0-13.9,5.7-13.9,15.2v49.7
	h-23.4v-50c0-9.2-5.1-14.9-13-14.9c-9.2,0-13.9,5.7-13.9,15.2v49.7h-23.4v-84.8h20.6L647,134c0,0,5.1-13.3,20.9-13.3
	c9.8,0,18,4.1,23.7,12.7l0.6,0.9l0.6-0.9c8.2-11.7,18.4-12.7,24.7-12.7c18,0,30.4,13.6,30.4,32.9v54.1h-23.4L724.6,157.7
	L724.6,157.7z M771.7,111.5c-8.2,0-14.6-6.3-14.6-14.3c0-8.2,6.3-14.6,14.6-14.6c8.2,0,14.6,6.3,14.6,14.6
	C786.3,105.2,780,111.5,771.7,111.5 M759.7,122.9h23.4v84.8h-23.4V122.9z M606.2,282.1c-12.7,0-22.2,9.5-22.2,22.5
	c0,12.3,9.5,22.2,22.2,22.2c12.3,0,21.8-9.8,21.8-22.2C628,291.6,618.5,282.1,606.2,282.1 M601.4,349.2c-22.5,0-42.1-20.6-42.1-44.6
	c0-23.7,19.6-43.7,42.1-43.7c12.7,0,21.2,4.4,26.3,12.3l2.5-11.1h20.6V347h-20.6l-2.5-10.8C622.6,343.9,613.1,349.2,601.4,349.2
	 M803.1,349.2c-18.7,0-41.5-10.1-41.5-41.8v-45.3H785v43.7c0,14.6,6.7,20.9,18,20.9c10.4,0,18-7.3,18-20.9v-43.7h23.4v45.3
	C844.6,339.1,821.4,349.2,803.1,349.2 M405.1,141.6h14.6c12.7,0,21.8-7,21.8-19.6c0-12.7-9.2-19.3-21.8-19.3h-14.6V141.6z
	 M380.1,207.7V78.9H421c26.6,0,46.5,15.8,46.5,43.1c0,27.5-19.6,43.7-46.5,43.7h-15.8v42.1L380.1,207.7z M290.6,191.5
	c-8.5,7-15.7,10.8-15.7,10.8l0.1,22.1c6.1,6.6,12.1,12.1,16.6,22.1C300,231.5,298.4,209.6,290.6,191.5 M283.7,263.8
	c0,0-1.7-9.1-9.1-17.6l-16.8,0.4c0,0-22.7,19-36.6,19.5c0,0,7.6,13.8,11.5,21.1c7.6-1.6,21-7.5,26.4-13.6c0,0,3.6,11.2,2.9,24.5
	C269.5,293.7,280,282.1,283.7,263.8 M261.9,223.9l0-22c0,0-10.1-3.1-20.8-11.3c-21.6,3.2-47.7,24.4-47.7,24.4s8.8,16.3,18.5,34
	C228.9,251.3,253.9,230.3,261.9,223.9 M319.5,315.5l-13.9-15c-4,40.5-24.3,75-61.7,99l-5.7-21.9c-31.7,22.4-86.2,36.9-133,11.1
	c5.8-28.9,11-58.2-0.1-93.3c-25.9,39.1-48.8,54.5-48.8,54.5c-17.5-28.7-15.9-86.2-10.7-103.1l-29.1,8.8c0-19.3,14.3-60.3,34.9-83.4
	l-18.2-2.8h0c12.4-24.6,30.8-45.9,53.4-61.9l0,0c-6.8,10.4-6.9,36.2,13,46C91.2,139,90.1,121.2,99,112c8.8-9.3,23.6-6.1,33.1,1.1
	c-2.8-8.1-11.1-18.2-23.4-18.9h0c23.3-11.7,49.9-18.3,77.9-18.3c5.2,0,10.5,0.2,15.6,0.7c8.2,3.2,20.1,14.4,25.7,21.4
	c0,0,0.4-8.2-4.3-18.2c30.4,7.2,44.9,19.3,50.9,25.1c1.2,12.8,5.2,20.5,10.4,32.7c-9.8-10.8-34.6-28.1-46.4-32.3c0,0-1,11.1-5,16.4
	c-23.5-16.5-35.1-20.7-35.1-20.7c-25.8,3.6-42.4,13.3-51.4,21l7.9,6.5c-15.6,4.7-25.7,17.7-25.7,17.7c0.1,0.2,13.9,2.2,13.9,2.2
	s-1.4,15.8,18.9,25.7c17.4,8.5,42.3-2,65.9,7.2c-15.5-17.4-26.2-25.2-26.2-25.2s-6.1-1.2-10.5-1.2c-5.4,0-13.5,1.1-22.3-2.3
	c-4.2-1.6-9.2-4.5-13-6.8c0,0,10.9-10.9,26.7-13.3c0,0,14.3,3.9,25.6,12.1c7.5-7.2,15.4-6.9,15.4-6.9s-7.8,7.1-5.4,15.7
	c11.3,9.8,23.6,23.9,23.6,23.9c12.5-6.7,39.7-5.1,45.3,1.2c-7.1-9-17.3-16.4-25.2-22.8c-1-3.4-9.6-15-11-16.1c0,0,8.2,2.5,15.5,8.9
	c2.1-2.9,6-5.9,11.4-7.2c5.5,4.5,6.5,11.4,6.3,12.6c-2.5,2.9-4.9,4.1-4.9,4.1l13.3,14l1.3-10C324.3,204.3,340.9,253.6,319.5,315.5
	 M78.2,46.1c17.6,7.9,28.9,17.8,31,19.3c-0.9-4.4-4.4-25.8-6.4-39.1c10.3,6.9,34.1,23.1,41.9,28.3c3.2-9.6,14.3-41,14.3-41
	s20,31.6,23.4,36.7c4.2-4.3,28.1-30.2,34.3-36.8c1,14.9,2.4,36.3,2.8,39.5c1.2-1.6,10.3-14.1,25.7-25.6
	c-6.6,12.8-9.8,30.4-11.2,44.6c-15.1-4.1-31-6.3-47.4-6.3c-31.5,0-61.1,8.1-86.7,22.3C95.2,74.3,87.9,57.3,78.2,46.1"/>
</svg>
