<?xml version="1.0" encoding="utf-8"?>
<!-- Generator: Adobe Illustrator 26.0.1, SVG Export Plug-In . SVG Version: 6.00 Build 0)  -->
<svg version="1.1" id="Capa_1" xmlns="http://www.w3.org/2000/svg" xmlns:xlink="http://www.w3.org/1999/xlink" x="0px" y="0px"
	 viewBox="0 0 2493.7 759.1" style="enable-background:new 0 0 2493.7 759.1;" xml:space="preserve">
<style type="text/css">
	.st0{fill:#FFFFFF;}
</style>
<path class="st0" d="M528.9,759c-91.9-1.1-176.1-23.4-251.8-68.8c-2.2-1.3-4.4-2.5-6.4-4c-13.7-10.2-13.6-11.7,1.5-19.5
	c67.5-35.3,139.6-63.6,214.8-84.4c34.7-9.5,70.2-16.5,105.8-23.7c81.5-16.4,163.5-22.1,246.6-21c24.7,0.3,49.4,2.6,74.1,3.3
	c11.6,0.3,11.6,3.8,6.9,11.4c-25.8,41.7-58.1,79.2-99.1,110.5c-49,37.4-104.4,65.4-167.8,80.6C612.8,753.1,571.5,759.8,528.9,759z"
	/>
<path class="st0" d="M953.5,278.3C892.5,85.2,671.4-32.8,440,8.1C145.8,59.9,2.4,336.4,145.5,564.7c6.5,10.3,12.1,12.5,25.4,8.5
	c244.9-73.7,495-89,749.7-47.3c10.8,1.8,14.9-0.8,18.4-9c19.1-44.8,29.4-90.9,29.4-138.7C968.8,344.4,963.8,310.8,953.5,278.3z
	 M323.5,428c-39.7,13.2-78.7,8.6-116.6-5.9c-33.7-12.9-33.5-13.3-17.3-41.4l9.6-16.6c18,17.7,40.7,26.3,66,30
	c6.2,1,12.6,1.2,18.8,0.6c9.1-1,18.1-3.5,20-12.8c2.1-10-5.6-15.7-14.8-18.5c-20.3-6.2-41.3-10.9-61.5-17.1
	c-18.8-5.8-32.4-16.7-37.4-34.2c-7-24.4,5.5-49.5,33-60.3c45.7-18.1,90.3-11.2,133.7,7.4c5.6,2.4,5.7,5.5,3.2,9.9
	c-6.5,11.3-12.7,22.8-19.1,34.4c-23-14.1-46.9-23-75.3-20.2c-6.8,0.7-13.2,0.7-15.1,7c-1.9,6.4-0.8,12.5,6.7,16.6
	c8.1,4.5,17.1,6.8,26.2,9.4c13.5,3.9,27.2,7.1,40.4,11.5c27.3,9.3,40.7,25.7,40.6,48.4C364.8,399.8,349.9,419.2,323.5,428z
	 M612.9,447.6c-23.2,13.8-56.1,11.5-80.2-6.8c-8.1-6.2-15.4-7.5-25.4-6.1c-38.8,5.1-76.6-2.8-102-26.7
	c-56.3-53.1-36.1-124.1,25.5-152.4c32.2-14.8,66.3-17.3,101-7.5c83.5,23.5,105.9,109.7,42,161.9c-1.9,1.5-3.9,3-7,5.3
	c8.4,6.1,16.6,5.7,25.1,5.5c4.9-0.1,7.5-9.1,13-2.7c6,6.9,11.2,14.3,15.4,22.1C622.3,443.6,616.2,445.7,612.9,447.6L612.9,447.6z
	 M876,432.8c-1.6,0-3.2,0-4.7,0c-14.2-0.2-31.9,4-41.6-1.8c-9.1-5.4,0-21.5-1.2-32.9c-1.3-13.1-0.8-26.4-0.8-39.6
	c-0.1-13,0-26-2.3-39.6c-9.3,16.5-18.6,32.9-27.9,49.4c-5.7,10.2-11.4,20.4-17.1,30.7c-8,14.3-24.4,20.1-42,15.1
	c-6-1.7-6.9-6.6-9.1-10.5c-16-28.1-31.7-56.2-47.5-84.4c-0.2-0.3-0.9-0.4-3.2-1.3c0,5.7-0.1,10.7,0,15.8c1,30.9-2.5,61.9,2.1,92.7
	c0.8,5.2-1.3,6.5-6.4,6.5h-1.6c-14.2,0-31.4,4.1-41.9-1.4c-11.4-6-2.8-21.8-3-33.2c-1-48.7-0.5-97.4-1.2-146.1c0-6,2-6.8,7.6-6.8
	c15.8,0.1,31.6,0.6,47.4-0.2c9.3-0.4,11.3,5,14.3,10.2c18.7,32.4,37.4,64.7,57.6,99.5c20-34.7,38.8-66.7,56.6-99.1
	c4.5-8.2,9.9-11.4,20.4-10.7c13.6,0.9,27.4,0.3,41.1,0.2c6,0,8.4,0.3,8.3,7.3c-0.5,58.2-3,116.4,1.3,174.6
	C881.7,432.2,880.1,432.7,876,432.8z"/>
<path class="st0" d="M493.7,397.2c-5,1.9-9.4,0.4-14-0.6c-32.6-7.3-52-36.8-45.9-70.1c5.2-28.5,31.9-48,63.4-46.3
	c36.3,2.1,61.7,37.2,52.6,72.6c-0.8,3.5-2.1,7-3.7,10.3c-7.3,14.3-11.3,14.8-24.8,4.4c-6.5-5-13-12.6-22.8-9.4
	c-11,3.6-17,13-23.1,21.3c-2.6,3.5,2.2,4.1,4.5,5.5C485.3,388.3,491.8,390.7,493.7,397.2z"/>
<path class="st0" d="M1283.6,156.1c11.4,6.1,24.5,9.4,37.8,9.5c21.5,0,34.1-10.1,34.1-24.8c0-13.6-8.7-21.4-30.8-28.9
	c-26.6-8.4-43.1-20.7-43.1-41.1c0-22.6,21.1-39.4,52.8-39.4c16.7,0,28.8,3.5,36.1,7.1l-5.8,15.3c-9.5-4.6-20.2-6.9-31-6.9
	c-22.3,0-30.7,11.9-30.7,21.8c0,13.6,9.9,20.3,32.4,28c27.6,9.5,41.6,21.4,41.6,42.7c0,22.4-18.6,41.8-57.1,41.8
	c-15.7,0-32.9-4.1-41.6-9.3L1283.6,156.1z"/>
<path class="st0" d="M1541.2,125.9c0,38.6-35.1,55.4-68.3,55.4c-37.1,0-65.8-20.7-65.8-53.7c0-34.9,30-55.4,68-55.4
	C1514.6,72.3,1541.2,94,1541.2,125.9z M1432.4,127c0,22.8,17.3,40.1,41.7,40.1c23.8,0,41.7-17,41.7-40.5c0-17.7-11.6-40.1-41.1-40.1
	C1445.2,86.5,1432.4,107.2,1432.4,127L1432.4,127z"/>
<path class="st0" d="M1572.7,26h24.9v153h-24.9V26z"/>
<path class="st0" d="M1754.4,150.6c0,10.7,0.3,20.2,1.1,28.4h-22.1l-1.4-17h-0.6c-9.5,12.2-26.8,19.6-45.4,19.4
	c-21.5,0-47.3-9.1-47.3-45.7v-61h24.9v57.7c0,19.9,8,33.2,30.6,33.2c16.7,0,28.3-8.8,32.9-17.2c1.5-3.1,2.3-6.4,2.3-9.7v-64h24.9
	V150.6z"/>
<path class="st0" d="M1825.8,44.7v30h35.7v14.4h-35.7v56.2c0,12.9,4.8,20.2,18.7,20.2c4.9,0.1,9.7-0.4,14.4-1.3l1.1,14.2
	c-7.1,1.9-14.6,2.8-22.1,2.6c-11.6,0-21-2.8-26.9-8c-7.1-5.6-9.7-15-9.7-27.2V89.1h-21.2V74.7h21.2v-25L1825.8,44.7z"/>
<path class="st0" d="M1917.4,45.3c0.3,6.5-6,11.6-15.9,11.6c-8.2,0.1-14.9-4.9-15-11.1c0-0.2,0-0.3,0-0.5
	c-0.2-6.4,6.4-11.7,14.8-11.9c0.3,0,0.5,0,0.8,0c8.1-0.3,15,4.5,15.4,10.8C1917.4,44.6,1917.4,45,1917.4,45.3z M1889.6,178.9V74.7
	h24.9v104.3H1889.6z"/>
<path class="st0" d="M2080.1,125.9c0,38.6-35.1,55.4-68.3,55.4c-37.1,0-65.8-20.7-65.8-53.7c0-34.9,30-55.4,68-55.4
	C2053.4,72.3,2080.1,94,2080.1,125.9z M1971.2,127c0,22.8,17.3,40.1,41.7,40.1c23.8,0,41.7-17,41.7-40.5c0-17.7-11.6-40.1-41.1-40.1
	C1984,86.5,1971.2,107.2,1971.2,127z"/>
<path class="st0" d="M2111.6,102.9c0-10.7-0.3-19.6-1.1-28.2h22.1l1.4,17.2h0.6c6.8-9.9,22.7-19.6,45.3-19.6
	c19,0,48.5,8.6,48.5,44.3v62.3h-24.9v-60.1c0-16.8-8.2-30.8-31.7-30.8c-19.8,0.5-35.4,13-35.1,28.2v62.7h-24.9V102.9z"/>
<path class="st0" d="M1288,437.6v-89.9h-16.5v-14.4h16.5v-5c0-14.6,3.6-28,13.6-36.4c7.8-6.4,18-9.9,28.6-9.7c6.2,0,12.4,1,18.2,3.1
	l-2.9,14.6c-4.3-1.7-8.9-2.5-13.6-2.4c-18.2,0-22.8,14.2-22.8,30.2v5.6h28.3v14.4H1309v89.9L1288,437.6z"/>
<path class="st0" d="M1478.9,384.5c0,38.6-35.1,55.4-68.3,55.4c-37.1,0-65.8-20.7-65.8-53.7c0-34.9,30-55.4,68-55.4
	C1452.3,330.9,1478.9,352.7,1478.9,384.5z M1370.1,385.6c0,22.8,17.3,40.1,41.7,40.1c23.8,0,41.7-17,41.7-40.5
	c0-17.7-11.6-40.1-41.1-40.1C1382.9,345.1,1370.1,365.8,1370.1,385.6L1370.1,385.6z"/>
<path class="st0" d="M1510.4,365.8c0-12.2-0.3-22.8-1.1-32.5h21.8l0.9,20.5h1.1c6.2-14,21.2-22.8,37.9-22.8c2.4,0,4.8,0.2,7.1,0.6
	v17.9c-2.8-0.5-5.6-0.7-8.5-0.6c-17.6,0-30,10.1-33.4,24.3c-0.7,2.9-1.1,5.9-1.1,8.8v55.6h-24.5V365.8z"/>
<path class="st0" d="M1663.1,284.6h24.9v65.1h0.6c4.3-5.6,10.5-10.3,17.9-13.4c7.8-3.5,16.5-5.3,25.5-5.4c18.4,0,47.8,8.6,47.8,44.6
	v62.1h-25v-59.9c0-16.8-8.2-31-31.7-31c-15.3,0.2-28.7,7.8-33.4,19c-1.4,2.9-1.9,6-1.7,9v62.9h-25V284.6z"/>
<path class="st0" d="M1935.2,409.1c0,10.8,0.3,20.3,1.1,28.4h-22.1l-1.4-17h-0.6c-9.5,12.2-26.8,19.6-45.3,19.4
	c-21.5,0-47.3-9.1-47.3-45.7v-61h24.9V391c0,19.9,8,33.2,30.6,33.2c19.3,0.1,35-11.8,35.1-26.5c0-0.1,0-0.3,0-0.4v-64h24.9V409.1z"
	/>
<path class="st0" d="M1976.6,361.5c0-10.8-0.3-19.6-1.1-28.2h21.8l1.1,16.8h0.9c7.7-9.9,20.4-19.2,43.1-19.2
	c17.5-0.2,33.1,8.2,38.8,20.9h0.6c3.8-5.3,9-9.9,15.3-13.6c8.2-4.7,17.3-7.3,30.3-7.3c18.1,0,45.1,9.1,45.1,45.2v61.4h-24.4v-59.1
	c0-20-9.6-32.1-29.7-32.1c-14.2,0-25.2,8-29.5,17.2c-1.3,3.1-2,6.3-2,9.5v64.4h-24.3v-62.5c0-16.6-9.6-28.7-28.6-28.7
	c-15.6,0-26.9,9.5-30.9,19c-1.4,3-2.1,6.1-2,9.3v62.9h-24.4V361.5z"/>
<path class="st0" d="M2289,437.6l-2-13.1h-0.8c-7.7,8.2-22.4,15.5-41.9,15.5c-27.8,0-41.9-14.9-41.9-30c0-25.2,29.5-39,82.5-38.8
	V369c0-8.6-3.1-24.1-31.2-24.1c-12.6,0-25,2.7-35.7,7.8l-5.7-12.5c11.3-5.6,27.8-9.3,45.1-9.3c41.9,0,52.1,21.8,52.1,42.7v39
	c-0.2,8.4,0.6,16.7,2.3,25L2289,437.6z M2285.3,384.3c-27.2-0.4-58.1,3.2-58.1,23.5c0,12.2,10.8,18.1,23.5,18.1
	c14.8,0.3,28.2-6.7,33.1-17.4c0.9-2,1.4-4,1.4-6.1L2285.3,384.3z"/>
<path class="st0" d="M2349.6,361.5c0-10.8-0.3-19.6-1.1-28.2h22.1l1.4,17.2h0.6c6.8-9.9,22.7-19.6,45.3-19.6
	c19,0,48.5,8.6,48.5,44.3v62.3h-24.9v-60.1c0-16.8-8.2-30.8-31.7-30.8c-19.8,0.5-35.4,13-35.1,28.2v62.7h-24.9V361.5z"/>
<path class="st0" d="M1286.5,552.7c13.4-1.9,26.9-2.9,40.4-2.8c20.8,0,36.1,4.3,45.7,12.1c9,6.9,14.3,17.4,14.3,30.4
	c0,13.2-4.4,23.5-12.6,31c-11.1,10.6-29.3,15.9-49.9,15.9c-5.7,0.2-11.4-0.3-17-1.3v58.2h-21V552.7z M1307.6,622.8
	c5.7,1.2,11.6,1.7,17.4,1.5c25.4,0,40.9-11,40.9-31c0-19.2-15.3-28.4-38.5-28.4c-6.7-0.2-13.3,0.4-19.9,1.5L1307.6,622.8z"/>
<path class="st0" d="M1422,624.4c0-12.2-0.3-22.8-1.1-32.5h21.8l0.9,20.5h1.1c6.2-14,21.2-22.8,37.9-22.8c2.4,0,4.8,0.2,7.1,0.7V608
	c-2.8-0.5-5.6-0.7-8.5-0.6c-17.6,0-30,10.1-33.4,24.3c-0.7,2.9-1.1,5.9-1.1,8.8v55.6H1422V624.4z"/>
<path class="st0" d="M1636,643.2c0,38.6-35.1,55.4-68.3,55.4c-37.1,0-65.8-20.7-65.8-53.7c0-34.9,30-55.4,68-55.4
	C1609.3,589.5,1636,611.3,1636,643.2z M1527.2,644.3c0,22.8,17.3,40.1,41.6,40.1c23.9,0,41.7-17,41.7-40.5
	c0-17.7-11.6-40.1-41.1-40.1C1539.9,603.7,1527.1,624.4,1527.2,644.3L1527.2,644.3z"/>
<path class="st0" d="M1785.6,591.9c-0.6,7.6-1.1,15.9-1.1,28.7v60.5c0,23.9-6.2,38.6-19.6,47.6c-13.3,9.5-32.6,12.5-49.8,12.5
	c-16.4,0-34.6-3.1-45.6-8.6l6.2-14.4c12.2,5.5,26.1,8.3,40.2,8.2c25.5,0,44.2-10.1,44.2-36.4v-11.6h-0.6
	c-7.6,9.7-22.4,17.4-43.6,17.4c-34,0-58.4-22-58.4-50.8c0-35.3,30.3-55.4,61.8-55.4c23.8,0,36.8,9.5,42.8,18.1h0.6l1.1-15.7H1785.6z
	 M1759.8,633c0.1-2.9-0.3-5.8-1.4-8.6c-4.5-11-16.7-20-34.9-20c-23.8,0-40.8,15.3-40.8,39.4c0,20.5,13.6,37.5,40.5,37.5
	c15.8,0,29.7-7.9,34.6-19.4c1.4-3.3,2-6.7,2-10.1L1759.8,633z"/>
<path class="st0" d="M1824.2,624.4c0-12.2-0.3-22.8-1.1-32.5h21.8l0.9,20.5h1.1c6.2-14,21.2-22.8,38-22.8c2.4,0,4.8,0.2,7.1,0.7
	v17.9c-2.8-0.5-5.6-0.7-8.5-0.6c-17.6,0-30,10.1-33.4,24.3c-0.7,2.9-1.1,5.9-1.1,8.8v55.6h-24.6V624.4z"/>
<path class="st0" d="M1927.9,647.5c0.6,25.6,22.1,36.2,47,36.2c17.9,0,28.6-2.4,38-5.4l4.3,13.6c-8.8,3.1-23.9,6.5-45.6,6.5
	c-42.2,0-67.5-21.1-67.5-52.6s24.4-56.2,64.3-56.2c44.8,0,56.7,30,56.7,49.1c0,3-0.3,5.9-0.9,8.8L1927.9,647.5z M2001,634
	c0.3-12.1-6.5-30.8-34.6-30.8c-25.2,0-36.3,17.7-38.3,30.8H2001z"/>
<path class="st0" d="M2052.6,676.8c9.9,4.7,21.2,7.3,32.9,7.5c18.1,0,26.6-6.9,26.6-15.5c0-9.1-7.1-14-25.5-19.2
	c-24.7-6.7-36.3-17-36.3-29.5c0-16.8,17.9-30.6,47.3-30.6c11.8-0.1,23.4,2.1,33.7,6.5l-6.2,13.8c-8.4-4-18.2-6-28-6
	c-14.8,0-23,6.5-23,14.2c0,8.6,8.2,12.5,26.1,17.7c23.8,6.9,35.9,15.9,35.9,31.5c0,18.3-18.7,31.2-51.3,31.2
	c-15,0-28.9-2.8-38.6-7.1L2052.6,676.8z"/>
<path class="st0" d="M2164.8,676.8c9.9,4.7,21.2,7.3,32.9,7.5c18.1,0,26.7-6.9,26.7-15.5c0-9.1-7.1-14-25.5-19.2
	c-24.6-6.7-36.3-17-36.3-29.5c0-16.8,17.8-30.6,47.3-30.6c11.8-0.1,23.4,2.1,33.7,6.5l-6.2,13.8c-8.5-4-18.2-6-28.1-6
	c-14.7,0-22.9,6.5-22.9,14.2c0,8.6,8.2,12.5,26.1,17.7c23.9,6.9,36,15.9,36,31.5c0,18.3-18.7,31.2-51.3,31.2
	c-15,0-28.9-2.8-38.6-7.1L2164.8,676.8z"/>
</svg>
