<?xml version="1.0" encoding="utf-8"?>
<!-- Generator: Adobe Illustrator 26.0.1, SVG Export Plug-In . SVG Version: 6.00 Build 0)  -->
<svg version="1.1" id="Capa_1" xmlns="http://www.w3.org/2000/svg" xmlns:xlink="http://www.w3.org/1999/xlink" x="0px" y="0px"
	 viewBox="0 0 585 202" style="enable-background:new 0 0 585 202;" xml:space="preserve">
<style type="text/css">
	.st0{display:none;}
	.st1{display:inline;stroke:#FFFFFF;stroke-miterlimit:10;}
	.st2{fill:#FFFFFF;}
</style>
<g id="Capa_2_00000170960039971324511660000006199049799194075835_" class="st0">
	<rect y="10" class="st1" width="610" height="146"/>
</g>
<g id="Capa_1_00000173130137172064730770000012907130152849302686_">
	<path class="st2" d="M95,2.4c2.1,1.6,4.9,1.5,7.3,2.1C120,9.4,136.1,18.7,149,31.6c13.8,13.7,26,28.6,33.6,46.9
		c1.9,4.5,3,9.2,3.3,14c0.9,13.8-4.2,24.5-15.7,32.3c-8.6,5.8-18.2,9.4-28.1,12.1c-2.6,0.7-3.5,0-4-2.7c-3-16.3-5.3-32.7-9.3-48.8
		c-1.3-5.3-0.2-7.1,5.2-8.8c2.6-0.8,4.1-2.2,4.2-4.9c0.3-5.4-0.3-10.6-2.5-15.5c-1.3-2.7-3-4.7-6.4-4.2c-3.4,0.5-5.6,2.2-5.9,5.9
		c-0.2,2.4-0.8,5-3.8,5c-2.9,0-3.8-2.6-4.1-4.9c-0.4-4.3-3-6.1-6.7-6.1c-3.8,0-6.1,2.2-6.5,6.3c-0.3,2.2-1.1,4.7-3.8,4.7
		c-3,0.1-3.8-2.7-4-4.9c-0.4-4.2-2.8-6.1-6.6-6.1s-6.1,2.1-6.6,6.2c-0.3,2.4-1.2,4.9-4.1,4.8c-2.7-0.1-3.6-2.7-3.8-4.7
		c-0.4-4.3-3-5.8-6.6-6.2c-3.8-0.3-5.4,2.6-6.4,5.5c-0.9,3-1.5,6-1.9,9c-1,6.4-0.2,7.9,5.8,10.4c3,1.3,4.5,3.3,4,6.5
		c-1.9,14.4-3.8,28.7-5.8,43.7c-16.6-8.6-28-20.6-32.5-38.7c-0.4-1.8-0.3-3.8-1.7-5.2V60.5c0.9-2.7,0.6-5.5,1.1-8.1
		c3.3-22,15.7-37.2,35-47.2c4.1-2.1,8.9-1.5,13.2-2.9H95z"/>
	<path class="st2" d="M402,64.8c-0.6-5.8-1-11.7-1.4-17.5c-0.1-1.6-0.4-2.9-2.5-2.8c-9.1,0.3-17.4,2.4-23.4,10
		c-0.6,0.8-0.8,2.2-2.6,2.2c-0.3-2.5-0.4-4.9-0.4-7.4c0.2-3-1.1-3.8-3.8-3.7c-5.5,0.2-10.8,0.2-16.3,0c-3-0.1-4.1,0.8-4,3.9
		c0.2,6.1,0.1,12.2,0.1,19.1c-14.6-29.3-52.8-33.3-73.9-11.5c0.4-3.5,0.4-6.5,0.9-9.5c0.4-2.8-0.5-3.6-3.3-3.5
		c-6,0.2-12.1-0.1-18.1,0.1c-2.7,0.1-3.6-0.9-3.5-3.6c0.2-6.3,0-12.6,0.1-18.9c0-2.6-0.6-3.5-3.3-2.2c-3.5,1.5-7.1,2.8-10.6,4.1
		c-11,4.3-11.1,4.3-11.1,16.1c0,3.3-0.7,4.9-4.4,4.5c-2.1-0.3-4.4,0.1-6.6-0.1c-2.3-0.2-3.5,0.6-3.4,3.2c0.2,5.3,0.1,10.6,0,15.8
		c-0.1,2.3,0.9,3,3.1,3c3.5,0.2,8-1.6,10.1,0.8c2.1,2.4,0.6,7,0.6,10.6c0.2,8.8-0.5,17.7,0.4,26.4c2.1,19.7,21.7,28,39.4,23.3
		c2.2-0.6,2.4-2.2,2.5-4c0.4-4.6,0.8-9.2,1.3-14.4c17.2,30,63.8,30.1,79.8-3.1c0,6.9,0.1,13,0,19.1c-0.1,2.8,0.6,3.9,3.7,3.8
		c6.2-0.2,12.3-0.2,18.5,0c2.9,0.1,3.8-0.8,3.8-3.7c-0.2-9.8-0.1-19.7,0-29.5c0.1-17.3,8.8-26.6,25.9-28.1
		C401.3,67.4,402.2,67.2,402,64.8z M267,68.8c-4.6,10.9-4.9,23.2-1.2,34.4c0.5,1.7,0,2.3-1.6,2.8c-8.1,2.2-14-2.2-14.1-10.6
		c-0.1-4.1,0-8.2,0-12.3c0-4.4,0.1-8.8-0.1-13.2c-0.1-2.3,0.4-3.5,3.1-3.4c4.1,0.2,8.2,0.1,12.3,0.1C267.3,66.4,267.8,66.9,267,68.8
		z M303.1,108c-10.6-2.2-17-14.5-14-26.9c2.6-10.7,12.5-17.1,22.5-14.5c8.1,2.1,14.1,11.1,14.1,21
		C325.7,101.1,315.2,110.6,303.1,108z"/>
	<path class="st2" d="M527.4,113.1c-1.2-6.2-2.2-12.3-3.5-19.1c-22.5,19.3-41,14.8-47.1,3.5c0.8-0.4,1.6-0.7,2.4-1
		c11.1-3.2,22.2-6.4,33.4-9.6c11.2-3.1,10.8-3,9.1-14.6c-1.5-9.8-5.1-18-13.2-24c-13.2-9.8-33.4-8.5-47.3,3c-1,0.8-1.6,2.1-3.3,2
		c-0.2-1.6-0.7-3.2-0.6-4.7c0.4-4-1.6-4.5-5-4.2c-9.6,0.9-17.5,4.2-23.2,13.5c-0.4-3.7-0.7-6.4-0.7-9.1c0-2.4-0.9-3.3-3.4-3.2
		c-5.8,0.2-11.7,0.2-17.6,0c-2.6-0.1-3.1,1-3.1,3.4c0.1,25.5,0.1,51,0,76.6c0,2.8,1,3.5,3.6,3.4c5.5-0.2,11.2-0.4,16.7,0
		c4.4,0.3,5.7-0.9,5.6-5.5c-0.1-11.5-0.9-22.9,0.5-34.3c1.3-10.1,8.4-18.3,17.6-20c0,0.5-0.1,1.2-0.2,1.7
		c-3.8,13.2-1.4,25.8,5.4,37.2c16,27,51.7,25.1,72.9,8.6C527.7,115.7,527.7,114.5,527.4,113.1z M470.5,78.5
		c-0.1-7.9,6.3-15.2,13.9-16.2c3.2-0.4,6.5,0.5,9,2.7c2.1,1.9,4.3,4.2,4,7s-3.7,2.2-5.7,2.9c-6,1.9-12.1,3.5-18.2,5.3
		C471.5,80.8,470.2,80.8,470.5,78.5z"/>
	<g>
		<path class="st2" d="M511.5,201.2c-63.3-1.2-126.5-0.7-189.7,0.9c-1.1,0-2.1-0.6-3.3-2.1c2.2-0.5,4.3-1.3,6.5-1.4
			c26.8-0.8,53.6-1.8,80.4-2c19-0.2,38,0.3,56.9,1.2C478.8,198.5,495.2,200,511.5,201.2z"/>
		<path class="st2" d="M496.8,179.9c-3.4,3.6-6.3,6.6-9.3,9.7c-2,2.1-4,4.4-7.2,2.4c-3.2-2.1-1.4-5-0.6-7.6c0.2-0.7,0.5-1.3,0.7-1.8
			c-3.3,0.3-6.9,1.6-9.5,0.5c-2.5-1.1-3.8-4.7-6.1-7.8c-1.2,1.4-2.7,3.2-4.2,5c-1.5,2-3,4-5.5,7.4c-1.4-2.9-3.1-4.8-3.1-6.7
			c0-4,0.7-7.9,1.5-11.9c0.2-0.9,1.6-1.6,2.4-2.3c0.7,1.2,2,2.5,1.9,3.6c-0.3,2.4-1.3,4.7-2,7c0.5,0.4,1.1,0.8,1.6,1.3
			c1.9-2.4,3.7-4.9,5.8-7c1-1,3.2-1.7,4.3-1.2c1,0.4,1.2,2.6,1.6,4.1c0.2,0.7,0,1.5,0,2.2c0.2,5.2,2,6.1,6.3,3.4
			c5.1-3.2,10.1-6.6,15.3-9.7c2-1.2,4.5-1.7,7.7-2.9c1-5.1,1.9-11.2,3.3-17.2c1.1-4.7,2.7-9.4,4.3-14c0.5-1.3,1.3-2.9,2.4-3.6
			c1.1-0.7,2.9-0.3,4.3-0.4c-0.1,1.1-0.3,2.2-0.4,3.3c-0.1,0.7-0.3,1.4-0.6,2.5c-0.2-1.4-0.4-2.5-0.5-3.7c-0.5,0.2-0.9,0.2-1,0.4
			c-2.4,7.6-6.5,15.2-6.5,22.7c0,5.8-1.5,10.3-3.3,15.3c-2.1,6-0.8,11.9,2.7,18.4c4.6-3.1,8.7-6,12.8-8.7
			c-1.8,5.4-7.1,10.3-11.1,9.8C498,191.5,498.7,185.2,496.8,179.9z M498.3,170.9c-6.5,0.1-16.1,11.9-15.2,18.2
			C489,183.7,495,178.9,498.3,170.9z"/>
		<path class="st2" d="M270.8,166.8c2.6,0,5.1,0,7.6,0c3.3-0.1,6.2,0.7,7.6,4.1c1.2,2.9,0.2,5.3-3.6,8.6c1.2,2.5,2.5,5.1,3.7,7.7
			c-7.5,2.6-5.7-6.2-10.6-7.9c-0.1,2.8-0.3,5.3-0.4,8.1c-1.5,0.1-2.7,0.1-4.4,0.2C270.8,180.7,270.8,174,270.8,166.8z M275.2,170.7
			c0.2,2.5,0.3,3.7,0.5,5.8c2.2-0.8,4-1.3,5.8-2c0.3-0.1,0.2-1.8,0-1.9C279.7,171.9,277.9,171.5,275.2,170.7z"/>
		<path class="st2" d="M537.7,180.3c-0.4,2-0.7,4-1.3,6.9c2.6-1,5-1.7,7.2-2.8c2.2-1,4.2-2.4,6.3-3.6c0.3,0.7,0.7,1.3,1,2
			c-3.8,1.8-7.6,3.6-11.5,5.4c-2.1,0.9-4.4,1.5-6.4,2.6c-2.5,1.5-4.8,2.1-7.4,0.3c-2.6-1.8-2.8-4.2-1.9-7c0.9-2.9,1.2-6,2.1-8.9
			c1-3.2,2.1-6.5,6.4-7c7.1-0.8,9.4,1.9,6.9,8.4c-0.5,1.4-1.1,2.7-1.7,4.1c1-4,2-8-1.5-11.5c-5.4,3.2-7.9,10.4-5.3,15.3
			c0.4,0.7,2.7,1.2,3.3,0.7C535.5,183.8,536.5,182,537.7,180.3z"/>
		<path class="st2" d="M382.4,159.5c-2.4-5-4.9-2.5-8.1-1.8c-7.3,1.5-8.9,8.8-14.3,12.1c-0.3,0.2-0.4,0.8-0.4,1.2
			c0,0.4,0.3,0.8,0.6,1.6c0.9-0.6,1.7-1.1,2.3-1.5c-2.3,5.3-4.6,10.7-6.9,16.1c-2.9-0.4-3.6-2.1-3.4-4.7c0.4-4.1,0.3-8.3,0.7-12.4
			c0.2-1.8,1.3-3.5,2.1-5.2c1.4,0.9,2.9,1.8,4.8,3.1c1.8-2.1,3.9-4.9,6.2-7.4c3.4-3.8,7.3-6.7,12.8-5.4c1.6,0.4,3,1.6,4.4,2.4
			C382.9,158.1,382.7,158.8,382.4,159.5z"/>
		<path class="st2" d="M402.2,182.7c-3.7,4.3-8.6,6.5-14,5.3c-2-0.5-4.1-3.2-5-5.4c-0.9-2.1-0.6-3.2,1-7.1c1.9-5.5,0.8-2.7,1.5-3.9
			c1.1-2,1.6-3.1,2.8-5.4c2.3-3.4,4.1-4.4,6.8-4.1c3.2,0.3,4.4,2.8,3.8,5.9c-1,4.5-5.4,8.5-9.9,8.7c-3.8,0.2-3.2,2.9-3.2,5.1
			c0,2.5,1.2,4.8,4.1,3.6c4.1-1.6,8-3.6,11.8-5.4c0.3-0.1,0.5,0.2,0.3,0.4c-0.9,0.7-1.8,1.5-2.8,2.3c0.5,0.7,0.3,0.5,0.8,1.2
			L402.2,182.7L402.2,182.7z M388.4,171.7c0.5,0.7,0.5,0.6,1,1.3c4-1.7,6-4.5,5.1-8.7c0-0.2-0.3-0.3-0.5-0.1
			C392.2,166.7,390.3,169.2,388.4,171.7z"/>
		<path class="st2" d="M329.7,173.3c0.4-1.8,0.9-3.7,1-5.5c0.1-0.9-0.4-2-1-2.6c-0.4-0.3-1.9-0.1-2.4,0.4c-2.4,2.8-5.1,5.4-6.6,8.7
			c-0.9,2-0.5,5.4,0.7,7.3c0.7,1,4.7,1,6.4,0c6.3-3.7,12.3-8,18.4-12.2c1.1-0.8,1.7-2.2,2.5-3.4c0.4,0.5,0.9,0.9,1.3,1.4
			c-6,5.1-11.9,10.3-18.2,15.1c-4.4,3.4-8.8,3-12.2,0c-2.9-2.6-3.4-8-1.3-12.4c2.2-4.7,5.6-7.6,11-7.3c1.7,0.1,4.6,0.7,4.9,1.6
			c0.6,2,0.1,4.6-0.5,6.7c-0.4,1.1-2,1.9-3.1,2.8C330.4,173.8,330.1,173.5,329.7,173.3z"/>
		<path class="st2" d="M162.1,177.5c2.3-4.1,4-7.7,6.2-10.9c0.4-0.6,2.4-0.1,4.4-0.1c-3.5,7.4-6.7,14.2-10.4,22.2
			c-3.6-7.9-6.8-14.7-10-21.7c3.5-1.6,5.2-0.4,6.3,2.6C159.5,172.2,160.7,174.5,162.1,177.5z"/>
		<path class="st2" d="M402.3,182.8c5.2-4.9,10.6-9.6,15.5-14.8c2.6-2.7,7.5-5.2,10.4-3.6c1.1,0.6,2.4,2,2.6,3.2
			c0.1,1-1.3,2.1-2.8,4.1c-0.1-2.6-0.2-3.8-0.3-5.5c-8.7,2.9-14.2,8.7-18.3,16c0.3,0.4,0.6,0.9,0.9,1.3c2.9-1.7,5.9-3.4,8.8-5.1
			c-0.1,4.9-4,6.6-7.3,8.8c-3,2-4.8,0.7-6.3-2.1C405,184,403.4,183.5,402.3,182.8C402.2,182.7,402.3,182.8,402.3,182.8z"/>
		<path class="st2" d="M46.3,176.6c4.4-2.6,2-11.4,10.7-10.2c-3.4,7.3-6.6,14.1-10.3,22c-3.6-7.9-6.7-14.7-9.9-21.5
			c4.5-1.3,4.5-1.3,6.3,2.7C44.2,172,45.3,174.4,46.3,176.6z"/>
		<path class="st2" d="M222.5,187.5c-1.8,0-3.1,0-4.6,0c0-6.8,0-13.4,0-20.2c2.8-1.2,4.7-1.1,4.7,2.9
			C222.4,175.8,222.5,181.4,222.5,187.5z"/>
		<path class="st2" d="M106.9,166.7c0,6.8,0,13.4,0,20.2c-3.3,1.5-4.8,0.7-4.7-3.2c0.2-4.6,0.2-9.1,0-13.7
			C102.1,166.8,103.3,165.6,106.9,166.7z"/>
		<path class="st2" d="M439.4,183.6c-1.7,1.2-3.3,2.5-5,3.5c-4.5,2.6-7.9,1-9.1-4.3c-0.5-2.3-1.2-4.5-1.9-7.1
			c2.5-1.7,4.5,0.1,5.3,2.5c0.8,2.2,0.5,4.8,0.7,7.7c3.6-1.5,6.5-2.8,9.3-4C438.9,182.5,439.1,183,439.4,183.6z"/>
	</g>
</g>
</svg>
