<?xml version="1.0" encoding="utf-8"?>
<!-- Generator: Adobe Illustrator 26.0.1, SVG Export Plug-In . SVG Version: 6.00 Build 0)  -->
<svg version="1.0" id="Capa_1" xmlns="http://www.w3.org/2000/svg" xmlns:xlink="http://www.w3.org/1999/xlink" x="0px" y="0px"
	 viewBox="0 0 170.2 89.2" style="enable-background:new 0 0 170.2 89.2;" xml:space="preserve">
<style type="text/css">
	
		.st0{clip-path:url(#SVGID_00000057127342552303099140000008790437208380439969_);fill:url(#XMLID_00000094607513882149951870000004323360790985203344_);}
	
		.st1{clip-path:url(#SVGID_00000026164252644879849330000003214987922653183393_);fill:url(#XMLID_00000045591749538267778220000009259148152132793260_);}
	
		.st2{clip-path:url(#SVGID_00000122693671664399473400000014939983821484293530_);fill:url(#XMLID_00000139981528921027590240000011297092313552901514_);}
	.st3{fill:#1C2E35;}
</style>
<g id="XMLID_802_">
	<g id="XMLID_810_">
		<g>
			<g>
				<defs>
					<path id="SVGID_1_" d="M80.9,7.6c-13.8,0.7-20.2,12-22.1,16.4c0,0,0,0.4,0.4,0c2.2-4.1,9.7-13.8,24.7-10.5
						c14.2,3.4,16.8,17.9,13.5,26.5c-0.4,1.1-1.5,2.6-1.5,3c1.1,0.4,3-1.9,4.1-3.7C111.2,23,96.2,7.6,81.7,7.6
						C81.3,7.6,81.3,7.6,80.9,7.6"/>
				</defs>
				<clipPath id="SVGID_00000053527590931022621010000005873087405047574167_">
					<use xlink:href="#SVGID_1_"  style="overflow:visible;"/>
				</clipPath>
				
					<linearGradient id="XMLID_00000183233091988914596660000007675036196053840813_" gradientUnits="userSpaceOnUse" x1="3948.4131" y1="696.3284" x2="3948.6721" y2="696.3284" gradientTransform="matrix(85.6811 85.6811 85.6811 -85.6811 -397896.875 -278631.9688)">
					<stop  offset="0" style="stop-color:#D5EAF5"/>
					<stop  offset="5.069852e-03" style="stop-color:#D2E7F2"/>
					<stop  offset="5.713004e-02" style="stop-color:#B0CBDD"/>
					<stop  offset="0.1144" style="stop-color:#91B4CA"/>
					<stop  offset="0.179" style="stop-color:#74A1BB"/>
					<stop  offset="0.2521" style="stop-color:#5B93AF"/>
					<stop  offset="0.3373" style="stop-color:#4788A6"/>
					<stop  offset="0.4426" style="stop-color:#3781A0"/>
					<stop  offset="0.5904" style="stop-color:#2C7D9D"/>
					<stop  offset="1" style="stop-color:#297C9C"/>
				</linearGradient>
				
					<polygon id="XMLID_812_" style="clip-path:url(#SVGID_00000053527590931022621010000005873087405047574167_);fill:url(#XMLID_00000183233091988914596660000007675036196053840813_);" points="
					85,-18.5 129.1,25.6 85,69.7 40.9,25.6 				"/>
			</g>
		</g>
	</g>
	<g id="XMLID_806_">
		<g>
			<g>
				<defs>
					<path id="SVGID_00000170957774304612933380000008134851069354544259_" d="M105.2,17.3c2.2,4.1,6.7,15.7-4.1,26.5
						C91,54.4,76.8,49.1,71.6,41.6c-0.7-0.7-1.5-2.6-1.9-3c-0.7,0.7,0,3.7,0.7,5.6c9.7,19.1,31,13.8,37.4,0.4
						C113.8,32.3,108.2,21.5,105.2,17.3L105.2,17.3L105.2,17.3"/>
				</defs>
				<clipPath id="SVGID_00000094593092251452242380000001012887332268138389_">
					<use xlink:href="#SVGID_00000170957774304612933380000008134851069354544259_"  style="overflow:visible;"/>
				</clipPath>
				
					<linearGradient id="XMLID_00000140000706676795606010000000163047038397772219_" gradientUnits="userSpaceOnUse" x1="3995.616" y1="713.4891" x2="3995.8762" y2="713.4891" gradientTransform="matrix(-184.0056 67.8423 67.8423 184.0056 686929.25 -402327.2812)">
					<stop  offset="0" style="stop-color:#D5EAF5"/>
					<stop  offset="8.938750e-03" style="stop-color:#D5EAF5"/>
					<stop  offset="6.311172e-02" style="stop-color:#BFD7E6"/>
					<stop  offset="0.1795" style="stop-color:#90B4CA"/>
					<stop  offset="0.2903" style="stop-color:#689AB6"/>
					<stop  offset="0.3926" style="stop-color:#4989A7"/>
					<stop  offset="0.4834" style="stop-color:#327F9F"/>
					<stop  offset="0.5533" style="stop-color:#297C9C"/>
					<stop  offset="1" style="stop-color:#297C9C"/>
				</linearGradient>
				
					<polygon id="XMLID_808_" style="clip-path:url(#SVGID_00000094593092251452242380000001012887332268138389_);fill:url(#XMLID_00000140000706676795606010000000163047038397772219_);" points="
					128.8,57.7 74.6,77.9 54,23 108.6,2.8 				"/>
			</g>
		</g>
	</g>
	<g id="XMLID_803_">
		<g>
			<g>
				<defs>
					<path id="SVGID_00000113339033506298682460000001845469128997593748_" d="M63.3,49.9C71.2,61.1,83.9,60.7,88.8,60v-0.4
						c-4.5,0-16.8-1.1-21.7-15.7C62.2,30.1,73.4,20,82.4,18.5c1.1,0,3,0,3.4-0.4c-0.4-1.1-3.4-1.5-5.2-1.9c-0.4,0-0.7,0-0.7,0
						C59.6,17,55.1,37.9,63.3,49.9"/>
				</defs>
				<clipPath id="SVGID_00000083796551207026615180000016710669381235430825_">
					<use xlink:href="#SVGID_00000113339033506298682460000001845469128997593748_"  style="overflow:visible;"/>
				</clipPath>
				
					<linearGradient id="XMLID_00000175319305309195154830000007670379599550034608_" gradientUnits="userSpaceOnUse" x1="3980.9326" y1="739.6483" x2="3981.1926" y2="739.6483" gradientTransform="matrix(-75.6146 -219.0837 -219.0837 75.6146 463139.9375 816286.875)">
					<stop  offset="0" style="stop-color:#D5EAF5"/>
					<stop  offset="4.102400e-07" style="stop-color:#D5EAF5"/>
					<stop  offset="2.756827e-03" style="stop-color:#D3E8F3"/>
					<stop  offset="4.260144e-02" style="stop-color:#B1CCDD"/>
					<stop  offset="8.611787e-02" style="stop-color:#92B5CB"/>
					<stop  offset="0.1354" style="stop-color:#75A2BC"/>
					<stop  offset="0.1908" style="stop-color:#5C93B0"/>
					<stop  offset="0.2554" style="stop-color:#4788A7"/>
					<stop  offset="0.3349" style="stop-color:#3781A0"/>
					<stop  offset="0.4455" style="stop-color:#2D7D9D"/>
					<stop  offset="0.7431" style="stop-color:#297C9C"/>
					<stop  offset="1" style="stop-color:#297C9C"/>
				</linearGradient>
				
					<polygon id="XMLID_805_" style="clip-path:url(#SVGID_00000083796551207026615180000016710669381235430825_);fill:url(#XMLID_00000175319305309195154830000007670379599550034608_);" points="
					58.9,71.5 41.3,21.5 85.4,6.5 102.6,56.6 				"/>
			</g>
		</g>
	</g>
</g>
<g>
	<g>
		<path class="st3" d="M12.6,74.4v2.9H16v2.2c-0.9,0.6-1.9,0.9-3.2,0.9c-0.7,0-1.3-0.1-1.8-0.3c-0.6-0.2-1-0.6-1.4-1s-0.7-0.9-1-1.5
			c-0.2-0.6-0.3-1.2-0.3-1.9v-0.1c0-0.6,0.1-1.3,0.3-1.8c0.2-0.6,0.5-1.1,0.9-1.5c0.4-0.4,0.9-0.8,1.4-1c0.5-0.2,1.1-0.4,1.7-0.4
			c0.4,0,0.8,0,1.2,0.1c0.4,0.1,0.7,0.2,1,0.3c0.3,0.1,0.6,0.3,0.9,0.5s0.6,0.4,0.9,0.6l2.1-2.5c-0.4-0.3-0.8-0.6-1.2-0.9
			c-0.4-0.3-0.9-0.5-1.3-0.6c-0.5-0.2-1-0.3-1.6-0.4c-0.6-0.1-1.2-0.1-1.8-0.1c-1.1,0-2.2,0.2-3.2,0.6c-1,0.4-1.8,1-2.5,1.7
			c-0.7,0.7-1.3,1.6-1.7,2.5s-0.6,2-0.6,3v0.1c0,1.1,0.2,2.2,0.6,3.1s0.9,1.8,1.6,2.5c0.7,0.7,1.6,1.2,2.5,1.6
			c1,0.4,2.1,0.6,3.2,0.6c1.4,0,2.6-0.2,3.7-0.7c1.1-0.5,2-1,2.8-1.7v-6.6H12.6z"/>
		<path class="st3" d="M39,72.5c-0.4-0.9-1-1.8-1.7-2.5c-0.7-0.7-1.6-1.3-2.5-1.7c-1-0.4-2.1-0.6-3.2-0.6c-1.2,0-2.2,0.2-3.2,0.6
			c-1,0.4-1.8,1-2.6,1.7c-0.7,0.7-1.3,1.6-1.7,2.5s-0.6,2-0.6,3v0.1c0,1.1,0.2,2.1,0.6,3c0.4,0.9,1,1.8,1.7,2.5
			c0.7,0.7,1.6,1.3,2.5,1.7c1,0.4,2.1,0.6,3.2,0.6s2.2-0.2,3.2-0.6c1-0.4,1.8-1,2.6-1.7c0.7-0.7,1.3-1.6,1.7-2.5
			c0.4-0.9,0.6-2,0.6-3v-0.1C39.6,74.4,39.4,73.4,39,72.5 M36.1,75.6c0,0.6-0.1,1.3-0.3,1.8c-0.2,0.6-0.5,1.1-0.9,1.5
			c-0.4,0.4-0.9,0.8-1.4,1c-0.6,0.2-1.2,0.4-1.8,0.4s-1.3-0.1-1.8-0.4c-0.6-0.2-1-0.6-1.4-1c-0.4-0.4-0.7-0.9-1-1.5
			c-0.2-0.6-0.3-1.2-0.3-1.8v-0.1c0-0.6,0.1-1.3,0.3-1.8c0.2-0.6,0.5-1.1,0.9-1.5c0.4-0.4,0.9-0.8,1.4-1c0.6-0.2,1.2-0.4,1.8-0.4
			c0.7,0,1.3,0.1,1.8,0.4c0.6,0.3,1,0.6,1.5,1c0.4,0.4,0.7,0.9,1,1.5C36,74.3,36.2,74.9,36.1,75.6L36.1,75.6L36.1,75.6z"/>
		<polygon class="st3" points="47.7,80.1 47.7,68 44.3,68 44.3,83.2 55.2,83.2 55.2,80.1 		"/>
		<path class="st3" d="M72.9,72.5c-0.4-0.9-0.9-1.7-1.7-2.4s-1.6-1.2-2.6-1.6c-1-0.4-2.1-0.6-3.3-0.6h-5.9v15.2h5.9
			c1.2,0,2.3-0.2,3.3-0.6c1-0.4,1.8-0.9,2.6-1.6s1.3-1.5,1.7-2.4c0.4-0.9,0.6-1.9,0.6-3v-0.1C73.5,74.4,73.3,73.4,72.9,72.5
			 M70,75.6c0,0.7-0.1,1.3-0.3,1.8c-0.2,0.5-0.5,1-0.9,1.4c-0.4,0.4-0.9,0.7-1.4,0.9c-0.6,0.2-1.2,0.3-1.9,0.3h-2.6V71h2.6
			c0.7,0,1.3,0.1,1.9,0.3c0.6,0.2,1,0.5,1.4,0.9s0.7,0.9,0.9,1.4C69.9,74.3,70,74.9,70,75.6L70,75.6z"/>
		<polygon class="st3" points="81.5,80.2 81.5,77 88.6,77 88.6,74 81.5,74 81.5,70.9 89.6,70.9 89.6,68 78.2,68 78.2,83.2 
			89.7,83.2 89.7,80.2 		"/>
		<polygon class="st3" points="104.6,68 104.6,77.3 97.5,68 94.5,68 94.5,83.2 97.7,83.2 97.7,73.5 105.1,83.2 107.9,83.2 107.9,68 
					"/>
		<path class="st3" d="M127.8,72.5c-0.3-0.9-0.9-1.8-1.6-2.5s-1.5-1.3-2.4-1.7c-0.9-0.4-2-0.6-3.1-0.6s-2.2,0.2-3.2,0.6
			c-0.9,0.4-1.7,1-2.4,1.7s-1.2,1.6-1.6,2.5c-0.4,0.9-0.6,2-0.6,3v0.1c0,1,0.2,2,0.5,3c0.3,0.9,0.9,1.8,1.6,2.5
			c0.7,0.7,1.5,1.3,2.4,1.7c0.9,0.4,2,0.6,3.1,0.6s2.2-0.2,3.1-0.6c0.9-0.4,1.8-1,2.4-1.7c0.7-0.7,1.2-1.6,1.6-2.5
			c0.4-0.9,0.6-2,0.6-3c0,0,0,0,0-0.1C128.3,74.5,128.2,73.5,127.8,72.5 M127.2,75.6c0,0.9-0.2,1.8-0.5,2.6
			c-0.3,0.8-0.8,1.6-1.3,2.2c-0.6,0.6-1.3,1.1-2,1.4c-0.8,0.3-1.7,0.5-2.6,0.5c-0.9,0-1.8-0.2-2.6-0.5c-0.8-0.3-1.5-0.9-2.1-1.5
			c-0.6-0.6-1-1.3-1.3-2.2c-0.3-0.8-0.5-1.7-0.5-2.6v-0.1c0-0.9,0.2-1.8,0.5-2.6c0.3-0.8,0.7-1.6,1.3-2.2c0.6-0.6,1.3-1.1,2-1.4
			c0.8-0.3,1.7-0.5,2.6-0.5s1.8,0.2,2.6,0.5c0.8,0.4,1.5,0.9,2.1,1.5c0.6,0.6,1,1.3,1.3,2.2C127,73.7,127.2,74.6,127.2,75.6
			L127.2,75.6z"/>
		<path class="st3" d="M140.8,67.9h-1.1l-7.1,15.3h1.2l1.9-4.3h9l1.9,4.3h1.2L140.8,67.9z M136.2,77.9l4-8.8l4,8.8H136.2z"/>
		<polygon class="st3" points="158.5,74.6 165.1,68 163.6,68 153.9,77.9 153.9,68 152.8,68 152.8,83.2 153.9,83.2 153.9,79.3 
			157.7,75.5 163.9,83.2 165.4,83.2 		"/>
	</g>
</g>
</svg>
