<?xml version="1.0" encoding="utf-8"?>
<!-- Generator: Adobe Illustrator 26.0.1, SVG Export Plug-In . SVG Version: 6.00 Build 0)  -->
<svg version="1.1" id="Capa_1" xmlns="http://www.w3.org/2000/svg" xmlns:xlink="http://www.w3.org/1999/xlink" x="0px" y="0px"
	 viewBox="0 0 945.7 332.9" style="enable-background:new 0 0 945.7 332.9;" xml:space="preserve">
<style type="text/css">
	.st0{fill:#FFFFFF;}
</style>
<path class="st0" d="M407.7,177.9c0,43.7-34.2,75.9-76.2,75.9s-76.2-32.2-76.2-75.9c0-44,34.2-75.9,76.2-75.9
	S407.7,133.8,407.7,177.9z M374.4,177.9c0-27.3-19.8-46-42.8-46s-42.8,18.7-42.8,46c0,27,19.8,46,42.8,46S374.4,204.9,374.4,177.9z"
	/>
<path class="st0" d="M572,177.9c0,43.7-34.2,75.9-76.2,75.9s-76.2-32.2-76.2-75.9c0-44,34.2-75.9,76.2-75.9S572,133.8,572,177.9z
	 M538.7,177.9c0-27.3-19.8-46-42.8-46c-23,0-42.8,18.7-42.8,46c0,27,19.8,46,42.8,46C518.9,223.9,538.7,204.9,538.7,177.9z"/>
<path class="st0" d="M729.5,106.5v136.3c0,56.1-33.1,79-72.2,79c-36.8,0-59-24.6-67.3-44.7l29-12.1c5.2,12.4,17.8,26.9,38.2,26.9
	c25,0,40.5-15.4,40.5-44.5v-10.9h-1.2c-7.5,9.2-21.8,17.3-40,17.3c-38,0-72.7-33.1-72.7-75.6c0-42.9,34.8-76.2,72.7-76.2
	c18.1,0,32.5,8,40,17h1.2v-12.4L729.5,106.5L729.5,106.5z M700.2,178.1c0-26.7-17.8-46.3-40.5-46.3c-23,0-42.3,19.5-42.3,46.3
	c0,26.5,19.3,45.7,42.3,45.7C682.4,223.9,700.2,204.6,700.2,178.1z"/>
<path class="st0" d="M781.7,26.6v222.5h-32.5V26.6L781.7,26.6z"/>
<path class="st0" d="M908.5,202.9l25.9,17.3c-8.4,12.4-28.5,33.7-63.3,33.7c-43.1,0-75.3-33.3-75.3-75.9c0-45.2,32.5-75.9,71.6-75.9
	c39.4,0,58.7,31.4,65,48.3l3.5,8.6l-101.5,42c7.8,15.2,19.9,23,36.8,23C888.1,223.9,899.8,215.5,908.5,202.9L908.5,202.9z
	 M828.8,175.5l67.9-28.2c-3.7-9.5-15-16.1-28.2-16.1C851.5,131.3,827.9,146.2,828.8,175.5z"/>
<path class="st0" d="M132.3,158.1v-32.2h108.6c1.1,5.6,1.6,12.3,1.6,19.4c0,24.2-6.6,54.1-27.9,75.3c-20.7,21.6-47.2,33.1-82.2,33.1
	c-65,0-119.6-52.9-119.6-117.9S67.3,18,132.3,18c35.9,0,61.6,14.1,80.8,32.5l-22.7,22.7c-13.8-12.9-32.5-23-58.1-23
	c-47.4,0-84.6,38.2-84.6,85.7s37.1,85.7,84.6,85.7c30.8,0,48.3-12.4,59.5-23.6c9.1-9.1,15.1-22.1,17.5-39.9L132.3,158.1z"/>
</svg>
