<?xml version="1.0" encoding="utf-8"?>
<!-- Generator: Adobe Illustrator 26.0.1, SVG Export Plug-In . SVG Version: 6.00 Build 0)  -->
<svg version="1.1" id="Capa_1" xmlns="http://www.w3.org/2000/svg" xmlns:xlink="http://www.w3.org/1999/xlink" x="0px" y="0px"
	 viewBox="0 0 1869.3 1444.4" style="enable-background:new 0 0 1869.3 1444.4;" xml:space="preserve">
<style type="text/css">
	.st0{fill:#FFFFFF;}
	.st1{fill-rule:evenodd;clip-rule:evenodd;fill:#FFFFFF;}
	.st2{fill:none;}
	.st3{font-family:'MyriadPro-Regular';}
	.st4{font-size:36px;}
</style>
<g>
	<path class="st0" d="M672.3,101.9c2.9-1.5,289.3-146.5,507.9,67.9l-76.8,11.1l0.4,8.4l122.6-5.4l-52.9-115l-7.7,3.5l28.2,81
		C971-64.1,671.3,92.9,668.4,94.4L672.3,101.9L672.3,101.9z"/>
</g>
<g>
	<path class="st0" d="M1679.2,572.3c1.4,3,132.5,296-92.1,504.1l-7.4-77.2l-8.4,0l-0.4,122.8l117.4-47.3l-3.1-7.8l-82.2,24.3
		c227.9-212.5,85.4-519.3,84-522.3L1679.2,572.3L1679.2,572.3z"/>
</g>
<g>
	<path class="st0" d="M1156.2,1319.2c-2.8,1.7-275.8,170.6-511.9-24.3l75.6-17.6l-1.1-8.4l-121.7,15.9l62.5,110.1l7.3-4.2l-35-78.3
		c240.9,197.7,526,15.7,528.8,13.9L1156.2,1319.2L1156.2,1319.2z"/>
</g>
<g>
	<path class="st0" d="M144,976.5c-1-3.1-99.3-308.7,146.7-491l-1.1,77.6l8.4,0.9l13.9-122L190,476.2l2.3,8.1l84.4-15.1
		C26.9,655.4,135,976,136,979.1L144,976.5L144,976.5z"/>
</g>
<g>
	<g>
		<path class="st0" d="M1374.2,1179.1c12.5-15.9,31.9-26.2,53.8-26.2c3.2,0,6.5,0.2,9.7,0.7V1139c-9.9,8.9-35.5,15.2-65.6,15.2
			c-29.9,0-55.4-6.3-65.4-15.1v18.7C1311.7,1178.3,1373.6,1179.1,1374.2,1179.1z"/>
		<path class="st0" d="M1306.7,1172.5l-0.1,19.1c2.4,10.6,24.7,19.2,53.6,21c1.1-9,4-17.5,8.3-25
			C1340.2,1187.1,1316.2,1181,1306.7,1172.5z"/>
		<path class="st0" d="M1306.7,1206.4l-0.1,18.1c0.1-0.1,0.2-0.2,0.3-0.3c0.7,11.7,25.7,21.3,57.8,22.6c-3.2-7.9-4.9-16.5-4.9-25.6
			v-0.1C1335.2,1219.7,1315.2,1214,1306.7,1206.4z"/>
		<path class="st0" d="M1368.9,1255.5c-29-0.5-53.2-6.9-62.3-15.6l-0.1,17.1c0,12.9,29.3,23.3,65.6,23.3c6.9,0,13.6-0.4,19.8-1.1
			C1382.5,1273.3,1374.6,1265.1,1368.9,1255.5z"/>
		<ellipse class="st0" cx="1372.1" cy="1122.3" rx="65.6" ry="23.3"/>
		<path class="st0" d="M1428.1,1162c-32.7,0-59.1,26.5-59.1,59.1s26.5,59.1,59.1,59.1c32.6,0,59.1-26.5,59.1-59.1
			S1460.7,1162,1428.1,1162z M1433.4,1252.7v3.7c0,3-2.4,5.4-5.4,5.4c-3,0-5.4-2.4-5.4-5.4v-3.7c-3.1-1-6.1-2.7-8.3-5.2
			c-2-2.2-1.9-5.6,0.2-7.6c2.2-2,5.5-1.8,7.6,0.2c2.4,2.2,6.3,2.5,6.5,2.5c4.2-0.3,7.5-3.8,7.5-8.1c0-4.5-3.6-8.1-8.1-8.1
			c-10.4,0-18.9-8.4-18.9-18.9c0-8.6,5.7-15.8,13.4-18.1v-3.7c0-3,2.4-5.4,5.4-5.4c3,0,5.4,2.4,5.4,5.4v3.7c3.1,1,6.1,2.7,8.3,5.2
			c2,2.2,1.9,5.6-0.2,7.6c-2.2,2-5.8,2.1-7.6-0.2c-2-2.5-6.3-2.5-6.5-2.5c-4.2,0.3-7.5,3.8-7.5,8.1c0,4.5,3.6,8.1,8.1,8.1
			c10.4,0,18.9,8.4,18.9,18.9C1446.9,1243.2,1441.2,1250.5,1433.4,1252.7z"/>
	</g>
</g>
<g>
	<path class="st0" d="M1426.8,352.6c-13.1,0-23.5-10.6-23.5-23.5c0-12.8,10.6-23.5,23.5-23.5c7.3,0,13.8,3.1,18.4,8.7
		c1.7,2.2,1.5,5.1-0.7,6.8c-2.2,1.7-5.1,1.5-6.8-0.7c-2.7-3.4-6.5-5.1-10.9-5.1c-7.7,0-13.8,6.3-13.8,13.8c0,7.7,6.3,13.8,13.8,13.8
		c3.6,0,7.3-1.5,9.7-4.1c1.9-1.9,4.8-1.9,6.8,0c1.9,1.9,1.9,4.8,0,6.8C1439.1,350.2,1433.1,352.6,1426.8,352.6L1426.8,352.6z"/>
	<path class="st0" d="M1472.5,352.6c-12.6,0-22.7-10.2-22.7-22.7c0-12.6,10.2-22.7,22.7-22.7c12.6,0,22.7,10.2,22.7,22.7
		S1485.1,352.6,1472.5,352.6z M1472.5,316.8c-7.3,0-13.1,5.8-13.1,13.1s5.8,13.1,13.1,13.1c7.3,0,13.1-5.8,13.1-13.1
		S1479.8,316.8,1472.5,316.8z"/>
	<path class="st0" d="M1531,352.6h-26.1c-2.7,0-4.8-2.2-4.8-4.8c0-8.7,8.7-13.8,16.2-18.1c4.1-2.4,10.4-6,10.4-8.2
		c0-3.6-5.3-4.8-8.5-4.8c-2.9,0-8.5,1-8.5,5.1c0,2.7-2.2,4.8-4.8,4.8c-2.7,0-4.8-2.2-4.8-4.8c0.2-8.5,7.7-14.5,18.4-14.5
		c10.4,0,18.1,6.3,18.1,14.5c0,8-7.7,12.3-15.2,16.7c-2.7,1.5-5.6,3.1-7.7,4.8h17.6c2.7,0,4.8,2.2,4.8,4.8
		C1535.8,350.4,1533.7,352.6,1531,352.6L1531,352.6z"/>
	<path class="st0" d="M1584.4,385c1-2.9,1.5-6,1.5-9.2v-90.9c0-10.6-5.8-20.3-15-25.4l-84.6-46.4c-8.7-4.8-19.1-4.8-27.8,0
		l-84.6,46.4c-9.4,5.1-15.2,14.7-15.2,25.4v90.9c0,10.6,5.8,20.3,15,25.4l84.6,46.4c4.4,2.4,9.2,3.6,14,3.6s9.7-1.2,14-3.6
		l30.2-16.7c7.3,12.1,20.3,20.3,35.3,20.3c22.7,0,41.1-18.4,41.1-41.1C1593.1,400.7,1589.8,392,1584.4,385L1584.4,385z
		 M1481.7,439.1c-5.8,3.1-12.8,3.1-18.6,0l-84.6-46.4c-6.3-3.4-9.9-9.9-9.9-16.9l0-90.9c0-7,3.9-13.5,9.9-16.9l84.4-46.4
		c2.9-1.7,6-2.4,9.4-2.4c3.4,0,6.3,0.7,9.2,2.4l84.6,46.4c6.3,3.4,10.2,9.9,10.2,16.9v90.9v1.2c-6.8-5.1-15.2-8-24.2-8
		c-22.7,0-41.1,18.4-41.1,41.1c0,4.1,0.7,8.2,1.7,11.8L1481.7,439.1z M1574.8,413.5l-18.6,18.6c-0.2,0.2-0.2,0.5-0.5,0.7
		c-1.2,1-2.4,1.5-3.6,1.5h-1c-0.2,0-0.2,0-0.5-0.2c-0.2,0-0.2,0-0.5-0.2c-0.2,0-0.2-0.2-0.5-0.2c0,0-0.2,0-0.2-0.2
		c-0.5-0.2-1-0.7-1.2-1.2l-18.6-18.6c-1.9-1.9-1.9-4.8,0-6.8c1.9-1.9,4.8-1.9,6.8,0l10.9,10.9l0-26.8c0-2.7,2.2-4.8,4.8-4.8
		s4.8,2.2,4.8,4.8v27.1l11.1-11.1c1.9-1.9,4.8-1.9,6.8,0C1576.7,408.7,1576.5,411.8,1574.8,413.5L1574.8,413.5z"/>
</g>
<path class="st0" d="M969.5,515l-44,192.7h116.6c4.9,0,7.7,5.6,4.9,9.8L877.4,977.8c-1.4,2.8-5.6,0.7-4.9-2.1L914.4,774H802.7
	c-4.9,0-7.7-5.6-4.9-9.8l167.5-252C966,510.1,970.2,511.5,969.5,515L969.5,515z"/>
<path class="st1" d="M425.2,297.5h34.5v-88.3l-34.5,26.1V297.5z M475.9,297.5h34.5v-131l-34.5,34.9V297.5z M526.5,297.5H561V109.7
	l-34.5,35.1V297.5z M374.6,297.5h34.5v-49.9l-34.5,26.1V297.5z M360.4,310.3h233.4v10.9H349.5V104.4h10.9L360.4,310.3z"/>
<path class="st0" d="M261.2,1229.2h172.6c2.9,0,5.3-2.4,5.3-5.3V1055v-0.3v-0.5v-0.5c0-0.3,0-0.3-0.3-0.5c0-0.3,0-0.3-0.3-0.5
	c0-0.3-0.3-0.3-0.3-0.5c0-0.3-0.3-0.3-0.3-0.5c0,0,0-0.3-0.3-0.3l-29-34.3c-0.3,0-0.5,0-0.5-0.3l-0.3-0.3c-0.3,0-0.3-0.3-0.5-0.3
	l-0.3-0.3c-0.3,0-0.3-0.3-0.5-0.3c-0.3,0-0.3,0-0.5-0.3h-0.5h-0.5h-0.3l-143.6,0c-2.9,0-5.3,2.4-5.3,5.3v203
	C256,1226.9,258.3,1229.2,261.2,1229.2L261.2,1229.2z M410.1,1035.3l12.4,14.5h-12.4V1035.3z M266.5,1026h133v29
	c0,2.9,2.4,5.3,5.3,5.3h23.8v158.4l-162,0L266.5,1026z"/>
<path class="st0" d="M288.7,1098.6h89.7c2.9,0,5.3-2.4,5.3-5.3s-2.4-5.3-5.3-5.3h-89.7c-2.9,0-5.3,2.4-5.3,5.3
	C283.4,1096.2,285.8,1098.6,288.7,1098.6z"/>
<path class="st0" d="M330.4,1065.9c0,2.9,2.4,5.3,5.3,5.3h42.8c2.9,0,5.3-2.4,5.3-5.3c0-2.9-2.4-5.3-5.3-5.3h-42.8
	C332.8,1060.6,330.4,1063,330.4,1065.9z"/>
<path class="st0" d="M288.7,1045.5H370c2.9,0,5.3-2.4,5.3-5.3s-2.4-5.3-5.3-5.3h-81.3c-2.9,0-5.3,2.4-5.3,5.3
	S285.8,1045.5,288.7,1045.5L288.7,1045.5z"/>
<path class="st0" d="M381.9,1192h-93.2c-2.9,0-5.3,2.4-5.3,5.3c0,2.9,2.4,5.3,5.3,5.3h93.2c2.9,0,5.3-2.4,5.3-5.3
	C387.1,1194.4,384.8,1192,381.9,1192z"/>
<path class="st0" d="M302.7,1160.8h89.7c2.9,0,5.3-2.4,5.3-5.3s-2.4-5.3-5.3-5.3h-89.7c-2.9,0-5.3,2.4-5.3,5.3
	C297.4,1158.5,299.8,1160.8,302.7,1160.8z"/>
<rect x="347.5" y="347.4" class="st2" width="248.2" height="48"/>
<text transform="matrix(1 0 0 1 354.8693 372.9886)" class="st0 st3 st4">Competitividad</text>
<rect x="1348.3" y="463.3" class="st2" width="248.2" height="48"/>
<text transform="matrix(1 0 0 1 1430.9618 488.8462)" class="st0 st3 st4">- CO2</text>
<rect x="1248.1" y="1321.3" class="st2" width="248.2" height="48"/>
<text transform="matrix(1 0 0 1 1317.157 1346.8715)" class="st0 st3 st4">$/MWh</text>
<rect x="192.4" y="1265.5" class="st2" width="310.4" height="103.8"/>
<text transform="matrix(1 0 0 1 220.5179 1291.1064)"><tspan x="0" y="0" class="st0 st3 st4">Elimina cláusulas </tspan><tspan x="46.2" y="43.2" class="st0 st3 st4">restrictivas</tspan></text>
</svg>
