<?xml version="1.0" encoding="utf-8"?>
<!-- Generator: Adobe Illustrator 26.0.1, SVG Export Plug-In . SVG Version: 6.00 Build 0)  -->
<svg version="1.1" id="Capa_1" xmlns="http://www.w3.org/2000/svg" xmlns:xlink="http://www.w3.org/1999/xlink" x="0px" y="0px"
	 viewBox="0 0 50 50" style="enable-background:new 0 0 50 50;" xml:space="preserve">
<style type="text/css">
	.st0{fill:#1C2E35;}
</style>
<g id="XMLID_476_">
	<g>
		<g id="XMLID_00000087402462499645356510000008527000189518284686_">
			<g id="XMLID_00000000213856359818429400000003542972363363986104_">
				<path id="XMLID_00000143596643771542665420000011515998061207785617_" class="st0" d="M47.7,7.4c-0.3-0.3-0.8-0.4-1.2-0.2
					c-5.6,2.2-10.2,2-10.3,2c-9.4-0.2-13.2,4.4-13.4,4.6c-3.2,3.9-1.8,8.1-0.6,9.9c-1.3,1.6-2,3.6-2.5,5.4c0,0,0,0,0,0
					c-0.1-0.3-0.3-0.6-0.5-0.9c1.5-3.2,0.1-5.9-0.8-6.8c-1.7-2.1-5.2-2.5-5.6-2.6c-6-0.4-9.5-1.3-9.5-1.3c-0.4-0.1-0.9,0-1.1,0.3
					C1.9,18.1,1.8,18.6,2,19c3.4,8.6,8.1,11,8.2,11c1.4,1,2.7,1.3,3.9,1.3c1.6,0,3-0.7,4-1.6c0,0,0.1,0.1,0.1,0.1c0,0,1,2.2,1,3.9
					v7.8c0,0.5,0.4,0.9,0.9,0.9c0.5,0,0.9-0.4,0.9-0.9l0-7.8c0,0,0,0,0,0c0,0,0,0,0-0.1v-0.5c0-0.1,0.2-4.9,2.4-8
					c1.2,1.3,2.7,2.1,4.3,2.4c0.4,0.1,0.9,0.1,1.3,0.1c4,0,7.6-2.7,7.7-2.8c6.9-5.2,11-15.8,11.2-16.2C48.1,8.2,48,7.7,47.7,7.4z
					 M11.3,28c0,0-3.5-1.8-6.4-7.8c1.7,0.3,4.3,0.7,7.7,0.9c0.8,0.1,3.1,0.6,4.2,1.9c0.2,0.2,1.3,1.4,0.8,3.4
					c-2.4-2.1-5.6-3.2-5.8-3.2c-0.5-0.2-1,0.1-1.1,0.6c-0.2,0.5,0.1,1,0.6,1.1c0,0,3.3,1.2,5.4,3.1C15.8,28.7,14,29.8,11.3,28z
					 M35.4,23c0,0-3.8,2.9-7.3,2.3c-1.2-0.2-2.3-0.8-3.2-1.8c0.8-0.8,3-2.8,7.9-4.8c0.5-0.2,0.7-0.7,0.5-1.2
					c-0.2-0.5-0.7-0.7-1.2-0.5c-4.8,2-7.3,4-8.3,5c-0.6-1.2-1.6-4,0.7-6.8c0.1-0.2,3.2-3.8,10.9-3.8c0.2,0,0.5,0,0.7,0
					c0.2,0,3.9,0.2,8.7-1.3C43.3,13.5,39.9,19.6,35.4,23z"/>
			</g>
			<path id="XMLID_00000030475554410179863170000000529770219422041787_" class="st0" d="M29.6,31.8C29.5,31.8,29.5,31.8,29.6,31.8
				c-0.7,0-1.2-0.1-1.7-0.1c-0.3-0.1-0.7-0.1-1.2-0.1c-0.5,0-0.8-0.4-0.8-0.9c0-0.5,0.4-0.8,0.9-0.8c0.5,0,0.9,0.1,1.3,0.1
				c0.4,0.1,0.8,0.1,1.4,0.1c0.9,0,2.7-0.2,3.4-0.4c0.7-0.2,1.2-0.6,1.8-1.2c0.2-0.2,0.4-0.3,0.6-0.5c0.4-0.3,0.9-0.2,1.2,0.1
				c0.3,0.4,0.2,0.9-0.1,1.2c-0.2,0.2-0.4,0.3-0.5,0.5c-0.7,0.6-1.4,1.2-2.4,1.5C32.5,31.6,30.6,31.8,29.6,31.8z"/>
			<path id="XMLID_00000026165052364771620080000006556579634237013437_" class="st0" d="M18.3,18.8c-0.2,0-0.4-0.1-0.5-0.2
				c-1.4-1.1-3.4-1.7-5.9-1.7c-0.5,0-0.8-0.4-0.8-0.9c0-0.5,0.4-0.8,0.8-0.8h0c2.9,0,5.3,0.7,7,2.1c0.4,0.3,0.4,0.8,0.1,1.2
				C18.8,18.7,18.6,18.8,18.3,18.8z"/>
		</g>
	</g>
</g>
</svg>
