<?xml version="1.0" encoding="utf-8"?>
<!-- Generator: Adobe Illustrator 26.0.1, SVG Export Plug-In . SVG Version: 6.00 Build 0)  -->
<svg version="1.1" id="Capa_1" xmlns="http://www.w3.org/2000/svg" xmlns:xlink="http://www.w3.org/1999/xlink" x="0px" y="0px"
	 viewBox="0 0 50 50" style="enable-background:new 0 0 50 50;" xml:space="preserve">
<style type="text/css">
	.st0{fill:#1C2E35;}
</style>
<g id="XMLID_13_">
	<g id="XMLID_19_">
		<g>
			<g id="XMLID_00000146474443222049501450000003966455310049357475_">
				<g id="XMLID_00000044155188809641379780000018407829497769004166_">
					<path id="XMLID_00000071539624846516714280000017180711981866719900_" class="st0" d="M47.6,36.2H14.7c-0.2,0-0.4-0.1-0.5-0.3
						L1.9,14c-0.1-0.2-0.1-0.4,0-0.6c0.1-0.2,0.3-0.3,0.5-0.3h33c0.2,0,0.4,0.1,0.5,0.3l12.2,21.8c0.1,0.2,0.1,0.4,0,0.6
						C48,36.1,47.8,36.2,47.6,36.2z M15.4,34.6h30.4l-11.1-20H4.1L15.4,34.6z"/>
					<polygon id="XMLID_00000058569659228417734930000010901991131552066491_" class="st0" points="24.5,35.9 12.2,14 14,14 
						26.3,35.8 					"/>
					<path id="XMLID_00000022556352122947800770000015952723090504433551_" class="st0" d="M36.6,35.9c-0.2,0-0.2,0.2-0.3,0L24,14
						c-0.2-0.3-0.1-0.4,0.2-0.5c0.3-0.2,1.3-0.1,1.4,0.2L38,35.5c0.2,0.3-0.5,0.2-0.7,0.3C37.1,35.9,36.7,35.9,36.6,35.9z"/>
					<path id="XMLID_00000116223661955821022280000009706260789576613303_" class="st0" d="M27.3,45.7c-0.6,0-1-0.4-1-1v-8.6
						c0-0.6,0.4-1,1-1s1.3,0.4,1.3,1v8.6C28.6,45.2,27.9,45.7,27.3,45.7z"/>
					<path id="XMLID_00000049218223522045673240000001893724799751357321_" class="st0" d="M37.3,45.9H15.5c-0.6,0-1-0.4-1-1
						s0.4-1.2,1-1.2h21.8c0.6,0,1,0.7,1,1.2S37.8,45.9,37.3,45.9z"/>
					<path id="XMLID_00000026136247538216283290000005248707845006346937_" class="st0" d="M41.9,25.7H9c-0.3,0-1-0.7-1-1
						s0.3-0.6,0.6-0.6h32.9c0.3,0,0.6,0.3,0.6,0.6S42.3,25.7,41.9,25.7z"/>
				</g>
			</g>
		</g>
	</g>
	<g id="XMLID_14_">
		<g id="XMLID_16_">
			<path id="XMLID_18_" class="st0" d="M41.3,14.7c-0.3,0-0.6-0.2-0.8-0.5c-0.2-0.4,0-1,0.4-1.2l5-2.4c0.4-0.2,1,0,1.2,0.4
				c0.2,0.4,0,1-0.4,1.2l-5,2.4C41.6,14.7,41.4,14.7,41.3,14.7z"/>
			<path id="XMLID_17_" class="st0" d="M39.4,11.9c-0.2,0-0.3,0-0.5-0.2c-0.4-0.3-0.5-0.8-0.2-1.2l4.3-6.2c0.3-0.4,0.8-0.5,1.2-0.2
				c0.4,0.3,0.5,0.8,0.2,1.2l-4.3,6.2C39.9,11.7,39.6,11.9,39.4,11.9z"/>
		</g>
		<path id="XMLID_15_" class="st0" d="M35.7,10.8L35.7,10.8c-0.5,0-0.9-0.4-0.9-0.9l0-5.4c0-0.5,0.4-0.9,0.9-0.9l0,0
			c0.5,0,0.9,0.4,0.9,0.9l0,5.4C36.5,10.4,36.1,10.8,35.7,10.8z"/>
	</g>
</g>
</svg>
