<?xml version="1.0" encoding="utf-8"?>
<!-- Generator: Adobe Illustrator 26.0.1, SVG Export Plug-In . SVG Version: 6.00 Build 0)  -->
<svg version="1.1" id="Capa_1" xmlns="http://www.w3.org/2000/svg" xmlns:xlink="http://www.w3.org/1999/xlink" x="0px" y="0px"
	 viewBox="0 0 504.7 502.5" style="enable-background:new 0 0 504.7 502.5;" xml:space="preserve">
<style type="text/css">
	.st0{fill:#63C2E4;}
	.st1{clip-path:url(#SVGID_00000082352500541305101360000000278059732567280017_);}
	.st2{clip-path:url(#SVGID_00000075140474446640628050000001977259972505819578_);}
</style>
<path class="st0" d="M441.5,110.1c20.3,38.3,62.2,145.4-37,247.2C308.9,455.4,178.7,405,129.8,336c-5.9-8.3-13.1-25.6-17.1-26.4
	c-7.1,6-0.2,34.9,8.1,50.9c90.7,176,287.4,128.1,347,2.5c54.8-115.4,1.2-217.3-24.6-253.9c-0.2-0.3-0.5-0.4-0.8-0.4
	c-0.6,0-1,0.4-1,1C441.4,109.8,441.4,110,441.5,110.1"/>
<g>
	<g>
		<g>
			<g>
				<path id="SVGID_1_" class="st0" d="M296.4,485.7c-43.2,2.7-158.1-3.4-209.9-135.7c-49.9-127.6,49.7-225.4,132.8-241.4
					c10-1.9,28.7-1.4,31.1-4.8c-2.5-9-31.7-14.6-49.7-13.6C3,100.2-34.6,299.1,55.2,405.3c82.5,97.6,197.4,90.8,241.4,82.4
					c0.3-0.1,0.6-0.3,0.7-0.5c0.2-0.5,0-1.1-0.5-1.3C296.7,485.8,296.5,485.7,296.4,485.7"/>
			</g>
			<g>
				<defs>
					<path id="SVGID_00000119801151193224445100000016760192271473778562_" d="M296.4,485.7c-43.2,2.7-158.1-3.4-209.9-135.7
						c-49.9-127.6,49.7-225.4,132.8-241.4c10-1.9,28.7-1.4,31.1-4.8c-2.5-9-31.7-14.6-49.7-13.6C3,100.2-34.6,299.1,55.2,405.3
						c82.5,97.6,197.4,90.8,241.4,82.4c0.3-0.1,0.6-0.3,0.7-0.5c0.2-0.5,0-1.1-0.5-1.3C296.7,485.8,296.5,485.7,296.4,485.7"/>
				</defs>
				<use xlink:href="#SVGID_00000119801151193224445100000016760192271473778562_"  style="overflow:visible;fill:#63C2E4;"/>
				<clipPath id="SVGID_00000178175574850215293960000016443939137452526228_">
					<use xlink:href="#SVGID_00000119801151193224445100000016760192271473778562_"  style="overflow:visible;"/>
				</clipPath>
				<g style="clip-path:url(#SVGID_00000178175574850215293960000016443939137452526228_);">
					<polygon class="st0" points="-205.2,220.4 251.9,-77.8 546.5,373.9 89.5,672.1 					"/>
				</g>
			</g>
		</g>
	</g>
</g>
<g>
	<g>
		<g>
			<g>
				<path id="SVGID_00000120522329523636085010000016669644779033685674_" class="st0" d="M30.4,171.7c20.9-38,87.6-131.7,227-104.6
					c134.5,26.2,163.7,162.7,132.8,241.4c-3.7,9.5-14.2,25-12.6,28.8c9,2.7,29.2-18.9,38.1-34.7C513.1,130.3,365.3-8,227.5,11
					C100.9,28.6,45.1,129.3,28.6,170.9c-0.1,0.3-0.1,0.6,0.1,0.9c0.3,0.5,0.9,0.6,1.4,0.3C30.2,172.1,30.3,171.9,30.4,171.7"/>
			</g>
			<g>
				<defs>
					<path id="SVGID_00000180357946322922294780000011337886908703446943_" d="M30.4,171.7c20.9-38,87.6-131.7,227-104.6
						c134.5,26.2,163.7,162.7,132.8,241.4c-3.7,9.5-14.2,25-12.6,28.8c9,2.7,29.2-18.9,38.1-34.7C513.1,130.3,365.3-8,227.5,11
						C100.9,28.6,45.1,129.3,28.6,170.9c-0.1,0.3-0.1,0.6,0.1,0.9c0.3,0.5,0.9,0.6,1.4,0.3C30.2,172.1,30.3,171.9,30.4,171.7"/>
				</defs>
				<use xlink:href="#SVGID_00000180357946322922294780000011337886908703446943_"  style="overflow:visible;fill:#63C2E4;"/>
				<clipPath id="SVGID_00000029762769295733169730000005696372108531909538_">
					<use xlink:href="#SVGID_00000180357946322922294780000011337886908703446943_"  style="overflow:visible;"/>
				</clipPath>
				<g style="clip-path:url(#SVGID_00000029762769295733169730000005696372108531909538_);">
					<polygon class="st0" points="-16.2,-102.8 523.1,-109.7 530.1,436 -9.2,442.9 					"/>
				</g>
			</g>
		</g>
	</g>
</g>
</svg>
