<svg id="Capa_1" data-name="Capa 1" xmlns="http://www.w3.org/2000/svg" viewBox="0 0 579.26 197.39"><defs><style>.cls-1{fill:#fff;}</style></defs><path class="cls-1" d="M387.42,155.14c-2.25,13-7.49,15.47-15.08,2.06-.85-1.5.51-4.92-3.07-3.18-22.72,11-45.32-3.65-68-.15-20.69,3.19-41.68,2.38-62.56,5.45-11.47,1.68-24,6.26-37.23,2.36-7.71-2.27-17.87,1.41-26.22,4.38-7.07,2.51-14.09-.22-21,.57C124.6,170,101.78,189.4,74,196.58c-10.08,2.6-13.77-1.46-17-7-4.17-7.16,4.35-9.23,8.13-11.22,30.53-16,63.77-26,96.75-33.94,23.38-5.63,48-12,73.28-9.25,7.09.78,14.75-2.06,21.89-4.12,3.09-.89,6.49-4,8.73-.72,8.21,11.94,19,6.91,29.37,5.24,10.13-1.63,19.64-2.55,30.17.82,23.29,7.46,47.83,4.36,71.83,6,12.71.86,23.73,11.46,37.41,13.56,3.67.56,5.79,10.4,1.88,12.63-7.09,4.06-4.37-2.84-5.4-6.56s-7.52-1.68-8.48-.81c-8,7.27-17.36.53-25.94,3.29C385.82,168,397.86,154.25,387.42,155.14Zm-71.64-3.46c-.37-.36-.81-1.09-1.08-1a10.79,10.79,0,0,0-2.21,1c.36.37.8,1.09,1.08,1A8.52,8.52,0,0,0,315.78,151.68Z"/><path class="cls-1" d="M472,38.16c23.28.13,40.15,18.24,40.08,43C512,107.29,494,126,469.41,125.5,446.2,125,430.3,107,430.54,81.57,430.79,55.93,447.89,38,472,38.16Zm24.44,43.57c.07-18.69-10.73-32.52-25.29-32.35C456.8,49.53,445.84,62.6,445.47,80c-.42,19.69,10.34,34.05,25.49,34C485.78,114,496.36,100.55,496.44,81.73Z"/><path class="cls-1" d="M293.64,71.35c0-12.59-.65-25.21.19-37.74.76-11.22-2.7-15.34-14.48-15.15-6.75.1-19.91,6.18-20-5.38s13-5.49,20-5.87c18-1,36.11-.43,54.17-.27,4.64,0,11-1.11,10.91,6.34-.07,8-6.81,5.08-11.14,5.6a37.26,37.26,0,0,1-9.84,0C312,17.14,308.45,21.74,308.81,33.3c.82,26.24.27,52.51.25,78.77,0,5.44.95,11.39-7.56,11.51s-7.86-5.63-7.86-11.21Q293.65,91.87,293.64,71.35Z"/><path class="cls-1" d="M0,64.73C0,48.9.08,33.07,0,17.24,0,12,.25,7.46,7.5,7.59S15,12.36,15,17.57c-.2,26.74,0,53.49-.81,80.21-.28,9.71,2,14.12,12.54,13.22,9.76-.83,19.65-.12,29.48-.18,4.29,0,7.67,1,7.83,6.08s-2.81,6.64-7.29,6.64c-16.38,0-32.76-.1-49.15,0C-1,123.63.05,117.62,0,112.22Q0,88.48,0,64.73Z"/><path class="cls-1" d="M188.92,125.46c-1-.09-3.88.15-6.41-.66-5.27-1.68-14.33-.53-13.3-8.71,1.3-10.42,8.86-3.64,14-2.91,9.4,1.34,20,3.09,23.31-8.74,3.49-12.58-8.09-14.85-16.22-18.74-18.53-8.84-24.6-19.32-18.53-32.43,5.88-12.7,23.84-19.08,38.38-13.64,3.61,1.34,7.82,2.53,6.72,7.61s-5,4.63-9.07,3.9a50.64,50.64,0,0,0-13-.94c-5.22.44-9.38,3.2-10.36,8.88-.85,4.9,1.59,8.6,5.55,11a111.11,111.11,0,0,0,11.74,5.78C214,81.4,223.92,88.76,221.43,104.2,219.23,117.8,207.79,125.4,188.92,125.46Z"/><path class="cls-1" d="M558.18,38.05a58.78,58.78,0,0,1,8.8,1.26c4,1.14,9.55,1.91,8.11,8s-6.33,4.38-10.68,3.42c-6.54-1.46-14-2.79-18.43,3-9,11.61.32,16.6,9.32,20.18C569.36,79.5,581.16,86,579,104.32c-1.39,11.77-9.09,17.09-19,19.77-10.83,2.91-22.18,2.92-31.47-4-4.21-3.12-1.47-8.18,3.65-9.66,1.76-.51,4.11,1.17,6.22,1.7,10.43,2.61,22.31,5.1,26.29-8,3.66-12-8.21-14.66-16.47-18.53-11.9-5.58-23.16-12.23-19.44-28C532.16,43.25,543.35,38.29,558.18,38.05Z"/><path class="cls-1" d="M410.91,62.82c0,17-.05,33.95,0,50.92,0,5.38-.49,9.81-7.6,9.88-6.83.06-8.09-3.81-8.08-9.47q.11-52.56,0-105.12c0-6,2-9.23,8.51-9,7.25.23,7.22,5.08,7.21,10.26C410.89,27.79,410.92,45.3,410.91,62.82Z"/><path class="cls-1" d="M369.32,82.36q0,16.33,0,32.67c0,4.78-.95,8.55-7.12,8.46-5.94-.08-7.26-3.49-7.25-8.45,0-22.33.05-44.66,0-67,0-5.08,1.39-8.36,7.23-8.42,6-.07,7.23,3.47,7.21,8.42C369.28,59.49,369.32,70.92,369.32,82.36Z"/><path class="cls-1" d="M371.72,15.58c-1.37,6-4.06,9.8-10,9.41-5-.32-8.22-3.68-8.27-8.41-.06-5.42,3.26-9.43,8.94-9.71C368.43,6.58,370.38,11.25,371.72,15.58Z"/><path class="cls-1" d="M315.78,151.7a9.15,9.15,0,0,1-2.21,1c-.28.06-.72-.66-1.08-1a10.79,10.79,0,0,1,2.21-1C315,150.59,315.41,151.32,315.78,151.7Z"/><path class="cls-1" d="M182.51,124.8c2.54.81,5.41.57,6.41.66,18.87-.06,30.31-7.66,32.51-21.26,2.49-15.44-7.4-22.8-19.64-28.33a111.11,111.11,0,0,1-11.74-5.78c-4-2.41-6.4-6.11-5.55-11,1-5.68,5.14-8.44,10.36-8.88a51.09,51.09,0,0,1,13,.94c4.12.73,8,1.15,9.07-3.9s-3.11-6.27-6.72-7.61c-14.54-5.44-32.5.94-38.38,13.64-6.07,13.11,0,23.59,18.53,32.43,8.13,3.89,19.71,6.16,16.22,18.74-3.29,11.83-13.91,10.08-23.31,8.74-5.17-.73-12.73-7.51-14,2.92C168.18,124.27,177.24,123.12,182.51,124.8Z"/><path class="cls-1" d="M279.35,18.46c11.78-.19,15.24,3.93,14.48,15.15-.84,12.53-.19,25.15-.19,37.74q0,20.5,0,41c0,5.58-.58,11.33,7.86,11.21s7.55-6.07,7.56-11.51c0-26.26.57-52.53-.25-78.77-.36-11.56,3.18-16.16,14.69-14.43a37.26,37.26,0,0,0,9.84,0c4.33-.52,11.07,2.35,11.14-5.6.08-7.45-6.27-6.29-10.91-6.34-18.06-.16-36.16-.71-54.17.27-7,.38-20.08-5.79-20,5.87S272.6,18.56,279.35,18.46Z"/><path class="cls-1" d="M362.13,39.63c-5.84.06-7.25,3.34-7.23,8.42.09,22.33.06,44.66,0,67,0,5,1.31,8.37,7.25,8.45,6.17.09,7.11-3.68,7.12-8.46q0-16.34,0-32.67c0-11.44,0-22.87,0-34.31C369.36,43.1,368.12,39.56,362.13,39.63Z"/><path class="cls-1" d="M361.7,25c6,.39,8.65-3.41,10-9.41-1.34-4.33-3.29-9-9.35-8.71-5.68.28-9,4.29-8.94,9.71C353.48,21.31,356.67,24.67,361.7,25Z"/><path class="cls-1" d="M395.26,114.15c0,5.66,1.25,9.53,8.08,9.47,7.11-.07,7.63-4.5,7.6-9.88-.08-17,0-33.95,0-50.92,0-17.52,0-35,0-52.55,0-5.18,0-10-7.21-10.26-6.5-.21-8.53,3-8.51,9Q395.4,61.59,395.26,114.15Z"/><path class="cls-1" d="M64,116.9c-.16-5.07-3.54-6.1-7.83-6.08-9.83.06-19.72-.65-29.48.18-10.56.9-12.82-3.51-12.54-13.22.78-26.72.61-53.47.81-80.21,0-5.21-.28-9.86-7.49-10S0,12,0,17.24C.08,33.07,0,48.9,0,64.73s0,31.66,0,47.49c0,5.4-1,11.41,7.55,11.34,16.39-.12,32.77,0,49.15,0C61.22,123.54,64.17,121.83,64,116.9Z"/><path class="cls-1" d="M434.57,156c-13.68-2.1-24.7-12.7-37.41-13.56-24-1.61-48.54,1.49-71.83-6-10.53-3.37-20-2.45-30.17-.82-10.32,1.67-21.16,6.7-29.37-5.24-2.24-3.26-5.64-.17-8.73.72-7.14,2.06-14.8,4.9-21.89,4.12-25.26-2.79-49.9,3.62-73.28,9.25-33,7.93-66.22,17.89-96.75,33.94-3.78,2-12.3,4.06-8.13,11.22,3.22,5.51,6.91,9.57,17,7,27.78-7.18,50.6-26.57,80.32-30,6.86-.79,13.88,1.94,21-.57,8.35-3,18.51-6.65,26.22-4.38,13.23,3.9,25.76-.68,37.23-2.36,20.88-3.07,41.87-2.26,62.56-5.45,22.67-3.5,45.27,11.2,68,.15,3.58-1.74,2.22,1.68,3.07,3.18,7.59,13.41,12.83,11,15.08-2.06,10.44-.89-1.6,12.84,9.21,9.36,8.58-2.76,17.94,4,25.94-3.29,1-.87,7.47-2.85,8.48.81s-1.69,10.62,5.4,6.56C440.36,166.35,438.24,156.51,434.57,156Z"/><path class="cls-1" d="M472,38.16c-24.11-.13-41.21,17.77-41.46,43.41C430.3,107,446.2,125,469.41,125.5,494,126,512,107.29,512.08,81.17,512.15,56.4,495.28,38.29,472,38.16ZM471,114c-15.15,0-25.91-14.31-25.49-34,.37-17.4,11.33-30.47,25.68-30.62,14.56-.17,25.36,13.66,25.29,32.35S485.78,114,471,114Z"/><path class="cls-1" d="M555.3,73.9c-9-3.58-18.28-8.57-9.32-20.18,4.47-5.78,11.89-4.45,18.43-3,4.35,1,9.24,2.69,10.68-3.42s-4.07-6.86-8.11-8a58.78,58.78,0,0,0-8.8-1.26c-14.83.24-26,5.2-29.44,19.66-3.72,15.76,7.54,22.41,19.44,28,8.26,3.87,20.13,6.54,16.47,18.53-4,13-15.86,10.56-26.29,8-2.11-.53-4.46-2.21-6.22-1.7-5.12,1.48-7.86,6.54-3.65,9.66,9.29,6.87,20.64,6.86,31.47,4,9.95-2.68,17.65-8,19-19.77C581.16,86,569.36,79.5,555.3,73.9Z"/><path class="cls-1" d="M111.67,125.52c24,.22,41.73-17.9,42.2-43.13.48-25.51-16.75-44.32-40.5-44.22-24,.1-40.95,18.16-41.12,43.85C72.09,107,88.66,125.3,111.67,125.52Zm1.62-76.15c17.5-.07,30.2,13.8,29.85,32.59-.35,18.6-13.41,32-31.1,31.79-17-.16-29.18-13.64-29.05-32.06C83.11,62.76,95.59,49.45,113.29,49.37Z"/></svg>