<?xml version="1.0" encoding="utf-8"?>
<!-- Generator: Adobe Illustrator 26.0.1, SVG Export Plug-In . SVG Version: 6.00 Build 0)  -->
<svg version="1.1" id="Capa_1" xmlns="http://www.w3.org/2000/svg" xmlns:xlink="http://www.w3.org/1999/xlink" x="0px" y="0px"
	 viewBox="0 0 374 656" style="enable-background:new 0 0 374 656;" xml:space="preserve">
<style type="text/css">
	.st0{fill:#63C1E3;}
</style>
<g>
	<path class="st0" d="M40.2,642.5c-8,0-15.1-4.8-18.2-12.1s-1.4-15.8,4.3-21.4l280.6-280.6L26.4,47.8c-4-3.6-6.4-8.7-6.6-14.1
		s1.9-10.6,5.7-14.4s9-5.9,14.4-5.8C45.3,13.6,50.4,16,54,20l294.5,294.5c3.7,3.7,5.8,8.7,5.8,13.9s-2.1,10.2-5.8,13.9L54,636.8
		C50.3,640.4,45.4,642.5,40.2,642.5L40.2,642.5z"/>
</g>
</svg>
