<?xml version="1.0" encoding="UTF-8"?>
<svg id="Capa_1" data-name="Capa 1" xmlns="http://www.w3.org/2000/svg" viewBox="0 0 133.57 81.98">
  <defs>
    <style>
      .cls-1 {
        fill: #070508;
      }
    </style>
  </defs>
  <path class="cls-1" d="M21.06.28l.13.04,1.34.44.27.09,1.83.62,1.72.58.35.12.24.08.12.04.59.19q2.24.74,3,1.27l.15.11c.72.53,1.33,1.17,1.79,1.93l.06.09c.51.85.83,1.88.87,2.87v.17s-.05,1.11-.05,1.11v.11c-.13.81-.43,1.61-.7,2.39l-.24.7-.05.14-.12.34,8.58.33.72.03,3.21.12.77.03h.1s3.14.12,3.14.12l3.34.12,1.81.07,1.54.06.78.03,1.72.06h.32s.56.02.56.02h.16q.3,0,.55-.13l.27-.42.22-.24.44-.51.55-.63.33-.39.55-.63.33-.39.55-.63.33-.39.56-.64.31-.38c.19-.18.4-.24.66-.24h.18s.2,0,.2,0h.22s.62-.02.62-.02h.43s2.21-.04,2.21-.04h.58s.1,0,.1,0h.2s1.83-.02,1.83-.02l1.55-.02,1.83-.02h.2s.1,0,.1,0h.66s.36-.01.36-.01h.18s.88-.01.88-.01h.17s.34,0,.34,0l1.07-.02h.72s.34-.02.34-.02c.71-.02,1.17.03,1.74.47l.22.14.19.13.22.15.12.08.73.48.24.16.17.11.87.57,1.9,1.24.94.62.78.51.79.51.34.22.45.3.17.11.16.1.17.11.46.35c.84.72,1.96.73,3.02.85l.85.1,1.61.19,1.84.22,3.77.46-.05-.13-.42-1.25-.22-.64-.21-.62-.08-.24c-.59-1.74-.6-3.54.2-5.23.3-.59.67-1.11,1.12-1.59l.13-.14c.86-.9,1.93-1.4,3.11-1.78l.3-.1.63-.21,1.28-.43.74-.25,1.31-.45,1.05-.36.65-.22.62-.21.23-.08c.71-.24,1.45-.45,2.2-.48h.16c1.79-.05,3.46.65,4.75,1.88.95.93,1.43,2.06,1.85,3.3l.12.35.36,1.08.11.33.41,1.22.62,1.85.73,2.15.05.14.24.71.51,1.52.05.15.89,2.62.25.75.03.09.88,2.6.08.25.33.99.89,2.64.04.12,1.2,3.56,1.17,3.47.04.12.64,1.89.48,1.42.2.58.83,2.45.12.35.08.23.04.11.18.54.43,1.28.07.21.22.66.07.21c.6,1.77.58,3.57-.24,5.27-.86,1.71-2.34,2.78-4.11,3.38l-.25.08-2.9.97-2.16.73-1.82.61-.21.07c-.62.21-1.24.36-1.9.39h-.14c-1.35.04-2.7-.34-3.81-1.11l-.15-.11c-1.24-.9-1.96-2.07-2.47-3.49l-.15-.39-.11.1-.71.65-.56.51-.68.62-.41.38-.65.59-.49.45-.46.41-.56.51-.68.62-.49.45-.61.55-.19.24.08.12c.98,1.46,1.38,3.2,1.04,4.94-.37,1.67-1.34,3.14-2.78,4.08-1.4.88-3.15,1.22-4.78.87-.74-.18-1.4-.45-2.06-.83v.19c-.14,1.64-.74,3.09-2,4.17-1.15.94-2.64,1.39-4.12,1.25-.38-.04-.75-.11-1.11-.23l.02.09c.21,1.27-.16,2.65-.86,3.71l-.33.42-.1.13c-.83.98-2.12,1.66-3.4,1.77-1.46.09-2.74-.2-3.93-1.07v.1c-.18,1.27-.5,2.42-1.36,3.4l-.09.12c-.9,1.08-2.31,1.7-3.7,1.83-1.49.09-2.99-.35-4.12-1.34l-.15-.13-.08-.08-.94-.92-.33-.33-.69-.69-.8-.81-.32-.32-.2-.2-.09-.09-.44-.41-.66-.63-.2-.2-.22-.22-.45-.45-1.04-1.04-.95-.95-.45-.45-.21-.21-.26-.26-.64-.6-.27-.26-.08-.09-.06-.06c-.39.18-.69.54-.99.84l-.11.11-.35.36-.47.47-.11.11-.59.55-.49.48-.11.11-.34.35-.45.46-.1.1-.49.46-.6.57-.11.11-.35.36-.47.47-.11.11-.59.55-.51.49-.11.11-.36.36-.24.24-.44.44-.1.1-.16.16c-1.11,1.12-2.57,1.75-4.15,1.77-1.62,0-3.08-.6-4.23-1.73-1.08-1.09-1.65-2.55-1.66-4.07,0-.47.08-.93.16-1.38l-.16.02c-1.62.2-3.2-.05-4.55-1.03l-.63-.55-.09-.08c-.87-.8-1.5-2.1-1.61-3.27v-.1c-.08-.72-.04-1.43.15-2.14l-.19.05c-1.45.32-2.98-.01-4.23-.77-1.35-.9-2.24-2.2-2.6-3.79-.22-1.12-.09-2.29.31-3.35h-.15c-1.23.03-2.33-.36-3.29-1.12l-.1-.08c-1.02-.84-1.52-2.1-1.68-3.37-.02-.29-.03-.56.03-.85q.1-.45-.05-.86l-.4-.32-.34-.27-.13-.11-.57-.52-.52-.45-.69-.62-.52-.45-.79-.7-1.13-.97-.06.17c-.5,1.44-1.39,2.72-2.71,3.52l-.14.09c-1.34.83-3.11,1.13-4.65.79l-.65-.18-.13-.04-1.51-.5-.32-.11-.5-.17-1.7-.58-.51-.17-1.53-.52-.66-.22-.31-.1c-1.99-.66-3.55-1.63-4.53-3.53l-.07-.13-.33-.88-.04-.12C.05,45.35,0,44.79,0,44.19v-.11c0-1.09.31-2.03.66-3.06l.32-.94.05-.15.19-.58.67-1.98.71-2.1.04-.13.22-.67.48-1.42.05-.14.78-2.31,1.07-3.17,1.15-3.41.25-.73.03-.09.8-2.36.04-.11.44-1.31.7-2.07.04-.11,1.14-3.37.94-2.78.26-.76.15-.43.04-.11.4-1.18.74-2.2.29-.86.25-.73.09-.26c.54-1.62,1.59-3.01,3.13-3.81,1.56-.77,3.26-1,4.94-.48ZM15.65,3.24c-.68.8-1.02,1.72-1.34,2.71l-.18.56-.05.15-.49,1.45-.75,2.22-.05.15-.26.76-.55,1.62-.05.16-.9,2.67-1.24,3.67-.37,1.11-.05.14-.96,2.85-.04.12-.39,1.15-.78,2.32-.12.35-1.62,4.8-.53,1.58-.12.36-.37,1.09-.2.6-.04.12-.55,1.63-.3.9-.21.63-.77,2.28-.05.15-.23.67c-.22.64-.38,1.24-.37,1.92v.17c.02,1.08.43,2.13,1.14,2.95l.1.12c.88,1.03,2.14,1.4,3.38,1.8l.63.21,1.13.38,1.11.37.98.33,1.47.5.14.05.64.22c.62.22,1.22.38,1.88.38h.15c1.3-.03,2.4-.57,3.31-1.48l.12-.12c.43-.45.72-.96.93-1.54l.05-.13.65-1.89.3-.91.03-.1.58-1.71.74-2.19.05-.15.25-.75.54-1.62.05-.16.97-2.86.07-.21.1-.31.07-.21.07-.21.9-2.65.08-.25.33-.98.58-1.71.04-.12.2-.61.37-1.09.2-.61.08-.24.16-.49.04-.12.08-.24.2-.61.37-1.09.2-.61.04-.12.58-1.7,1.58-4.67.63-1.86.17-.51.5-1.47.22-.64.2-.6.07-.22.17-.5.15-.43.08-.23.04-.11c.41-1.2.29-2.46-.24-3.61-.6-1.16-1.6-1.99-2.82-2.42l-.15-.06-2.66-.91-.6-.2-1.92-.64-.15-.05-.9-.3-.28-.09-1.29-.42-.18-.06c-1.68-.47-3.55.14-4.74,1.39ZM113.03,4.53l-.11.03-1.26.41-.26.09-.69.23-.55.18-3.51,1.19-.99.34-.11.04-.23.08-.11.04-.1.03c-.66.23-1.24.54-1.75,1.01l-.13.12c-.87.82-1.42,1.99-1.47,3.18v.1s.03.71.03.71l.02.18.15.59.03.1.35,1.06.07.21.14.43.18.54.85,2.52.68,1.99.05.14.24.71.51,1.52.05.15.89,2.62.25.75.03.09.88,2.6.08.25.33.99.89,2.64.04.12,1.2,3.56,1.17,3.47.04.12.64,1.89,1.22,3.62.04.11.23.68.08.23.41,1.2.14.42.03.1.43,1.28.24.71.11.32c.27.82.56,1.59,1.11,2.27l.1.12c.8.94,1.97,1.49,3.18,1.6,1.17.09,2.24-.32,3.32-.69l.48-.16.95-.33.72-.24.71-.24,1.2-.41.65-.22.31-.11,1.56-.55.13-.05c1.18-.45,2.04-1.37,2.58-2.49.27-.62.39-1.22.39-1.88v-.16c.01-.81-.26-1.57-.52-2.34l-.08-.23-.36-1.06-1.26-3.73-.51-1.52-.05-.15-.89-2.62-.25-.75-.03-.09-.88-2.6-.08-.25-.29-.87-.93-2.74-.08-.23-.31-.93-.51-1.52-.36-1.06-.04-.12-1.2-3.55-1.25-3.69-.87-2.59-.11-.32-.32-.95-.18-.53-.04-.11-.52-1.56-.31-.94-.26-.77-.16-.48-.07-.22c-.49-1.5-1.3-2.67-2.74-3.4-1.07-.49-2.25-.59-3.37-.25ZM75.16,10.62h-.87s-1.81.03-1.81.03l-1.65.02-1.71.02h-.95s-.89.02-.89.02h-.33s-.85.02-.85.02h-.26s-.36.02-.36.02h-.11c-.24.01-.36.07-.52.25l-.19.27-.22.27-.11.14-.44.49-.33.39-.55.63-.32.39-.59.67-.45.54-.33.37-.44.51-.55.63-.32.39-.59.67-.45.54-.33.37-.44.51-.55.63-.32.39-.59.67-.45.54-.33.37-.44.51-.55.63-.32.39-.59.67-.45.54-.33.37-.44.51-.55.63-.44.53-.31.36c-1.21,1.34-1.81,2.81-1.75,4.62.09,1.4.76,2.64,1.71,3.65l.08.09c.6.65,1.41,1.08,2.24,1.36l.12.04c.54.17,1.06.22,1.63.22h.18c1.55-.02,3.02-.71,4.1-1.81l.37-.45.39-.47.18-.21.27-.33,1.03-1.25.33-.4.21-.26.77-.93.69-.84.33-.4.21-.26.77-.93.69-.84.87-1.06.69-.84.33-.4.21-.26.5-.61.09-.11.18-.22.37-.46q.31-.41.56-.48c.27-.03.5-.04.75.08.17.16.29.33.36.55l.17.13.49.44.29.27.6.55.22.21.11.1.48.45.09.08.65.6.73.68.61.56,1.13,1.06.95.88,1.14,1.06.95.88,1.14,1.06.95.88,1.14,1.06.95.88,1.14,1.06.95.88,1.14,1.06.95.88,1.14,1.06.95.88,1.14,1.06.87.81.23.21.32.29,1.67,1.63.43.43.27.27.12.12.11.11.29.26.81.78.18.18.38.38.6.6,1.39,1.39,1.27,1.27.6.6.37.37.17.17.81.77.39.37.08.08.27.27.19.19.49.49.5.5.98.98.35-.25.36-.34.53-.48.51-.46.59-.53.6-.55.41-.38.89-.81.73-.67.58-.52.42-.38.54-.49.12-.11.26-.23.13-.12.12-.11q.1-.09.14-.24l-.05-.2-.04-.12-.05-.13-.05-.14-.15-.45-.1-.28-.49-1.44-1.21-3.56-.53-1.57-.05-.16-.86-2.56-1.2-3.55-1.24-3.68-1.24-3.67-.99-2.94-.03-.1-.33-.96-.16-.47-.03-.09-.46-1.37-.27-.81-.22-.67-.14-.41-.06-.19-.09-.26-.05-.15c-.1-.16-.18-.16-.36-.21l-.44-.06-.13-.02-.44-.05-.31-.04-.67-.09-1.07-.13-1.69-.21-3.02-.38-1.06-.13-.66-.08-.31-.04q-1.51-.19-1.85-.43l-.1-.07-.3-.2-.17-.11-.35-.23-.79-.52-.33-.22-.09-.06-1.04-.68-1.49-.98-1.47-.97-.1-.06-.79-.52-1.17-.77-.59-.39-.4-.26-.19-.12-.26-.17-.15-.1c-.22-.14-.41-.13-.67-.13h-.14s-.47,0-.47,0h-.34s-3.68.03-3.68.03ZM31.73,15.4l-.03.1-1.31,3.9-.96,2.82-.39,1.15-.04.13-.75,2.22-1.03,3.04-.3.88-.04.11-.77,2.27-.06.19-.06.19-.09.28-.06.19-.75,2.22-.07.2-.27.79-.47,1.39-.03.1-.17.49-.3.89-.17.49-.07.2-.17.49-.07.2-.17.49-.3.88-.16.49-.03.1-.46,1.36-.26.77-.21.62-.1.29-.12.35-.11.31-.11.31-.06.16-.05.14q-.04.12.01.23l.2.23.08.08.09.08.09.09.67.57.45.4.58.51.75.67.69.61.17.15.09.08.54.48c.3.27.6.54.94.77l.07-.09.81-.9.14-.14.29-.29.37-.37.29-.29.2-.2.65-.61.5-.49.11-.11.35-.36.47-.47.11-.11.49-.47.61-.58.12-.12.36-.37.48-.48.11-.11.6-.56.51-.5.12-.12.36-.37.48-.48.11-.11.61-.57.3-.29c1.13-1.17,2.37-1.9,4.04-1.94,1.36.04,2.63.56,3.58,1.53.81.86,1.27,1.97,1.33,3.14v.12s.02.28.02.28l.17-.07c1.55-.61,3.24-.7,4.79-.02.54.24,1,.54,1.45.92l.15.12c.22.19.4.42.58.66l.1.13c.77,1.01,1.12,2.19,1.13,3.45v.17s-.09.93-.09.93l-.02.37.12-.02,1.16-.09h.17c1.65.02,2.99.72,4.15,1.87,1.04,1.11,1.49,2.62,1.46,4.11-.01.4-.08.79-.16,1.17h.11c1.84-.18,3.44.07,4.92,1.23,1.2,1.02,1.88,2.39,2.04,3.95.12,1.56-.35,3.08-1.35,4.27-.37.43-.78.84-1.21,1.2l-.48.47.63.66,1.43,1.4.38.38.96.96,1.04,1.04.45.45.21.21.26.26.63.59.44.42.1.1.21.21.33.33.94.95.58.58.22.22c.92.94,1.89,1.57,3.24,1.61,1.03-.02,1.98-.42,2.73-1.12.81-.89,1.13-1.89,1.09-3.08-.06-1.23-.77-2.08-1.6-2.9l-.2-.2-.54-.54-.57-.57-.96-.95-1.1-1.1-1.18-1.18-.34-.34-.53-.53-.19-.19-.89-.84-.55-.53-.12-.12q-.44-.43-.49-.76c0-.36.07-.53.32-.8.26-.15.51-.16.8-.09.3.12.5.37.72.6l.26.27.12.12.29.27.87.84.19.19.41.42.66.66,1.51,1.51,1.39,1.39.65.65.41.41.19.19.86.82.32.31.13.13.07.07.29.3.54.55.38.39.14.15c.49.5,1.03.85,1.69,1.08l.13.05c.93.29,1.91.1,2.76-.33.26-.14.49-.29.71-.49l.1-.09c.67-.62,1.02-1.53,1.08-2.43.02-.67-.09-1.27-.39-1.88l-.04-.09c-.29-.56-.76-.99-1.2-1.42l-.19-.19-.39-.39-.5-.5-.39-.39-.18-.18-.26-.26-.08-.08-.41-.38-.71-.68-.15-.15-.32-.32-.5-.51-1.16-1.16-1.07-1.07-.5-.5-.31-.31-.14-.14-.74-.7-.28-.26-.1-.1-.11-.11-.11-.11-.24-.24-.36-.36-.23-.23-.11-.11c-.25-.25-.44-.47-.44-.85,0-.24.05-.37.22-.56l.06-.08c.23-.17.48-.17.75-.14.27.08.47.28.66.48l.07.07.24.24.17.17.43.44.69.7.24.24.15.15.13.13.31.28.85.82.19.19.41.41.64.64,1.48,1.48,1.36,1.36.64.64.4.4.18.18.85.81.38.38.17.17.26.26c.74.76,1.62,1.33,2.72,1.39h.13c1,.04,2-.31,2.75-.98.78-.73,1.23-1.72,1.27-2.78,0-.66-.11-1.25-.4-1.84l-.04-.09c-.29-.56-.77-1-1.21-1.44l-.19-.19-.4-.4-.51-.51-.39-.39-.19-.19-.26-.26-.08-.08-.41-.37-.79-.76-.17-.17-.37-.37-.58-.58-1.34-1.35-1.23-1.23-.58-.58-.36-.36-.17-.17-.8-.76-.42-.4-.09-.09-.19-.19-.29-.29-.19-.19-.09-.09c-.26-.26-.39-.47-.42-.84,0-.25.11-.41.27-.6.18-.15.32-.16.55-.17h.15c.32.04.53.28.74.5l.08.08.26.27.26.27.16.17.41.38.72.69.15.15.32.32.5.5,1.15,1.15,1.06,1.06.5.5.31.31.14.14.62.59.75.72.16.16.35.35.56.56.19.19.1.1,1.29,1.3.87.88.46.46.43.44.16.16c.94.95,2.09,1.6,3.45,1.62.5,0,.96,0,1.44-.16l.09-.03c1.22-.39,2.17-1.21,2.77-2.34.56-1.1.66-2.38.28-3.56-.22-.66-.54-1.22-1.03-1.72l-.28-.31-.31-.31-.69-.66-.14-.14-.3-.3-.47-.47-1.08-1.09-.99-1-.47-.47-.29-.29-.2-.2-.54-.51-.67-.64-.14-.14-.3-.3-.47-.47-1.08-1.09-.99-1-.47-.47-.29-.29-.2-.2-.65-.61-.32-.3-.13-.13-.13-.13-.14-.14-.51-.51-.43-.44-.2-.2-.75-.7-.2-.18-.1-.09-.1-.1-.75-.7-.67-.63-.68-.63-.77-.72-.66-.62-.61-.56-.65-.6-.75-.69-.59-.55-.77-.72-.59-.54-.77-.72-.59-.54-.77-.72-.59-.54-.68-.63-1-.92-1.09-1.01-.59-.54-.77-.72-.59-.54-.77-.72-.59-.54-.77-.72-.66-.62-.61-.56-.79-.73-.34-.31-.1-.09-.18-.17-.65-.53-.08.1-.69.84-.21.26-1.11,1.35-.91,1.11-.55.66-.47.57-.99,1.2-.81.98-.99,1.2-.91,1.11-.28.34-.09.11-.18.22-.43.55c-1.22,1.53-3.03,2.45-4.97,2.69-1.82.19-3.71-.23-5.19-1.34l-.15-.11c-1.56-1.13-2.56-2.9-2.9-4.78-.15-.94-.13-1.96.09-2.88l.02-.1c.3-1.21.92-2.26,1.72-3.2l.08-.09.47-.55.37-.43.07-.08.14-.17.36-.42.15-.17,3.2-3.74.07-.08.15-.17.36-.42.83-.97.67-.78.3-.35.08-.09.15-.17.36-.45.08-.1.06-.08-6.54-.24-.79-.03h-.16s-2.17-.09-2.17-.09l-8.5-.32h-.15s-3.58-.14-3.58-.14h-.27s-.13-.01-.13-.01l-.91-.03-1.09-.04-.55-.02-.59-.02h-.17s-.16-.01-.16-.01h-.14s-.42,0-.42,0ZM37.37,43.15l-.24.24-.14.15-.4.37-.61.58-.11.11-.35.36-.47.47-.11.11-.59.55-.5.49-.11.11-.35.36-.47.47-.11.11-.59.55-.5.49-.11.11-.35.36-.47.47-.11.11-.59.55-.54.52-.12.12-.26.25-.26.26-.38.38-.12.11c-.64.65-1.02,1.48-1.06,2.4.03.77.27,1.46.75,2.07l.08.1c.52.66,1.34,1,2.16,1.11.82.07,1.7-.13,2.35-.66l.42-.41.1-.1.16-.16.26-.24.62-.59.11-.11.35-.36.47-.47.11-.11.59-.55.5-.49.11-.11.35-.36.47-.47.11-.11.59-.55.5-.49.11-.11.35-.36.47-.47.11-.11.49-.46.62-.6.12-.12.38-.38.49-.5.11-.11.62-.58c.66-.57,1.02-1.38,1.1-2.24.03-1.01-.3-1.85-.98-2.58-.66-.62-1.55-.96-2.46-.94-1.12.09-1.92.67-2.67,1.45ZM44.1,48.13l-.31.31-.19.19-.46.43-.6.58-.11.11-.35.36-.47.47-.11.11-.49.47-.61.58-.12.12-.36.37-.48.48-.11.11-.6.56-.5.49-.11.11-.35.36-.47.47-.11.11-.49.47-.61.58-.12.12-.36.37-.48.48-.11.11-.61.57-.61.59-.16.16c-.85.82-1.39,1.81-1.42,3.01-.02,1.17.38,2.21,1.19,3.07.82.79,1.93,1.2,3.07,1.19,1.64-.09,2.69-1.09,3.79-2.21l.35-.35.22-.22.49-.46.65-.62.13-.13.4-.4.52-.53.12-.12.62-.58.55-.53.13-.13.4-.4.52-.53.12-.12.62-.58.55-.53.13-.13.4-.4.52-.53.12-.12.52-.5.65-.62.13-.13.4-.4.53-.53.12-.12.61-.56c.82-.91,1.17-2.01,1.13-3.23-.06-.86-.43-1.65-.98-2.31l-.1-.12c-.6-.72-1.57-1.15-2.48-1.28-1.82-.16-2.97.66-4.19,1.9ZM51.77,54.5l-.26.24-.66.63-.13.13-.4.4-.52.53-.12.12-.62.58-.55.53-.13.13-.4.4-.52.53-.12.12-.62.58-.55.53-.13.13-.4.4-.52.53-.12.12-.62.58-.55.53-.13.13-.4.4-.52.53-.12.12-.62.58-.93.91-.27.26c-.98.96-1.7,1.95-1.77,3.36.01,1.21.47,2.22,1.3,3.1.24.23.49.41.79.57l.12.07c.94.5,2.02.59,3.04.32.91-.29,1.56-.81,2.22-1.49l.26-.26.11-.12.31-.29.61-.58.11-.11.35-.36.47-.47.11-.11.59-.55.49-.48.11-.11.34-.35.45-.46.1-.1.49-.46.6-.57.11-.11.35-.36.47-.47.11-.11.59-.55.5-.49.11-.11.35-.36.47-.47.11-.11.59-.55.94-.91.27-.26c1-.98,1.72-1.98,1.73-3.44-.01-1.05-.42-1.98-1.09-2.77l-.09-.12c-.58-.68-1.52-1.08-2.39-1.19-1.3-.08-2.53.19-3.46,1.17ZM58.63,61.63l-.6.59-.45.43-.66.63-.13.13-.4.4-.52.53-.12.12-.62.58-.55.53-.13.13-.4.4-.52.53-.12.12-.62.58-.55.53-.13.13-.4.4-.52.53-.12.12-.62.58-.55.53-.13.13-.4.4-.52.53-.12.12-.63.59c-1.04.9-1.85,1.89-2.06,3.29-.08,1.18.22,2.29,1.01,3.2.73.83,1.73,1.32,2.83,1.4,1.08.06,2.13-.29,2.94-1.01l.25-.25.27-.25.6-.58.11-.11.34-.35.45-.46.1-.1.49-.46.6-.57.11-.11.35-.36.47-.47.11-.11.59-.55.49-.48.11-.11.34-.35.45-.46.1-.1.58-.54.49-.48.11-.11.34-.35.45-.46.1-.1.49-.46.6-.57.11-.11.35-.36.47-.47.11-.11.6-.56c.85-.74,1.44-1.62,1.64-2.74l.02-.11c.15-1.02-.16-2.11-.75-2.95-.69-.9-1.69-1.5-2.81-1.66-1.34-.16-2.54.31-3.51,1.22Z"/>
</svg>